<?xml version="1.0" encoding="UTF-8" standalone="no"?>
<!-- Created with Inkscape (http://www.inkscape.org/) -->

<svg
   xmlns:dc="http://purl.org/dc/elements/1.1/"
   xmlns:cc="http://creativecommons.org/ns#"
   xmlns:rdf="http://www.w3.org/1999/02/22-rdf-syntax-ns#"
   xmlns:svg="http://www.w3.org/2000/svg"
   xmlns="http://www.w3.org/2000/svg"
   xmlns:inkscape="http://www.inkscape.org/namespaces/inkscape"
   version="1.1"
   width="269.29001"
   height="212.60001"
   viewBox="0 0 269.29 212.6"
   id="Capa_1"
   xml:space="preserve"><metadata
     id="metadata183"><rdf:RDF><cc:Work
         rdf:about=""><dc:format>image/svg+xml</dc:format><dc:type
           rdf:resource="http://purl.org/dc/dcmitype/StillImage" /></cc:Work></rdf:RDF></metadata><defs
     id="defs181" /><rect
     width="269.29001"
     height="212.672"
     x="0"
     y="-0.072999999"
     id="rect3"
     style="fill:#ffffff" /><path
     d="m 175.831,99.961 c 0,0.738 -0.393,1.132 -1.082,1.132 h -4.967 c -0.737,0 -1.131,-0.394 -1.131,-1.132 V 72.715 c 0,-0.738 0.394,-1.132 1.131,-1.132 h 3.689 c 0.982,0 1.475,0.836 1.621,1.574 1.23,-0.738 3.345,-1.574 5.461,-1.574 0.738,0 1.082,0.394 1.082,1.132 v 4.131 c 0,0.688 -0.395,1.131 -1.133,1.131 h -4.672 v 21.984 z"
     inkscape:connector-curvature="0"
     id="path5"
     style="fill:#878787" /><path
     d="m 189.552,62.484 c 0.688,0 1.131,0.443 1.131,1.133 v 4.377 c 0,0.688 -0.442,1.131 -1.131,1.131 h -5.214 c -0.688,0 -1.081,-0.443 -1.081,-1.131 v -4.377 c 0,-0.689 0.393,-1.133 1.081,-1.133 h 5.214 z m -0.098,9.099 c 0.688,0 1.082,0.394 1.082,1.132 v 27.246 c 0,0.738 -0.395,1.132 -1.082,1.132 h -4.969 c -0.736,0 -1.131,-0.394 -1.131,-1.132 V 72.715 c 0,-0.738 0.395,-1.132 1.131,-1.132 h 4.969 z"
     inkscape:connector-curvature="0"
     id="path7"
     style="fill:#878787" /><path
     d="m 210.403,67.108 c 0.738,0 1.133,0.394 1.133,1.132 v 3.147 c 0,0.885 -0.936,1.771 -1.82,2.016 0.688,0.541 0.836,1.476 0.836,2.312 v 12.689 c 0,2.41 -1.723,4.378 -4.377,4.378 h -3 v 1.868 l 4.082,0.639 c 2.409,0.394 4.327,1.968 4.327,4.378 l -0.048,2.951 c 0,2.409 -1.92,4.377 -4.379,4.377 h -9.885 c -2.656,0 -4.379,-1.426 -4.379,-3.836 v -3.787 c 0,-2.213 1.969,-3.296 4.231,-3.296 v -3.294 c -2.116,0 -3.64,-1.968 -3.64,-4.378 V 75.96 c 0,-2.409 1.967,-4.377 4.377,-4.377 h 7.182 c -0.248,-1.082 -0.395,-2.263 -0.395,-3.344 0,-0.738 0.395,-1.132 1.133,-1.132 h 4.622 z m -9.638,32.165 c -0.541,-0.05 -0.885,0.099 -0.885,0.639 v 1.525 c 0,0.492 0.195,0.738 0.738,0.64 h 3.244 c 0.345,-0.05 0.639,-0.296 0.639,-0.689 l 0.1,-1.13 c 0,-0.346 -0.197,-0.591 -0.688,-0.64 l -3.148,-0.345 z m 1.032,-22.033 c -0.738,0 -1.132,0.492 -1.132,1.131 v 7.623 c 0,0.688 0.443,1.131 1.132,1.131 h 0.442 c 0.689,0 1.082,-0.442 1.082,-1.131 v -7.623 c 0,-0.688 -0.393,-1.131 -1.082,-1.131 h -0.442 z"
     inkscape:connector-curvature="0"
     id="path9"
     style="fill:#878787" /><path
     d="m 220.683,71.583 h 5.507 c 2.41,0 4.378,1.967 4.378,4.377 v 24.001 c 0,0.738 -0.444,1.132 -1.133,1.132 h -4.965 c -0.689,0 -1.133,-0.394 -1.133,-1.132 v -21.59 c 0,-0.787 -0.442,-1.131 -1.082,-1.131 h -1.572 v 22.722 c 0,0.738 -0.395,1.132 -1.083,1.132 h -4.968 c -0.737,0 -1.131,-0.394 -1.131,-1.132 V 66.076 c 0,-0.689 0.394,-1.082 1.131,-1.082 h 4.968 c 0.688,0 1.083,0.393 1.083,1.082 v 5.507 z"
     inkscape:connector-curvature="0"
     id="path11"
     style="fill:#878787" /><path
     d="m 241.532,94.305 c 0,0.689 0.443,1.083 1.131,1.132 l 2.95,0.295 c 0.688,0.05 1.133,0.394 1.133,1.131 v 3.099 c 0,0.738 -0.444,1.132 -1.133,1.132 h -6.884 c -2.461,0 -4.377,-1.968 -4.377,-4.377 V 77.239 l -0.936,-0.245 c -0.737,-0.148 -1.131,-0.394 -1.131,-1.082 v -2.263 c 0,-0.688 0.394,-1.082 0.934,-1.377 l 1.133,-0.688 1.77,-4.673 c 0.245,-0.688 0.689,-1.131 1.426,-1.131 h 2.854 c 0.738,0 1.131,0.442 1.131,1.131 v 4.673 h 3.492 c 0.688,0 1.131,0.393 1.131,1.131 v 3.197 c 0,0.688 -0.442,1.033 -1.131,1.082 l -3.492,0.245 v 17.066 z"
     inkscape:connector-curvature="0"
     id="path13"
     style="fill:#878787" /><path
     d="m 100.994,139.902 c -0.528,0 -1.104,-0.074 -1.758,-0.229 -1.244,-0.293 -2.177,-0.789 -3.438,-1.832 -0.476,-0.395 -1.146,-0.934 -1.465,-1.178 -0.617,-0.477 -1.566,-1.664 -1.98,-2.225 -0.945,-1.277 -1.615,-1.83 -3.262,-2.689 -0.411,-0.213 -1.032,-0.588 -1.473,-1.088 -0.633,-0.121 -1.184,-0.455 -1.422,-0.615 -0.283,-0.193 -0.488,-0.314 -0.539,-0.342 0.016,0.01 0.098,0.051 0.23,0.086 -0.539,-0.17 -1.645,-0.887 -5.423,-3.926 -0.928,-0.746 -1.976,-1.584 -2.338,-1.867 -0.353,-0.275 -0.867,-0.701 -1.126,-0.943 -0.432,-0.404 -3.699,-2.615 -4.986,-3.301 -0.583,-0.311 -1.297,-0.75 -1.748,-1.236 -0.438,-0.08 -0.873,-0.25 -1.166,-0.4 -0.136,-0.066 -0.75,-0.287 -1.39,-0.449 -0.834,-0.213 -2.356,-0.822 -3.348,-1.287 -1.034,-0.486 -2.665,-1.254 -3.624,-1.707 -0.965,-0.455 -1.799,-0.77 -2.008,-0.82 -0.49,-0.096 -1.158,-0.322 -1.593,-0.541 0,0 -0.057,-0.027 -0.249,-0.027 -0.117,0 -0.262,0.01 -0.426,0.031 -0.312,0.039 -0.572,0.068 -0.835,0.068 -1.081,0 -1.673,-0.547 -2.3,-1.127 -0.615,-0.568 -1.35,-1.434 -1.35,-2.326 0,-0.953 0.826,-1.857 1.182,-2.201 0.721,-0.697 1.357,-1.102 2.486,-1.102 0.062,0 0.127,0.002 0.194,0.004 h 0.065 c 0.1,0 0.188,-0.007 0.252,-0.014 0.393,-0.224 0.84,-0.327 1.255,-0.277 0.286,-0.002 1.071,-0.04 2.068,-0.11 1.2,-0.086 2.789,-0.192 3.541,-0.237 0.864,-0.051 1.061,-0.088 2.945,-1.078 1.126,-0.59 2.817,-1.358 3.883,-1.578 0.519,-0.107 0.948,-0.189 1.364,-0.189 0.703,0 1.183,0.229 1.654,0.482 1.373,0.74 1.73,1.756 2.478,4.186 0.26,0.846 0.476,1.443 0.701,1.939 0.525,0.395 2.294,1.35 3.552,1.752 1.319,0.424 4.511,1.674 5.787,2.268 0.152,0.068 0.967,0.385 1.947,0.738 0.962,0.348 2.371,0.918 3.141,1.27 l 0.906,0.418 1.756,-0.27 c 1.176,-0.18 2.687,-0.449 3.299,-0.588 0.674,-0.154 1.637,-0.328 2.252,-0.412 l 0.208,-0.928 c 0.286,-1.285 1.217,-4.639 1.932,-5.941 0.037,-0.236 0.089,-0.775 0.095,-1.458 0.018,-1.771 0.212,-2.475 0.445,-2.873 0.049,-0.211 0.127,-0.687 0.162,-1.273 0.061,-1.022 0.182,-1.666 0.309,-2.082 -0.15,-0.408 -0.23,-0.821 -0.268,-1.039 -0.07,-0.435 -0.217,-1.322 -0.326,-1.973 -0.461,-2.762 -0.586,-3.504 0.281,-4.677 0.055,-0.074 0.102,-0.161 0.13,-0.218 0.052,-0.433 0.224,-0.893 0.396,-1.23 -0.756,-0.73 -0.798,-1.475 -0.705,-2.391 -0.731,-0.253 -1.406,-0.561 -1.836,-1.2 -0.602,-0.896 -0.35,-1.908 -0.215,-2.45 0.145,-0.577 0.459,-1.453 0.787,-2.012 0.082,-0.142 0.148,-0.282 0.181,-0.364 0.096,-0.759 0.635,-1.393 1.282,-1.804 0.141,-0.675 0.683,-1.148 1.25,-1.644 l 0.145,-0.126 -0.074,-0.242 c -0.293,-0.96 -0.463,-1.566 -0.518,-2.026 -0.024,-0.213 -0.024,-0.407 -0.006,-0.582 -0.516,-0.945 -0.086,-2.088 0.289,-2.877 0.261,-0.544 0.469,-1.104 0.502,-1.237 l 0.032,-0.138 0.604,-1.417 c 0.004,-0.488 0.123,-1.077 0.312,-1.808 0.404,-1.56 0.75,-2.117 0.938,-2.353 0.139,-0.86 0.867,-1.672 1.636,-2.183 -0.065,-0.58 -0.062,-1.497 0.108,-3.015 0.189,-1.711 0.511,-3.426 0.861,-4.587 0.289,-0.958 0.465,-1.653 0.507,-1.86 0.024,-0.405 0.133,-1.008 0.161,-1.16 0.023,-0.387 -0.236,-1.467 -0.473,-2.075 -1.08,-0.287 -2.639,-1.048 -3.084,-1.326 -0.302,-0.189 -1.188,-0.679 -1.977,-1.075 -0.736,-0.371 -1.816,-0.973 -2.349,-1.337 -1.319,-0.904 -2.264,-1.217 -3.745,-1.239 -0.074,0 -0.147,-10e-4 -0.219,-10e-4 -0.8,0 -1.156,0.066 -1.254,0.089 -1.019,0.521 -2.826,0.941 -4.087,0.943 -0.812,0 -2.025,-0.298 -2.81,-0.593 -0.344,-0.129 -0.596,-0.215 -0.778,-0.271 -0.466,0.621 -1.17,1.006 -1.912,1.006 -0.379,0 -0.748,-0.104 -1.066,-0.301 -0.379,-0.234 -0.719,-0.677 -1.013,-1.316 -1.189,-0.354 -2.271,-1.662 -2.271,-2.908 0,-1.286 1.285,-3.682 2.746,-3.985 0.227,-0.047 0.562,-0.118 0.803,-0.171 0.324,-0.2 1.215,-1 2.006,-2.036 0.807,-1.056 2.084,-2.458 3.87,-2.458 0.747,0 1.496,0.251 2.228,0.748 0.229,0.156 0.41,0.268 0.506,0.324 0.303,0.118 0.699,0.36 1.428,0.841 0.42,0.277 1.738,0.849 3.22,1.325 2.543,0.817 2.941,0.916 5.316,1.314 2.431,0.408 4.556,1.046 6.146,1.844 l 0.731,0.367 0.556,-0.221 c 1.31,-0.522 2.803,-0.826 4.318,-0.877 0.044,-0.002 0.093,-0.003 0.142,-0.003 0.028,0 2.617,0.13 3.9,0.782 0.162,0.026 0.52,0.062 0.986,0.062 0.222,0 0.461,0 0.635,-0.005 0.022,-0.03 0.046,-0.062 0.065,-0.089 0.199,-0.271 0.61,-0.826 0.749,-0.994 0.126,-0.15 0.355,-0.368 0.709,-0.496 -0.139,-0.477 -0.215,-1.359 -0.229,-3.317 -0.012,-1.42 -0.076,-2.563 -0.121,-2.847 -0.268,-1.073 0.307,-2.621 0.817,-3.3 0.026,-0.033 0.052,-0.066 0.077,-0.097 -0.347,-0.779 -0.663,-1.582 -0.223,-2.377 -0.475,-0.44 -0.616,-1.021 -0.568,-1.487 0.056,-0.527 0.363,-1.104 1.029,-1.454 0.046,-0.188 0.117,-0.347 0.196,-0.479 0.313,-0.523 0.88,-0.836 1.513,-0.836 0.348,0 0.705,0.089 1.129,0.281 0.138,0.063 0.247,0.076 0.313,0.076 0.044,0 0.124,-0.006 0.174,-0.045 0.3,-0.236 0.559,-0.396 0.778,-0.505 0.531,-0.927 1.604,-1.887 2.778,-1.887 0.18,0 0.354,0.021 0.521,0.065 0.031,-0.019 0.065,-0.039 0.104,-0.062 0.828,-0.484 1.553,-0.695 2.177,-0.628 0.572,-0.394 1.198,-0.768 1.969,-0.768 0.35,0 0.662,0.078 0.944,0.196 0.948,-0.758 2.741,-1.166 3.559,-1.166 0.432,0 0.794,0.082 1.109,0.25 0.362,0.194 0.624,0.427 0.804,0.676 l 0.241,-0.19 2.212,1.164 c 0.266,-0.184 0.625,-0.353 1.074,-0.353 0.33,0 1.434,0.115 1.776,1.608 0.079,0.345 0.136,0.79 0.214,1.492 l 0.01,0.093 c 1.366,0.348 1.896,1.123 2.098,1.74 0.545,0.289 0.826,0.646 0.971,0.978 0.051,-0.003 0.1,-0.005 0.146,-0.005 0.367,0 0.734,0.1 1.121,0.306 0.811,0.436 1.09,1.042 1.182,1.475 0.044,0.218 0.053,0.427 0.031,0.624 0.379,0.347 0.701,0.948 0.85,1.96 0.02,0.143 0.045,0.312 0.062,0.498 0.13,0.079 0.262,0.182 0.394,0.312 0.966,0.967 0.772,3.089 0.363,4.269 0.579,0.59 0.929,1.244 0.844,2.309 -0.028,0.339 -0.064,0.953 -0.081,1.344 -0.026,0.715 -0.224,1.326 -0.562,1.811 0.634,-0.275 1.196,-0.568 1.638,-0.861 1.396,-0.932 4.284,-1.83 6.418,-2.236 1.688,-0.322 6.701,-2.029 8.939,-3.044 0.446,-0.202 1.242,-0.551 1.773,-0.776 0.441,-0.187 1.366,-0.977 2.749,-2.349 2.036,-2.022 2.853,-2.736 3.935,-2.743 0.123,-0.01 0.534,-0.093 0.885,-0.219 0.322,-0.116 1.023,-0.354 1.411,-0.44 0.071,-0.025 0.229,-0.1 0.327,-0.163 0.396,-0.26 1.089,-0.562 1.742,-0.562 1.039,0 2.414,0.778 3.082,1.343 0.135,0.092 0.604,0.341 1.126,0.548 1.8,0.712 2.05,1.358 2.154,1.634 0.242,0.629 0.114,1.349 -0.355,2.031 -0.2,0.293 -0.7,0.909 -1.44,1.107 -0.207,0.187 -0.714,0.62 -1.518,0.62 -0.314,0 -0.615,-0.068 -0.898,-0.154 -0.172,1.479 -1.32,2.574 -3.018,2.837 -0.369,0.058 -0.994,0.155 -1.392,0.218 -0.108,0.016 -0.27,0.146 -0.487,0.386 -0.68,0.759 -3.203,2.61 -4.578,2.683 -0.015,0.004 -0.034,0.009 -0.045,0.014 -1.529,0.771 -2.188,1.16 -3.498,2.075 -4.08,2.845 -5.973,3.954 -10.12,5.935 -4.663,2.226 -5.405,2.521 -7.923,2.749 -0.642,0.059 -2.326,0.371 -3.812,0.745 l -2.422,0.61 -2.879,1.487 c -0.246,0.178 -0.477,0.343 -0.693,0.497 -1.65,1.177 -1.953,1.44 -2.078,2.119 l -0.049,0.257 -0.127,0.229 c -0.835,1.495 -1.434,2.75 -1.84,4.385 -0.126,0.5 -0.361,1.088 -0.588,1.656 -0.158,0.395 -0.396,0.986 -0.434,1.197 -0.057,0.687 -0.238,1.687 -0.506,2.283 -0.132,0.292 -0.25,0.595 -0.346,0.9 l -0.015,0.045 c -0.226,0.639 -0.406,0.992 -0.553,1.276 -0.072,0.142 -0.13,0.253 -0.19,0.393 -0.055,0.13 -0.108,0.294 -0.161,0.452 -0.073,0.229 -0.144,0.444 -0.246,0.646 -0.2,0.393 -0.435,0.962 -1.136,2.771 -0.377,0.961 -1.009,2.27 -1.443,2.977 -0.299,0.486 -0.527,0.963 -0.587,1.127 -0.083,0.411 -0.279,0.996 -0.437,1.384 -0.032,0.077 -0.07,0.197 -0.111,0.339 l 1.562,-0.059 c 1.922,-0.072 4.537,-0.217 5.831,-0.322 1.194,-0.098 3.786,-0.168 6.161,-0.168 0.275,0 0.545,0 0.807,0.003 0.801,0.006 1.458,0.01 2.006,0.01 2.164,0 2.303,-0.06 2.886,-0.312 0.677,-0.29 1.443,-0.561 2.46,-0.561 0.732,0 1.514,0.135 2.459,0.335 0.903,0.192 2.391,0.284 4.684,0.292 3.857,0.013 5.146,0.097 6.555,1.771 0.977,1.162 1.535,4.255 1.031,5.706 -0.02,0.054 -0.035,0.103 -0.05,0.146 0.027,0.017 0.061,0.033 0.094,0.052 1.702,0.912 5.862,3.717 7.68,5.175 0.923,0.743 1.812,1.437 2.063,1.619 0.307,0.226 1.064,0.799 1.69,1.279 2.643,2.03 6.579,4.426 7.458,4.721 0.236,0.079 0.678,0.229 0.79,0.237 0.065,-0.007 0.359,-0.101 0.502,-0.146 1.216,-0.386 2.062,-0.805 3.616,-1.792 2,-1.271 2.01,-1.313 2.18,-2.013 0.272,-1.143 0.672,-1.848 1.523,-2.692 0.25,-0.247 0.444,-0.49 0.527,-0.614 0.264,-0.807 0.998,-1.389 1.154,-1.505 0.422,-0.315 0.904,-0.607 1.565,-0.607 0.445,0 0.808,0.141 1.074,0.262 0.946,0.431 1.419,1.177 1.442,2.279 0.002,0.192 0.045,0.439 0.068,0.523 0.241,0.64 0.18,1.412 0.048,1.9 -0.005,0.071 0.007,0.295 0.108,0.626 0.17,0.556 0.351,1.398 0.352,1.936 0.008,1.563 -1.042,3.262 -3.036,4.909 -0.784,0.649 -1.396,1.257 -1.54,1.435 -0.219,0.338 -0.534,0.759 -0.76,1.015 -0.214,0.345 -0.588,1.507 -0.598,1.873 -0.01,2.309 -1.993,6.043 -4.088,6.84 -0.528,0.199 -1.039,0.297 -1.564,0.297 -1.695,0 -3.279,-1.029 -5.285,-2.691 -1.004,-0.834 -2.854,-2.195 -4.035,-2.977 -2.508,-1.656 -8.083,-4.431 -10.658,-5.303 -2.521,-0.855 -4.264,-1.688 -6.431,-3.066 -0.323,-0.208 -0.615,-0.382 -0.853,-0.521 -0.094,0.095 -0.193,0.199 -0.302,0.316 -0.784,0.855 -1.402,1.531 -2.487,1.531 -0.249,0 -0.472,-0.039 -0.657,-0.076 -0.481,-0.098 -1.075,-0.336 -1.533,-0.608 -0.323,0.05 -0.644,0.05 -0.911,0.05 -0.08,0 -1.986,-0.003 -2.932,-0.373 -0.17,-0.066 -0.902,-0.285 -1.668,-0.477 -0.338,-0.084 -0.757,-0.183 -0.98,-0.183 -0.056,0 -0.117,0.004 -0.264,0.047 -0.555,0.167 -1.461,0.289 -2.152,0.291 -0.354,0.002 -1.016,0.113 -1.338,0.227 -0.52,0.183 -1.288,0.398 -1.752,0.459 -0.194,0.024 -0.902,0.165 -1.619,0.335 -0.98,0.234 -3.018,0.372 -6.811,0.459 -6.471,0.148 -9.314,0.327 -10.483,0.659 -1.647,0.467 -1.665,0.502 -1.88,0.922 -0.327,0.642 -1.135,1.876 -1.727,2.698 -0.57,0.793 -1.738,2.862 -2.549,4.518 -0.786,1.607 -1.916,3.746 -2.445,4.545 -0.76,1.141 -3.421,5.439 -3.848,6.215 -0.506,0.922 -4.008,5.752 -5.311,7.375 -0.686,0.854 -1.529,1.908 -1.875,2.344 -0.373,0.469 -1.174,1.385 -1.82,2.088 -0.604,0.654 -1.286,1.508 -1.52,1.865 -0.246,0.379 -0.695,1.041 -0.921,1.312 -0.089,0.107 -0.487,0.656 -0.911,1.273 -0.709,1.043 -1.925,2.433 -4.15,2.433 z M 90.047,128.617 c 0.105,0.086 0.289,0.215 0.507,0.326 2.06,1.074 3.115,1.953 4.343,3.613 0.593,0.803 1.208,1.469 1.373,1.602 0.343,0.266 1.04,0.824 1.546,1.244 0.985,0.814 1.479,1.033 2.146,1.189 0.414,0.098 0.752,0.146 1.032,0.146 0.463,0 0.872,-0.08 1.553,-1.068 0.316,-0.459 0.865,-1.238 1.083,-1.5 0.07,-0.084 0.374,-0.512 0.705,-1.018 0.399,-0.613 1.251,-1.643 1.844,-2.285 0.584,-0.631 1.349,-1.506 1.671,-1.912 0.347,-0.436 1.192,-1.494 1.883,-2.354 1.312,-1.633 4.659,-6.289 5.006,-6.918 0.473,-0.859 3.153,-5.195 3.985,-6.443 0.346,-0.52 1.349,-2.365 2.238,-4.182 0.904,-1.85 2.143,-4.035 2.822,-4.977 0.626,-0.869 1.279,-1.903 1.477,-2.288 0.785,-1.538 1.676,-1.914 3.834,-2.526 1.508,-0.429 4.249,-0.617 11.275,-0.78 3.367,-0.077 5.438,-0.202 6.149,-0.372 0.639,-0.151 1.536,-0.343 1.941,-0.395 0.136,-0.02 0.661,-0.148 1.116,-0.309 0.65,-0.229 1.671,-0.402 2.373,-0.404 0.41,-0.001 1.022,-0.086 1.258,-0.157 0.975,-0.293 1.773,-0.19 2.922,0.099 0.707,0.178 1.627,0.436 2.031,0.591 0.218,0.064 1.035,0.161 1.797,0.161 0.137,0 0.239,-0.002 0.311,-0.006 0.221,-0.101 0.464,-0.154 0.719,-0.154 0.587,0 1.121,0.29 1.464,0.533 0.07,0.051 0.227,0.125 0.366,0.182 0.145,-0.151 0.312,-0.332 0.396,-0.423 1.368,-1.495 1.935,-1.619 2.438,-1.619 0.338,0 0.723,0 2.75,1.291 1.956,1.247 3.461,1.964 5.748,2.739 2.811,0.953 8.663,3.863 11.385,5.661 1.283,0.846 3.216,2.273 4.31,3.179 1.642,1.359 2.647,1.965 3.267,1.965 0.135,0 0.274,-0.029 0.439,-0.092 0.631,-0.299 2.041,-2.637 2.047,-3.896 0.006,-1.037 0.688,-3.173 1.382,-3.939 0.104,-0.116 0.35,-0.44 0.496,-0.669 0.456,-0.711 1.995,-1.994 2.168,-2.138 1.497,-1.238 1.891,-2.148 1.891,-2.456 -0.006,-0.118 -0.087,-0.601 -0.219,-1.029 -0.17,-0.562 -0.331,-1.361 -0.193,-2.114 -0.177,0.211 -0.364,0.408 -0.536,0.579 -0.432,0.428 -0.539,0.615 -0.676,1.18 -0.455,1.9 -1.218,2.46 -3.561,3.948 -1.776,1.128 -2.874,1.668 -4.354,2.138 -0.561,0.177 -0.965,0.295 -1.467,0.295 -0.596,0 -1.125,-0.179 -1.792,-0.403 -1.501,-0.504 -5.935,-3.334 -8.378,-5.211 -0.599,-0.46 -1.346,-1.025 -1.631,-1.234 -0.361,-0.263 -1.391,-1.075 -2.178,-1.707 -1.639,-1.318 -5.673,-4.038 -7.191,-4.852 -1.78,-0.953 -2.215,-2.08 -1.543,-4.016 0.125,-0.517 -0.177,-2.208 -0.47,-2.654 -0.421,-0.498 -0.555,-0.617 -4.133,-0.629 -2.55,-0.008 -4.194,-0.119 -5.331,-0.361 -0.887,-0.188 -1.41,-0.265 -1.801,-0.265 -0.383,0 -0.676,0.074 -1.21,0.303 -1.136,0.488 -1.715,0.569 -4.136,0.569 -0.555,0 -1.22,-0.005 -2.029,-0.011 -2.428,-0.019 -5.457,0.054 -6.686,0.154 -1.334,0.109 -4.012,0.258 -5.973,0.331 l -5.422,0.203 0.41,-2.84 c 0.08,-0.559 0.287,-1.451 0.513,-2.003 0.13,-0.317 0.245,-0.711 0.266,-0.819 0.13,-0.721 0.848,-1.919 0.991,-2.15 0.332,-0.543 0.888,-1.696 1.189,-2.47 0.752,-1.935 0.994,-2.521 1.251,-3.03 0.023,-0.061 0.048,-0.137 0.075,-0.222 0.066,-0.201 0.147,-0.452 0.256,-0.706 0.104,-0.248 0.201,-0.437 0.285,-0.603 0.123,-0.236 0.228,-0.439 0.377,-0.859 0.131,-0.413 0.289,-0.823 0.467,-1.217 0.057,-0.139 0.195,-0.713 0.238,-1.253 0.045,-0.592 0.324,-1.292 0.65,-2.102 0.178,-0.448 0.383,-0.956 0.453,-1.248 0.471,-1.884 1.154,-3.356 2.031,-4.949 0.423,-1.802 1.582,-2.628 3.297,-3.852 0.236,-0.169 0.492,-0.352 0.768,-0.551 l 0.098,-0.07 3.416,-1.765 2.779,-0.7 c 1.526,-0.384 3.416,-0.749 4.299,-0.828 1.924,-0.174 2.233,-0.252 6.844,-2.454 3.958,-1.889 5.767,-2.949 9.673,-5.674 1.434,-0.999 2.235,-1.475 3.9,-2.312 0.278,-0.141 0.741,-0.302 1.198,-0.336 0.51,-0.185 2.017,-1.125 2.48,-1.641 0.463,-0.515 1.209,-1.22 2.352,-1.399 0.396,-0.062 1.024,-0.16 1.395,-0.218 0.208,-0.032 0.316,-0.083 0.363,-0.111 0,-0.793 0.148,-1.699 1.235,-2.412 0.262,-0.171 0.568,-0.346 0.943,-0.436 -0.053,-0.039 -0.103,-0.078 -0.147,-0.117 -0.281,-0.243 -0.757,-0.479 -1.016,-0.568 -0.014,0.007 -0.027,0.014 -0.036,0.019 -0.353,0.23 -0.915,0.509 -1.376,0.604 -0.1,0.023 -0.545,0.156 -1.023,0.329 -0.461,0.166 -1.137,0.344 -1.672,0.393 -0.449,0.311 -1.594,1.444 -1.987,1.837 -1.813,1.798 -2.862,2.645 -3.745,3.018 -0.512,0.217 -1.274,0.55 -1.7,0.743 -2.493,1.131 -7.726,2.903 -9.655,3.271 -2.261,0.431 -4.486,1.249 -5.254,1.761 -2.467,1.645 -7.33,3.08 -10.225,3 -0.926,-0.025 -2.326,-0.062 -2.974,-1.159 -0.257,-0.439 -0.46,-1.166 0.046,-2.144 0.322,-0.62 0.991,-1.913 2.637,-1.913 0.147,0 0.3,0.01 0.467,0.031 0.025,0.003 0.039,0.004 0.046,0.004 0.005,-10e-4 0.103,-0.019 0.407,-0.217 1.491,-0.959 2.135,-1.295 3.498,-1.295 0.039,0 0.074,-10e-4 0.104,-0.003 0,-0.002 0,-0.005 0,-0.007 0.017,-0.405 0.048,-0.982 0.079,-1.374 -0.013,-0.013 -0.027,-0.025 -0.043,-0.04 l -1.482,-1.354 0.841,-1.762 c 0.019,-0.04 0.036,-0.088 0.052,-0.142 -0.853,-0.204 -1.453,-0.989 -1.453,-1.984 0,-0.084 0.005,-0.168 0.016,-0.251 -0.291,-0.146 -0.484,-0.344 -0.596,-0.487 -0.408,-0.521 -0.404,-1.095 -0.348,-1.466 -0.043,-0.108 -0.076,-0.222 -0.096,-0.338 -0.038,-0.214 -0.038,-0.43 0.004,-0.646 -0.379,-0.209 -0.651,-0.501 -0.816,-0.68 -0.254,-0.274 -0.442,-0.51 -0.579,-0.72 -0.616,-0.287 -1.073,-0.802 -1.255,-1.394 -0.032,-0.008 -0.066,-0.014 -0.105,-0.02 l -1.92,-0.312 -0.221,-1.997 -1.854,-0.977 c -0.54,0.349 -1.112,0.53 -1.678,0.53 -0.869,0 -1.646,-0.43 -2.144,-1.167 -0.032,0.068 -0.069,0.136 -0.11,0.199 -0.346,0.552 -0.904,0.869 -1.529,0.869 -0.623,0 -1.101,-0.306 -1.568,-0.658 -0.049,0.031 -0.107,0.071 -0.176,0.118 -0.616,0.427 -1.332,0.625 -1.966,0.538 -0.075,0.03 -0.194,0.085 -0.358,0.183 -0.549,0.32 -1.094,0.609 -1.72,0.609 -0.122,0 -0.265,-0.012 -0.423,-0.045 -0.046,0.053 -0.09,0.112 -0.125,0.176 -0.27,0.506 -0.717,1.093 -1.389,1.283 -0.047,0.029 -0.105,0.07 -0.168,0.12 -0.603,0.474 -1.34,0.723 -2.132,0.723 -0.076,0 -0.151,-0.002 -0.228,-0.006 -0.035,0.04 -0.072,0.079 -0.111,0.114 -0.002,0.121 -0.013,0.248 -0.035,0.381 0.364,0.66 0.212,1.225 0.07,1.529 -0.016,0.032 -0.035,0.069 -0.059,0.11 0.229,0.539 0.607,1.652 0.011,2.572 -0.174,0.27 -0.413,0.484 -0.691,0.63 -0.067,0.175 -0.13,0.392 -0.146,0.521 0.158,0.807 0.186,2.839 0.189,3.479 0.009,1.22 0.059,2.012 0.09,2.33 0.146,0.351 0.223,0.782 0.228,1.293 0.009,0.008 0.017,0.017 0.027,0.027 0.312,0.287 1.255,1.162 0.805,2.31 -0.253,0.644 -0.881,1.061 -1.6,1.061 -0.379,0 -0.805,-0.113 -1.36,-0.36 -0.009,0.013 -0.02,0.026 -0.029,0.039 -0.968,1.322 -1.592,1.39 -3.254,1.39 -1.527,0 -2.17,-0.231 -2.495,-0.446 -0.462,-0.147 -1.806,-0.397 -2.392,-0.397 h -0.033 c -1.156,0.039 -2.281,0.266 -3.256,0.653 l -1.876,0.747 -2.003,-1.005 c -1.311,-0.658 -3.125,-1.194 -5.25,-1.551 -2.533,-0.425 -3.07,-0.558 -5.762,-1.423 -1.383,-0.444 -3.153,-1.141 -3.994,-1.695 -0.418,-0.276 -0.712,-0.456 -0.844,-0.531 -0.275,-0.106 -0.606,-0.308 -1.123,-0.658 -0.186,-0.126 -0.354,-0.201 -0.45,-0.201 -0.044,0 -0.454,0.034 -1.354,1.214 -0.223,0.289 -2.21,2.846 -3.722,3.18 -0.17,0.037 -0.42,0.092 -0.648,0.141 -0.164,0.202 -0.365,0.553 -0.473,0.811 0.533,0.072 0.98,0.317 1.339,0.731 0.354,-0.224 0.778,-0.343 1.253,-0.343 0.574,0 1.228,0.163 2.336,0.58 0.633,0.238 1.421,0.391 1.687,0.391 0.821,-0.003 2.178,-0.342 2.671,-0.606 0.342,-0.185 0.99,-0.428 2.678,-0.428 0.086,0 0.175,0.001 0.266,0.002 2.113,0.031 3.652,0.534 5.488,1.794 0.318,0.218 1.211,0.731 1.982,1.12 0.723,0.364 1.757,0.921 2.236,1.222 0.432,0.271 1.508,0.723 2.045,0.901 0.465,-0.036 0.937,0.133 1.376,0.497 1.073,0.891 1.792,4.048 1.567,5.24 -0.065,0.355 -0.108,0.686 -0.115,0.783 -0.003,0.153 -0.029,0.576 -0.638,2.594 -0.601,1.992 -0.948,5.354 -0.866,6.247 0.217,0.387 0.507,1.069 0.201,1.827 -0.238,0.588 -0.732,0.984 -1.475,1.179 -0.104,0.049 -0.284,0.195 -0.395,0.312 -0.094,0.484 -0.339,0.925 -0.576,1.222 -0.162,0.333 -0.43,1.266 -0.55,1.867 l 0.261,0.272 -1.08,2.532 c -0.125,0.438 -0.381,1.066 -0.61,1.562 0.263,0.312 0.419,0.721 0.419,1.174 0,0.423 -0.144,0.835 -0.389,1.175 0.098,0.361 0.236,0.816 0.297,1.012 l 0.674,2.204 -1.44,1.258 c 0.077,0.298 0.079,0.608 -0.007,0.914 -0.221,0.783 -0.961,1.298 -1.816,1.261 -0.119,0.389 -0.316,0.771 -0.488,1.068 -0.112,0.19 -0.312,0.688 -0.422,1.077 0.053,0.018 0.11,0.038 0.174,0.059 l 2.223,0.737 -0.274,2.331 c -0.009,0.069 -0.015,0.131 -0.021,0.182 0.584,0.545 1.398,1.712 0.391,3.476 -0.033,0.059 -0.068,0.15 -0.086,0.206 -0.062,0.76 -0.567,1.499 -0.729,1.717 -0.008,0.012 -0.015,0.021 -0.021,0.028 0.003,0.362 0.177,1.398 0.318,2.244 0.109,0.655 0.257,1.548 0.327,1.985 0.032,0.188 0.081,0.362 0.112,0.454 0.426,0.643 0.438,1.438 0.034,2.102 -0.047,0.215 -0.117,0.685 -0.151,1.265 -0.092,1.516 -0.325,2.215 -0.51,2.562 -0.033,0.186 -0.084,0.638 -0.092,1.426 -0.022,2.205 -0.32,2.744 -0.529,3.015 -0.274,0.516 -1.122,3.016 -1.574,5.043 l -0.691,3.1 -2.113,0.266 c -0.504,0.066 -1.44,0.234 -2.045,0.373 -0.693,0.158 -2.24,0.434 -3.52,0.629 l -2.692,0.412 -1.769,-0.811 c -0.691,-0.318 -2.019,-0.854 -2.896,-1.172 -0.703,-0.254 -1.871,-0.688 -2.207,-0.846 -1.145,-0.533 -4.234,-1.744 -5.418,-2.123 -0.045,-0.014 -4.594,-1.65 -5.336,-3.174 -0.336,-0.693 -0.627,-1.473 -0.976,-2.602 -0.669,-2.175 -0.782,-2.237 -0.956,-2.331 -0.1,-0.054 -0.16,-0.084 -0.194,-0.101 -0.161,0.016 -0.532,0.091 -0.681,0.122 -0.488,0.101 -1.723,0.584 -3.05,1.282 -2.028,1.064 -2.709,1.344 -4.229,1.436 -0.742,0.045 -2.314,0.148 -3.506,0.232 -0.934,0.068 -1.775,0.111 -2.209,0.119 -0.402,0.195 -0.936,0.291 -1.59,0.291 -0.053,0 -0.105,0 -0.158,-0.002 -0.059,-0.002 -0.119,-0.002 -0.156,0 -0.029,0.023 -0.073,0.061 -0.137,0.119 0.007,0.006 0.014,0.014 0.021,0.021 0.075,0.068 0.204,0.186 0.304,0.273 0.099,-0.01 0.216,-0.023 0.292,-0.033 0.299,-0.037 0.564,-0.055 0.816,-0.055 0.637,0 1.184,0.119 1.672,0.365 0.176,0.088 0.574,0.221 0.774,0.26 0.819,0.154 2.675,1.029 2.755,1.066 0.957,0.451 2.585,1.219 3.618,1.703 1.027,0.482 2.292,0.959 2.784,1.084 0.677,0.172 1.599,0.469 2.054,0.703 0.081,0.041 0.214,0.086 0.284,0.1 0.701,0.027 1.389,0.414 1.791,0.998 0.139,0.111 0.467,0.34 0.881,0.561 1.299,0.691 4.902,3.07 5.664,3.785 0.139,0.131 0.56,0.484 0.914,0.762 0.369,0.289 1.431,1.137 2.368,1.891 1.799,1.449 3.948,3.061 4.485,3.414 0.262,0.109 0.576,0.301 1.04,0.615 0.056,0.037 0.112,0.068 0.159,0.09 0.834,-0.07 1.558,0.358 1.918,1.1 z m 11.005,-20.9 c -0.034,0.043 -0.063,0.082 -0.09,0.123 0.031,-0.047 0.06,-0.088 0.09,-0.123 z m 18.245,-66.494 c 0.134,0.077 0.249,0.161 0.341,0.253 -0.123,-0.121 -0.244,-0.201 -0.341,-0.253 z"
     inkscape:connector-curvature="0"
     id="path15"
     style="fill:#010202" /><path
     d="m 91.153,117.836 3.596,17.035 4.85,3.262 -8.446,-20.297 z"
     inkscape:connector-curvature="0"
     id="path3292_6_"
     style="fill:#cc4117" /><path
     d="m 152.356,81.118 -25.355,16.985 5.869,-17.234 19.486,0.249 z"
     inkscape:connector-curvature="0"
     id="path3220_6_"
     style="fill:#7dbd67" /><path
     d="m 127.001,98.103 13.865,-0.749 16.391,-17.248 -4.9,1.012 -25.356,16.985 z"
     inkscape:connector-curvature="0"
     id="path3226_6_"
     style="fill:#4cbab1" /><path
     d="m 140.866,97.354 5.869,-6.494 7.993,3.372 -10.024,6.073 -6.427,0.072 2.589,-3.023 z"
     inkscape:connector-curvature="0"
     id="path3228_6_"
     style="fill:#009948" /><path
     d="m 127.001,98.103 -9.242,3.123 4.096,1.212 6.754,-0.741 -1.608,-3.594 z"
     inkscape:connector-curvature="0"
     id="path3230_6_"
     style="fill:#185025" /><path
     d="m 127.001,98.103 13.865,-0.749 -1.751,2.276 -10.615,2.096 -1.499,-3.623 z"
     inkscape:connector-curvature="0"
     id="path3234_6_"
     style="fill:#3d6875" /><path
     d="m 154.729,94.232 8.243,5.745 -8.912,-2.233 -9.455,2.314 10.124,-5.826 z"
     inkscape:connector-curvature="0"
     id="path3238_6_"
     style="fill:#284820" /><path
     d="m 154.729,94.232 2.429,-14.176 9.188,0.812 -11.617,13.364 z"
     inkscape:connector-curvature="0"
     id="path3240_6_"
     style="fill:#9ec9ed" /><path
     d="m 163.12,99.927 2.729,-2.612 -4.624,-3.333 -6.496,0.25 8.391,5.695 z"
     inkscape:connector-curvature="0"
     id="path3242_6_"
     style="fill:#248f96" /><path
     d="m 161.62,94.279 4.725,-13.41 -11.616,13.363 6.891,0.047 z"
     inkscape:connector-curvature="0"
     id="path3244_6_"
     style="fill:#3cb9be" /><path
     d="m 166.345,80.869 0,0 2.498,6.244 0.297,-5.172 -2.795,-1.072 z"
     inkscape:connector-curvature="0"
     id="path3246_6_"
     style="fill:#034896" /><path
     d="m 166.345,80.869 -1.625,4.495 4.643,2.466 -3.018,-6.961 z"
     inkscape:connector-curvature="0"
     id="path3248_6_"
     style="fill:#3566af" /><path
     d="m 164.72,85.364 c 3.85,1.778 7.403,3.852 10.658,6.223 l -12.031,-2.351 1.373,-3.872 z"
     inkscape:connector-curvature="0"
     id="path3250_6_"
     style="fill:#ffe533" /><path
     d="m 163.347,89.236 -1.924,5.043 8.294,6.324 -6.37,-11.367 z"
     inkscape:connector-curvature="0"
     id="path3252_6_"
     style="fill:#825412" /><path
     d="m 163.347,89.236 16.736,15.238 -10.366,-3.871 -6.37,-11.367 z"
     inkscape:connector-curvature="0"
     id="path3254_6_"
     style="fill:#904224" /><path
     d="m 163.347,89.236 26.479,16.236 -14.027,-13.91 -12.452,-2.326 z"
     inkscape:connector-curvature="0"
     id="path3256_6_"
     style="fill:#fab52e" /><path
     d="m 189.825,105.472 -9.742,-0.998 -16.736,-15.238 26.478,16.236 z"
     inkscape:connector-curvature="0"
     id="path3258_6_"
     style="fill:#cf5416" /><path
     d="m 180.083,104.474 9.367,6.37 0.375,-5.372 -9.742,-0.998 z"
     inkscape:connector-curvature="0"
     id="path3260_6_"
     style="fill:#5a2b81" /><path
     d="m 189.825,105.472 0.625,-4.37 -3.595,-1.472 -9.819,-6.485 12.789,12.327 -0.375,5.372 3.727,1.562 -3.352,-6.934"
     inkscape:connector-curvature="0"
     id="path3262_6_"
     style="fill:#8e539c" /><path
     d="m 193.103,112.629 1.536,-0.344 2.761,-5.137 -7.574,-1.676 0,0 3.277,7.157 z"
     inkscape:connector-curvature="0"
     id="path3264_6_"
     style="fill:#064e99" /><path
     d="m 189.825,105.472 0.625,-4.37 2.938,-0.858 5.304,-3.139 -8.867,8.367 z"
     inkscape:connector-curvature="0"
     id="path3266_6_"
     style="fill:#474e9c" /><path
     d="m 189.825,105.472 8.867,-8.367 -0.526,7.348 -0.938,2.729 -7.403,-1.71 z"
     inkscape:connector-curvature="0"
     id="path3268_6_"
     style="fill:#3174ba" /><path
     d="m 198.692,97.105 4.078,-1.679 -0.879,-3.71 -1.524,1.205 -2.581,4.696 0.906,-0.512 z"
     inkscape:connector-curvature="0"
     id="path3272_6_"
     style="fill:#84cee9" /><path
     d="m 202.747,99.381 -4.055,-2.276 -0.477,6.705 4.555,-4.554"
     inkscape:connector-curvature="0"
     id="path3274_6_"
     style="fill:#9bbacc" /><path
     d="m 117.759,101.226 -14.692,-13.471 23.935,10.348 -9.243,3.123 z"
     inkscape:connector-curvature="0"
     id="path3278_6_"
     style="fill:#9a6814" /><path
     d="m 127.001,98.103 5.869,-17.234 -16.271,12.737 10.402,4.497 z"
     inkscape:connector-curvature="0"
     id="path3280_6_"
     style="fill:#bcc03c" /><path
     d="m 116.599,93.606 16.271,-12.737 -17.125,3.795 -12.679,3.092 13.533,5.85 z"
     inkscape:connector-curvature="0"
     id="path3282_6_"
     style="fill:#f4991d" /><path
     d="m 115.012,104.099 -1.282,19.801 12.994,-21.298 -11.712,1.497"
     inkscape:connector-curvature="0"
     id="path3116_6_"
     style="fill:#354f21" /><path
     d="m 115.012,104.099 -6.255,-11.128 9.002,8.255"
     inkscape:connector-curvature="0"
     id="path3114_6_"
     style="fill:#b98a0e" /><path
     d="m 117.759,101.226 -2.747,2.873 11.987,-1.711 -9.24,-1.162"
     inkscape:connector-curvature="0"
     id="path3288_6_"
     style="fill:#407b30" /><path
     d="m 113.729,123.9 -16.462,4.01 5.815,9.58 10.647,-13.59 z"
     inkscape:connector-curvature="0"
     id="path3290_6_"
     style="fill:#0c682f" /><path
     d="m 91.153,117.836 11.93,19.654 -3.484,0.643 -8.446,-20.297 z"
     inkscape:connector-curvature="0"
     id="path3294_6_"
     style="fill:#e52620" /><path
     d="m 91.153,117.836 -20.48,-6.492 21.618,11.881 -1.138,-5.389"
     inkscape:connector-curvature="0"
     id="path3296_6_"
     style="fill:#e73d1f" /><path
     d="m 92.291,123.225 -21.618,-11.881 23.092,18.861 -1.474,-6.98 z"
     inkscape:connector-curvature="0"
     id="path3298_6_"
     style="fill:#991915" /><path
     d="m 70.673,111.344 -0.27,-6.633 -5.412,2.452 5.682,4.181 z"
     inkscape:connector-curvature="0"
     id="path3302_6_"
     style="fill:#333366" /><path
     d="m 70.673,111.344 -5.682,-4.182 -8.065,0.9 13.747,3.282 z"
     inkscape:connector-curvature="0"
     id="path3304_6_"
     style="fill:#2864ae" /><path
     d="m 56.679,111.293 13.994,0.051 -8.308,2.143 -3.462,-1.402"
     inkscape:connector-curvature="0"
     id="path3306_6_"
     style="fill:#9ec9ed" /><path
     d="m 70.673,111.344 -1.669,4.492 -7.281,-2.795"
     inkscape:connector-curvature="0"
     id="path3308_6_"
     style="fill:#9294c9" /><path
     d="m 70.673,111.344 4.282,8.355 -6.396,-3.287"
     inkscape:connector-curvature="0"
     id="path3310_6_"
     style="fill:#67679a" /><path
     d="m 93.765,130.205 -23.092,-18.861 4.282,8.355 19.714,14.066 -0.904,-3.56 z"
     inkscape:connector-curvature="0"
     id="path3314_6_"
     style="fill:#6f2a0d" /><path
     d="M 91.153,117.836 114.42,113.242 97.268,127.91 91.153,117.836 z"
     inkscape:connector-curvature="0"
     id="path3316_6_"
     style="fill:#53af3a" /><path
     d="m 114.42,113.242 -0.69,10.658 -16.462,4.01 17.152,-14.668 z"
     inkscape:connector-curvature="0"
     id="path3318_6_"
     style="fill:#0c9a39" /><path
     d="m 115.012,104.099 -15.021,12.262 14.429,-3.119 0.592,-9.143 z"
     inkscape:connector-curvature="0"
     id="path3320_6_"
     style="fill:#0d9a39" /><path
     d="m 115.012,104.099 -12.105,0.002 -0.394,-8.912 12.499,8.91 z"
     inkscape:connector-curvature="0"
     id="path3322_6_"
     style="fill:#8b9966" /><path
     d="m 102.906,104.101 6.155,4.854 5.95,-4.856 -12.105,0.002 z"
     inkscape:connector-curvature="0"
     id="path3324_6_"
     style="fill:#dae395" /><path
     d="m 102.906,104.101 -0.749,4.815 6.904,0.039"
     inkscape:connector-curvature="0"
     id="path3326_6_"
     style="fill:#526734" /><path
     d="m 102.157,108.916 -2.166,7.445 9.07,-7.406"
     inkscape:connector-curvature="0"
     id="path3328_6_"
     style="fill:#73b72b" /><path
     d="m 132.87,80.869 -19.357,-4.122 2.232,7.917 17.125,-3.795 z"
     inkscape:connector-curvature="0"
     id="path3330_6_"
     style="fill:#ffea0f" /><path
     d="m 132.87,80.869 -19.357,-4.122 2.311,-8.243 17.046,12.365 z"
     inkscape:connector-curvature="0"
     id="path3346_6_"
     style="fill:#263570" /><path
     d="m 132.87,80.869 2.031,-6.203 -19.078,-6.162 17.047,12.365 z"
     inkscape:connector-curvature="0"
     id="path3348_6_"
     style="fill:#3a235e" /><path
     d="m 134.901,74.666 -19.078,-6.162 23.055,-7.944 -0.89,6.623 -3.087,7.483 z"
     inkscape:connector-curvature="0"
     id="path3350_6_"
     style="fill:#263686" /><path
     d="m 102.153,82.545 13.592,2.118 -12.679,3.092 -1.921,-1.67 1.008,-3.54 z"
     inkscape:connector-curvature="0"
     id="path3362_6_"
     style="fill:#63b22f" /><path
     d="m 113.513,76.747 2.232,7.917 -13.592,-2.118 11.36,-5.799 z"
     inkscape:connector-curvature="0"
     id="path3364_6_"
     style="fill:#b5cd35" /><path
     d="m 113.513,76.747 -11.359,5.799 3.217,-3.146 -1.475,-3.65 1.497,-4.787 8.12,5.784 z"
     inkscape:connector-curvature="0"
     id="path3366_6_"
     style="fill:#0c9a39" /><path
     d="m 113.513,76.747 -5.197,-12.184 -2.923,6.399 8.12,5.785 z"
     inkscape:connector-curvature="0"
     id="path3370_6_"
     style="fill:#057549" /><path
     d="m 115.823,68.503 -7.508,-3.94 5.197,12.184 2.311,-8.244"
     inkscape:connector-curvature="0"
     id="path3372_6_"
     style="fill:#1f3d8a" /><path
     d="m 115.823,68.503 0.625,-9.742 -8.133,5.802 7.508,3.94 z"
     inkscape:connector-curvature="0"
     id="path3374_6_"
     style="fill:#079da9" /><path
     d="m 115.823,68.503 9.027,-3.111 -8.402,-6.631 -0.625,9.742 z"
     inkscape:connector-curvature="0"
     id="path3376_6_"
     style="fill:#066bb0" /><path
     d="m 116.448,58.761 -6.578,-4.853 -1.555,10.654 8.133,-5.801"
     inkscape:connector-curvature="0"
     id="path3888_6_"
     style="fill:#66c5e1" /><path
     d="m 116.448,58.761 22.43,1.798 -14.027,4.833 -8.403,-6.631"
     inkscape:connector-curvature="0"
     id="path3378_6_"
     style="fill:#65327d" /><path
     d="m 140.54,59.192 -4.156,-5.704 -19.936,5.273 22.43,1.798 1.662,-1.367 z"
     inkscape:connector-curvature="0"
     id="path3382_6_"
     style="fill:#542679" /><path
     d="m 136.384,53.488 -5.777,-7.239 -8.266,10.909 14.043,-3.67 z"
     inkscape:connector-curvature="0"
     id="path3386_6_"
     style="fill:#2b4b9b" /><path
     d="m 122.341,57.158 -1.959,-9.949 -2.871,7.681 -1.062,3.872 5.892,-1.604 z"
     inkscape:connector-curvature="0"
     id="path3398_6_"
     style="fill:#11bae5" /><path
     d="m 120.382,47.208 1.959,9.949 8.266,-10.909 -10.225,0.96 z"
     inkscape:connector-curvature="0"
     id="path3400_6_"
     style="fill:#0a5aa6" /><path
     d="m 130.815,46.319 -5.847,-4.656 -4.587,5.546 10.225,-0.96"
     inkscape:connector-curvature="0"
     id="path3402_6_"
     style="fill:#607abb" /><path
     d="m 124.897,42.083 -9.346,0.516 4.83,4.61 4.447,-5.195"
     inkscape:connector-curvature="0"
     id="path3404_6_"
     style="fill:#a5a5d2" /><path
     d="m 120.382,47.208 -22.447,-1.985 8.603,4.292 13.844,-2.307 z"
     inkscape:connector-curvature="0"
     id="path3406_6_"
     style="fill:#b9ce00" /><path
     d="m 120.382,47.208 -13.845,2.307 4.173,3.858 9.672,-6.165 z"
     inkscape:connector-curvature="0"
     id="path3408_6_"
     style="fill:#f3e600" /><path
     d="m 120.382,47.208 -4.43,-4.525 -18.018,2.54 22.448,1.985 z"
     inkscape:connector-curvature="0"
     id="path3410_6_"
     style="fill:#71b73a" /><path
     d="m 112.754,43.406 -17.136,-4.663 10.67,5.515 6.466,-0.852 z"
     inkscape:connector-curvature="0"
     id="path3412_6_"
     style="fill:#0c9a39" /><path
     d="m 101.589,44.801 4.699,-0.544 -10.67,-5.515 5.451,6.118"
     inkscape:connector-curvature="0"
     id="path3414_6_"
     style="fill:#52b266" /><path
     d="m 88.409,41.962 9.836,-0.271 -7.587,-5.397 -2.249,5.668 z"
     inkscape:connector-curvature="0"
     id="path3416_6_"
     style="fill:#62c7f2" /><path
     d="m 88.409,41.962 5.215,3.762 4.621,-4.033"
     inkscape:connector-curvature="0"
     id="path3418_6_"
     style="fill:#b2dcd5" /><path
     d="m 93.624,45.724 7.445,-0.863 -2.824,-3.17 -4.621,4.033 z"
     inkscape:connector-curvature="0"
     id="path3420_6_"
     style="fill:#50bdc1" /><path
     d="m 95.618,38.743 -4.96,-2.449 7.587,5.397"
     inkscape:connector-curvature="0"
     id="path3422_6_"
     style="fill:#257fc3" /><path
     d="m 88.409,41.962 -5.537,1.133 1.037,-1.665 6.749,-5.137 -2.249,5.669 z"
     inkscape:connector-curvature="0"
     id="path3424_6_"
     style="fill:#448ecc" /><path
     d="m 88.409,41.962 -5.537,1.133 2.277,2.358 8.475,0.271 -5.215,-3.762 z"
     inkscape:connector-curvature="0"
     id="path3426_6_"
     style="fill:#5b81c1" /><path
     d="m 145.085,52.914 17.098,-5.143 -16.899,1.655 -0.199,3.488 z"
     inkscape:connector-curvature="0"
     id="path3444_6_"
     style="fill:#9c2a15" /><path
     d="m 162.235,47.824 12.289,-10.295 2.063,2.104 -14.352,8.191 z"
     inkscape:connector-curvature="0"
     id="path3446_6_"
     style="fill:#67679a" /><path
     d="m 146.604,44.46 15.681,0.125 -17.021,4.823"
     inkscape:connector-curvature="0"
     id="path3448_6_"
     style="fill:#a71916" /><path
     d="m 162.235,47.824 0.05,-3.238 12.239,-7.057 -12.289,10.295"
     inkscape:connector-curvature="0"
     id="path3450_6_"
     style="fill:#9a6814" /><path
     d="m 162.285,44.585 0.388,-4.812 11.852,-2.244"
     inkscape:connector-curvature="0"
     id="path3452_6_"
     style="fill:#e94c20" /><path
     d="m 162.673,39.773 -13.829,4.688 13.441,0.125"
     inkscape:connector-curvature="0"
     id="path3454_6_"
     style="fill:#fbb80b" /><path
     d="m 174.524,37.529 -0.419,-1.973 -11.433,4.217"
     inkscape:connector-curvature="0"
     id="path3456_6_"
     style="fill:#8e67aa" /><path
     d="m 174.105,35.556 4.466,-4.045 1.668,-0.439 -5.715,6.457"
     inkscape:connector-curvature="0"
     id="path3491_6_"
     style="fill:#ad65a5" /><path
     d="m 174.524,37.529 7.168,-0.986 -5.104,3.09"
     inkscape:connector-curvature="0"
     id="path3458_6_"
     style="fill:#999acc" /><path
     d="m 174.524,37.529 5.987,-6.803 2.974,3.234 -8.961,3.569"
     inkscape:connector-curvature="0"
     id="path3460_6_"
     style="fill:#257fc3" /><path
     d="m 182.268,30.626 1.864,-1.058 4.135,2.415 -5.999,-1.357 z"
     inkscape:connector-curvature="0"
     id="path3462_6_"
     style="fill:#9ec9ed" /><path
     d="m 180.685,31.047 2.801,2.913 3.489,-0.515 2.032,-1.487 -7.408,-1.678"
     inkscape:connector-curvature="0"
     id="path3464_6_"
     style="fill:#61b1e3" /><path
     d="m 183.485,33.96 1.472,-0.585 -0.528,2.294 -5.669,1.959 -4.235,-0.1 8.96,-3.568 z"
     inkscape:connector-curvature="0"
     id="path3466_6_"
     style="fill:#6b6baf" /><path
     d="m 102.513,95.189 6.244,-2.218 -5.69,-5.216 1.087,3.091 -1.641,4.343 z"
     inkscape:connector-curvature="0"
     id="path3483_6_"
     style="fill:#ffea0f" /><path
     d="m 70.673,111.344 2.866,-4.002 1.443,3.604 16.171,6.891 -20.48,-6.493 z"
     inkscape:connector-curvature="0"
     id="path3485_6_"
     style="fill:#ef7850" /><path
     d="m 73.539,107.342 -1.022,-2.07 -2.302,-0.636 0.458,6.708 2.866,-4.002 z"
     inkscape:connector-curvature="0"
     id="path3487_6_"
     style="fill:#6063ab" /><path
     d="m 146.735,90.86 7.993,3.372 2.577,-14.274 -10.57,10.902 z"
     inkscape:connector-curvature="0"
     id="path3493_6_"
     style="fill:#44bccb" /><path
     d="m 198.692,97.105 4.176,-1.828 -0.295,4.252 -3.881,-2.424 z"
     inkscape:connector-curvature="0"
     id="path3495_6_"
     style="fill:#3cbddc" /><path
     d="m 102.513,95.189 6.244,-2.218 6.255,11.128 -12.499,-8.91 z"
     inkscape:connector-curvature="0"
     id="path3497_6_"
     style="fill:#ffcc07" /><path
     d="m 70.673,111.344 -14.489,-3.578 -1.97,1.184 -0.603,1.205 1.485,1.344 15.577,-0.155"
     inkscape:connector-curvature="0"
     id="path3499_6_"
     style="fill:#448ecc" /><path
     d="m 145.335,49.409 16.95,-4.823 -0.05,3.238 -16.9,1.585 z"
     inkscape:connector-curvature="0"
     id="path3501_6_"
     style="fill:#d65214" /><path
     d="m 142.067,44.639 11.331,-3.917 -0.7,-7.833 -10.631,11.75 z"
     inkscape:connector-curvature="0"
     id="path3146_6_"
     style="fill:#3c6ab1" /><path
     d="m 142.067,44.639 8.176,-15.164 -6.39,-6.664 -7.282,-0.967 5.496,22.795 z"
     inkscape:connector-curvature="0"
     id="path3148_6_"
     style="fill:#b84894" /><path
     d="m 142.067,44.639 -5.496,-22.795 -5.937,1.26 -3.858,2.208 -2.858,0.809 18.149,18.518 z"
     inkscape:connector-curvature="0"
     id="path3150_6_"
     style="fill:#ea5556" /><path
     d="m 142.067,44.639 -18.149,-18.519 1.051,15.542 5.638,4.586 11.46,-1.609 z"
     inkscape:connector-curvature="0"
     id="path3152_6_"
     style="fill:#efc105" /><path
     d="m 142.067,44.639 1.416,2.271 1.706,2.771 -8.806,3.807 5.684,-8.849 z"
     inkscape:connector-curvature="0"
     id="path3156_6_"
     style="fill:#89bd24" /><path
     d="m 136.384,53.488 4.156,5.704 1.963,-4.14 2.719,-2.299 -0.032,-3.072 -8.806,3.807 z"
     inkscape:connector-curvature="0"
     id="path3160_6_"
     style="fill:#432683" /><path
     d="m 120.382,47.208 -10.512,6.7 6.578,4.853 3.934,-11.553 z"
     inkscape:connector-curvature="0"
     id="path3396_6_"
     style="fill:#3d88b7" /><path
     d="m 142.067,44.639 9.655,-10.67 -0.219,-3.072 -1.763,-0.492 -7.673,14.234 z"
     inkscape:connector-curvature="0"
     id="path3162_6_"
     style="fill:#8078b7" /><path
     d="m 130.606,46.249 11.461,-1.609 -5.684,8.849 -5.777,-7.24 z"
     inkscape:connector-curvature="0"
     id="path3938_6_"
     style="fill:#f0e508" /><path
     d="m 142.067,44.639 4.272,-1.477 0.438,1.359 -0.388,1.054 -1.201,4.105 -3.121,-5.041 z"
     inkscape:connector-curvature="0"
     id="path3940_6_"
     style="fill:#49bcc3" /><path
     d="m 30.231,101.093 h -2.754 c -2.459,0 -4.23,-1.967 -4.377,-4.377 L 21.082,72.715 c -0.048,-0.738 0.395,-1.132 1.131,-1.132 h 5.117 c 0.736,0 1.08,0.394 1.131,1.132 l 1.672,22.722 h 0.639 l 1.623,-22.722 c 0.098,-0.738 0.442,-1.132 1.131,-1.132 h 5.164 c 0.689,0 1.182,0.394 1.083,1.132 l -3.099,32.854 c -0.148,0.737 -0.492,1.131 -1.181,1.131 H 30.87 c -0.688,0 -1.18,-0.394 -1.131,-1.131 l 0.492,-4.476 z"
     inkscape:connector-curvature="0"
     id="path125"
     style="fill:#878787" /><path
     d="m 41.542,75.96 c 0,-2.409 1.968,-4.377 4.377,-4.377 h 8.312 c 2.41,0 4.377,1.968 4.377,4.377 v 20.756 c 0,2.41 -1.967,4.377 -4.377,4.377 h -8.312 c -2.409,0 -4.377,-1.967 -4.377,-4.377 V 75.96 z m 8.312,1.28 c -0.737,0 -1.132,0.492 -1.132,1.131 v 15.935 c 0,0.689 0.443,1.132 1.132,1.132 h 0.442 c 0.688,0 1.082,-0.442 1.082,-1.132 V 78.371 c 0,-0.688 -0.394,-1.131 -1.082,-1.131 h -0.442 z"
     inkscape:connector-curvature="0"
     id="path127"
     style="fill:#878787" /><path
     d="m 65.935,101.093 c -2.509,0 -4.378,-1.722 -4.378,-4.377 V 72.715 c 0,-0.738 0.394,-1.132 1.132,-1.132 h 4.967 c 0.689,0 1.083,0.394 1.083,1.132 V 94.01 c 0,0.787 0.491,1.132 1.131,1.132 h 1.524 V 72.715 c 0,-0.738 0.441,-1.132 1.132,-1.132 h 4.967 c 0.688,0 1.131,0.394 1.131,1.132 v 27.246 c 0,0.738 -0.442,1.132 -1.131,1.132 h -3.935 c -0.836,0 -1.477,-0.492 -1.623,-1.23 -1.132,0.59 -3.344,1.23 -6,1.23 z"
     inkscape:connector-curvature="0"
     id="path129"
     style="fill:#878787" /><path
     d="m 88.753,99.961 c 0,0.738 -0.393,1.132 -1.082,1.132 h -4.967 c -0.738,0 -1.131,-0.394 -1.131,-1.132 V 72.715 c 0,-0.738 0.393,-1.132 1.131,-1.132 h 3.688 c 0.983,0 1.476,0.836 1.622,1.574 1.23,-0.738 3.345,-1.574 5.46,-1.574 0.737,0 1.081,0.394 1.081,1.132 v 4.131 c 0,0.688 -0.393,1.131 -1.131,1.131 h -4.672 v 21.984 z"
     inkscape:connector-curvature="0"
     id="path131"
     style="fill:#878787" /><path
     d="m 27.624,175.203 c 0,0.352 0.16,0.545 0.514,0.576 l 0.994,0.16 c 0.354,0.033 0.578,0.258 0.578,0.578 v 2.213 c 0,0.482 -0.257,0.738 -0.738,0.738 h -3.176 c -1.574,0 -2.857,-1.283 -2.857,-2.855 v -19.99 c 0,-0.449 0.258,-0.707 0.738,-0.707 h 3.242 c 0.449,0 0.705,0.258 0.705,0.707 v 18.58 z"
     inkscape:connector-curvature="0"
     id="path133"
     style="fill:#878787" /><path
     d="m 33.688,179.469 c -1.572,0 -2.855,-1.283 -2.855,-2.855 v -13.541 c 0,-1.637 1.314,-2.855 2.855,-2.855 h 5.423 c 1.571,0 2.856,1.285 2.856,2.855 v 6.707 c 0,1.572 -1.508,2.342 -3.049,2.631 l -3.401,0.674 v 1.959 c 0,0.447 0.289,0.736 0.738,0.736 l 4.974,0.193 c 0.449,0 0.738,0.256 0.738,0.736 v 2.021 c 0,0.482 -0.289,0.738 -0.738,0.738 h -7.541 z m 2.568,-15.563 c -0.481,0 -0.738,0.322 -0.738,0.738 v 4.877 l 1.122,-0.256 c 0.418,-0.129 0.61,-0.225 0.61,-0.705 v -3.916 c 0,-0.449 -0.256,-0.738 -0.705,-0.738 h -0.289 z"
     inkscape:connector-curvature="0"
     id="path135"
     style="fill:#878787" /><path
     d="m 54.481,178.73 c 0,0.482 -0.258,0.738 -0.738,0.738 h -2.566 c -0.547,0 -0.963,-0.352 -1.059,-0.801 -0.771,0.449 -2.055,0.801 -3.852,0.801 -1.604,0 -2.823,-1.123 -2.823,-2.855 v -5.615 c 0,-1.572 1.22,-2.504 2.76,-2.92 l 3.594,-0.867 v -2.404 c 0,-0.578 -0.353,-0.867 -0.899,-0.9 l -4.46,-0.225 c -0.481,-0.031 -0.737,-0.256 -0.737,-0.736 v -1.99 c 0,-0.482 0.256,-0.738 0.737,-0.738 h 6.931 c 1.959,0 3.113,1.123 3.113,2.92 v 15.592 z m -4.684,-7.699 -1.251,0.352 c -0.45,0.129 -0.738,0.354 -0.738,0.803 v 2.662 c 0,0.516 0.32,0.738 0.738,0.738 h 1.251 v -4.555 z"
     inkscape:connector-curvature="0"
     id="path137"
     style="fill:#878787" /><path
     d="m 56.76,160.955 c 0,-0.482 0.256,-0.738 0.737,-0.738 h 2.567 c 0.546,0 0.899,0.32 1.06,0.801 0.802,-0.416 1.989,-0.801 3.914,-0.801 1.604,0 2.857,1.123 2.857,2.855 v 13.541 c 0,1.572 -1.285,2.855 -2.857,2.855 h -3.594 v 2.922 c 0,0.48 -0.257,0.738 -0.707,0.738 h -3.24 c -0.481,0 -0.737,-0.258 -0.737,-0.738 v -21.435 z m 4.684,3.145 v 11.68 h 1.027 c 0.449,0 0.705,-0.289 0.705,-0.738 v -10.203 c 0,-0.514 -0.289,-0.738 -0.705,-0.738 h -1.027 z"
     inkscape:connector-curvature="0"
     id="path139"
     style="fill:#878787" /><path
     d="m 73.799,175.17 c 0.45,0 0.706,0.256 0.706,0.705 v 2.855 c 0,0.482 -0.256,0.738 -0.706,0.738 h -3.433 c -0.482,0 -0.738,-0.256 -0.738,-0.738 v -2.855 c 0,-0.449 0.256,-0.705 0.738,-0.705 h 3.433 z"
     inkscape:connector-curvature="0"
     id="path141"
     style="fill:#878787" /><path
     d="m 81.468,173.758 c 0,-0.416 -0.192,-0.609 -0.578,-0.803 l -1.957,-0.93 c -1.412,-0.674 -2.567,-1.221 -2.567,-2.793 v -6.16 c 0,-1.732 1.155,-2.855 3.146,-2.855 h 5.455 c 0.48,0 0.736,0.256 0.736,0.738 v 1.99 c 0,0.48 -0.256,0.736 -0.736,0.736 l -3.178,0.258 c -0.416,0 -0.738,0.256 -0.738,0.738 v 2.439 c 0,0.352 0.16,0.576 0.578,0.77 l 1.926,0.93 c 1.476,0.674 2.631,1.219 2.631,2.793 v 5.004 c 0,1.732 -1.155,2.855 -3.177,2.855 h -6.226 c -0.48,0 -0.738,-0.256 -0.738,-0.738 v -2.084 c 0,-0.449 0.258,-0.674 0.738,-0.707 l 3.947,-0.354 c 0.449,-0.031 0.738,-0.223 0.738,-0.738 v -1.089 z"
     inkscape:connector-curvature="0"
     id="path143"
     style="fill:#878787" /><path
     d="m 90.772,179.469 c -1.572,0 -2.854,-1.283 -2.854,-2.855 v -13.541 c 0,-1.637 1.315,-2.855 2.854,-2.855 h 5.424 c 1.572,0 2.855,1.285 2.855,2.855 v 6.707 c 0,1.572 -1.508,2.342 -3.048,2.631 l -3.401,0.674 v 1.957 c 0,0.449 0.289,0.738 0.738,0.738 l 4.974,0.193 c 0.449,0 0.737,0.256 0.737,0.736 v 2.021 c 0,0.482 -0.288,0.738 -0.737,0.738 h -7.542 z m 2.569,-15.563 c -0.481,0 -0.738,0.322 -0.738,0.738 v 4.877 l 1.123,-0.256 c 0.417,-0.129 0.609,-0.225 0.609,-0.705 v -3.916 c 0,-0.449 -0.256,-0.738 -0.705,-0.738 h -0.289 z"
     inkscape:connector-curvature="0"
     id="path145"
     style="fill:#878787" /><path
     d="m 23.882,122.182 -1.232,-0.324 c -0.975,-0.195 -1.494,-0.52 -1.494,-1.428 v -2.986 c 0,-0.908 0.52,-1.428 1.233,-1.818 l 1.493,-0.908 2.337,-6.166 c 0.325,-0.91 0.909,-1.494 1.882,-1.494 h 3.766 c 0.975,0 1.492,0.584 1.492,1.494 v 6.166 h 4.609 c 0.91,0 1.493,0.52 1.493,1.494 v 4.219 c 0,0.908 -0.583,1.363 -1.493,1.428 l -4.543,0.324 v 11.102 c 0,0.908 -0.52,1.428 -1.492,1.428 h -6.559 c -0.974,0 -1.492,-0.52 -1.492,-1.428 v -11.103 z m 0,15.451 c 0,-0.975 0.519,-1.494 1.492,-1.494 h 6.559 c 0.973,0 1.492,0.52 1.492,1.494 v 7.074 c 0,0.908 0.584,1.428 1.492,1.494 l 3.83,0.389 c 0.908,0.064 1.494,0.52 1.494,1.492 v 4.092 c 0,0.973 -0.586,1.492 -1.494,1.492 h -9.088 c -3.246,0 -5.777,-2.596 -5.777,-5.777 v -10.256 z"
     inkscape:connector-curvature="0"
     id="path147"
     style="fill:#e94e1b" /><path
     d="m 56.013,123.676 c 0,-0.908 -0.52,-1.494 -1.43,-1.494 h -0.648 c -0.973,0 -1.492,0.65 -1.492,1.494 v 9.607 c 0,0.908 -0.521,1.428 -1.494,1.428 h -6.49 c -0.975,0 -1.493,-0.52 -1.493,-1.428 v -12.789 c 0,-3.182 2.595,-5.777 5.776,-5.777 h 10.973 c 3.178,0 5.776,2.596 5.776,5.777 v 12.789 c 0,0.908 -0.521,1.428 -1.493,1.428 h -6.49 c -0.975,0 -1.494,-0.52 -1.494,-1.428 v -9.607 z m 0,13.957 c 0,-0.975 0.52,-1.494 1.494,-1.494 h 6.49 c 0.973,0 1.493,0.52 1.493,1.494 v 10.256 c 0,3.18 -2.599,5.777 -5.776,5.777 H 48.741 c -3.182,0 -5.776,-2.596 -5.776,-5.777 v -10.256 c 0,-0.975 0.519,-1.494 1.493,-1.494 h 6.49 c 0.974,0 1.494,0.52 1.494,1.494 v 7.074 c 0,0.908 0.584,1.494 1.492,1.494 h 0.648 c 0.91,0 1.43,-0.586 1.43,-1.494 v -7.074 z"
     inkscape:connector-curvature="0"
     id="path149"
     style="fill:#e94e1b" /><path
     d="m 88.271,133.283 c 0.065,0.908 -0.52,1.428 -1.493,1.428 h -6.492 c -0.973,0 -1.428,-0.455 -1.492,-1.428 L 77.17,116.211 c -0.063,-0.975 0.521,-1.494 1.493,-1.494 h 6.752 c 0.974,0 1.428,0.52 1.493,1.494 l 1.363,17.072 z m 2.986,4.35 c 0,-0.975 0.52,-1.494 1.494,-1.494 h 6.23 c 0.975,0 1.494,0.52 1.494,1.494 v 8.568 h 1.947 l 0.649,-8.568 c 0.065,-1.039 0.519,-1.494 1.491,-1.494 h 6.494 c 0.973,0 1.557,0.52 1.493,1.494 l -0.976,10.256 c -0.26,3.18 -2.531,5.777 -5.711,5.777 h -3.83 c -2.338,0 -4.999,-0.52 -6.168,-1.039 -1.168,0.52 -3.895,1.039 -6.166,1.039 h -3.83 c -3.182,0 -5.389,-2.598 -5.713,-5.777 L 79.18,137.567 c -0.064,-0.973 0.52,-1.428 1.494,-1.428 h 6.427 c 0.974,0 1.429,0.52 1.493,1.494 l 0.713,8.568 h 1.947 v -8.568 z m 9.219,-4.416 c 0,0.975 -0.52,1.494 -1.494,1.494 h -6.23 c -0.975,0 -1.494,-0.52 -1.494,-1.494 v -17.006 c 0,-0.975 0.65,-1.494 1.494,-1.494 h 6.23 c 0.909,0 1.494,0.52 1.494,1.494 v 17.006 z m 4.348,-17.006 c 0.065,-0.975 0.52,-1.494 1.493,-1.494 h 6.752 c 0.973,0 1.557,0.52 1.492,1.494 l -1.623,17.072 c -0.064,0.908 -0.52,1.428 -1.492,1.428 h -6.492 c -0.974,0 -1.559,-0.52 -1.492,-1.428 l 1.362,-17.072 z"
     inkscape:connector-curvature="0"
     id="path151"
     style="fill:#e94e1b" /><path
     d="m 139.421,133.283 c 0,0.908 -0.519,1.428 -1.492,1.428 h -6.557 c -0.974,0 -1.494,-0.52 -1.494,-1.428 v -9.607 c 0,-1.041 -0.584,-1.494 -1.428,-1.494 h -2.078 v 11.102 c 0,0.908 -0.519,1.428 -1.492,1.428 h -6.492 c -0.973,0 -1.492,-0.52 -1.492,-1.428 v -25.836 c 0,-0.91 0.52,-1.429 1.492,-1.429 h 6.558 c 0.908,0 1.427,0.52 1.427,1.429 v 7.27 h 7.271 c 3.18,0 5.777,2.596 5.777,5.777 v 12.788 z m -13.049,18.891 c 0,0.973 -0.519,1.492 -1.427,1.492 h -6.558 c -0.973,0 -1.492,-0.52 -1.492,-1.492 v -14.541 c 0,-0.975 0.52,-1.494 1.492,-1.494 h 6.492 c 0.974,0 1.492,0.52 1.492,1.494 v 14.541 z m 3.506,-14.541 c 0,-0.975 0.521,-1.494 1.494,-1.494 h 6.557 c 0.974,0 1.492,0.52 1.492,1.494 v 14.541 c 0,0.973 -0.584,1.492 -1.492,1.492 h -6.557 c -0.908,0 -1.494,-0.52 -1.494,-1.492 v -14.541 z"
     inkscape:connector-curvature="0"
     id="path153"
     style="fill:#e94e1b" /><path
     d="m 151.493,102.708 c 0.908,0 1.492,0.584 1.492,1.493 v 5.778 c 0,0.908 -0.584,1.492 -1.492,1.492 h -6.882 c -0.909,0 -1.427,-0.584 -1.427,-1.492 v -5.778 c 0,-0.909 0.518,-1.493 1.427,-1.493 h 6.882 z m 1.299,30.575 c 0,0.908 -0.521,1.428 -1.495,1.428 h -6.491 c -0.973,0 -1.492,-0.52 -1.492,-1.428 v -17.072 c 0,-0.975 0.52,-1.494 1.492,-1.494 h 6.558 c 0.908,0 1.429,0.52 1.429,1.494 v 17.072 z m 0,18.891 c 0,0.973 -0.521,1.492 -1.429,1.492 h -6.558 c -0.973,0 -1.492,-0.52 -1.492,-1.492 v -14.541 c 0,-0.975 0.52,-1.494 1.492,-1.494 h 6.491 c 0.975,0 1.495,0.52 1.495,1.494 v 14.541 z"
     inkscape:connector-curvature="0"
     id="path155"
     style="fill:#e94e1b" /><path
     d="m 167.266,141.852 c 0,-0.844 -0.389,-1.234 -1.167,-1.623 l -3.96,-1.883 c -2.856,-1.361 -5.194,-2.467 -5.194,-5.646 v -12.205 c 0,-3.506 2.338,-5.777 6.362,-5.777 h 11.036 c 0.973,0 1.492,0.52 1.492,1.494 v 4.023 c 0,0.975 -0.52,1.494 -1.492,1.494 l -6.428,0.518 c -0.844,0 -1.493,0.521 -1.493,1.494 v 4.674 c 0,0.713 0.325,1.168 1.169,1.557 l 3.895,1.883 c 2.985,1.363 5.324,2.467 5.324,5.648 v 10.387 c 0,3.506 -2.339,5.777 -6.428,5.777 h -12.594 c -0.973,0 -1.492,-0.52 -1.492,-1.492 v -4.221 c 0,-0.908 0.52,-1.363 1.492,-1.428 l 7.985,-0.713 c 0.909,-0.066 1.492,-0.455 1.492,-1.494 v -2.467 z"
     inkscape:connector-curvature="0"
     id="path157"
     style="fill:#e94e1b" /><path
     d="m 202.839,133.283 c 0,0.908 -0.52,1.428 -1.494,1.428 h -6.557 c -0.973,0 -1.493,-0.52 -1.493,-1.428 v -9.219 c 0,-1.039 -0.583,-1.494 -1.427,-1.494 h -2.078 v 10.713 c 0,0.908 -0.52,1.428 -1.494,1.428 h -6.491 c -0.974,0 -1.492,-0.52 -1.492,-1.428 v -17.072 c 0,-0.975 0.519,-1.494 1.492,-1.494 h 5.194 c 1.103,0 1.817,0.648 2.143,1.623 1.621,-0.844 4.023,-1.623 7.917,-1.623 3.248,0 5.78,2.271 5.78,5.777 v 12.789 z m -22.527,4.35 c 0,-0.975 0.519,-1.494 1.492,-1.494 h 6.491 c 0.975,0 1.494,0.52 1.494,1.494 v 8.568 h 2.078 c 0.908,0 1.427,-0.586 1.427,-1.494 v -7.074 c 0,-0.975 0.521,-1.494 1.493,-1.494 h 6.557 c 0.975,0 1.494,0.52 1.494,1.494 v 10.256 c 0,3.18 -2.598,5.777 -5.78,5.777 h -7.269 v 5.908 c 0,0.973 -0.52,1.492 -1.429,1.492 h -6.557 c -0.974,0 -1.492,-0.52 -1.492,-1.492 v -21.941 z"
     inkscape:connector-curvature="0"
     id="path159"
     style="fill:#e94e1b" /><path
     d="m 206.729,138.086 c 0,-0.908 0.13,-1.492 1.039,-1.752 l 10.711,-3.117 c 0.844,-0.26 1.234,-0.453 1.234,-1.428 v -8.113 c 0,-0.908 -0.52,-1.494 -1.428,-1.494 H 217.7 c -0.974,0 -1.493,0.65 -1.493,1.494 v 7.334 c 0,0.975 -0.324,1.363 -1.104,1.559 l -6.556,1.883 c -0.911,0.26 -1.819,0.064 -1.819,-0.975 v -12.982 c 0,-3.311 2.662,-5.777 5.777,-5.777 h 10.973 c 3.179,0 5.775,2.596 5.775,5.777 v 13.762 c 0,3.182 -3.051,4.738 -6.166,5.322 l -6.881,1.365 v 3.764 c 0,0.908 0.584,1.494 1.493,1.494 l 10.061,0.389 c 0.908,0 1.493,0.52 1.493,1.492 v 4.092 c 0,0.973 -0.585,1.492 -1.493,1.492 h -15.255 c -3.18,0 -5.777,-2.598 -5.777,-5.777 v -9.804 z"
     inkscape:connector-curvature="0"
     id="path161"
     style="fill:#e94e1b" /><path
     d="m 232.757,116.209 c 0,-0.973 0.52,-1.492 1.494,-1.492 h 4.868 c 1.3,0 1.948,1.102 2.144,2.076 1.623,-0.975 4.414,-2.076 7.205,-2.076 0.973,0 1.428,0.52 1.428,1.492 v 5.453 c 0,0.908 -0.52,1.492 -1.493,1.492 h -6.167 v 10.129 c 0,0.908 -0.518,1.428 -1.493,1.428 h -6.491 c -0.975,0 -1.494,-0.52 -1.494,-1.428 v -17.074 z m 9.478,35.965 c 0,0.973 -0.518,1.492 -1.427,1.492 h -6.558 c -0.975,0 -1.494,-0.52 -1.494,-1.492 v -14.541 c 0,-0.975 0.52,-1.494 1.494,-1.494 h 6.491 c 0.976,0 1.493,0.52 1.493,1.494 v 14.541 z"
     inkscape:connector-curvature="0"
     id="path163"
     style="fill:#e94e1b" /><path
     d="M 243.403,172.285 H 104.957 c -1.034,0 -1.874,-0.771 -1.874,-1.719 0,-0.951 0.84,-1.721 1.874,-1.721 h 138.446 c 1.034,0 1.873,0.77 1.873,1.721 0,0.948 -0.838,1.719 -1.873,1.719 z"
     inkscape:connector-curvature="0"
     id="path165"
     style="fill:#e94e1b" /><g
     id="g167" /><g
     id="g169" /><g
     id="g171" /><g
     id="g173" /><g
     id="g175" /><g
     id="g177" /></svg>