<?xml version="1.0" encoding="UTF-8" standalone="no"?>
<!-- Created with Inkscape (http://www.inkscape.org/) -->

<svg
   xmlns:dc="http://purl.org/dc/elements/1.1/"
   xmlns:cc="http://creativecommons.org/ns#"
   xmlns:rdf="http://www.w3.org/1999/02/22-rdf-syntax-ns#"
   xmlns:svg="http://www.w3.org/2000/svg"
   xmlns="http://www.w3.org/2000/svg"
   xmlns:inkscape="http://www.inkscape.org/namespaces/inkscape"
   version="1.1"
   width="297.64001"
   height="113.39"
   viewBox="0 0 297.64 113.39"
   id="Capa_1"
   xml:space="preserve"><metadata
     id="metadata170"><rdf:RDF><cc:Work
         rdf:about=""><dc:format>image/svg+xml</dc:format><dc:type
           rdf:resource="http://purl.org/dc/dcmitype/StillImage" /></cc:Work></rdf:RDF></metadata><defs
     id="defs168" /><rect
     width="297.638"
     height="113.387"
     x="0.001"
     y="0.001"
     id="rect3" /><g
     id="g5"><g
       transform="translate(20,20)"
       id="layer4_11_"><g
         id="path4046_11_"><path
           d="m 188.172,82.641 c -0.393,0 -0.824,-0.055 -1.311,-0.172 -0.926,-0.219 -1.623,-0.588 -2.561,-1.365 -0.357,-0.295 -0.855,-0.693 -1.094,-0.879 -0.459,-0.355 -1.17,-1.24 -1.479,-1.658 -0.701,-0.951 -1.203,-1.363 -2.432,-2.004 -0.305,-0.156 -0.77,-0.441 -1.098,-0.811 -0.471,-0.09 -0.883,-0.34 -1.061,-0.461 -0.211,-0.145 -0.363,-0.232 -0.4,-0.252 0.01,0.006 0.074,0.035 0.172,0.061 -0.402,-0.125 -1.227,-0.658 -4.043,-2.924 -0.691,-0.555 -1.475,-1.184 -1.744,-1.393 -0.262,-0.207 -0.646,-0.523 -0.84,-0.703 -0.32,-0.303 -2.758,-1.951 -3.717,-2.463 -0.438,-0.229 -0.967,-0.559 -1.305,-0.92 -0.326,-0.061 -0.65,-0.186 -0.867,-0.299 -0.102,-0.051 -0.561,-0.215 -1.035,-0.336 -0.623,-0.16 -1.762,-0.613 -2.498,-0.959 -0.771,-0.361 -1.988,-0.936 -2.701,-1.271 -0.721,-0.34 -1.344,-0.574 -1.498,-0.613 -0.365,-0.072 -0.863,-0.24 -1.186,-0.402 0,0 -0.045,-0.021 -0.186,-0.021 -0.088,0 -0.195,0.01 -0.318,0.023 -0.234,0.029 -0.43,0.051 -0.621,0.051 -0.809,0 -1.25,-0.404 -1.717,-0.84 -0.461,-0.422 -1.006,-1.068 -1.006,-1.734 0,-0.711 0.617,-1.385 0.879,-1.643 0.537,-0.52 1.014,-0.82 1.855,-0.82 0.047,0 0.094,0 0.145,0.002 h 0.051 c 0.072,0 0.139,-0.004 0.188,-0.01 0.293,-0.166 0.625,-0.242 0.932,-0.205 0.215,-0.002 0.801,-0.029 1.545,-0.084 0.893,-0.061 2.078,-0.143 2.641,-0.174 0.643,-0.041 0.791,-0.068 2.197,-0.805 0.838,-0.441 2.102,-1.016 2.895,-1.18 0.385,-0.078 0.705,-0.139 1.018,-0.139 0.521,0 0.881,0.17 1.232,0.359 1.021,0.551 1.289,1.309 1.848,3.119 0.191,0.631 0.354,1.078 0.521,1.445 0.391,0.295 1.709,1.008 2.648,1.311 0.984,0.312 3.363,1.246 4.314,1.689 0.111,0.049 0.719,0.283 1.451,0.549 0.715,0.258 1.768,0.684 2.342,0.949 l 0.676,0.307 1.311,-0.199 c 0.875,-0.135 2,-0.336 2.459,-0.439 0.502,-0.113 1.221,-0.244 1.68,-0.305 l 0.152,-0.691 c 0.215,-0.959 0.91,-3.461 1.439,-4.432 0.029,-0.178 0.068,-0.578 0.07,-1.082 0.014,-1.322 0.16,-1.85 0.334,-2.145 0.037,-0.16 0.094,-0.512 0.121,-0.951 0.045,-0.762 0.135,-1.24 0.229,-1.551 -0.109,-0.305 -0.17,-0.613 -0.197,-0.777 -0.053,-0.322 -0.162,-0.984 -0.244,-1.471 -0.342,-2.059 -0.436,-2.613 0.211,-3.484 0.041,-0.057 0.076,-0.119 0.096,-0.164 0.039,-0.32 0.168,-0.666 0.295,-0.916 -0.562,-0.545 -0.596,-1.1 -0.527,-1.781 -0.543,-0.189 -1.047,-0.42 -1.367,-0.895 -0.447,-0.67 -0.262,-1.426 -0.16,-1.828 0.105,-0.43 0.342,-1.084 0.586,-1.502 0.062,-0.105 0.111,-0.209 0.137,-0.27 0.07,-0.564 0.473,-1.039 0.957,-1.346 0.102,-0.502 0.508,-0.856 0.928,-1.223 l 0.111,-0.095 -0.057,-0.181 c -0.217,-0.717 -0.346,-1.169 -0.387,-1.514 -0.018,-0.158 -0.018,-0.303 -0.004,-0.432 -0.385,-0.706 -0.062,-1.558 0.217,-2.146 0.193,-0.405 0.348,-0.822 0.373,-0.92 l 0.023,-0.106 0.451,-1.056 c 0.004,-0.362 0.092,-0.802 0.234,-1.347 0.301,-1.164 0.557,-1.579 0.699,-1.753 0.102,-0.643 0.645,-1.248 1.219,-1.63 -0.049,-0.433 -0.049,-1.116 0.08,-2.245 0.141,-1.274 0.381,-2.555 0.641,-3.419 0.217,-0.715 0.348,-1.234 0.381,-1.389 0.02,-0.3 0.098,-0.751 0.117,-0.864 0.018,-0.289 -0.174,-1.095 -0.348,-1.548 -0.809,-0.216 -1.973,-0.78 -2.303,-0.989 -0.225,-0.142 -0.885,-0.507 -1.473,-0.801 -0.551,-0.277 -1.355,-0.726 -1.752,-0.998 -0.984,-0.675 -1.688,-0.907 -2.793,-0.922 -0.055,-0.002 -0.109,-0.002 -0.162,-0.002 -0.598,0 -0.861,0.051 -0.934,0.066 -0.76,0.388 -2.105,0.703 -3.047,0.703 -0.605,0 -1.512,-0.222 -2.1,-0.441 -0.252,-0.098 -0.441,-0.162 -0.578,-0.202 -0.348,0.464 -0.871,0.751 -1.424,0.751 -0.283,0 -0.557,-0.077 -0.795,-0.226 -0.283,-0.173 -0.537,-0.505 -0.758,-0.981 -0.883,-0.263 -1.691,-1.238 -1.691,-2.168 0,-0.96 0.959,-2.744 2.049,-2.973 0.168,-0.033 0.418,-0.089 0.598,-0.127 0.242,-0.15 0.906,-0.746 1.496,-1.518 0.6,-0.788 1.553,-1.83 2.885,-1.83 0.557,0 1.115,0.183 1.66,0.557 0.172,0.116 0.305,0.199 0.379,0.239 0.225,0.09 0.52,0.27 1.064,0.628 0.311,0.207 1.295,0.631 2.398,0.986 1.898,0.612 2.191,0.685 3.963,0.98 1.816,0.306 3.398,0.781 4.582,1.377 l 0.547,0.272 0.414,-0.164 c 0.977,-0.389 2.09,-0.617 3.219,-0.654 0.035,-0.001 0.07,-0.004 0.109,-0.004 0.018,0 1.951,0.097 2.906,0.586 0.119,0.02 0.387,0.046 0.734,0.046 0.166,0 0.342,0 0.475,-0.004 0.016,-0.022 0.033,-0.047 0.047,-0.064 0.148,-0.202 0.457,-0.617 0.561,-0.743 0.092,-0.112 0.266,-0.273 0.529,-0.37 -0.107,-0.356 -0.16,-1.014 -0.174,-2.471 -0.006,-1.061 -0.057,-1.914 -0.088,-2.125 -0.201,-0.8 0.225,-1.954 0.609,-2.459 0.018,-0.025 0.041,-0.051 0.057,-0.073 -0.258,-0.583 -0.494,-1.181 -0.164,-1.772 -0.354,-0.326 -0.461,-0.761 -0.424,-1.108 0.039,-0.392 0.27,-0.82 0.764,-1.083 0.035,-0.142 0.088,-0.26 0.148,-0.358 0.236,-0.39 0.656,-0.622 1.129,-0.622 0.258,0 0.525,0.064 0.84,0.21 0.105,0.045 0.186,0.058 0.234,0.058 0.031,0 0.094,-0.007 0.131,-0.035 0.225,-0.178 0.414,-0.295 0.58,-0.376 0.395,-0.691 1.195,-1.407 2.07,-1.407 0.135,0 0.262,0.016 0.387,0.048 0.025,-0.013 0.051,-0.028 0.078,-0.044 0.619,-0.362 1.16,-0.52 1.623,-0.469 0.428,-0.295 0.895,-0.573 1.469,-0.573 0.26,0 0.492,0.06 0.705,0.147 0.705,-0.566 2.045,-0.87 2.652,-0.87 0.322,0 0.594,0.061 0.826,0.187 0.271,0.144 0.467,0.319 0.6,0.504 l 0.182,-0.142 1.648,0.869 c 0.199,-0.138 0.465,-0.264 0.799,-0.264 0.246,0 1.068,0.087 1.326,1.199 0.059,0.255 0.102,0.59 0.162,1.113 l 0.004,0.067 c 1.02,0.258 1.416,0.839 1.564,1.298 0.406,0.215 0.617,0.483 0.723,0.729 0.039,-0.003 0.076,-0.003 0.111,-0.003 0.273,0 0.547,0.073 0.834,0.228 0.605,0.323 0.816,0.776 0.883,1.098 0.033,0.163 0.037,0.319 0.021,0.467 0.285,0.258 0.525,0.706 0.635,1.46 0.016,0.106 0.035,0.232 0.047,0.37 0.098,0.061 0.193,0.136 0.293,0.234 0.719,0.723 0.574,2.304 0.27,3.184 0.434,0.438 0.693,0.924 0.631,1.718 -0.021,0.253 -0.051,0.715 -0.061,1.004 -0.018,0.532 -0.166,0.987 -0.42,1.35 0.471,-0.204 0.891,-0.423 1.221,-0.641 1.041,-0.695 3.195,-1.364 4.785,-1.668 1.258,-0.24 4.996,-1.513 6.666,-2.27 0.332,-0.15 0.926,-0.413 1.32,-0.58 0.33,-0.138 1.02,-0.729 2.051,-1.753 1.52,-1.506 2.125,-2.038 2.936,-2.045 0.09,-0.005 0.396,-0.069 0.656,-0.159 0.242,-0.089 0.764,-0.265 1.053,-0.329 0.053,-0.02 0.172,-0.075 0.246,-0.123 0.293,-0.191 0.811,-0.418 1.299,-0.418 0.771,0 1.797,0.579 2.295,0.999 0.102,0.07 0.449,0.254 0.842,0.41 1.34,0.53 1.529,1.012 1.605,1.219 0.18,0.468 0.084,1.004 -0.266,1.514 -0.148,0.219 -0.521,0.679 -1.074,0.824 -0.154,0.14 -0.531,0.463 -1.129,0.463 -0.236,0 -0.459,-0.051 -0.67,-0.116 -0.131,1.104 -0.986,1.92 -2.252,2.115 -0.275,0.042 -0.742,0.117 -1.039,0.163 -0.078,0.012 -0.199,0.11 -0.361,0.289 -0.506,0.566 -2.389,1.944 -3.414,2 -0.012,10e-4 -0.025,0.009 -0.031,0.012 -1.143,0.573 -1.633,0.861 -2.609,1.543 -3.041,2.125 -4.455,2.95 -7.547,4.427 -3.475,1.659 -4.029,1.881 -5.906,2.051 -0.479,0.044 -1.734,0.275 -2.84,0.554 l -1.809,0.455 -2.148,1.111 c -0.184,0.132 -0.354,0.254 -0.514,0.366 -1.23,0.882 -1.457,1.078 -1.551,1.585 l -0.037,0.189 -0.092,0.168 c -0.623,1.116 -1.07,2.054 -1.375,3.271 -0.092,0.373 -0.268,0.81 -0.438,1.237 -0.117,0.292 -0.295,0.733 -0.322,0.891 -0.043,0.511 -0.178,1.257 -0.379,1.701 -0.098,0.219 -0.184,0.442 -0.256,0.674 l -0.012,0.035 c -0.168,0.473 -0.303,0.736 -0.41,0.949 -0.057,0.104 -0.098,0.189 -0.145,0.29 -0.039,0.099 -0.078,0.22 -0.119,0.341 -0.055,0.166 -0.107,0.33 -0.184,0.48 -0.148,0.291 -0.324,0.717 -0.85,2.066 -0.277,0.717 -0.748,1.693 -1.074,2.218 -0.221,0.363 -0.391,0.721 -0.436,0.841 -0.062,0.307 -0.211,0.743 -0.328,1.031 -0.021,0.058 -0.049,0.146 -0.082,0.252 l 1.164,-0.044 c 1.434,-0.054 3.383,-0.16 4.35,-0.239 0.889,-0.07 2.822,-0.126 4.594,-0.126 0.203,0 0.406,0.003 0.602,0.003 0.596,0.005 1.084,0.008 1.496,0.008 1.613,0 1.713,-0.045 2.15,-0.232 0.504,-0.217 1.074,-0.419 1.834,-0.419 0.545,0 1.127,0.104 1.832,0.252 0.674,0.143 1.785,0.212 3.494,0.218 2.875,0.01 3.836,0.072 4.885,1.317 0.73,0.869 1.146,3.176 0.771,4.258 -0.016,0.037 -0.027,0.076 -0.039,0.105 0.021,0.016 0.047,0.023 0.07,0.037 1.27,0.682 4.371,2.773 5.727,3.861 0.688,0.551 1.354,1.07 1.537,1.207 0.23,0.168 0.793,0.596 1.262,0.955 1.969,1.514 4.904,3.297 5.561,3.518 0.178,0.061 0.504,0.172 0.588,0.178 0.049,-0.006 0.27,-0.074 0.375,-0.107 0.906,-0.291 1.535,-0.602 2.697,-1.338 1.492,-0.947 1.498,-0.98 1.625,-1.5 0.205,-0.854 0.5,-1.379 1.135,-2.008 0.188,-0.182 0.334,-0.365 0.393,-0.457 0.197,-0.602 0.742,-1.035 0.861,-1.123 0.316,-0.234 0.674,-0.453 1.166,-0.453 0.336,0 0.605,0.104 0.803,0.197 0.705,0.32 1.059,0.875 1.074,1.697 0.002,0.141 0.035,0.328 0.051,0.391 0.182,0.479 0.137,1.053 0.037,1.416 -0.004,0.055 0.002,0.219 0.078,0.467 0.127,0.414 0.266,1.045 0.266,1.443 0.004,1.166 -0.779,2.434 -2.268,3.66 -0.58,0.484 -1.037,0.938 -1.146,1.07 -0.16,0.25 -0.396,0.564 -0.566,0.758 -0.16,0.254 -0.436,1.119 -0.447,1.395 -0.006,1.721 -1.484,4.506 -3.045,5.098 -0.395,0.152 -0.775,0.223 -1.168,0.223 -1.264,0 -2.443,-0.768 -3.939,-2.006 -0.748,-0.621 -2.127,-1.637 -3.01,-2.221 -1.867,-1.234 -6.027,-3.303 -7.945,-3.951 -1.881,-0.641 -3.18,-1.262 -4.795,-2.289 -0.242,-0.156 -0.459,-0.283 -0.637,-0.385 -0.068,0.068 -0.143,0.145 -0.225,0.234 -0.584,0.637 -1.047,1.141 -1.854,1.141 -0.186,0 -0.354,-0.029 -0.49,-0.059 -0.357,-0.07 -0.801,-0.25 -1.143,-0.453 -0.242,0.037 -0.48,0.037 -0.68,0.037 -0.061,0 -1.479,0 -2.186,-0.277 -0.127,-0.051 -0.674,-0.211 -1.242,-0.355 -0.254,-0.061 -0.568,-0.137 -0.734,-0.137 -0.041,0 -0.086,0.004 -0.193,0.035 -0.414,0.125 -1.094,0.217 -1.607,0.219 -0.264,0 -0.758,0.084 -0.996,0.168 -0.389,0.135 -0.959,0.297 -1.305,0.344 -0.146,0.018 -0.676,0.121 -1.209,0.25 -0.732,0.172 -2.252,0.277 -5.076,0.34 -4.826,0.111 -6.947,0.246 -7.818,0.492 -1.229,0.348 -1.242,0.373 -1.398,0.689 -0.246,0.477 -0.85,1.398 -1.291,2.01 -0.424,0.592 -1.295,2.133 -1.898,3.369 -0.586,1.197 -1.428,2.791 -1.824,3.387 -0.566,0.852 -2.551,4.057 -2.869,4.633 -0.377,0.688 -2.988,4.289 -3.959,5.5 -0.512,0.637 -1.143,1.424 -1.396,1.748 -0.279,0.348 -0.873,1.033 -1.361,1.557 -0.449,0.488 -0.957,1.125 -1.129,1.391 -0.184,0.283 -0.52,0.775 -0.688,0.979 -0.064,0.08 -0.363,0.488 -0.678,0.951 -0.537,0.778 -1.443,1.815 -3.101,1.815 z m -8.162,-8.416 c 0.08,0.064 0.217,0.164 0.379,0.246 1.535,0.801 2.322,1.457 3.236,2.693 0.443,0.598 0.904,1.094 1.023,1.191 0.258,0.201 0.775,0.619 1.154,0.932 0.734,0.605 1.104,0.77 1.602,0.885 0.309,0.074 0.557,0.109 0.768,0.109 0.346,0 0.65,-0.059 1.156,-0.797 0.236,-0.342 0.646,-0.922 0.809,-1.119 0.053,-0.062 0.281,-0.381 0.529,-0.758 0.295,-0.457 0.93,-1.227 1.371,-1.701 0.434,-0.475 1.006,-1.125 1.246,-1.43 0.26,-0.322 0.891,-1.113 1.406,-1.752 0.975,-1.219 3.471,-4.689 3.73,-5.16 0.352,-0.639 2.352,-3.871 2.971,-4.803 0.258,-0.387 1.008,-1.764 1.67,-3.117 0.672,-1.379 1.598,-3.01 2.104,-3.713 0.467,-0.646 0.955,-1.418 1.1,-1.705 0.588,-1.146 1.25,-1.426 2.859,-1.883 1.125,-0.318 3.17,-0.461 8.406,-0.582 2.512,-0.059 4.055,-0.148 4.586,-0.275 0.477,-0.113 1.145,-0.258 1.447,-0.297 0.104,-0.014 0.494,-0.109 0.834,-0.229 0.484,-0.172 1.244,-0.299 1.768,-0.301 0.307,-0.002 0.764,-0.064 0.936,-0.117 0.729,-0.221 1.324,-0.145 2.182,0.074 0.527,0.131 1.213,0.322 1.514,0.438 0.162,0.049 0.771,0.121 1.34,0.121 0.104,0 0.176,-0.002 0.232,-0.004 0.162,-0.076 0.346,-0.115 0.535,-0.115 0.438,0 0.836,0.217 1.09,0.396 0.055,0.037 0.17,0.096 0.275,0.137 0.107,-0.113 0.232,-0.25 0.291,-0.316 1.023,-1.115 1.445,-1.207 1.822,-1.207 0.25,0 0.539,0 2.051,0.963 1.457,0.93 2.578,1.463 4.285,2.041 2.096,0.711 6.457,2.881 8.486,4.223 0.957,0.629 2.398,1.693 3.213,2.369 1.223,1.014 1.977,1.465 2.436,1.465 0.102,0 0.205,-0.02 0.328,-0.068 0.471,-0.223 1.523,-1.967 1.527,-2.904 0.004,-0.771 0.512,-2.363 1.029,-2.936 0.078,-0.09 0.262,-0.33 0.371,-0.498 0.34,-0.533 1.484,-1.488 1.615,-1.598 1.115,-0.922 1.41,-1.598 1.41,-1.828 -0.006,-0.09 -0.066,-0.449 -0.164,-0.768 -0.125,-0.422 -0.246,-1.016 -0.143,-1.578 -0.135,0.156 -0.271,0.305 -0.402,0.432 -0.322,0.32 -0.402,0.459 -0.504,0.881 -0.338,1.418 -0.906,1.834 -2.652,2.941 -1.324,0.844 -2.145,1.246 -3.246,1.596 -0.418,0.133 -0.721,0.219 -1.096,0.219 -0.445,0 -0.836,-0.131 -1.334,-0.301 -1.121,-0.377 -4.424,-2.484 -6.248,-3.885 -0.445,-0.344 -1,-0.764 -1.217,-0.92 -0.268,-0.195 -1.035,-0.801 -1.621,-1.271 -1.225,-0.984 -4.23,-3.01 -5.363,-3.617 -1.326,-0.713 -1.652,-1.551 -1.15,-2.996 0.094,-0.385 -0.129,-1.645 -0.35,-1.979 -0.311,-0.369 -0.414,-0.459 -3.084,-0.469 -1.9,-0.004 -3.125,-0.086 -3.971,-0.268 -0.664,-0.143 -1.051,-0.199 -1.344,-0.199 -0.285,0 -0.506,0.053 -0.902,0.229 -0.846,0.361 -1.277,0.42 -3.082,0.42 -0.414,0 -0.912,-0.002 -1.516,-0.006 -1.809,-0.014 -4.064,0.041 -4.984,0.115 -0.992,0.082 -2.992,0.193 -4.451,0.248 l -4.043,0.152 0.305,-2.119 c 0.062,-0.418 0.215,-1.084 0.383,-1.494 0.096,-0.234 0.182,-0.529 0.197,-0.609 0.1,-0.538 0.633,-1.433 0.74,-1.604 0.25,-0.404 0.662,-1.266 0.887,-1.841 0.561,-1.441 0.744,-1.88 0.934,-2.259 0.018,-0.046 0.035,-0.104 0.053,-0.166 0.053,-0.148 0.111,-0.338 0.191,-0.525 0.08,-0.187 0.15,-0.326 0.217,-0.451 0.088,-0.176 0.168,-0.329 0.277,-0.641 0.102,-0.31 0.219,-0.613 0.35,-0.907 0.039,-0.104 0.146,-0.532 0.176,-0.934 0.035,-0.441 0.244,-0.964 0.486,-1.567 0.133,-0.333 0.285,-0.713 0.338,-0.931 0.352,-1.404 0.861,-2.501 1.514,-3.69 0.316,-1.342 1.18,-1.96 2.457,-2.868 0.18,-0.128 0.369,-0.267 0.574,-0.413 l 0.074,-0.052 2.545,-1.317 2.072,-0.521 c 1.139,-0.285 2.547,-0.558 3.207,-0.618 1.434,-0.131 1.662,-0.187 5.102,-1.829 2.951,-1.407 4.299,-2.198 7.211,-4.231 1.07,-0.745 1.666,-1.099 2.908,-1.727 0.207,-0.102 0.553,-0.222 0.895,-0.246 0.379,-0.139 1.502,-0.84 1.848,-1.224 0.346,-0.384 0.9,-0.911 1.754,-1.046 0.295,-0.047 0.764,-0.117 1.041,-0.163 0.154,-0.022 0.234,-0.061 0.27,-0.08 0,-0.591 0.109,-1.267 0.922,-1.799 0.193,-0.129 0.424,-0.258 0.703,-0.323 -0.041,-0.03 -0.074,-0.059 -0.109,-0.088 -0.211,-0.184 -0.564,-0.356 -0.758,-0.424 -0.012,0.004 -0.02,0.008 -0.029,0.012 -0.262,0.171 -0.68,0.382 -1.023,0.449 -0.076,0.021 -0.406,0.119 -0.762,0.247 -0.346,0.124 -0.85,0.256 -1.248,0.294 -0.338,0.231 -1.188,1.074 -1.482,1.37 -1.352,1.341 -2.133,1.97 -2.791,2.249 -0.383,0.162 -0.951,0.409 -1.268,0.555 -1.859,0.842 -5.76,2.162 -7.199,2.438 -1.686,0.32 -3.346,0.931 -3.918,1.312 -1.84,1.227 -5.465,2.296 -7.621,2.237 -0.691,-0.018 -1.736,-0.048 -2.219,-0.866 -0.193,-0.327 -0.344,-0.869 0.035,-1.596 0.238,-0.464 0.736,-1.428 1.965,-1.428 0.107,0 0.223,0.007 0.348,0.024 0.02,0.003 0.029,0.003 0.029,0.003 0.01,0 0.084,-0.016 0.311,-0.162 1.109,-0.714 1.59,-0.966 2.605,-0.966 0.031,0 0.057,0 0.078,-0.003 V 7.731 c 0.012,-0.305 0.037,-0.734 0.059,-1.026 -0.008,-0.01 -0.02,-0.02 -0.031,-0.029 l -1.104,-1.012 0.625,-1.312 c 0.014,-0.028 0.027,-0.066 0.039,-0.107 -0.635,-0.15 -1.084,-0.734 -1.084,-1.479 0,-0.061 0.004,-0.125 0.016,-0.188 -0.219,-0.106 -0.363,-0.255 -0.447,-0.362 -0.305,-0.388 -0.299,-0.815 -0.26,-1.092 -0.033,-0.082 -0.057,-0.164 -0.07,-0.253 -0.029,-0.157 -0.027,-0.321 0.002,-0.481 -0.281,-0.156 -0.486,-0.373 -0.607,-0.506 -0.189,-0.204 -0.33,-0.383 -0.434,-0.54 -0.459,-0.211 -0.801,-0.597 -0.936,-1.038 -0.025,-0.003 -0.051,-0.008 -0.078,-0.013 l -1.43,-0.232 -0.166,-1.488 -1.383,-0.729 c -0.402,0.262 -0.83,0.396 -1.25,0.396 -0.648,0 -1.227,-0.321 -1.598,-0.871 -0.025,0.05 -0.051,0.101 -0.08,0.148 -0.26,0.414 -0.676,0.649 -1.143,0.649 -0.467,0 -0.818,-0.228 -1.17,-0.491 -0.037,0.023 -0.08,0.054 -0.133,0.089 -0.457,0.317 -0.99,0.466 -1.463,0.397 -0.057,0.025 -0.145,0.063 -0.27,0.14 -0.408,0.237 -0.811,0.454 -1.279,0.454 -0.092,0 -0.199,-0.008 -0.316,-0.031 -0.037,0.037 -0.066,0.081 -0.092,0.129 -0.203,0.377 -0.537,0.815 -1.037,0.956 -0.033,0.022 -0.078,0.052 -0.125,0.091 -0.447,0.352 -0.998,0.54 -1.59,0.54 -0.055,0 -0.113,-0.002 -0.17,-0.005 -0.025,0.027 -0.055,0.057 -0.08,0.083 -0.004,0.091 -0.014,0.185 -0.029,0.286 0.271,0.49 0.16,0.911 0.053,1.137 -0.012,0.025 -0.027,0.054 -0.043,0.084 0.17,0.401 0.453,1.231 0.01,1.918 -0.131,0.2 -0.311,0.359 -0.516,0.469 -0.055,0.131 -0.1,0.295 -0.109,0.391 0.117,0.6 0.137,2.116 0.141,2.591 0.008,0.91 0.041,1.502 0.066,1.739 0.109,0.261 0.166,0.582 0.17,0.963 0.006,0.007 0.014,0.014 0.02,0.021 0.234,0.215 0.934,0.867 0.6,1.723 -0.186,0.479 -0.654,0.791 -1.191,0.791 -0.283,0 -0.6,-0.085 -1.016,-0.269 -0.004,0.008 -0.014,0.018 -0.02,0.027 -0.723,0.987 -1.188,1.034 -2.428,1.034 -1.139,0 -1.615,-0.17 -1.859,-0.33 -0.346,-0.111 -1.348,-0.295 -1.781,-0.295 h -0.027 c -0.863,0.028 -1.701,0.194 -2.428,0.484 l -1.398,0.559 -1.494,-0.751 c -0.977,-0.489 -2.33,-0.89 -3.912,-1.154 -1.889,-0.317 -2.291,-0.417 -4.297,-1.062 -1.031,-0.33 -2.352,-0.85 -2.979,-1.261 -0.311,-0.207 -0.529,-0.342 -0.629,-0.396 -0.203,-0.081 -0.451,-0.231 -0.838,-0.493 -0.139,-0.094 -0.264,-0.149 -0.334,-0.149 -0.033,0 -0.338,0.024 -1.01,0.906 -0.166,0.216 -1.646,2.118 -2.777,2.372 -0.123,0.025 -0.311,0.068 -0.482,0.104 -0.123,0.149 -0.273,0.409 -0.352,0.604 0.398,0.055 0.734,0.235 1,0.544 0.262,-0.166 0.578,-0.254 0.936,-0.254 0.424,0 0.912,0.12 1.738,0.432 0.473,0.179 1.061,0.29 1.258,0.29 0.613,-0.001 1.625,-0.253 1.992,-0.452 0.256,-0.137 0.736,-0.317 1.996,-0.317 0.066,0 0.133,0 0.197,0.002 1.576,0.023 2.725,0.396 4.092,1.337 0.24,0.163 0.902,0.545 1.479,0.833 0.541,0.273 1.311,0.688 1.668,0.915 0.322,0.201 1.125,0.534 1.525,0.671 0.346,-0.027 0.697,0.097 1.025,0.369 0.799,0.665 1.334,3.021 1.17,3.908 -0.049,0.266 -0.082,0.511 -0.088,0.583 -0.004,0.113 -0.02,0.429 -0.475,1.937 -0.449,1.48 -0.705,3.99 -0.645,4.656 0.16,0.286 0.375,0.797 0.148,1.359 -0.178,0.439 -0.549,0.737 -1.1,0.881 -0.076,0.037 -0.213,0.145 -0.297,0.233 -0.068,0.36 -0.25,0.688 -0.426,0.91 -0.123,0.25 -0.322,0.943 -0.412,1.393 l 0.195,0.203 -0.807,1.888 c -0.094,0.327 -0.283,0.795 -0.453,1.165 0.195,0.23 0.312,0.538 0.312,0.876 0,0.313 -0.109,0.619 -0.291,0.876 0.074,0.268 0.176,0.607 0.223,0.755 l 0.504,1.642 -1.076,0.936 c 0.059,0.225 0.059,0.455 -0.006,0.684 -0.164,0.584 -0.717,0.969 -1.355,0.941 -0.088,0.289 -0.234,0.572 -0.361,0.797 -0.086,0.141 -0.232,0.51 -0.314,0.801 0.039,0.016 0.082,0.031 0.127,0.045 l 1.658,0.551 -0.203,1.736 c -0.008,0.051 -0.014,0.098 -0.016,0.135 0.434,0.408 1.043,1.277 0.289,2.592 -0.021,0.041 -0.049,0.113 -0.061,0.152 -0.045,0.568 -0.426,1.119 -0.545,1.279 -0.006,0.01 -0.012,0.016 -0.016,0.023 0.004,0.271 0.131,1.041 0.236,1.674 0.082,0.484 0.189,1.154 0.244,1.479 0.025,0.141 0.061,0.273 0.084,0.338 0.318,0.48 0.326,1.074 0.025,1.57 -0.033,0.156 -0.086,0.51 -0.113,0.941 -0.068,1.129 -0.24,1.654 -0.379,1.912 -0.025,0.135 -0.062,0.475 -0.07,1.061 -0.016,1.643 -0.236,2.045 -0.395,2.248 -0.203,0.385 -0.836,2.25 -1.172,3.762 l -0.514,2.309 -1.58,0.197 c -0.375,0.051 -1.07,0.176 -1.521,0.279 -0.52,0.117 -1.672,0.322 -2.625,0.469 l -2.008,0.305 -1.318,-0.602 c -0.516,-0.236 -1.504,-0.635 -2.16,-0.875 -0.523,-0.188 -1.395,-0.512 -1.645,-0.631 -0.854,-0.396 -3.156,-1.299 -4.039,-1.58 -0.033,-0.012 -3.426,-1.23 -3.979,-2.369 -0.252,-0.516 -0.469,-1.096 -0.729,-1.939 -0.496,-1.619 -0.584,-1.668 -0.711,-1.736 -0.074,-0.043 -0.121,-0.061 -0.146,-0.074 -0.119,0.012 -0.396,0.068 -0.508,0.09 -0.365,0.076 -1.283,0.434 -2.273,0.957 -1.512,0.793 -2.018,1.002 -3.154,1.068 -0.553,0.033 -1.725,0.111 -2.611,0.174 -0.697,0.051 -1.326,0.084 -1.646,0.088 -0.303,0.145 -0.701,0.219 -1.186,0.219 -0.043,0 -0.08,0 -0.121,-0.002 -0.043,0 -0.086,0 -0.115,0 -0.021,0.018 -0.053,0.045 -0.102,0.088 0.006,0.008 0.01,0.012 0.018,0.018 0.055,0.053 0.15,0.139 0.225,0.203 0.074,-0.01 0.16,-0.016 0.217,-0.023 0.223,-0.029 0.422,-0.041 0.611,-0.041 0.473,0 0.883,0.09 1.246,0.271 0.129,0.064 0.428,0.164 0.576,0.191 0.613,0.117 1.994,0.771 2.057,0.799 0.711,0.336 1.924,0.908 2.695,1.268 0.766,0.359 1.707,0.717 2.074,0.809 0.504,0.129 1.193,0.35 1.533,0.525 0.059,0.029 0.158,0.062 0.211,0.072 0.521,0.021 1.035,0.309 1.336,0.746 0.102,0.082 0.35,0.25 0.656,0.418 0.967,0.514 3.656,2.287 4.223,2.82 0.104,0.098 0.418,0.363 0.682,0.568 0.275,0.217 1.068,0.85 1.766,1.412 1.344,1.078 2.943,2.279 3.344,2.545 0.195,0.08 0.432,0.225 0.777,0.455 0.039,0.029 0.082,0.051 0.117,0.07 0.619,-0.06 1.156,0.26 1.426,0.811 z m 8.207,-15.58 c -0.025,0.031 -0.049,0.061 -0.066,0.092 0.021,-0.036 0.042,-0.069 0.066,-0.092 z M 201.818,9.066 c 0.1,0.059 0.186,0.121 0.256,0.189 -0.092,-0.09 -0.181,-0.149 -0.256,-0.189 z"
           inkscape:connector-curvature="0"
           id="path9"
           style="fill:#010202" /></g></g><g
       transform="translate(20,20)"
       id="layer2_11_"><path
         d="m 180.834,66.188 2.684,12.701 3.615,2.434 -6.299,-15.135 z"
         inkscape:connector-curvature="0"
         id="path3292_11_"
         style="fill:#cc4117" /><path
         d="m 226.467,38.811 -18.906,12.666 4.379,-12.852 14.527,0.186 z"
         inkscape:connector-curvature="0"
         id="path3220_11_"
         style="fill:#7dbd67" /><path
         d="m 207.561,51.477 10.338,-0.561 12.223,-12.859 -3.654,0.754 -18.907,12.666 z"
         inkscape:connector-curvature="0"
         id="path3226_11_"
         style="fill:#4cbab1" /><path
         d="m 217.898,50.916 4.377,-4.842 5.961,2.518 -7.473,4.525 -4.795,0.053 1.93,-2.254 z"
         inkscape:connector-curvature="0"
         id="path3228_11_"
         style="fill:#009948" /><path
         d="m 207.561,51.477 -6.889,2.328 3.055,0.902 5.033,-0.553 -1.199,-2.677 z"
         inkscape:connector-curvature="0"
         id="path3230_11_"
         style="fill:#185025" /><path
         d="m 207.561,51.477 10.338,-0.561 -1.303,1.697 -7.916,1.562 -1.119,-2.698 z"
         inkscape:connector-curvature="0"
         id="path3234_11_"
         style="fill:#3d6875" /><path
         d="m 228.236,48.592 6.146,4.281 -6.646,-1.666 -7.049,1.727 7.549,-4.342 z"
         inkscape:connector-curvature="0"
         id="path3238_11_"
         style="fill:#284820" /><path
         d="m 228.236,48.592 1.809,-10.57 6.852,0.604 -8.661,9.966 z"
         inkscape:connector-curvature="0"
         id="path3240_11_"
         style="fill:#9ec9ed" /><path
         d="m 234.492,52.836 2.033,-1.951 -3.447,-2.484 -4.842,0.191 6.256,4.244 z"
         inkscape:connector-curvature="0"
         id="path3242_11_"
         style="fill:#248f96" /><path
         d="m 233.373,48.625 3.523,-10 -8.66,9.967 5.137,0.033 z"
         inkscape:connector-curvature="0"
         id="path3244_11_"
         style="fill:#3cb9be" /><path
         d="m 236.896,38.625 0,0 1.863,4.656 0.223,-3.855 -2.086,-0.801 z"
         inkscape:connector-curvature="0"
         id="path3246_11_"
         style="fill:#034896" /><path
         d="m 236.896,38.625 -1.211,3.354 3.461,1.838 -2.25,-5.192 z"
         inkscape:connector-curvature="0"
         id="path3248_11_"
         style="fill:#3566af" /><path
         d="m 235.686,41.979 c 2.867,1.324 5.52,2.871 7.945,4.641 l -8.971,-1.754 1.026,-2.887 z"
         inkscape:connector-curvature="0"
         id="path3250_11_"
         style="fill:#ffe533" /><path
         d="m 234.66,44.865 -1.434,3.76 6.186,4.715 -4.752,-8.475 z"
         inkscape:connector-curvature="0"
         id="path3252_11_"
         style="fill:#825412" /><path
         d="m 234.66,44.865 12.479,11.361 -7.727,-2.887 -4.752,-8.474 z"
         inkscape:connector-curvature="0"
         id="path3254_11_"
         style="fill:#904224" /><path
         d="M 234.66,44.865 254.402,56.97 243.945,46.6 234.66,44.865 z"
         inkscape:connector-curvature="0"
         id="path3256_11_"
         style="fill:#fab52e" /><path
         d="M 254.402,56.971 247.138,56.227 234.66,44.865 254.402,56.971 z"
         inkscape:connector-curvature="0"
         id="path3258_11_"
         style="fill:#cf5416" /><path
         d="m 247.139,56.227 6.986,4.746 0.277,-4.002 -7.263,-0.744 z"
         inkscape:connector-curvature="0"
         id="path3260_11_"
         style="fill:#5a2b81" /><path
         d="m 254.402,56.971 0.467,-3.258 -2.68,-1.1 -7.322,-4.836 9.535,9.194 -0.277,4.002 2.777,1.17 -2.5,-5.172"
         inkscape:connector-curvature="0"
         id="path3262_11_"
         style="fill:#8e539c" /><path
         d="m 256.846,62.305 1.146,-0.258 2.057,-3.826 -5.646,-1.25 0,0 2.443,5.334 z"
         inkscape:connector-curvature="0"
         id="path3264_11_"
         style="fill:#064e99" /><path
         d="m 254.402,56.971 0.467,-3.258 2.189,-0.643 3.957,-2.338 -6.613,6.239 z"
         inkscape:connector-curvature="0"
         id="path3266_11_"
         style="fill:#474e9c" /><path
         d="m 254.402,56.971 6.613,-6.238 -0.395,5.475 -0.699,2.039 -5.519,-1.276 z"
         inkscape:connector-curvature="0"
         id="path3268_11_"
         style="fill:#3174ba" /><path
         d="m 261.016,50.732 3.039,-1.254 -0.654,-2.764 -1.139,0.898 -1.922,3.5 0.676,-0.38 z"
         inkscape:connector-curvature="0"
         id="path3272_11_"
         style="fill:#84cee9" /><path
         d="m 264.037,52.43 -3.021,-1.697 -0.355,5 3.395,-3.396"
         inkscape:connector-curvature="0"
         id="path3274_11_"
         style="fill:#9bbacc" /><path
         d="m 200.672,53.805 -10.955,-10.045 17.844,7.717 -6.889,2.328 z"
         inkscape:connector-curvature="0"
         id="path3278_11_"
         style="fill:#9a6814" /><path
         d="m 207.561,51.477 4.379,-12.852 -12.133,9.498 7.754,3.354 z"
         inkscape:connector-curvature="0"
         id="path3280_11_"
         style="fill:#bcc03c" /><path
         d="m 199.807,48.123 12.133,-9.498 -12.77,2.832 -9.453,2.303 10.09,4.363 z"
         inkscape:connector-curvature="0"
         id="path3282_11_"
         style="fill:#f4991d" /><path
         d="m 198.625,55.943 -0.957,14.768 9.689,-15.881 -8.732,1.113"
         inkscape:connector-curvature="0"
         id="path3116_11_"
         style="fill:#354f21" /><path
         d="m 198.625,55.943 -4.666,-8.293 6.713,6.154"
         inkscape:connector-curvature="0"
         id="path3114_11_"
         style="fill:#b98a0e" /><path
         d="m 200.672,53.805 -2.047,2.139 8.936,-1.273 -6.889,-0.866"
         inkscape:connector-curvature="0"
         id="path3288_11_"
         style="fill:#407b30" /><path
         d="m 197.668,70.711 -12.275,2.988 4.34,7.141 7.935,-10.129 z"
         inkscape:connector-curvature="0"
         id="path3290_11_"
         style="fill:#0c682f" /><path
         d="m 180.834,66.188 8.898,14.652 -2.6,0.482 -6.298,-15.134 z"
         inkscape:connector-curvature="0"
         id="path3294_11_"
         style="fill:#e52620" /><path
         d="m 180.834,66.188 -15.268,-4.838 16.119,8.855 -0.851,-4.017"
         inkscape:connector-curvature="0"
         id="path3296_11_"
         style="fill:#e73d1f" /><path
         d="m 181.686,70.205 -16.119,-8.855 17.217,14.062 -1.098,-5.207 z"
         inkscape:connector-curvature="0"
         id="path3298_11_"
         style="fill:#991915" /><path
         d="m 165.566,61.35 -0.201,-4.949 -4.035,1.828 4.236,3.121 z"
         inkscape:connector-curvature="0"
         id="path3302_11_"
         style="fill:#333366" /><path
         d="m 165.566,61.35 -4.236,-3.121 -6.014,0.672 10.25,2.449 z"
         inkscape:connector-curvature="0"
         id="path3304_11_"
         style="fill:#2864ae" /><path
         d="m 155.131,61.311 10.436,0.039 -6.195,1.594 -2.578,-1.045"
         inkscape:connector-curvature="0"
         id="path3306_11_"
         style="fill:#9ec9ed" /><path
         d="m 165.566,61.35 -1.248,3.348 -5.426,-2.084"
         inkscape:connector-curvature="0"
         id="path3308_11_"
         style="fill:#9294c9" /><path
         d="m 165.566,61.35 3.193,6.229 -4.768,-2.451"
         inkscape:connector-curvature="0"
         id="path3310_11_"
         style="fill:#67679a" /><path
         d="m 182.783,75.412 -17.217,-14.062 3.193,6.229 14.697,10.486 -0.673,-2.653 z"
         inkscape:connector-curvature="0"
         id="path3314_11_"
         style="fill:#6f2a0d" /><path
         d="m 180.834,66.188 17.35,-3.426 -12.791,10.938 -4.559,-7.512 z"
         inkscape:connector-curvature="0"
         id="path3316_11_"
         style="fill:#53af3a" /><path
         d="m 198.184,62.762 -0.516,7.949 -12.275,2.988 12.791,-10.937 z"
         inkscape:connector-curvature="0"
         id="path3318_11_"
         style="fill:#0c9a39" /><path
         d="m 198.625,55.943 -11.199,9.145 10.758,-2.326 0.441,-6.819 z"
         inkscape:connector-curvature="0"
         id="path3320_11_"
         style="fill:#0d9a39" /><path
         d="m 198.625,55.943 -9.025,0.006 -0.297,-6.646 9.322,6.64 z"
         inkscape:connector-curvature="0"
         id="path3322_11_"
         style="fill:#8b9966" /><path
         d="m 189.6,55.949 4.59,3.617 4.436,-3.623 -9.026,0.006 z"
         inkscape:connector-curvature="0"
         id="path3324_11_"
         style="fill:#dae395" /><path
         d="m 189.6,55.949 -0.561,3.588 5.15,0.029"
         inkscape:connector-curvature="0"
         id="path3326_11_"
         style="fill:#526734" /><path
         d="m 189.039,59.537 -1.613,5.551 6.764,-5.521"
         inkscape:connector-curvature="0"
         id="path3328_11_"
         style="fill:#73b72b" /><path
         d="m 211.939,38.625 -14.434,-3.073 1.664,5.905 12.77,-2.832 z"
         inkscape:connector-curvature="0"
         id="path3330_11_"
         style="fill:#ffea0f" /><path
         d="m 211.939,38.625 -14.434,-3.073 1.725,-6.145 12.709,9.218 z"
         inkscape:connector-curvature="0"
         id="path3346_11_"
         style="fill:#263570" /><path
         d="m 211.939,38.625 1.514,-4.623 -14.223,-4.595 12.709,9.218 z"
         inkscape:connector-curvature="0"
         id="path3348_11_"
         style="fill:#3a235e" /><path
         d="m 213.453,34.002 -14.223,-4.595 17.188,-5.924 -0.666,4.939 -2.299,5.58 z"
         inkscape:connector-curvature="0"
         id="path3350_11_"
         style="fill:#263686" /><path
         d="m 189.035,39.875 10.135,1.582 -9.453,2.303 -1.432,-1.244 0.75,-2.641 z"
         inkscape:connector-curvature="0"
         id="path3362_11_"
         style="fill:#63b22f" /><path
         d="m 197.506,35.552 1.664,5.905 -10.135,-1.582 8.471,-4.323 z"
         inkscape:connector-curvature="0"
         id="path3364_11_"
         style="fill:#b5cd35" /><path
         d="m 197.506,35.552 -8.471,4.323 2.398,-2.342 -1.098,-2.722 1.115,-3.569 6.056,4.31 z"
         inkscape:connector-curvature="0"
         id="path3366_11_"
         style="fill:#0c9a39" /><path
         d="m 197.506,35.552 -3.875,-9.084 -2.18,4.773 6.055,4.311 z"
         inkscape:connector-curvature="0"
         id="path3370_11_"
         style="fill:#057549" /><path
         d="m 199.23,29.408 -5.6,-2.939 3.875,9.084 1.725,-6.145"
         inkscape:connector-curvature="0"
         id="path3372_11_"
         style="fill:#1f3d8a" /><path
         d="m 199.23,29.408 0.465,-7.266 -6.064,4.326 5.599,2.94 z"
         inkscape:connector-curvature="0"
         id="path3374_11_"
         style="fill:#079da9" /><path
         d="m 199.23,29.408 6.729,-2.32 -6.264,-4.945 -0.465,7.265 z"
         inkscape:connector-curvature="0"
         id="path3376_11_"
         style="fill:#066bb0" /><path
         d="m 199.695,22.142 -4.906,-3.615 -1.158,7.941 6.064,-4.326"
         inkscape:connector-curvature="0"
         id="path3888_11_"
         style="fill:#66c5e1" /><path
         d="m 199.695,22.142 16.723,1.342 -10.459,3.604 -6.264,-4.946"
         inkscape:connector-curvature="0"
         id="path3378_11_"
         style="fill:#65327d" /><path
         d="m 217.658,22.465 -3.102,-4.253 -14.861,3.93 16.723,1.342 1.24,-1.019 z"
         inkscape:connector-curvature="0"
         id="path3382_11_"
         style="fill:#542679" /><path
         d="m 214.557,18.212 -4.307,-5.398 -6.162,8.135 10.469,-2.737 z"
         inkscape:connector-curvature="0"
         id="path3386_11_"
         style="fill:#2b4b9b" /><path
         d="m 204.088,20.949 -1.461,-7.419 -2.143,5.728 -0.789,2.885 4.393,-1.194 z"
         inkscape:connector-curvature="0"
         id="path3398_11_"
         style="fill:#11bae5" /><path
         d="m 202.627,13.53 1.461,7.419 6.162,-8.135 -7.623,0.716 z"
         inkscape:connector-curvature="0"
         id="path3400_11_"
         style="fill:#0a5aa6" /><path
         d="m 210.406,12.868 -4.357,-3.472 -3.422,4.134 7.623,-0.716"
         inkscape:connector-curvature="0"
         id="path3402_11_"
         style="fill:#607abb" /><path
         d="m 205.994,9.707 -6.967,0.387 3.6,3.437 3.316,-3.874"
         inkscape:connector-curvature="0"
         id="path3404_11_"
         style="fill:#a5a5d2" /><path
         d="m 202.627,13.53 -16.736,-1.479 6.416,3.198 10.32,-1.719 z"
         inkscape:connector-curvature="0"
         id="path3406_11_"
         style="fill:#b9ce00" /><path
         d="m 202.627,13.53 -10.32,1.719 3.111,2.877 7.209,-4.596 z"
         inkscape:connector-curvature="0"
         id="path3408_11_"
         style="fill:#f3e600" /><path
         d="m 202.627,13.53 -3.301,-3.372 -13.436,1.893 16.737,1.479 z"
         inkscape:connector-curvature="0"
         id="path3410_11_"
         style="fill:#71b73a" /><path
         d="m 196.941,10.696 -12.777,-3.478 7.957,4.113 4.82,-0.635 z"
         inkscape:connector-curvature="0"
         id="path3412_11_"
         style="fill:#0c9a39" /><path
         d="m 188.617,11.735 3.504,-0.403 -7.957,-4.113 4.064,4.562"
         inkscape:connector-curvature="0"
         id="path3414_11_"
         style="fill:#52b266" /><path
         d="m 178.789,9.618 7.336,-0.2 -5.658,-4.026 -1.678,4.226 z"
         inkscape:connector-curvature="0"
         id="path3416_11_"
         style="fill:#62c7f2" /><path
         d="m 178.789,9.618 3.891,2.806 3.445,-3.006"
         inkscape:connector-curvature="0"
         id="path3418_11_"
         style="fill:#b2dcd5" /><path
         d="m 182.68,12.423 5.549,-0.643 -2.104,-2.363 -3.445,3.006 z"
         inkscape:connector-curvature="0"
         id="path3420_11_"
         style="fill:#50bdc1" /><path
         d="m 184.164,7.218 -3.697,-1.827 5.658,4.026"
         inkscape:connector-curvature="0"
         id="path3422_11_"
         style="fill:#257fc3" /><path
         d="m 178.789,9.618 -4.129,0.847 0.775,-1.242 5.031,-3.831 -1.677,4.226 z"
         inkscape:connector-curvature="0"
         id="path3424_11_"
         style="fill:#448ecc" /><path
         d="m 178.789,9.618 -4.129,0.847 1.697,1.758 6.322,0.201 -3.89,-2.806 z"
         inkscape:connector-curvature="0"
         id="path3426_11_"
         style="fill:#5b81c1" /><path
         d="m 221.045,17.784 12.748,-3.835 -12.6,1.236 -0.148,2.599 z"
         inkscape:connector-curvature="0"
         id="path3444_11_"
         style="fill:#9c2a15" /><path
         d="m 233.834,13.988 9.16,-7.678 1.541,1.572 -10.701,6.106 z"
         inkscape:connector-curvature="0"
         id="path3446_11_"
         style="fill:#67679a" /><path
         d="m 222.18,11.482 11.689,0.094 -12.688,3.597"
         inkscape:connector-curvature="0"
         id="path3448_11_"
         style="fill:#a71916" /><path
         d="m 233.834,13.988 0.035,-2.412 9.125,-5.266 -9.16,7.678"
         inkscape:connector-curvature="0"
         id="path3450_11_"
         style="fill:#9a6814" /><path
         d="M 233.869,11.576 234.16,7.987 242.994,6.31"
         inkscape:connector-curvature="0"
         id="path3452_11_"
         style="fill:#e94c20" /><path
         d="m 234.16,7.987 -10.311,3.495 10.02,0.094"
         inkscape:connector-curvature="0"
         id="path3454_11_"
         style="fill:#fbb80b" /><path
         d="M 242.994,6.31 242.683,4.841 234.16,7.987"
         inkscape:connector-curvature="0"
         id="path3456_11_"
         style="fill:#8e67aa" /><path
         d="m 242.684,4.841 3.33,-3.014 1.244,-0.327 -4.264,4.81"
         inkscape:connector-curvature="0"
         id="path3491_11_"
         style="fill:#ad65a5" /><path
         d="m 242.994,6.31 5.346,-0.732 -3.805,2.305"
         inkscape:connector-curvature="0"
         id="path3458_11_"
         style="fill:#999acc" /><path
         d="m 242.994,6.31 4.465,-5.071 2.217,2.413 -6.682,2.658"
         inkscape:connector-curvature="0"
         id="path3460_11_"
         style="fill:#257fc3" /><path
         d="m 248.768,1.166 1.393,-0.789 3.08,1.8 -4.473,-1.011 z"
         inkscape:connector-curvature="0"
         id="path3462_11_"
         style="fill:#9ec9ed" /><path
         d="m 247.588,1.481 2.088,2.171 2.604,-0.385 1.512,-1.108 -5.521,-1.247"
         inkscape:connector-curvature="0"
         id="path3464_11_"
         style="fill:#61b1e3" /><path
         d="m 249.676,3.652 1.098,-0.436 -0.395,1.711 -4.227,1.459 -3.158,-0.076 6.682,-2.658 z"
         inkscape:connector-curvature="0"
         id="path3466_11_"
         style="fill:#6b6baf" /><path
         d="m 189.303,49.303 4.656,-1.652 -4.242,-3.891 0.811,2.305 -1.225,3.238 z"
         inkscape:connector-curvature="0"
         id="path3483_11_"
         style="fill:#ffea0f" /><path
         d="m 165.566,61.35 2.137,-2.984 1.076,2.686 12.055,5.137 -15.268,-4.839 z"
         inkscape:connector-curvature="0"
         id="path3485_11_"
         style="fill:#ef7850" /><path
         d="m 167.703,58.365 -0.762,-1.545 -1.715,-0.473 0.34,5.002 2.137,-2.984 z"
         inkscape:connector-curvature="0"
         id="path3487_11_"
         style="fill:#6063ab" /><path
         d="m 222.275,46.074 5.961,2.518 1.92,-10.646 -7.881,8.128 z"
         inkscape:connector-curvature="0"
         id="path3493_11_"
         style="fill:#44bccb" /><path
         d="m 261.016,50.732 3.113,-1.365 -0.221,3.174 -2.892,-1.809 z"
         inkscape:connector-curvature="0"
         id="path3495_11_"
         style="fill:#3cbddc" /><path
         d="m 189.303,49.303 4.656,-1.652 4.666,8.293 -9.322,-6.641 z"
         inkscape:connector-curvature="0"
         id="path3497_11_"
         style="fill:#ffcc07" /><path
         d="m 165.566,61.35 -10.803,-2.672 -1.469,0.885 -0.449,0.9 1.105,1.004 11.616,-0.117"
         inkscape:connector-curvature="0"
         id="path3499_11_"
         style="fill:#448ecc" /><path
         d="m 221.232,15.172 12.637,-3.597 -0.035,2.412 -12.602,1.185 z"
         inkscape:connector-curvature="0"
         id="path3501_11_"
         style="fill:#d65214" /><path
         d="m 218.795,11.615 8.449,-2.921 -0.521,-5.841 -7.928,8.762 z"
         inkscape:connector-curvature="0"
         id="path3146_11_"
         style="fill:#3c6ab1" /><path
         d="m 218.795,11.615 6.098,-11.307 -4.766,-4.968 -5.43,-0.721 4.098,16.996 z"
         inkscape:connector-curvature="0"
         id="path3148_11_"
         style="fill:#b84894" /><path
         d="m 218.795,11.615 -4.098,-16.995 -4.426,0.94 -2.875,1.647 -2.133,0.6 13.532,13.808 z"
         inkscape:connector-curvature="0"
         id="path3150_11_"
         style="fill:#ea5556" /><path
         d="m 218.795,11.615 -13.531,-13.808 0.785,11.589 4.201,3.418 8.545,-1.199 z"
         inkscape:connector-curvature="0"
         id="path3152_11_"
         style="fill:#efc105" /><path
         d="m 218.795,11.615 1.057,1.691 1.273,2.066 -6.568,2.84 4.238,-6.597 z"
         inkscape:connector-curvature="0"
         id="path3156_11_"
         style="fill:#89bd24" /><path
         d="m 214.557,18.212 3.102,4.253 1.461,-3.088 2.029,-1.712 -0.023,-2.293 -6.569,2.84 z"
         inkscape:connector-curvature="0"
         id="path3160_11_"
         style="fill:#432683" /><path
         d="m 202.627,13.53 -7.838,4.997 4.906,3.615 2.932,-8.612 z"
         inkscape:connector-curvature="0"
         id="path3396_11_"
         style="fill:#3d88b7" /><path
         d="m 218.795,11.615 7.197,-7.954 -0.16,-2.293 -1.314,-0.366 -5.723,10.613 z"
         inkscape:connector-curvature="0"
         id="path3162_11_"
         style="fill:#8078b7" /><path
         d="m 210.25,12.814 8.545,-1.199 -4.238,6.598 -4.307,-5.399 z"
         inkscape:connector-curvature="0"
         id="path3938_11_"
         style="fill:#f0e508" /><path
         d="m 218.795,11.615 3.188,-1.102 0.326,1.015 -0.289,0.786 -0.895,3.059 -2.33,-3.758 z"
         inkscape:connector-curvature="0"
         id="path3940_11_"
         style="fill:#49bcc3" /></g></g><g
     id="g120"><path
       d="m 21.586,46.407 h 4.129 c 1.808,0 3.281,1.475 3.281,3.281 V 67.68 c 0,0.553 -0.333,0.848 -0.847,0.848 h -3.725 c -0.517,0 -0.846,-0.295 -0.846,-0.848 V 51.495 c 0,-0.588 -0.334,-0.847 -0.811,-0.847 H 21.584 V 67.68 c 0,0.553 -0.295,0.848 -0.811,0.848 H 17.05 c -0.552,0 -0.849,-0.295 -0.849,-0.848 V 42.281 c 0,-0.518 0.297,-0.811 0.849,-0.811 h 3.723 c 0.516,0 0.811,0.293 0.811,0.811 v 4.126 z"
       inkscape:connector-curvature="0"
       id="path122"
       style="fill:#009fe3" /><path
       d="m 37.224,63.439 c 0,0.516 0.334,0.811 0.85,0.85 l 2.212,0.219 c 0.517,0.039 0.847,0.297 0.847,0.85 v 2.322 c 0,0.553 -0.33,0.848 -0.847,0.848 h -5.162 c -1.843,0 -3.281,-1.475 -3.281,-3.281 V 50.648 l -0.699,-0.186 c -0.553,-0.11 -0.849,-0.293 -0.849,-0.811 v -1.695 c 0,-0.517 0.296,-0.811 0.701,-1.032 l 0.847,-0.518 1.327,-3.499 c 0.186,-0.517 0.516,-0.85 1.071,-0.85 h 2.138 c 0.552,0 0.846,0.333 0.846,0.85 v 3.499 h 2.617 c 0.517,0 0.85,0.298 0.85,0.85 v 2.396 c 0,0.518 -0.333,0.775 -0.85,0.811 l -2.617,0.186 v 12.79 z"
       inkscape:connector-curvature="0"
       id="path124"
       style="fill:#009fe3" /><path
       d="m 48.693,63.439 c 0,0.516 0.333,0.811 0.849,0.85 l 2.213,0.219 c 0.516,0.039 0.846,0.297 0.846,0.85 v 2.322 c 0,0.553 -0.33,0.848 -0.846,0.848 h -5.163 c -1.843,0 -3.281,-1.475 -3.281,-3.281 V 50.648 l -0.698,-0.186 c -0.553,-0.11 -0.85,-0.293 -0.85,-0.811 v -1.695 c 0,-0.517 0.297,-0.811 0.702,-1.032 l 0.846,-0.518 1.327,-3.499 c 0.187,-0.517 0.516,-0.85 1.068,-0.85 h 2.141 c 0.552,0 0.847,0.333 0.847,0.85 v 3.499 h 2.618 c 0.516,0 0.849,0.298 0.849,0.85 v 2.396 c 0,0.518 -0.333,0.775 -0.849,0.811 l -2.618,0.186 v 12.79 z"
       inkscape:connector-curvature="0"
       id="path126"
       style="fill:#009fe3" /><path
       d="m 54.153,47.256 c 0,-0.552 0.297,-0.85 0.85,-0.85 h 2.947 c 0.627,0 1.033,0.37 1.219,0.923 0.921,-0.479 2.284,-0.923 4.496,-0.923 1.844,0 3.281,1.292 3.281,3.281 v 15.558 c 0,1.807 -1.474,3.281 -3.281,3.281 h -4.127 v 3.355 c 0,0.553 -0.297,0.846 -0.813,0.846 h -3.722 c -0.553,0 -0.85,-0.293 -0.85,-0.846 V 47.256 z m 5.385,3.612 v 13.421 h 1.176 c 0.518,0 0.814,-0.334 0.814,-0.85 V 51.717 c 0,-0.591 -0.333,-0.85 -0.814,-0.85 h -1.176 z"
       inkscape:connector-curvature="0"
       id="path128"
       style="fill:#009fe3" /><path
       d="m 75.174,61.965 c 0,-0.48 -0.22,-0.699 -0.663,-0.922 l -2.249,-1.068 c -1.621,-0.773 -2.946,-1.402 -2.946,-3.208 v -7.078 c 0,-1.989 1.325,-3.281 3.61,-3.281 h 6.267 c 0.553,0 0.848,0.298 0.848,0.85 v 2.285 c 0,0.552 -0.295,0.849 -0.848,0.849 l -3.649,0.295 c -0.481,0 -0.847,0.294 -0.847,0.847 v 2.803 c 0,0.405 0.183,0.664 0.664,0.883 l 2.212,1.071 c 1.692,0.774 3.022,1.399 3.022,3.206 v 5.752 c 0,1.99 -1.33,3.281 -3.65,3.281 h -7.153 c -0.552,0 -0.846,-0.295 -0.846,-0.848 v -2.398 c 0,-0.516 0.294,-0.773 0.846,-0.811 l 4.536,-0.404 c 0.516,-0.037 0.847,-0.258 0.847,-0.848 v -1.256 z"
       inkscape:connector-curvature="0"
       id="path130"
       style="fill:#009fe3" /><path
       d="m 87.162,49.578 c 0.517,0 0.813,0.297 0.813,0.812 v 3.281 c 0,0.553 -0.297,0.846 -0.813,0.846 h -3.944 c -0.552,0 -0.847,-0.293 -0.847,-0.846 V 50.39 c 0,-0.516 0.295,-0.812 0.847,-0.812 h 3.944 z m 0,9.586 c 0.517,0 0.813,0.295 0.813,0.811 v 3.281 c 0,0.553 -0.297,0.846 -0.813,0.846 h -3.944 c -0.552,0 -0.847,-0.293 -0.847,-0.846 v -3.281 c 0,-0.516 0.295,-0.811 0.847,-0.811 h 3.944 z"
       inkscape:connector-curvature="0"
       id="path132"
       style="fill:#009fe3" /><path
       d="m 96.384,41.47 c 0.516,0 0.849,0.293 0.737,0.811 l -4.202,29.602 c -0.075,0.553 -0.369,0.846 -0.922,0.846 h -2.396 c -0.479,0 -0.774,-0.293 -0.701,-0.846 l 4.165,-29.602 c 0.076,-0.518 0.406,-0.811 0.923,-0.811 h 2.396 z"
       inkscape:connector-curvature="0"
       id="path134"
       style="fill:#009fe3" /><path
       d="m 104.719,41.47 c 0.517,0 0.849,0.293 0.738,0.811 l -4.202,29.602 c -0.075,0.553 -0.369,0.846 -0.922,0.846 h -2.396 c -0.479,0 -0.774,-0.293 -0.702,-0.846 l 4.166,-29.602 c 0.075,-0.518 0.406,-0.811 0.922,-0.811 h 2.396 z"
       inkscape:connector-curvature="0"
       id="path136"
       style="fill:#009fe3" /><path
       d="m 112.024,63.625 c 0,0.404 0.184,0.625 0.588,0.664 l 1.145,0.182 c 0.405,0.037 0.663,0.295 0.663,0.664 v 2.545 c 0,0.553 -0.294,0.848 -0.849,0.848 h -3.65 c -1.805,0 -3.281,-1.475 -3.281,-3.281 V 42.281 c 0,-0.518 0.297,-0.811 0.85,-0.811 h 3.722 c 0.517,0 0.813,0.293 0.813,0.811 v 21.344 z"
       inkscape:connector-curvature="0"
       id="path138"
       style="fill:#009fe3" /><path
       d="m 118.994,68.527 c -1.804,0 -3.28,-1.475 -3.28,-3.281 V 49.688 c 0,-1.879 1.512,-3.281 3.28,-3.281 h 6.231 c 1.807,0 3.281,1.475 3.281,3.281 v 7.706 c 0,1.807 -1.732,2.692 -3.504,3.022 l -3.908,0.773 v 2.25 c 0,0.516 0.334,0.85 0.851,0.85 l 5.715,0.219 c 0.513,0 0.847,0.297 0.847,0.85 v 2.322 c 0,0.553 -0.334,0.848 -0.847,0.848 h -8.666 z m 2.951,-17.879 c -0.553,0 -0.851,0.367 -0.851,0.847 v 5.604 l 1.291,-0.294 c 0.48,-0.149 0.703,-0.259 0.703,-0.813 v -4.497 c 0,-0.516 -0.298,-0.847 -0.811,-0.847 h -0.332 z"
       inkscape:connector-curvature="0"
       id="path140"
       style="fill:#009fe3" /><path
       d="m 142.891,67.68 c 0,0.553 -0.295,0.848 -0.85,0.848 h -2.948 c -0.627,0 -1.104,-0.406 -1.215,-0.922 -0.886,0.516 -2.359,0.922 -4.425,0.922 -1.843,0 -3.245,-1.291 -3.245,-3.281 v -6.451 c 0,-1.807 1.402,-2.875 3.17,-3.355 l 4.131,-0.994 v -2.768 c 0,-0.663 -0.405,-0.993 -1.033,-1.03 l -5.123,-0.258 c -0.553,-0.038 -0.85,-0.297 -0.85,-0.849 v -2.285 c 0,-0.552 0.297,-0.85 0.85,-0.85 h 7.963 c 2.248,0 3.575,1.292 3.575,3.357 V 67.68 z m -5.382,-8.848 -1.438,0.404 c -0.518,0.146 -0.851,0.406 -0.851,0.922 v 3.061 c 0,0.59 0.37,0.848 0.851,0.848 h 1.438 v -5.235 z"
       inkscape:connector-curvature="0"
       id="path142"
       style="fill:#009fe3" /><path
       d="m 145.108,47.256 c 0,-0.552 0.298,-0.85 0.85,-0.85 h 2.947 c 0.628,0 1.033,0.37 1.218,0.923 0.922,-0.479 2.285,-0.923 4.496,-0.923 1.844,0 3.281,1.292 3.281,3.281 v 15.558 c 0,1.807 -1.473,3.281 -3.281,3.281 h -4.127 v 3.355 c 0,0.553 -0.297,0.846 -0.812,0.846 h -3.722 c -0.552,0 -0.85,-0.293 -0.85,-0.846 V 47.256 z m 5.384,3.612 v 13.421 h 1.178 c 0.516,0 0.812,-0.334 0.812,-0.85 V 51.717 c 0,-0.591 -0.332,-0.85 -0.812,-0.85 h -1.178 z"
       inkscape:connector-curvature="0"
       id="path144"
       style="fill:#009fe3" /><path
       d="m 164.691,63.586 c 0.516,0 0.811,0.297 0.811,0.811 v 3.283 c 0,0.553 -0.295,0.848 -0.811,0.848 h -3.945 c -0.553,0 -0.846,-0.295 -0.846,-0.848 v -3.283 c 0,-0.514 0.293,-0.811 0.846,-0.811 h 3.945 z"
       inkscape:connector-curvature="0"
       id="path146"
       style="fill:#009fe3" /><path
       d="m 173.506,61.965 c 0,-0.48 -0.219,-0.699 -0.662,-0.922 l -2.25,-1.068 c -1.621,-0.773 -2.947,-1.402 -2.947,-3.208 v -7.078 c 0,-1.989 1.326,-3.281 3.611,-3.281 h 6.268 c 0.553,0 0.848,0.298 0.848,0.85 v 2.285 c 0,0.552 -0.295,0.849 -0.848,0.849 l -3.65,0.295 c -0.48,0 -0.846,0.294 -0.846,0.847 v 2.803 c 0,0.405 0.184,0.664 0.664,0.883 l 2.211,1.071 c 1.693,0.774 3.023,1.399 3.023,3.206 v 5.752 c 0,1.99 -1.33,3.281 -3.65,3.281 h -7.152 c -0.553,0 -0.848,-0.295 -0.848,-0.848 v -2.398 c 0,-0.516 0.295,-0.773 0.848,-0.811 l 4.535,-0.404 c 0.516,-0.037 0.846,-0.258 0.846,-0.848 v -1.256 z"
       inkscape:connector-curvature="0"
       id="path148"
       style="fill:#009fe3" /><path
       d="m 184.205,68.527 c -1.805,0 -3.281,-1.475 -3.281,-3.281 V 49.688 c 0,-1.879 1.512,-3.281 3.281,-3.281 h 6.23 c 1.807,0 3.281,1.475 3.281,3.281 v 7.706 c 0,1.807 -1.732,2.692 -3.504,3.022 l -3.904,0.773 v 2.25 c 0,0.516 0.33,0.85 0.846,0.85 l 5.715,0.219 c 0.518,0 0.848,0.297 0.848,0.85 v 2.322 c 0,0.553 -0.33,0.848 -0.848,0.848 h -8.664 z m 2.949,-17.879 c -0.553,0 -0.846,0.367 -0.846,0.847 v 5.604 l 1.287,-0.294 c 0.48,-0.149 0.703,-0.259 0.703,-0.813 v -4.497 c 0,-0.516 -0.297,-0.847 -0.814,-0.847 h -0.33 z"
       inkscape:connector-curvature="0"
       id="path150"
       style="fill:#009fe3" /><path
       d="m 202.127,41.47 c 0.516,0 0.85,0.293 0.738,0.811 l -4.201,29.602 c -0.076,0.553 -0.371,0.846 -0.922,0.846 h -2.396 c -0.48,0 -0.773,-0.293 -0.701,-0.846 l 4.166,-29.602 c 0.074,-0.518 0.404,-0.811 0.92,-0.811 h 2.396 z"
       inkscape:connector-curvature="0"
       id="path152"
       style="fill:#009fe3" /></g><g
     id="g154" /><g
     id="g156" /><g
     id="g158" /><g
     id="g160" /><g
     id="g162" /><g
     id="g164" /></svg>