<?xml version="1.0" encoding="UTF-8" standalone="no"?>
<!-- Created with Inkscape (http://www.inkscape.org/) -->

<svg
   xmlns:dc="http://purl.org/dc/elements/1.1/"
   xmlns:cc="http://creativecommons.org/ns#"
   xmlns:rdf="http://www.w3.org/1999/02/22-rdf-syntax-ns#"
   xmlns:svg="http://www.w3.org/2000/svg"
   xmlns="http://www.w3.org/2000/svg"
   xmlns:xlink="http://www.w3.org/1999/xlink"
   xmlns:inkscape="http://www.inkscape.org/namespaces/inkscape"
   version="1.1"
   width="361.70001"
   height="145.17"
   viewBox="0 0 361.7 145.17"
   id="Capa_1"
   xml:space="preserve"><metadata
     id="metadata213"><rdf:RDF><cc:Work
         rdf:about=""><dc:format>image/svg+xml</dc:format><dc:type
           rdf:resource="http://purl.org/dc/dcmitype/StillImage" /></cc:Work></rdf:RDF></metadata><defs
     id="defs211" /><g
     id="g3"><defs
       id="defs5"><rect
         width="361.80099"
         height="145.173"
         x="0"
         y="0.127"
         id="SVGID_1_" /></defs><use
       id="use8"
       style="fill:#e94e1b;overflow:visible"
       x="0"
       y="0"
       width="1"
       height="1"
       xlink:href="#SVGID_1_" /><clipPath
       id="SVGID_2_"><use
         id="use11"
         style="overflow:visible"
         x="0"
         y="0"
         width="1"
         height="1"
         xlink:href="#SVGID_1_" /></clipPath><g
       clip-path="url(#SVGID_2_)"
       id="Layer_2_5_"><g
         id="g14"><path
           d="m 279.91,107.414 c -0.233,-0.345 -0.404,-0.706 -0.547,-1.077 -0.309,0.109 -0.618,0.184 -0.927,0.184 -2.05,0 -2.846,-2.208 -2.905,-4.102 -0.051,-0.164 -6.139,-30.143 -9.663,-44.131 -0.69,-0.699 -1.256,-1.502 -1.551,-2.438 -0.239,-0.763 -0.113,-1.572 0.243,-2.378 -0.195,-0.646 -0.375,-1.164 -0.523,-1.538 -1.977,-4.887 -3.442,-4.128 -4.092,-4.128 -1.105,0.127 -1.029,1.934 -0.998,2.128 l 4.201,34.514 h -2.95 c 0,0 -3.437,-23.47 -4.836,-34.042 -0.736,-5.535 -0.736,-6.027 -0.736,-6.267 0,-0.939 -0.671,-3.384 -3.743,-3.384 -0.798,0 -1.152,0.276 -1.354,0.484 -0.632,0.66 -0.725,1.917 -0.704,2.343 0,0 0.716,5.402 0.727,7.717 v 0.067 l 3.351,33.081 h -3.079 c -0.119,-0.976 -3.171,-27.242 -3.171,-32.816 l -0.42,-4.611 c -0.245,-0.744 -0.614,-1.19 -2.48,-1.19 -1.615,0 -2.295,4.013 -2.299,6.162 l 1.793,23.961 c 0.313,1.692 0.666,8.495 0.666,8.495 l -2.936,0.035 -0.669,-8.101 c -0.27,-3.444 -1.269,-8.305 -1.269,-12.551 0,-3.818 -1.201,-4.836 -1.902,-4.836 -0.713,0.005 -1.141,0.199 -1.53,0.634 -1.92,2.133 -1.743,8.423 -1.531,10.457 l -0.022,0.447 c 0,1.629 0.038,2.778 0.184,4.625 0.104,1.292 -0.026,2.437 -0.026,5.11 0,4.02 -0.008,4.094 -0.757,8.041 -0.391,2.073 -0.994,5.262 -1.927,10.808 -2.547,15.178 3.187,26.653 3.245,26.766 l 0.124,0.357 c 1.528,7.159 -0.811,15.405 -2.108,19.147 h 29.402 c 2.092,-13.655 3.685,-14.26 4.379,-14.526 0.982,-0.425 7.076,-5.188 12.39,-9.55 6.095,-3.295 7.94,-6.564 8.455,-8.756 0.058,-0.255 0.193,-0.555 0.357,-0.877 -4.318,-0.406 -5.998,-1.472 -7.862,-4.264 z"
           inkscape:connector-curvature="0"
           id="path16" /></g><path
         d="M 217.494,0.22"
         inkscape:connector-curvature="0"
         id="path18" /><g
         id="g20"><path
           d="m 362.486,0.127 h -73.277 c -0.89,1.188 -1.733,2.447 -2.506,3.816 0,0 -11.071,23.389 -10.566,27.162 0.503,3.772 3.773,4.778 3.773,4.778 0,0 0.255,4.025 -8.046,10.564 0,0 -8.805,5.282 -7.547,9.301 1.257,4.027 7.293,5.787 8.299,5.787 l -1.257,7.298 c 0,0 -2.263,3.772 3.02,7.294 5.281,3.512 7.291,8.049 6.036,9.555 -1.26,1.513 -6.793,4.781 -2.012,7.55 l 3.267,3.02 c 0,0 -4.779,6.536 -1.76,11.062 3.019,4.53 5.533,4.53 19.62,4.53 14.085,0 16.604,0 16.604,0 0,0 6.037,2.259 9.811,14.834 3.771,12.572 4.025,18.622 4.025,18.622 h 32.517 V 0.127 z"
           inkscape:connector-curvature="0"
           id="path22" /></g></g></g><g
     id="g24"><path
       d="m 95.079,52.195 h -3.588 c -3.203,0 -5.508,-2.562 -5.701,-5.701 L 83.165,15.235 c -0.064,-0.961 0.513,-1.473 1.473,-1.473 H 91.3 c 0.959,0 1.408,0.512 1.474,1.473 L 94.95,44.83 h 0.833 l 2.112,-29.595 c 0.129,-0.961 0.577,-1.473 1.475,-1.473 h 6.726 c 0.897,0 1.538,0.512 1.408,1.473 l -4.035,42.79 c -0.191,0.96 -0.639,1.473 -1.537,1.473 H 95.91 c -0.896,0 -1.536,-0.513 -1.473,-1.473 l 0.642,-5.83 z"
       inkscape:connector-curvature="0"
       id="path26" /><path
       d="m 109.809,19.464 c 0,-3.14 2.564,-5.701 5.701,-5.701 h 10.825 c 3.139,0 5.7,2.562 5.7,5.701 v 27.03 c 0,3.14 -2.562,5.701 -5.7,5.701 H 115.51 c -3.137,0 -5.701,-2.562 -5.701,-5.701 v -27.03 z m 10.826,1.665 c -0.96,0 -1.474,0.64 -1.474,1.474 v 20.753 c 0,0.897 0.577,1.475 1.474,1.475 h 0.577 c 0.896,0 1.409,-0.577 1.409,-1.475 V 22.603 c 0,-0.897 -0.513,-1.474 -1.409,-1.474 h -0.577 z"
       inkscape:connector-curvature="0"
       id="path28" /><path
       d="m 141.578,52.195 c -3.268,0 -5.701,-2.241 -5.701,-5.701 V 15.235 c 0,-0.961 0.513,-1.473 1.473,-1.473 h 6.47 c 0.898,0 1.411,0.512 1.411,1.473 V 42.97 c 0,1.026 0.64,1.475 1.473,1.475 h 1.985 v -29.21 c 0,-0.961 0.576,-1.473 1.474,-1.473 h 6.47 c 0.896,0 1.472,0.512 1.472,1.473 v 35.487 c 0,0.96 -0.575,1.473 -1.472,1.473 h -5.125 c -1.089,0 -1.922,-0.641 -2.114,-1.6 -1.476,0.767 -4.357,1.6 -7.816,1.6 z"
       inkscape:connector-curvature="0"
       id="path30" /><path
       d="m 171.297,50.723 c 0,0.96 -0.513,1.473 -1.41,1.473 h -6.468 c -0.962,0 -1.473,-0.513 -1.473,-1.473 V 15.235 c 0,-0.961 0.511,-1.473 1.473,-1.473 h 4.804 c 1.28,0 1.922,1.09 2.113,2.05 1.602,-0.96 4.356,-2.05 7.111,-2.05 0.962,0 1.41,0.512 1.41,1.473 v 5.381 c 0,0.897 -0.513,1.474 -1.475,1.474 h -6.086 v 28.633 z"
       inkscape:connector-curvature="0"
       id="path32" /></g><g
     id="g34"><path
       d="m 182.276,50.654 c 0,0.578 -0.308,0.887 -0.846,0.887 h -3.895 c -0.578,0 -0.887,-0.309 -0.887,-0.887 v -21.35 c 0,-0.579 0.309,-0.887 0.887,-0.887 h 2.891 c 0.771,0 1.156,0.656 1.272,1.233 0.963,-0.577 2.621,-1.233 4.277,-1.233 0.579,0 0.848,0.308 0.848,0.887 v 3.238 c 0,0.537 -0.309,0.887 -0.887,0.887 h -3.661 v 17.225 z"
       inkscape:connector-curvature="0"
       id="path36" /><path
       d="m 193.028,21.288 c 0.541,0 0.887,0.346 0.887,0.886 v 3.429 c 0,0.541 -0.346,0.887 -0.887,0.887 h -4.086 c -0.538,0 -0.846,-0.346 -0.846,-0.887 v -3.429 c 0,-0.54 0.308,-0.886 0.846,-0.886 h 4.086 z m -0.076,7.129 c 0.538,0 0.848,0.308 0.848,0.887 v 21.351 c 0,0.578 -0.31,0.887 -0.848,0.887 h -3.894 c -0.578,0 -0.887,-0.309 -0.887,-0.887 V 29.304 c 0,-0.579 0.309,-0.887 0.887,-0.887 h 3.894 z"
       inkscape:connector-curvature="0"
       id="path38" /><path
       d="m 209.369,24.91 c 0.578,0 0.885,0.31 0.885,0.886 v 2.467 c 0,0.694 -0.731,1.388 -1.425,1.58 0.54,0.423 0.655,1.156 0.655,1.812 v 9.943 c 0,1.888 -1.35,3.43 -3.43,3.43 h -2.353 v 1.464 l 3.2,0.501 c 1.89,0.309 3.391,1.542 3.391,3.43 l -0.039,2.312 c 0,1.889 -1.501,3.43 -3.429,3.43 h -7.746 c -2.083,0 -3.431,-1.117 -3.431,-3.004 v -2.969 c 0,-1.734 1.542,-2.581 3.314,-2.581 v -2.583 c -1.657,0 -2.853,-1.542 -2.853,-3.43 v -9.753 c 0,-1.887 1.542,-3.429 3.431,-3.429 h 5.627 c -0.193,-0.848 -0.308,-1.772 -0.308,-2.621 0,-0.576 0.308,-0.886 0.886,-0.886 h 3.625 z m -7.553,25.205 c -0.426,-0.039 -0.695,0.077 -0.695,0.501 v 1.193 c 0,0.386 0.153,0.579 0.579,0.503 h 2.541 c 0.271,-0.04 0.503,-0.233 0.503,-0.541 l 0.077,-0.885 c 0,-0.271 -0.154,-0.464 -0.54,-0.503 l -2.465,-0.268 z m 0.808,-17.265 c -0.578,0 -0.887,0.385 -0.887,0.887 v 5.973 c 0,0.54 0.349,0.887 0.887,0.887 h 0.348 c 0.539,0 0.848,-0.347 0.848,-0.887 v -5.973 c 0,-0.54 -0.309,-0.887 -0.848,-0.887 h -0.348 z"
       inkscape:connector-curvature="0"
       id="path40" /><path
       d="m 217.422,28.417 h 4.316 c 1.889,0 3.432,1.542 3.432,3.429 v 18.809 c 0,0.578 -0.348,0.887 -0.888,0.887 h -3.893 c -0.54,0 -0.886,-0.309 -0.886,-0.887 V 33.736 c 0,-0.617 -0.347,-0.887 -0.849,-0.887 h -1.233 v 17.805 c 0,0.578 -0.309,0.887 -0.848,0.887 h -3.893 c -0.579,0 -0.886,-0.309 -0.886,-0.887 V 24.101 c 0,-0.539 0.307,-0.848 0.886,-0.848 h 3.893 c 0.539,0 0.848,0.309 0.848,0.848 v 4.316 z"
       inkscape:connector-curvature="0"
       id="path42" /><path
       d="m 233.761,46.224 c 0,0.538 0.347,0.848 0.888,0.886 l 2.312,0.23 c 0.539,0.039 0.887,0.309 0.887,0.886 v 2.429 c 0,0.578 -0.348,0.887 -0.887,0.887 h -5.395 c -1.927,0 -3.432,-1.542 -3.432,-3.429 V 32.85 l -0.732,-0.193 c -0.577,-0.114 -0.885,-0.308 -0.885,-0.85 v -1.771 c 0,-0.54 0.308,-0.85 0.731,-1.079 l 0.886,-0.54 1.388,-3.661 c 0.194,-0.54 0.539,-0.887 1.118,-0.887 h 2.236 c 0.577,0 0.885,0.347 0.885,0.887 v 3.661 h 2.737 c 0.538,0 0.885,0.308 0.885,0.887 v 2.503 c 0,0.542 -0.347,0.811 -0.885,0.85 l -2.737,0.193 v 13.374 z"
       inkscape:connector-curvature="0"
       id="path44" /></g><g
     id="g46"><path
       d="m 48.457,86.474 -0.566,-0.149 c -0.449,-0.09 -0.687,-0.239 -0.687,-0.657 v -1.372 c 0,-0.418 0.237,-0.659 0.566,-0.836 l 0.687,-0.418 1.074,-2.836 c 0.149,-0.419 0.417,-0.687 0.865,-0.687 h 1.731 c 0.448,0 0.687,0.268 0.687,0.687 v 2.836 h 2.119 c 0.42,0 0.688,0.238 0.688,0.688 v 1.938 c 0,0.418 -0.268,0.627 -0.688,0.657 l -2.089,0.149 v 5.102 c 0,0.421 -0.238,0.659 -0.687,0.659 h -3.015 c -0.447,0 -0.687,-0.238 -0.687,-0.659 v -5.102 z m 0,7.103 c 0,-0.446 0.239,-0.688 0.687,-0.688 h 3.015 c 0.448,0 0.687,0.241 0.687,0.688 v 3.255 c 0,0.417 0.269,0.655 0.686,0.685 l 1.762,0.181 c 0.418,0.028 0.687,0.237 0.687,0.686 v 1.881 c 0,0.448 -0.269,0.686 -0.687,0.686 h -4.178 c -1.493,0 -2.657,-1.193 -2.657,-2.655 v -4.719 z"
       inkscape:connector-curvature="0"
       id="path48"
       style="fill:#ffffff" /><path
       d="m 63.23,87.161 c 0,-0.419 -0.238,-0.688 -0.656,-0.688 h -0.299 c -0.446,0 -0.687,0.299 -0.687,0.688 v 4.414 c 0,0.421 -0.238,0.659 -0.687,0.659 h -2.985 c -0.447,0 -0.686,-0.238 -0.686,-0.659 v -5.879 c 0,-1.462 1.194,-2.655 2.655,-2.655 h 5.046 c 1.462,0 2.656,1.193 2.656,2.655 v 5.879 c 0,0.421 -0.239,0.659 -0.687,0.659 h -2.985 c -0.447,0 -0.687,-0.238 -0.687,-0.659 v -4.414 z m 0,6.416 c 0,-0.446 0.239,-0.688 0.687,-0.688 h 2.985 c 0.447,0 0.687,0.241 0.687,0.688 v 4.717 c 0,1.462 -1.194,2.655 -2.656,2.655 h -5.046 c -1.461,0 -2.655,-1.193 -2.655,-2.655 v -4.717 c 0,-0.446 0.238,-0.688 0.686,-0.688 h 2.985 c 0.448,0 0.687,0.241 0.687,0.688 v 3.255 c 0,0.417 0.269,0.685 0.687,0.685 h 0.299 c 0.418,0 0.656,-0.268 0.656,-0.685 v -3.255 z"
       inkscape:connector-curvature="0"
       id="path50"
       style="fill:#ffffff" /></g><g
     id="g52"><path
       d="m 81.778,82.021 c 0.059,0.834 -0.479,1.311 -1.37,1.311 h -5.962 c -0.893,0 -1.311,-0.417 -1.37,-1.311 l -1.49,-15.674 c -0.061,-0.895 0.477,-1.372 1.37,-1.372 h 6.198 c 0.894,0 1.313,0.478 1.372,1.372 l 1.252,15.674 z m 2.742,3.994 c 0,-0.896 0.477,-1.371 1.369,-1.371 h 5.723 c 0.894,0 1.371,0.476 1.371,1.371 v 7.867 h 1.788 l 0.596,-7.867 c 0.06,-0.956 0.478,-1.371 1.372,-1.371 h 5.96 c 0.893,0 1.43,0.476 1.37,1.371 l -0.894,9.416 c -0.24,2.921 -2.325,5.304 -5.245,5.304 h -3.517 c -2.146,0 -4.589,-0.478 -5.661,-0.955 -1.075,0.478 -3.577,0.955 -5.663,0.955 h -3.517 c -2.92,0 -4.946,-2.383 -5.245,-5.304 l -0.894,-9.477 c -0.06,-0.896 0.477,-1.311 1.371,-1.311 h 5.9 c 0.894,0 1.312,0.476 1.371,1.371 l 0.654,7.867 h 1.789 v -7.866 z m 8.462,-4.054 c 0,0.894 -0.478,1.37 -1.371,1.37 h -5.723 c -0.893,0 -1.369,-0.477 -1.369,-1.37 V 66.347 c 0,-0.895 0.596,-1.372 1.369,-1.372 h 5.723 c 0.836,0 1.371,0.478 1.371,1.372 v 15.614 z m 3.994,-15.614 c 0.06,-0.895 0.477,-1.372 1.37,-1.372 h 6.199 c 0.895,0 1.431,0.478 1.371,1.372 l -1.49,15.674 c -0.061,0.834 -0.478,1.311 -1.37,1.311 h -5.963 c -0.892,0 -1.427,-0.477 -1.369,-1.311 l 1.252,-15.674 z"
       inkscape:connector-curvature="0"
       id="path54"
       style="fill:#ffffff" /><path
       d="m 128.74,82.021 c 0,0.834 -0.479,1.311 -1.372,1.311 h -6.019 c -0.895,0 -1.371,-0.477 -1.371,-1.311 V 73.2 c 0,-0.954 -0.535,-1.37 -1.312,-1.37 h -1.905 v 10.19 c 0,0.834 -0.478,1.311 -1.371,1.311 h -5.962 c -0.893,0 -1.37,-0.477 -1.37,-1.311 V 58.3 c 0,-0.834 0.478,-1.312 1.37,-1.312 h 6.021 c 0.835,0 1.312,0.478 1.312,1.312 v 6.675 h 6.675 c 2.92,0 5.305,2.386 5.305,5.305 v 11.741 z m -11.979,17.343 c 0,0.893 -0.478,1.37 -1.312,1.37 h -6.021 c -0.893,0 -1.37,-0.478 -1.37,-1.37 v -13.35 c 0,-0.896 0.478,-1.371 1.37,-1.371 h 5.962 c 0.894,0 1.371,0.476 1.371,1.371 v 13.35 z m 3.218,-13.349 c 0,-0.896 0.477,-1.371 1.371,-1.371 h 6.019 c 0.894,0 1.372,0.476 1.372,1.371 v 13.35 c 0,0.893 -0.538,1.37 -1.372,1.37 h -6.019 c -0.836,0 -1.371,-0.478 -1.371,-1.37 v -13.35 z"
       inkscape:connector-curvature="0"
       id="path56"
       style="fill:#ffffff" /><path
       d="m 139.823,53.95 c 0.834,0 1.37,0.533 1.37,1.368 v 5.306 c 0,0.835 -0.536,1.371 -1.37,1.371 h -6.319 c -0.833,0 -1.311,-0.536 -1.311,-1.371 v -5.306 c 0,-0.835 0.478,-1.368 1.311,-1.368 h 6.319 z m 1.192,28.071 c 0,0.834 -0.476,1.311 -1.371,1.311 h -5.959 c -0.896,0 -1.372,-0.477 -1.372,-1.311 V 66.347 c 0,-0.895 0.477,-1.372 1.372,-1.372 h 6.019 c 0.836,0 1.312,0.478 1.312,1.372 v 15.674 z m 0,17.343 c 0,0.893 -0.476,1.37 -1.312,1.37 h -6.019 c -0.896,0 -1.372,-0.478 -1.372,-1.37 v -13.35 c 0,-0.896 0.477,-1.371 1.372,-1.371 h 5.959 c 0.896,0 1.371,0.476 1.371,1.371 v 13.35 z"
       inkscape:connector-curvature="0"
       id="path58"
       style="fill:#ffffff" /><path
       d="m 154.304,89.887 c 0,-0.774 -0.358,-1.132 -1.073,-1.49 l -3.635,-1.727 c -2.623,-1.253 -4.767,-2.266 -4.767,-5.187 V 70.279 c 0,-3.219 2.144,-5.305 5.839,-5.305 h 10.133 c 0.894,0 1.37,0.478 1.37,1.372 v 3.693 c 0,0.896 -0.477,1.373 -1.37,1.373 l -5.901,0.476 c -0.774,0 -1.371,0.476 -1.371,1.37 v 4.293 c 0,0.654 0.299,1.072 1.074,1.429 l 3.574,1.729 c 2.743,1.251 4.888,2.264 4.888,5.183 v 9.538 c 0,3.218 -2.145,5.304 -5.9,5.304 h -11.562 c -0.895,0 -1.372,-0.478 -1.372,-1.37 v -3.875 c 0,-0.835 0.478,-1.25 1.372,-1.311 l 7.331,-0.656 c 0.834,-0.06 1.37,-0.416 1.37,-1.371 v -2.264 z"
       inkscape:connector-curvature="0"
       id="path60"
       style="fill:#ffffff" /><path
       d="m 186.963,82.021 c 0,0.834 -0.479,1.311 -1.37,1.311 h -6.021 c -0.894,0 -1.372,-0.477 -1.372,-1.311 v -8.463 c 0,-0.954 -0.535,-1.371 -1.312,-1.371 h -1.906 v 9.834 c 0,0.834 -0.476,1.311 -1.371,1.311 h -5.959 c -0.895,0 -1.37,-0.477 -1.37,-1.311 V 66.347 c 0,-0.895 0.476,-1.372 1.37,-1.372 h 4.768 c 1.015,0 1.669,0.597 1.969,1.49 1.487,-0.774 3.693,-1.49 7.268,-1.49 2.982,0 5.307,2.086 5.307,5.305 v 11.741 z m -20.681,3.994 c 0,-0.896 0.476,-1.371 1.37,-1.371 h 5.959 c 0.896,0 1.371,0.476 1.371,1.371 v 7.867 h 1.906 c 0.836,0 1.312,-0.537 1.312,-1.372 v -6.495 c 0,-0.896 0.479,-1.371 1.372,-1.371 h 6.021 c 0.892,0 1.37,0.476 1.37,1.371 v 9.416 c 0,2.921 -2.383,5.304 -5.307,5.304 h -6.674 v 5.425 c 0,0.893 -0.476,1.369 -1.311,1.369 h -6.02 c -0.895,0 -1.37,-0.477 -1.37,-1.369 V 86.015 z"
       inkscape:connector-curvature="0"
       id="path62"
       style="fill:#ffffff" /><path
       d="m 190.535,86.431 c 0,-0.834 0.12,-1.372 0.954,-1.608 l 9.834,-2.861 c 0.773,-0.237 1.132,-0.416 1.132,-1.312 V 73.2 c 0,-0.836 -0.476,-1.37 -1.31,-1.37 h -0.536 c -0.895,0 -1.371,0.594 -1.371,1.37 v 6.734 c 0,0.895 -0.298,1.251 -1.014,1.43 l -6.02,1.729 c -0.836,0.237 -1.67,0.059 -1.67,-0.894 v -11.92 c 0,-3.04 2.445,-5.305 5.304,-5.305 h 10.073 c 2.921,0 5.305,2.386 5.305,5.305 v 12.635 c 0,2.92 -2.801,4.352 -5.66,4.888 l -6.318,1.251 v 3.457 c 0,0.835 0.537,1.372 1.371,1.372 l 9.237,0.357 c 0.834,0 1.37,0.477 1.37,1.371 v 3.754 c 0,0.893 -0.536,1.37 -1.37,1.37 h -14.008 c -2.919,0 -5.304,-2.383 -5.304,-5.304 v -8.999 z"
       inkscape:connector-curvature="0"
       id="path64"
       style="fill:#ffffff" /><path
       d="m 214.433,66.347 c 0,-0.895 0.479,-1.372 1.37,-1.372 h 4.47 c 1.194,0 1.788,1.015 1.968,1.907 1.49,-0.893 4.054,-1.907 6.615,-1.907 0.895,0 1.312,0.478 1.312,1.372 v 5.005 c 0,0.835 -0.478,1.371 -1.37,1.371 h -5.661 v 9.298 c 0,0.834 -0.478,1.311 -1.373,1.311 h -5.96 c -0.892,0 -1.37,-0.477 -1.37,-1.311 V 66.347 z m 8.703,33.017 c 0,0.893 -0.478,1.37 -1.312,1.37 h -6.021 c -0.892,0 -1.37,-0.478 -1.37,-1.37 v -13.35 c 0,-0.896 0.479,-1.371 1.37,-1.371 h 5.96 c 0.896,0 1.373,0.476 1.373,1.371 v 13.35 z"
       inkscape:connector-curvature="0"
       id="path66"
       style="fill:#ffffff" /></g><path
     d="m 133.534,128.4 c 0,0.461 0.209,0.711 0.668,0.752 l 1.295,0.211 c 0.458,0.041 0.751,0.333 0.751,0.751 v 2.88 c 0,0.627 -0.334,0.962 -0.96,0.962 h -4.134 c -2.046,0 -3.717,-1.67 -3.717,-3.716 v -26.016 c 0,-0.585 0.334,-0.919 0.959,-0.919 h 4.22 c 0.585,0 0.918,0.334 0.918,0.919 V 128.4 z"
     inkscape:connector-curvature="0"
     id="path68" /><path
     d="m 141.425,133.956 c -2.046,0 -3.715,-1.67 -3.715,-3.716 v -17.624 c 0,-2.129 1.712,-3.715 3.715,-3.715 h 7.058 c 2.047,0 3.717,1.671 3.717,3.715 v 8.729 c 0,2.047 -1.962,3.048 -3.967,3.423 l -4.426,0.876 v 2.547 c 0,0.587 0.374,0.961 0.961,0.961 l 6.473,0.252 c 0.584,0 0.959,0.333 0.959,0.96 v 2.63 c 0,0.627 -0.375,0.962 -0.959,0.962 h -9.816 z m 3.343,-20.253 c -0.628,0 -0.961,0.418 -0.961,0.96 v 6.348 l 1.462,-0.334 c 0.542,-0.167 0.793,-0.294 0.793,-0.918 v -5.096 c 0,-0.584 -0.335,-0.96 -0.918,-0.96 h -0.376 z"
     inkscape:connector-curvature="0"
     id="path70" /><path
     d="m 168.485,132.994 c 0,0.627 -0.335,0.962 -0.962,0.962 h -3.339 c -0.712,0 -1.254,-0.461 -1.378,-1.044 -1.004,0.583 -2.674,1.044 -5.011,1.044 -2.09,0 -3.675,-1.464 -3.675,-3.716 v -7.309 c 0,-2.046 1.585,-3.258 3.59,-3.8 l 4.677,-1.127 v -3.133 c 0,-0.751 -0.459,-1.127 -1.168,-1.169 l -5.806,-0.291 c -0.627,-0.042 -0.961,-0.337 -0.961,-0.961 v -2.589 c 0,-0.629 0.334,-0.961 0.961,-0.961 h 9.021 c 2.546,0 4.051,1.462 4.051,3.8 v 20.294 z m -6.097,-10.02 -1.629,0.458 c -0.585,0.167 -0.96,0.462 -0.96,1.044 v 3.466 c 0,0.67 0.417,0.961 0.96,0.961 h 1.629 v -5.929 z"
     inkscape:connector-curvature="0"
     id="path72" /><path
     d="m 170.42,109.862 c 0,-0.629 0.334,-0.961 0.961,-0.961 h 3.341 c 0.709,0 1.168,0.418 1.378,1.044 1.043,-0.543 2.589,-1.044 5.094,-1.044 2.088,0 3.719,1.462 3.719,3.715 v 17.624 c 0,2.046 -1.673,3.716 -3.719,3.716 h -4.676 v 3.799 c 0,0.627 -0.336,0.96 -0.919,0.96 h -4.218 c -0.627,0 -0.961,-0.333 -0.961,-0.96 v -27.893 z m 6.098,4.091 v 15.199 h 1.335 c 0.585,0 0.919,-0.374 0.919,-0.961 v -13.278 c 0,-0.666 -0.376,-0.96 -0.919,-0.96 h -1.335 z"
     inkscape:connector-curvature="0"
     id="path74" /><path
     d="m 192.594,128.36 c 0.585,0 0.918,0.334 0.918,0.919 v 3.715 c 0,0.627 -0.333,0.962 -0.918,0.962 h -4.469 c -0.626,0 -0.961,-0.335 -0.961,-0.962 v -3.715 c 0,-0.585 0.335,-0.919 0.961,-0.919 h 4.469 z"
     inkscape:connector-curvature="0"
     id="path76" /><path
     d="m 202.574,126.521 c 0,-0.542 -0.251,-0.793 -0.751,-1.043 l -2.549,-1.212 c -1.838,-0.874 -3.341,-1.587 -3.341,-3.633 v -8.018 c 0,-2.253 1.503,-3.715 4.094,-3.715 h 7.098 c 0.627,0 0.961,0.332 0.961,0.961 v 2.589 c 0,0.624 -0.334,0.961 -0.961,0.961 l -4.133,0.333 c -0.544,0 -0.962,0.334 -0.962,0.961 v 3.173 c 0,0.458 0.209,0.752 0.751,1.003 l 2.506,1.211 c 1.922,0.876 3.425,1.587 3.425,3.633 v 6.515 c 0,2.252 -1.503,3.716 -4.135,3.716 h -8.1 c -0.627,0 -0.961,-0.335 -0.961,-0.962 v -2.712 c 0,-0.586 0.334,-0.878 0.961,-0.919 l 5.136,-0.461 c 0.584,-0.041 0.961,-0.291 0.961,-0.961 v -1.42 z"
     inkscape:connector-curvature="0"
     id="path78" /><path
     d="m 214.684,133.956 c -2.047,0 -3.718,-1.67 -3.718,-3.716 v -17.624 c 0,-2.129 1.713,-3.715 3.718,-3.715 h 7.056 c 2.046,0 3.718,1.671 3.718,3.715 v 8.729 c 0,2.047 -1.964,3.048 -3.968,3.423 l -4.426,0.876 v 2.547 c 0,0.587 0.376,0.961 0.96,0.961 l 6.473,0.252 c 0.584,0 0.961,0.333 0.961,0.96 v 2.63 c 0,0.627 -0.377,0.962 -0.961,0.962 h -9.813 z m 3.339,-20.253 c -0.626,0 -0.96,0.418 -0.96,0.96 v 6.348 l 1.462,-0.334 c 0.542,-0.167 0.793,-0.294 0.793,-0.918 v -5.096 c 0,-0.584 -0.334,-0.96 -0.919,-0.96 h -0.376 z"
     inkscape:connector-curvature="0"
     id="path80" /><g
     id="g82"><g
       transform="translate(20,20)"
       id="layer4_10_"><g
         id="path4046_10_"><path
           d="m 17.893,68.446 c -0.305,0 -0.637,-0.042 -1.014,-0.133 C 16.162,68.144 15.622,67.857 14.896,67.256 14.621,67.027 14.235,66.719 14.05,66.575 13.694,66.301 13.145,65.615 12.905,65.292 12.361,64.556 11.973,64.236 11.022,63.74 10.786,63.618 10.427,63.398 10.172,63.113 9.808,63.043 9.489,62.849 9.352,62.756 9.189,62.645 9.07,62.575 9.042,62.56 9.05,62.565 9.098,62.587 9.174,62.608 8.863,62.511 8.225,62.098 6.043,60.344 5.508,59.914 4.902,59.429 4.693,59.267 4.49,59.107 4.193,58.862 4.044,58.722 3.796,58.489 1.908,57.212 1.166,56.816 0.828,56.638 0.418,56.383 0.156,56.104 -0.096,56.057 -0.348,55.959 -0.516,55.873 -0.594,55.834 -0.949,55.707 -1.317,55.613 -1.799,55.49 -2.68,55.138 -3.252,54.871 -3.848,54.592 -4.79,54.146 -5.343,53.886 -5.9,53.623 -6.382,53.442 -6.501,53.412 -6.785,53.356 -7.169,53.225 -7.42,53.1 c -0.002,0 -0.034,-0.017 -0.144,-0.017 -0.068,0 -0.151,0.008 -0.247,0.02 -0.181,0.022 -0.331,0.038 -0.48,0.038 -0.626,0 -0.968,-0.313 -1.328,-0.649 -0.356,-0.327 -0.779,-0.828 -0.779,-1.343 0,-0.55 0.478,-1.072 0.682,-1.271 0.415,-0.401 0.784,-0.635 1.436,-0.635 0.035,0 0.073,0 0.112,10e-4 h 0.038 c 0.057,0 0.108,-0.003 0.146,-0.008 0.227,-0.128 0.484,-0.188 0.723,-0.159 0.166,-10e-4 0.619,-0.022 1.194,-0.064 0.692,-0.047 1.609,-0.11 2.044,-0.135 0.498,-0.031 0.613,-0.052 1.701,-0.622 0.648,-0.342 1.626,-0.786 2.241,-0.914 0.298,-0.061 0.546,-0.107 0.787,-0.107 0.404,0 0.682,0.132 0.954,0.279 0.791,0.426 0.998,1.013 1.43,2.414 0.149,0.488 0.274,0.835 0.404,1.119 0.303,0.229 1.323,0.78 2.05,1.014 0.762,0.243 2.605,0.965 3.341,1.309 0.087,0.038 0.558,0.22 1.124,0.425 0.555,0.199 1.368,0.529 1.812,0.734 l 0.523,0.237 1.014,-0.153 c 0.678,-0.104 1.55,-0.261 1.904,-0.34 0.388,-0.089 0.945,-0.189 1.3,-0.237 l 0.118,-0.534 c 0.167,-0.743 0.704,-2.68 1.115,-3.431 0.021,-0.138 0.052,-0.448 0.055,-0.839 0.01,-1.023 0.123,-1.432 0.258,-1.659 0.028,-0.124 0.072,-0.396 0.093,-0.736 0.036,-0.59 0.104,-0.961 0.178,-1.201 -0.085,-0.236 -0.132,-0.474 -0.153,-0.601 -0.04,-0.251 -0.125,-0.762 -0.188,-1.139 -0.267,-1.594 -0.339,-2.022 0.162,-2.698 0.031,-0.043 0.059,-0.092 0.074,-0.126 0.03,-0.249 0.129,-0.516 0.228,-0.71 -0.435,-0.422 -0.46,-0.851 -0.407,-1.379 -0.42,-0.146 -0.811,-0.324 -1.059,-0.692 -0.347,-0.519 -0.203,-1.104 -0.124,-1.415 0.082,-0.332 0.265,-0.84 0.454,-1.162 0.048,-0.082 0.086,-0.161 0.105,-0.209 0.055,-0.438 0.365,-0.805 0.74,-1.042 0.08,-0.389 0.394,-0.662 0.719,-0.946 l 0.086,-0.073 -0.044,-0.141 c -0.168,-0.554 -0.268,-0.904 -0.298,-1.171 -0.015,-0.123 -0.015,-0.234 -0.004,-0.334 -0.298,-0.547 -0.049,-1.206 0.168,-1.662 0.149,-0.313 0.269,-0.637 0.289,-0.712 l 0.018,-0.082 0.35,-0.817 c 0.002,-0.281 0.07,-0.621 0.181,-1.043 0.233,-0.901 0.431,-1.222 0.541,-1.356 0.079,-0.498 0.499,-0.967 0.943,-1.262 -0.037,-0.335 -0.037,-0.864 0.062,-1.738 0.109,-0.986 0.295,-1.978 0.496,-2.646 0.168,-0.554 0.269,-0.956 0.295,-1.075 0.015,-0.232 0.075,-0.582 0.092,-0.67 0.013,-0.223 -0.136,-0.846 -0.271,-1.197 -0.625,-0.167 -1.525,-0.604 -1.781,-0.766 -0.174,-0.109 -0.686,-0.393 -1.14,-0.62 -0.427,-0.215 -1.05,-0.562 -1.356,-0.772 -0.762,-0.522 -1.307,-0.702 -2.162,-0.714 -0.042,-0.001 -0.086,-0.001 -0.126,-0.001 -0.462,0 -0.666,0.038 -0.723,0.051 -0.588,0.3 -1.631,0.545 -2.358,0.545 -0.469,0 -1.17,-0.172 -1.624,-0.342 -0.196,-0.076 -0.343,-0.126 -0.448,-0.157 -0.27,0.359 -0.675,0.582 -1.104,0.582 -0.219,0 -0.431,-0.061 -0.614,-0.175 C 8.179,15.035 7.981,14.778 7.811,14.409 7.127,14.205 6.5,13.451 6.5,12.731 6.5,11.988 7.242,10.606 8.087,10.429 8.217,10.404 8.41,10.361 8.55,10.331 8.738,10.214 9.251,9.753 9.707,9.156 10.172,8.546 10.91,7.739 11.94,7.739 c 0.432,0 0.864,0.142 1.285,0.431 0.134,0.09 0.237,0.154 0.293,0.186 0.175,0.069 0.403,0.209 0.824,0.486 0.241,0.159 1.003,0.488 1.857,0.763 1.469,0.474 1.697,0.53 3.068,0.76 1.404,0.236 2.63,0.604 3.547,1.065 l 0.423,0.211 0.32,-0.127 c 0.756,-0.301 1.617,-0.478 2.492,-0.507 0.026,-10e-4 0.054,-0.003 0.084,-0.003 0.015,0 1.51,0.075 2.25,0.453 0.093,0.016 0.299,0.036 0.568,0.036 0.128,0 0.266,0 0.367,-0.003 0.013,-0.018 0.026,-0.036 0.037,-0.05 0.115,-0.157 0.353,-0.478 0.434,-0.575 0.071,-0.087 0.205,-0.212 0.409,-0.287 C 30.116,10.303 30.074,9.794 30.064,8.666 30.059,7.846 30.02,7.185 29.995,7.02 29.84,6.402 30.17,5.508 30.467,5.118 30.482,5.097 30.498,5.078 30.512,5.06 30.312,4.609 30.129,4.147 30.384,3.688 30.111,3.436 30.028,3.099 30.057,2.831 c 0.03,-0.304 0.208,-0.636 0.592,-0.839 0.026,-0.109 0.067,-0.201 0.114,-0.277 0.182,-0.301 0.508,-0.481 0.873,-0.481 0.2,0 0.408,0.05 0.65,0.163 0.081,0.034 0.145,0.044 0.183,0.044 0.023,0 0.071,-0.005 0.101,-0.026 0.173,-0.138 0.32,-0.229 0.449,-0.292 0.306,-0.535 0.925,-1.089 1.602,-1.089 0.105,0 0.204,0.012 0.3,0.037 0.02,-0.011 0.039,-0.022 0.062,-0.034 0.479,-0.28 0.896,-0.402 1.256,-0.363 0.331,-0.228 0.692,-0.443 1.137,-0.443 0.201,0 0.382,0.046 0.546,0.114 0.547,-0.438 1.583,-0.674 2.054,-0.674 0.249,0 0.459,0.047 0.639,0.145 0.21,0.111 0.361,0.247 0.464,0.39 l 0.141,-0.109 1.276,0.673 c 0.155,-0.106 0.36,-0.204 0.619,-0.204 0.19,0 0.827,0.067 1.026,0.929 0.045,0.197 0.078,0.456 0.125,0.861 l 0.004,0.052 c 0.788,0.2 1.095,0.649 1.21,1.005 0.315,0.167 0.479,0.374 0.561,0.564 C 46.07,2.97 46.1,2.97 46.127,2.97 c 0.211,0 0.423,0.057 0.646,0.177 0.468,0.25 0.631,0.601 0.683,0.85 0.025,0.126 0.029,0.247 0.018,0.361 0.22,0.199 0.405,0.547 0.49,1.13 0.014,0.082 0.027,0.18 0.036,0.287 0.076,0.047 0.151,0.104 0.228,0.181 0.557,0.56 0.445,1.783 0.209,2.465 0.335,0.339 0.537,0.716 0.487,1.33 -0.017,0.195 -0.038,0.553 -0.046,0.776 -0.015,0.412 -0.129,0.765 -0.325,1.045 0.364,-0.158 0.689,-0.327 0.944,-0.496 0.806,-0.538 2.474,-1.057 3.704,-1.291 0.974,-0.186 3.868,-1.171 5.161,-1.757 0.256,-0.116 0.716,-0.319 1.022,-0.449 0.255,-0.106 0.788,-0.563 1.587,-1.356 1.175,-1.166 1.646,-1.578 2.272,-1.583 0.069,-0.004 0.307,-0.054 0.508,-0.123 0.188,-0.069 0.591,-0.205 0.814,-0.255 0.042,-0.015 0.134,-0.059 0.19,-0.096 0.228,-0.148 0.628,-0.323 1.006,-0.323 0.598,0 1.392,0.448 1.777,0.773 0.078,0.054 0.348,0.196 0.65,0.317 1.038,0.41 1.184,0.783 1.243,0.943 0.14,0.362 0.065,0.777 -0.205,1.172 -0.116,0.169 -0.404,0.525 -0.832,0.638 -0.119,0.108 -0.411,0.358 -0.874,0.358 -0.184,0 -0.355,-0.039 -0.52,-0.09 -0.1,0.854 -0.763,1.486 -1.742,1.638 -0.213,0.032 -0.574,0.091 -0.804,0.126 -0.062,0.01 -0.155,0.085 -0.281,0.224 -0.391,0.438 -1.848,1.506 -2.642,1.548 -0.01,10e-4 -0.02,0.007 -0.025,0.01 -0.883,0.443 -1.264,0.667 -2.02,1.194 -2.354,1.645 -3.447,2.283 -5.841,3.427 -2.69,1.284 -3.12,1.456 -4.573,1.588 -0.369,0.033 -1.342,0.213 -2.198,0.428 l -1.399,0.353 -1.663,0.86 c -0.142,0.102 -0.274,0.196 -0.397,0.283 -0.953,0.683 -1.128,0.835 -1.2,1.227 l -0.029,0.147 -0.071,0.13 c -0.482,0.864 -0.828,1.59 -1.064,2.532 -0.07,0.289 -0.207,0.627 -0.338,0.958 -0.091,0.226 -0.229,0.567 -0.251,0.689 -0.032,0.396 -0.137,0.973 -0.292,1.317 -0.076,0.169 -0.143,0.342 -0.198,0.521 l -0.01,0.027 c -0.13,0.366 -0.234,0.57 -0.317,0.735 -0.043,0.08 -0.075,0.146 -0.111,0.225 -0.031,0.076 -0.061,0.17 -0.092,0.264 -0.043,0.129 -0.084,0.255 -0.143,0.372 -0.115,0.226 -0.251,0.555 -0.657,1.6 -0.216,0.555 -0.58,1.311 -0.832,1.717 -0.171,0.281 -0.303,0.558 -0.337,0.65 -0.049,0.237 -0.163,0.575 -0.254,0.799 -0.018,0.045 -0.039,0.113 -0.063,0.195 l 0.9,-0.034 c 1.11,-0.042 2.619,-0.124 3.368,-0.186 0.688,-0.055 2.184,-0.098 3.555,-0.098 0.158,0 0.314,0.003 0.466,0.003 0.462,0.003 0.84,0.006 1.158,0.006 1.248,0 1.327,-0.035 1.665,-0.181 0.39,-0.167 0.832,-0.324 1.419,-0.324 0.423,0 0.873,0.08 1.419,0.195 0.522,0.11 1.381,0.164 2.704,0.168 2.227,0.008 2.97,0.057 3.782,1.021 0.564,0.672 0.887,2.457 0.597,3.295 -0.012,0.029 -0.021,0.059 -0.03,0.082 0.017,0.012 0.036,0.019 0.055,0.029 0.982,0.527 3.384,2.146 4.434,2.988 0.531,0.428 1.046,0.829 1.188,0.935 0.179,0.13 0.614,0.462 0.978,0.739 1.524,1.172 3.796,2.553 4.304,2.723 0.138,0.047 0.391,0.134 0.456,0.139 0.037,-0.005 0.208,-0.059 0.29,-0.084 0.701,-0.225 1.188,-0.465 2.087,-1.035 1.156,-0.734 1.16,-0.759 1.259,-1.161 0.158,-0.661 0.387,-1.067 0.879,-1.555 0.145,-0.141 0.258,-0.282 0.304,-0.354 0.152,-0.467 0.574,-0.802 0.666,-0.869 0.245,-0.182 0.522,-0.351 0.903,-0.351 0.26,0 0.469,0.079 0.62,0.151 0.547,0.249 0.82,0.678 0.832,1.315 0.002,0.108 0.027,0.253 0.04,0.302 0.141,0.37 0.104,0.815 0.028,1.096 -0.003,0.043 0.002,0.171 0.061,0.362 0.099,0.32 0.205,0.809 0.205,1.117 0.003,0.902 -0.603,1.883 -1.755,2.833 -0.449,0.374 -0.804,0.726 -0.888,0.828 -0.124,0.194 -0.306,0.438 -0.438,0.587 -0.123,0.196 -0.337,0.867 -0.346,1.079 -0.005,1.333 -1.149,3.488 -2.357,3.947 -0.305,0.117 -0.601,0.172 -0.903,0.172 -0.979,0 -1.893,-0.595 -3.051,-1.554 -0.579,-0.479 -1.646,-1.267 -2.328,-1.718 -1.446,-0.956 -4.666,-2.558 -6.151,-3.06 -1.456,-0.495 -2.462,-0.976 -3.712,-1.771 -0.187,-0.121 -0.354,-0.221 -0.492,-0.3 -0.054,0.054 -0.111,0.113 -0.175,0.183 -0.452,0.492 -0.81,0.883 -1.435,0.883 -0.145,0 -0.273,-0.022 -0.379,-0.045 -0.277,-0.055 -0.621,-0.193 -0.886,-0.351 -0.187,0.028 -0.371,0.028 -0.526,0.028 -0.046,0 -1.145,-10e-4 -1.691,-0.215 -0.098,-0.039 -0.521,-0.163 -0.961,-0.275 -0.197,-0.047 -0.439,-0.105 -0.568,-0.105 -0.031,0 -0.066,0.003 -0.15,0.027 -0.321,0.096 -0.846,0.167 -1.244,0.169 -0.203,10e-4 -0.587,0.064 -0.771,0.13 -0.301,0.104 -0.743,0.229 -1.011,0.267 -0.113,0.013 -0.522,0.093 -0.936,0.193 -0.566,0.133 -1.742,0.214 -3.929,0.263 -3.737,0.086 -5.379,0.19 -6.053,0.382 -0.95,0.269 -0.962,0.288 -1.083,0.532 -0.19,0.369 -0.657,1.083 -0.998,1.557 -0.329,0.458 -1.004,1.651 -1.471,2.607 -0.453,0.928 -1.105,2.161 -1.412,2.622 -0.438,0.659 -1.975,3.141 -2.221,3.587 -0.292,0.532 -2.313,3.32 -3.064,4.257 -0.396,0.493 -0.884,1.103 -1.082,1.354 -0.216,0.27 -0.676,0.799 -1.053,1.204 -0.348,0.379 -0.741,0.871 -0.874,1.077 -0.143,0.219 -0.402,0.601 -0.533,0.758 -0.05,0.061 -0.28,0.378 -0.524,0.735 -0.419,0.605 -1.12,1.407 -2.404,1.407 z m -6.318,-6.514 c 0.062,0.05 0.167,0.126 0.292,0.19 1.188,0.619 1.799,1.127 2.507,2.084 0.343,0.463 0.698,0.849 0.792,0.924 0.198,0.154 0.6,0.478 0.893,0.72 0.569,0.469 0.854,0.596 1.239,0.685 0.239,0.058 0.433,0.085 0.595,0.085 0.268,0 0.504,-0.045 0.896,-0.615 0.183,-0.266 0.5,-0.714 0.625,-0.867 0.04,-0.049 0.217,-0.295 0.409,-0.587 0.229,-0.354 0.721,-0.948 1.062,-1.317 0.335,-0.367 0.778,-0.87 0.964,-1.105 0.2,-0.251 0.689,-0.862 1.088,-1.357 0.756,-0.942 2.688,-3.63 2.888,-3.993 0.273,-0.495 1.82,-2.998 2.301,-3.719 0.198,-0.299 0.779,-1.365 1.292,-2.413 0.521,-1.067 1.237,-2.329 1.629,-2.874 0.361,-0.5 0.739,-1.097 0.852,-1.319 0.454,-0.887 0.967,-1.104 2.213,-1.457 0.871,-0.247 2.453,-0.357 6.508,-0.452 1.943,-0.044 3.139,-0.114 3.549,-0.212 0.369,-0.089 0.887,-0.2 1.121,-0.23 0.08,-0.01 0.382,-0.084 0.645,-0.177 0.375,-0.133 0.965,-0.231 1.37,-0.233 0.236,-10e-4 0.59,-0.05 0.724,-0.091 0.563,-0.17 1.025,-0.11 1.688,0.058 0.407,0.102 0.938,0.25 1.172,0.339 0.125,0.038 0.597,0.095 1.036,0.095 0.08,0 0.138,-0.002 0.181,-0.004 0.126,-0.059 0.268,-0.089 0.414,-0.089 0.339,0 0.647,0.168 0.844,0.307 0.042,0.029 0.132,0.074 0.213,0.106 0.084,-0.088 0.181,-0.193 0.227,-0.245 0.791,-0.863 1.118,-0.935 1.409,-0.935 0.194,0 0.417,0 1.588,0.745 1.128,0.72 1.996,1.133 3.317,1.581 1.622,0.55 4.999,2.229 6.569,3.268 0.741,0.487 1.856,1.312 2.487,1.834 0.946,0.784 1.529,1.134 1.886,1.134 0.078,0 0.158,-0.016 0.253,-0.052 0.365,-0.173 1.18,-1.522 1.182,-2.248 0.004,-0.599 0.396,-1.83 0.798,-2.273 0.061,-0.069 0.202,-0.255 0.287,-0.386 0.263,-0.412 1.15,-1.152 1.251,-1.235 0.863,-0.715 1.091,-1.238 1.091,-1.416 -0.004,-0.069 -0.051,-0.348 -0.127,-0.595 -0.097,-0.326 -0.189,-0.786 -0.109,-1.221 -0.104,0.121 -0.211,0.235 -0.312,0.333 -0.248,0.248 -0.311,0.356 -0.389,0.683 -0.262,1.098 -0.702,1.42 -2.055,2.277 -1.025,0.652 -1.659,0.965 -2.512,1.234 -0.324,0.103 -0.559,0.17 -0.849,0.17 -0.344,0 -0.647,-0.102 -1.033,-0.233 -0.867,-0.291 -3.424,-1.923 -4.836,-3.007 -0.345,-0.266 -0.775,-0.592 -0.941,-0.712 -0.208,-0.151 -0.802,-0.62 -1.256,-0.984 -0.947,-0.763 -3.274,-2.33 -4.151,-2.801 -1.026,-0.551 -1.279,-1.2 -0.891,-2.318 0.072,-0.298 -0.101,-1.273 -0.271,-1.531 -0.24,-0.287 -0.319,-0.356 -2.386,-0.363 -1.472,-0.003 -2.419,-0.067 -3.074,-0.207 -0.514,-0.11 -0.813,-0.154 -1.041,-0.154 -0.22,0 -0.391,0.041 -0.698,0.176 -0.655,0.281 -0.989,0.326 -2.386,0.326 -0.32,0 -0.705,-0.002 -1.173,-0.005 -1.399,-0.011 -3.147,0.031 -3.858,0.089 -0.769,0.064 -2.316,0.149 -3.445,0.192 l -3.13,0.117 0.235,-1.64 c 0.048,-0.323 0.167,-0.839 0.297,-1.156 0.074,-0.182 0.141,-0.41 0.152,-0.472 0.076,-0.416 0.49,-1.109 0.573,-1.242 0.192,-0.313 0.513,-0.979 0.687,-1.425 0.434,-1.116 0.575,-1.455 0.722,-1.749 0.014,-0.035 0.027,-0.08 0.042,-0.129 0.04,-0.114 0.086,-0.261 0.148,-0.406 0.061,-0.145 0.116,-0.252 0.166,-0.349 0.069,-0.137 0.131,-0.255 0.217,-0.496 0.076,-0.239 0.168,-0.475 0.27,-0.702 0.031,-0.08 0.113,-0.412 0.137,-0.723 0.026,-0.342 0.188,-0.746 0.376,-1.214 0.103,-0.258 0.221,-0.552 0.262,-0.721 0.271,-1.086 0.667,-1.936 1.172,-2.856 0.244,-1.038 0.913,-1.517 1.902,-2.221 0.138,-0.099 0.285,-0.205 0.443,-0.319 l 0.058,-0.04 1.971,-1.02 1.604,-0.402 c 0.881,-0.222 1.971,-0.433 2.481,-0.479 1.11,-0.101 1.287,-0.145 3.949,-1.416 2.285,-1.089 3.328,-1.701 5.582,-3.275 0.828,-0.576 1.29,-0.851 2.251,-1.336 0.161,-0.079 0.429,-0.172 0.693,-0.19 0.293,-0.107 1.163,-0.65 1.43,-0.947 0.268,-0.298 0.698,-0.705 1.357,-0.81 0.229,-0.036 0.592,-0.091 0.806,-0.126 0.12,-0.018 0.183,-0.048 0.21,-0.062 0,-0.458 0.084,-0.98 0.713,-1.393 0.149,-0.1 0.328,-0.2 0.544,-0.25 C 66.418,6.063 66.391,6.04 66.364,6.018 66.201,5.875 65.926,5.742 65.778,5.69 65.768,5.693 65.762,5.696 65.755,5.7 65.554,5.832 65.23,5.995 64.963,6.048 c -0.058,0.016 -0.314,0.092 -0.589,0.19 -0.269,0.097 -0.657,0.198 -0.967,0.228 -0.261,0.179 -0.919,0.832 -1.146,1.061 -1.046,1.038 -1.652,1.525 -2.162,1.742 -0.295,0.124 -0.734,0.316 -0.98,0.429 -1.439,0.651 -4.459,1.674 -5.573,1.887 -1.305,0.248 -2.59,0.721 -3.032,1.016 -1.424,0.949 -4.23,1.776 -5.9,1.731 -0.535,-0.014 -1.344,-0.037 -1.717,-0.67 -0.15,-0.254 -0.267,-0.673 0.026,-1.235 0.186,-0.359 0.571,-1.105 1.521,-1.105 0.084,0 0.173,0.006 0.27,0.019 0.016,0.002 0.022,0.003 0.027,0.003 0.003,-10e-4 0.06,-0.013 0.235,-0.126 0.859,-0.553 1.23,-0.748 2.017,-0.748 0.024,0 0.044,0 0.062,-0.002 0,0 0,-10e-4 0,-0.002 C 47.064,10.231 47.083,9.898 47.1,9.672 47.094,9.664 47.085,9.657 47.076,9.649 L 46.222,8.867 46.706,7.851 C 46.717,7.829 46.727,7.799 46.736,7.767 46.244,7.651 45.897,7.199 45.897,6.622 45.897,6.575 45.9,6.525 45.908,6.477 45.739,6.394 45.628,6.279 45.563,6.196 45.327,5.896 45.331,5.565 45.362,5.351 45.336,5.288 45.317,5.224 45.307,5.156 45.284,5.034 45.286,4.907 45.309,4.783 45.09,4.662 44.932,4.494 44.838,4.391 44.691,4.233 44.583,4.095 44.502,3.973 44.148,3.809 43.883,3.511 43.778,3.169 43.758,3.167 43.739,3.163 43.717,3.158 L 42.611,2.978 42.482,1.826 41.412,1.263 c -0.312,0.202 -0.643,0.306 -0.968,0.306 -0.502,0 -0.95,-0.248 -1.237,-0.674 -0.019,0.038 -0.039,0.078 -0.062,0.114 -0.2,0.32 -0.522,0.503 -0.884,0.503 -0.362,0 -0.634,-0.176 -0.905,-0.38 -0.028,0.019 -0.062,0.041 -0.103,0.068 -0.354,0.245 -0.768,0.36 -1.133,0.308 -0.044,0.02 -0.112,0.05 -0.208,0.108 -0.316,0.184 -0.629,0.352 -0.992,0.352 -0.07,0 -0.153,-0.007 -0.244,-0.024 -0.027,0.028 -0.051,0.062 -0.071,0.1 -0.157,0.292 -0.415,0.632 -0.803,0.74 -0.025,0.018 -0.06,0.04 -0.097,0.07 -0.347,0.272 -0.772,0.418 -1.229,0.418 -0.043,0 -0.088,-0.002 -0.132,-0.004 -0.02,0.021 -0.043,0.044 -0.063,0.064 -0.002,0.07 -0.009,0.144 -0.021,0.222 0.21,0.38 0.123,0.705 0.04,0.88 -0.008,0.02 -0.02,0.041 -0.033,0.065 0.132,0.311 0.351,0.953 0.007,1.484 -0.101,0.154 -0.239,0.278 -0.398,0.362 -0.041,0.102 -0.076,0.229 -0.084,0.303 0.091,0.465 0.105,1.638 0.108,2.006 0.006,0.704 0.033,1.162 0.052,1.346 0.085,0.202 0.129,0.451 0.131,0.746 0.005,0.005 0.011,0.01 0.017,0.017 0.181,0.166 0.723,0.671 0.463,1.333 -0.144,0.371 -0.507,0.612 -0.923,0.612 -0.218,0 -0.464,-0.065 -0.784,-0.208 -0.005,0.007 -0.013,0.015 -0.017,0.021 -0.559,0.765 -0.919,0.801 -1.879,0.801 -0.881,0 -1.251,-0.132 -1.439,-0.256 -0.267,-0.086 -1.043,-0.229 -1.379,-0.229 h -0.021 c -0.667,0.022 -1.315,0.151 -1.878,0.375 l -1.083,0.433 -1.156,-0.581 c -0.756,-0.379 -1.805,-0.688 -3.029,-0.894 -1.462,-0.246 -1.772,-0.322 -3.326,-0.822 -0.798,-0.256 -1.82,-0.658 -2.306,-0.977 -0.24,-0.16 -0.41,-0.265 -0.486,-0.308 -0.158,-0.062 -0.35,-0.179 -0.648,-0.381 -0.107,-0.072 -0.205,-0.115 -0.26,-0.115 -0.024,0 -0.262,0.019 -0.781,0.701 -0.128,0.167 -1.274,1.64 -2.149,1.836 -0.096,0.02 -0.241,0.053 -0.374,0.08 -0.095,0.116 -0.211,0.317 -0.271,0.468 0.309,0.042 0.567,0.182 0.772,0.421 0.204,-0.129 0.449,-0.196 0.725,-0.196 0.329,0 0.707,0.093 1.347,0.333 0.366,0.139 0.821,0.226 0.973,0.226 0.476,-10e-4 1.258,-0.196 1.543,-0.351 0.197,-0.105 0.571,-0.246 1.545,-0.246 0.051,0 0.103,0 0.152,0.002 1.22,0.019 2.109,0.307 3.168,1.035 0.186,0.126 0.699,0.422 1.145,0.645 0.419,0.212 1.015,0.533 1.291,0.708 0.25,0.156 0.871,0.414 1.182,0.52 0.268,-0.021 0.539,0.075 0.792,0.286 0.62,0.515 1.034,2.338 0.906,3.025 -0.038,0.205 -0.063,0.396 -0.067,0.451 -0.003,0.088 -0.016,0.332 -0.367,1.499 -0.348,1.146 -0.547,3.089 -0.5,3.604 0.125,0.222 0.291,0.617 0.115,1.053 -0.137,0.34 -0.424,0.57 -0.851,0.682 -0.059,0.028 -0.165,0.112 -0.229,0.181 -0.054,0.279 -0.194,0.533 -0.33,0.704 -0.096,0.193 -0.249,0.73 -0.318,1.078 l 0.15,0.157 -0.624,1.462 c -0.072,0.253 -0.22,0.615 -0.351,0.901 0.151,0.179 0.241,0.416 0.241,0.678 0,0.243 -0.084,0.479 -0.225,0.679 0.057,0.207 0.136,0.47 0.171,0.584 l 0.391,1.271 -0.833,0.725 c 0.046,0.174 0.046,0.352 -0.004,0.528 -0.127,0.452 -0.555,0.75 -1.05,0.729 -0.068,0.225 -0.181,0.443 -0.279,0.616 -0.066,0.109 -0.181,0.396 -0.244,0.621 0.03,0.012 0.063,0.023 0.1,0.035 l 1.283,0.426 -0.158,1.344 c -0.005,0.04 -0.01,0.076 -0.012,0.104 0.337,0.315 0.808,0.988 0.225,2.007 -0.018,0.031 -0.039,0.087 -0.048,0.117 -0.034,0.44 -0.329,0.867 -0.422,0.991 -0.004,0.008 -0.008,0.013 -0.013,0.019 0.004,0.209 0.103,0.805 0.184,1.295 0.063,0.376 0.147,0.893 0.189,1.145 0.02,0.109 0.047,0.211 0.064,0.262 0.247,0.372 0.253,0.831 0.021,1.215 -0.026,0.122 -0.067,0.395 -0.088,0.729 -0.053,0.875 -0.187,1.28 -0.294,1.48 -0.02,0.105 -0.049,0.367 -0.054,0.822 -0.012,1.271 -0.184,1.583 -0.306,1.739 -0.157,0.298 -0.646,1.741 -0.907,2.911 l -0.398,1.788 -1.222,0.153 c -0.291,0.039 -0.83,0.136 -1.179,0.215 -0.401,0.091 -1.294,0.25 -2.032,0.363 L 12.09,56.659 11.07,56.193 C 10.67,56.009 9.905,55.701 9.397,55.516 8.991,55.37 8.317,55.12 8.124,55.028 7.463,54.72 5.68,54.022 4.996,53.804 4.972,53.794 2.345,52.851 1.916,51.97 1.723,51.572 1.554,51.121 1.354,50.469 0.969,49.214 0.902,49.178 0.803,49.124 0.744,49.092 0.709,49.077 0.69,49.067 c -0.093,0.008 -0.307,0.052 -0.393,0.069 -0.283,0.059 -0.995,0.336 -1.761,0.74 -1.17,0.614 -1.562,0.775 -2.441,0.827 -0.428,0.025 -1.335,0.087 -2.021,0.135 -0.54,0.039 -1.027,0.064 -1.275,0.068 -0.233,0.112 -0.542,0.169 -0.918,0.169 -0.032,0 -0.062,0 -0.093,-0.002 -0.034,0 -0.066,0 -0.09,0 -0.016,0.014 -0.041,0.035 -0.078,0.068 0.005,0.006 0.008,0.01 0.013,0.013 0.043,0.041 0.117,0.108 0.175,0.159 0.057,-0.008 0.124,-0.014 0.168,-0.02 0.172,-0.021 0.326,-0.031 0.473,-0.031 0.366,0 0.683,0.069 0.965,0.21 0.1,0.051 0.331,0.127 0.446,0.148 0.474,0.09 1.544,0.597 1.591,0.618 0.552,0.26 1.49,0.703 2.088,0.98 0.592,0.279 1.321,0.555 1.606,0.627 0.39,0.1 0.922,0.271 1.186,0.406 0.046,0.023 0.122,0.048 0.163,0.057 0.404,0.016 0.803,0.238 1.034,0.576 0.079,0.064 0.271,0.195 0.508,0.324 0.749,0.398 2.83,1.771 3.27,2.184 0.08,0.076 0.323,0.281 0.527,0.439 0.213,0.168 0.827,0.658 1.366,1.093 1.041,0.835 2.28,1.766 2.59,1.97 0.151,0.063 0.334,0.175 0.601,0.354 0.032,0.022 0.065,0.039 0.092,0.055 0.467,-0.045 0.884,0.202 1.093,0.629 z M 17.929,49.87 c -0.021,0.024 -0.038,0.048 -0.053,0.071 0.017,-0.026 0.034,-0.052 0.053,-0.071 z M 28.457,11.492 c 0.076,0.045 0.143,0.094 0.197,0.146 -0.07,-0.07 -0.14,-0.115 -0.197,-0.146 z"
           inkscape:connector-curvature="0"
           id="path86"
           style="fill:#010202" /></g></g><g
       transform="translate(20,20)"
       id="layer2_10_"><path
         d="m 12.213,55.71 2.076,9.832 2.8,1.883 -4.876,-11.715 z"
         inkscape:connector-curvature="0"
         id="path3292_10_"
         style="fill:#cc4117" /><path
         d="m 47.536,34.518 -14.634,9.805 3.39,-9.948 11.244,0.143 z"
         inkscape:connector-curvature="0"
         id="path3220_10_"
         style="fill:#7dbd67" /><path
         d="m 32.902,44.322 8.002,-0.434 9.461,-9.955 -2.829,0.584 -14.634,9.805 z"
         inkscape:connector-curvature="0"
         id="path3226_10_"
         style="fill:#4cbab1" /><path
         d="m 40.904,43.889 3.388,-3.748 4.614,1.947 -5.785,3.505 -3.71,0.041 1.493,-1.745 z"
         inkscape:connector-curvature="0"
         id="path3228_10_"
         style="fill:#009948" /><path
         d="m 32.902,44.322 -5.333,1.802 2.364,0.699 3.896,-0.429 -0.927,-2.072 z"
         inkscape:connector-curvature="0"
         id="path3230_10_"
         style="fill:#185025" /><path
         d="m 32.902,44.322 8.002,-0.434 -1.009,1.313 -6.127,1.209 -0.866,-2.088 z"
         inkscape:connector-curvature="0"
         id="path3234_10_"
         style="fill:#3d6875" /><path
         d="m 48.906,42.088 4.759,3.315 -5.146,-1.29 -5.456,1.336 5.843,-3.361 z"
         inkscape:connector-curvature="0"
         id="path3238_10_"
         style="fill:#284820" /><path
         d="m 48.906,42.088 1.4,-8.182 5.304,0.468 -6.704,7.714 z"
         inkscape:connector-curvature="0"
         id="path3240_10_"
         style="fill:#9ec9ed" /><path
         d="m 53.75,45.374 1.574,-1.51 -2.669,-1.923 -3.749,0.146 4.844,3.287 z"
         inkscape:connector-curvature="0"
         id="path3242_10_"
         style="fill:#248f96" /><path
         d="m 52.883,42.114 2.728,-7.74 -6.704,7.714 3.976,0.026 z"
         inkscape:connector-curvature="0"
         id="path3244_10_"
         style="fill:#3cb9be" /><path
         d="m 55.61,34.374 0,0 1.442,3.604 0.172,-2.985 -1.614,-0.619 z"
         inkscape:connector-curvature="0"
         id="path3246_10_"
         style="fill:#034896" /><path
         d="m 55.61,34.374 -0.937,2.597 2.679,1.421 -1.742,-4.018 z"
         inkscape:connector-curvature="0"
         id="path3248_10_"
         style="fill:#3566af" /><path
         d="m 54.674,36.971 c 2.22,1.024 4.272,2.221 6.15,3.591 l -6.944,-1.358 0.794,-2.233 z"
         inkscape:connector-curvature="0"
         id="path3250_10_"
         style="fill:#ffe533" /><path
         d="m 53.88,39.203 -1.109,2.911 4.788,3.65 -3.679,-6.561 z"
         inkscape:connector-curvature="0"
         id="path3252_10_"
         style="fill:#825412" /><path
         d="m 53.88,39.203 9.659,8.796 -5.98,-2.234 -3.679,-6.562 z"
         inkscape:connector-curvature="0"
         id="path3254_10_"
         style="fill:#904224" /><path
         d="M 53.88,39.203 69.162,48.574 61.067,40.547 53.88,39.203 z"
         inkscape:connector-curvature="0"
         id="path3256_10_"
         style="fill:#fab52e" /><path
         d="M 69.162,48.574 63.539,47.999 53.88,39.203 69.162,48.574 z"
         inkscape:connector-curvature="0"
         id="path3258_10_"
         style="fill:#cf5416" /><path
         d="m 63.539,47.999 5.408,3.674 0.215,-3.099 -5.623,-0.575 z"
         inkscape:connector-curvature="0"
         id="path3260_10_"
         style="fill:#5a2b81" /><path
         d="m 69.162,48.574 0.362,-2.521 -2.075,-0.851 -5.668,-3.743 7.381,7.115 -0.215,3.099 2.15,0.905 -1.935,-4.004"
         inkscape:connector-curvature="0"
         id="path3262_10_"
         style="fill:#8e539c" /><path
         d="m 71.054,52.704 0.888,-0.199 1.592,-2.962 -4.371,-0.969 0,0 1.891,4.13 z"
         inkscape:connector-curvature="0"
         id="path3264_10_"
         style="fill:#064e99" /><path
         d="m 69.162,48.574 0.362,-2.521 1.694,-0.496 3.062,-1.811 -5.118,4.828 z"
         inkscape:connector-curvature="0"
         id="path3266_10_"
         style="fill:#474e9c" /><path
         d="m 69.162,48.574 5.119,-4.828 -0.305,4.238 -0.541,1.578 -4.273,-0.988 z"
         inkscape:connector-curvature="0"
         id="path3268_10_"
         style="fill:#3174ba" /><path
         d="m 74.281,43.746 2.353,-0.97 -0.507,-2.141 -0.881,0.695 -1.487,2.71 0.522,-0.294 z"
         inkscape:connector-curvature="0"
         id="path3272_10_"
         style="fill:#84cee9" /><path
         d="m 76.62,45.06 -2.339,-1.313 -0.275,3.87 2.628,-2.629"
         inkscape:connector-curvature="0"
         id="path3274_10_"
         style="fill:#9bbacc" /><path
         d="m 27.569,46.124 -8.479,-7.775 13.812,5.974 -5.333,1.801 z"
         inkscape:connector-curvature="0"
         id="path3278_10_"
         style="fill:#9a6814" /><path
         d="m 32.902,44.322 3.39,-9.948 -9.393,7.353 6.003,2.595 z"
         inkscape:connector-curvature="0"
         id="path3280_10_"
         style="fill:#bcc03c" /><path
         d="m 26.899,41.727 9.393,-7.353 -9.886,2.191 -7.316,1.783 7.809,3.379 z"
         inkscape:connector-curvature="0"
         id="path3282_10_"
         style="fill:#f4991d" /><path
         d="m 25.984,47.78 -0.74,11.431 7.5,-12.292 -6.76,0.861"
         inkscape:connector-curvature="0"
         id="path3116_10_"
         style="fill:#354f21" /><path
         d="m 25.984,47.78 -3.611,-6.421 5.196,4.765"
         inkscape:connector-curvature="0"
         id="path3114_10_"
         style="fill:#b98a0e" /><path
         d="m 27.569,46.124 -1.585,1.656 6.917,-0.985 -5.332,-0.671"
         inkscape:connector-curvature="0"
         id="path3288_10_"
         style="fill:#407b30" /><path
         d="m 25.244,59.211 -9.503,2.314 3.359,5.527 6.144,-7.841 z"
         inkscape:connector-curvature="0"
         id="path3290_10_"
         style="fill:#0c682f" /><path
         d="M 12.213,55.71 19.101,67.053 17.089,67.425 12.213,55.71 z"
         inkscape:connector-curvature="0"
         id="path3294_10_"
         style="fill:#e52620" /><path
         d="M 12.213,55.71 0.394,51.964 12.872,58.82 12.213,55.71"
         inkscape:connector-curvature="0"
         id="path3296_10_"
         style="fill:#e73d1f" /><path
         d="M 12.871,58.82 0.394,51.964 13.722,62.85 12.871,58.82 z"
         inkscape:connector-curvature="0"
         id="path3298_10_"
         style="fill:#991915" /><path
         d="m 0.394,51.964 -0.156,-3.83 -3.124,1.416 3.28,2.414 z"
         inkscape:connector-curvature="0"
         id="path3302_10_"
         style="fill:#333366" /><path
         d="m 0.394,51.964 -3.28,-2.414 -4.655,0.52 7.935,1.894 z"
         inkscape:connector-curvature="0"
         id="path3304_10_"
         style="fill:#2864ae" /><path
         d="m -7.685,51.935 8.078,0.029 -4.796,1.235 -1.997,-0.81"
         inkscape:connector-curvature="0"
         id="path3306_10_"
         style="fill:#9ec9ed" /><path
         d="m 0.394,51.964 -0.966,2.592 -4.2,-1.612"
         inkscape:connector-curvature="0"
         id="path3308_10_"
         style="fill:#9294c9" /><path
         d="m 0.394,51.964 2.472,4.822 -3.69,-1.897"
         inkscape:connector-curvature="0"
         id="path3310_10_"
         style="fill:#67679a" /><path
         d="M 13.722,62.85 0.394,51.964 2.866,56.786 14.244,64.904 13.722,62.85 z"
         inkscape:connector-curvature="0"
         id="path3314_10_"
         style="fill:#6f2a0d" /><path
         d="m 12.213,55.71 13.43,-2.652 -9.901,8.468 -3.529,-5.816 z"
         inkscape:connector-curvature="0"
         id="path3316_10_"
         style="fill:#53af3a" /><path
         d="m 25.643,53.058 -0.398,6.153 -9.503,2.314 9.901,-8.467 z"
         inkscape:connector-curvature="0"
         id="path3318_10_"
         style="fill:#0c9a39" /><path
         d="m 25.984,47.78 -8.669,7.079 8.327,-1.802 0.342,-5.277 z"
         inkscape:connector-curvature="0"
         id="path3320_10_"
         style="fill:#0d9a39" /><path
         d="m 25.984,47.78 -6.986,0.004 -0.229,-5.145 7.215,5.141 z"
         inkscape:connector-curvature="0"
         id="path3322_10_"
         style="fill:#8b9966" /><path
         d="m 18.998,47.784 3.553,2.801 3.434,-2.805 -6.987,0.004 z"
         inkscape:connector-curvature="0"
         id="path3324_10_"
         style="fill:#dae395" /><path
         d="m 18.998,47.784 -0.434,2.777 3.986,0.023"
         inkscape:connector-curvature="0"
         id="path3326_10_"
         style="fill:#526734" /><path
         d="M 18.564,50.562 17.315,54.86 22.55,50.586"
         inkscape:connector-curvature="0"
         id="path3328_10_"
         style="fill:#73b72b" /><path
         d="m 36.292,34.374 -11.173,-2.379 1.287,4.57 9.886,-2.191 z"
         inkscape:connector-curvature="0"
         id="path3330_10_"
         style="fill:#ffea0f" /><path
         d="m 36.292,34.374 -11.173,-2.379 1.334,-4.757 9.839,7.136 z"
         inkscape:connector-curvature="0"
         id="path3346_10_"
         style="fill:#263570" /><path
         d="m 36.292,34.374 1.172,-3.579 -11.011,-3.557 9.839,7.136 z"
         inkscape:connector-curvature="0"
         id="path3348_10_"
         style="fill:#3a235e" /><path
         d="m 37.464,30.795 -11.011,-3.557 13.305,-4.585 -0.515,3.823 -1.779,4.319 z"
         inkscape:connector-curvature="0"
         id="path3350_10_"
         style="fill:#263686" /><path
         d="m 18.562,35.341 7.845,1.225 -7.316,1.783 -1.109,-0.963 0.58,-2.045 z"
         inkscape:connector-curvature="0"
         id="path3362_10_"
         style="fill:#63b22f" /><path
         d="m 25.119,31.995 1.287,4.57 -7.845,-1.225 6.558,-3.345 z"
         inkscape:connector-curvature="0"
         id="path3364_10_"
         style="fill:#b5cd35" /><path
         d="m 25.119,31.995 -6.558,3.346 1.856,-1.812 -0.85,-2.107 0.863,-2.763 4.689,3.336 z"
         inkscape:connector-curvature="0"
         id="path3366_10_"
         style="fill:#0c9a39" /><path
         d="m 25.119,31.995 -3,-7.032 -1.688,3.695 4.688,3.337 z"
         inkscape:connector-curvature="0"
         id="path3370_10_"
         style="fill:#057549" /><path
         d="m 26.453,27.238 -4.334,-2.275 3,7.032 1.334,-4.757"
         inkscape:connector-curvature="0"
         id="path3372_10_"
         style="fill:#1f3d8a" /><path
         d="m 26.453,27.238 0.359,-5.624 -4.693,3.349 4.334,2.275 z"
         inkscape:connector-curvature="0"
         id="path3374_10_"
         style="fill:#079da9" /><path
         d="m 26.453,27.238 5.209,-1.796 -4.85,-3.828 -0.359,5.624 z"
         inkscape:connector-curvature="0"
         id="path3376_10_"
         style="fill:#066bb0" /><path
         d="m 26.812,21.614 -3.797,-2.799 -0.896,6.147 4.693,-3.348"
         inkscape:connector-curvature="0"
         id="path3888_10_"
         style="fill:#66c5e1" /><path
         d="m 26.812,21.614 12.945,1.039 -8.096,2.789 -4.849,-3.828"
         inkscape:connector-curvature="0"
         id="path3378_10_"
         style="fill:#65327d" /><path
         d="m 40.718,21.864 -2.399,-3.292 -11.506,3.042 12.945,1.039 0.96,-0.789 z"
         inkscape:connector-curvature="0"
         id="path3382_10_"
         style="fill:#542679" /><path
         d="m 38.318,18.572 -3.334,-4.18 -4.771,6.298 8.105,-2.118 z"
         inkscape:connector-curvature="0"
         id="path3386_10_"
         style="fill:#2b4b9b" /><path
         d="m 30.214,20.69 -1.131,-5.743 -1.659,4.434 -0.611,2.233 3.401,-0.924 z"
         inkscape:connector-curvature="0"
         id="path3398_10_"
         style="fill:#11bae5" /><path
         d="m 29.083,14.947 1.131,5.743 4.771,-6.298 -5.902,0.555 z"
         inkscape:connector-curvature="0"
         id="path3400_10_"
         style="fill:#0a5aa6" /><path
         d="m 35.105,14.435 -3.374,-2.688 -2.648,3.2 5.901,-0.555"
         inkscape:connector-curvature="0"
         id="path3402_10_"
         style="fill:#607abb" /><path
         d="m 31.689,11.987 -5.394,0.3 2.787,2.66 2.566,-2.999"
         inkscape:connector-curvature="0"
         id="path3404_10_"
         style="fill:#a5a5d2" /><path
         d="m 29.083,14.947 -12.956,-1.146 4.967,2.477 7.989,-1.331 z"
         inkscape:connector-curvature="0"
         id="path3406_10_"
         style="fill:#b9ce00" /><path
         d="m 29.083,14.947 -7.989,1.331 2.408,2.227 5.581,-3.558 z"
         inkscape:connector-curvature="0"
         id="path3408_10_"
         style="fill:#f3e600" /><path
         d="m 29.083,14.947 -2.557,-2.61 -10.399,1.465 12.956,1.145 z"
         inkscape:connector-curvature="0"
         id="path3410_10_"
         style="fill:#71b73a" /><path
         d="m 24.681,12.753 -9.89,-2.691 6.159,3.184 3.731,-0.493 z"
         inkscape:connector-curvature="0"
         id="path3412_10_"
         style="fill:#0c9a39" /><path
         d="m 18.238,13.558 2.712,-0.312 -6.159,-3.184 3.146,3.531"
         inkscape:connector-curvature="0"
         id="path3414_10_"
         style="fill:#52b266" /><path
         d="m 10.629,11.919 5.679,-0.155 -4.38,-3.116 -1.299,3.271 z"
         inkscape:connector-curvature="0"
         id="path3416_10_"
         style="fill:#62c7f2" /><path
         d="m 10.629,11.919 3.012,2.172 2.667,-2.327"
         inkscape:connector-curvature="0"
         id="path3418_10_"
         style="fill:#b2dcd5" /><path
         d="m 13.641,14.091 4.296,-0.498 -1.629,-1.829 -2.667,2.327 z"
         inkscape:connector-curvature="0"
         id="path3420_10_"
         style="fill:#50bdc1" /><path
         d="m 14.791,10.062 -2.863,-1.414 4.38,3.116"
         inkscape:connector-curvature="0"
         id="path3422_10_"
         style="fill:#257fc3" /><path
         d="m 10.629,11.919 -3.194,0.655 0.6,-0.962 3.894,-2.965 -1.3,3.272 z"
         inkscape:connector-curvature="0"
         id="path3424_10_"
         style="fill:#448ecc" /><path
         d="m 10.629,11.919 -3.194,0.655 1.313,1.36 4.893,0.156 -3.012,-2.171 z"
         inkscape:connector-curvature="0"
         id="path3426_10_"
         style="fill:#5b81c1" /><path
         d="m 43.34,18.24 9.869,-2.969 -9.754,0.957 -0.115,2.012 z"
         inkscape:connector-curvature="0"
         id="path3444_10_"
         style="fill:#9c2a15" /><path
         d="m 53.24,15.302 7.091,-5.943 1.192,1.217 -8.283,4.726 z"
         inkscape:connector-curvature="0"
         id="path3446_10_"
         style="fill:#67679a" /><path
         d="m 44.219,13.362 9.049,0.072 -9.822,2.784"
         inkscape:connector-curvature="0"
         id="path3448_10_"
         style="fill:#a71916" /><path
         d="m 53.24,15.302 0.027,-1.867 7.063,-4.076 -7.09,5.943"
         inkscape:connector-curvature="0"
         id="path3450_10_"
         style="fill:#9a6814" /><path
         d="m 53.268,13.435 0.225,-2.778 6.839,-1.298"
         inkscape:connector-curvature="0"
         id="path3452_10_"
         style="fill:#e94c20" /><path
         d="m 53.492,10.656 -7.981,2.706 7.757,0.072"
         inkscape:connector-curvature="0"
         id="path3454_10_"
         style="fill:#fbb80b" /><path
         d="M 60.331,9.358 60.09,8.222 53.492,10.657"
         inkscape:connector-curvature="0"
         id="path3456_10_"
         style="fill:#8e67aa" /><path
         d="M 60.09,8.222 62.668,5.889 63.632,5.636 60.331,9.359"
         inkscape:connector-curvature="0"
         id="path3491_10_"
         style="fill:#ad65a5" /><path
         d="m 60.331,9.358 4.138,-0.566 -2.945,1.783"
         inkscape:connector-curvature="0"
         id="path3458_10_"
         style="fill:#999acc" /><path
         d="M 60.331,9.358 63.787,5.433 65.504,7.3 60.331,9.358"
         inkscape:connector-curvature="0"
         id="path3460_10_"
         style="fill:#257fc3" /><path
         d="m 64.801,5.376 1.077,-0.61 2.384,1.393 -3.461,-0.783 z"
         inkscape:connector-curvature="0"
         id="path3462_10_"
         style="fill:#9ec9ed" /><path
         d="M 63.887,5.62 65.504,7.301 67.518,7.003 68.69,6.146 64.415,5.18"
         inkscape:connector-curvature="0"
         id="path3464_10_"
         style="fill:#61b1e3" /><path
         d="m 65.504,7.301 0.849,-0.337 -0.305,1.324 -3.271,1.13 -2.445,-0.06 5.172,-2.057 z"
         inkscape:connector-curvature="0"
         id="path3466_10_"
         style="fill:#6b6baf" /><path
         d="m 18.769,42.64 3.604,-1.28 -3.283,-3.011 0.627,1.783 -0.948,2.508 z"
         inkscape:connector-curvature="0"
         id="path3483_10_"
         style="fill:#ffea0f" /><path
         d="M 0.394,51.964 2.047,49.654 2.88,51.733 12.213,55.71 0.394,51.964 z"
         inkscape:connector-curvature="0"
         id="path3485_10_"
         style="fill:#ef7850" /><path
         d="m 2.047,49.654 -0.59,-1.196 -1.328,-0.365 0.265,3.871 1.653,-2.31 z"
         inkscape:connector-curvature="0"
         id="path3487_10_"
         style="fill:#6063ab" /><path
         d="m 44.292,40.141 4.614,1.947 1.486,-8.239 -6.1,6.292 z"
         inkscape:connector-curvature="0"
         id="path3493_10_"
         style="fill:#44bccb" /><path
         d="M 74.281,43.746 76.692,42.69 76.52,45.145 74.281,43.746 z"
         inkscape:connector-curvature="0"
         id="path3495_10_"
         style="fill:#3cbddc" /><path
         d="m 18.769,42.64 3.604,-1.28 3.611,6.421 -7.215,-5.141 z"
         inkscape:connector-curvature="0"
         id="path3497_10_"
         style="fill:#ffcc07" /><path
         d="m 0.394,51.964 -8.363,-2.066 -1.137,0.685 -0.349,0.696 0.857,0.776 8.992,-0.091"
         inkscape:connector-curvature="0"
         id="path3499_10_"
         style="fill:#448ecc" /><path
         d="m 43.484,16.219 9.783,-2.784 -0.027,1.867 -9.756,0.917 z"
         inkscape:connector-curvature="0"
         id="path3501_10_"
         style="fill:#d65214" /><path
         d="m 41.599,13.465 6.54,-2.261 -0.403,-4.521 -6.137,6.782 z"
         inkscape:connector-curvature="0"
         id="path3146_10_"
         style="fill:#3c6ab1" /><path
         d="M 41.599,13.465 46.319,4.713 42.63,0.867 38.427,0.31 41.599,13.465 z"
         inkscape:connector-curvature="0"
         id="path3148_10_"
         style="fill:#b84894" /><path
         d="M 41.599,13.465 38.427,0.31 35,1.037 32.775,2.311 31.124,2.776 41.599,13.465 z"
         inkscape:connector-curvature="0"
         id="path3150_10_"
         style="fill:#ea5556" /><path
         d="M 41.599,13.465 31.124,2.776 l 0.607,8.971 3.253,2.646 6.615,-0.928 z"
         inkscape:connector-curvature="0"
         id="path3152_10_"
         style="fill:#efc105" /><path
         d="m 41.599,13.465 0.817,1.31 0.986,1.6 -5.084,2.198 3.281,-5.108 z"
         inkscape:connector-curvature="0"
         id="path3156_10_"
         style="fill:#89bd24" /><path
         d="m 38.318,18.572 2.399,3.292 1.132,-2.391 1.57,-1.325 -0.018,-1.774 -5.083,2.198 z"
         inkscape:connector-curvature="0"
         id="path3160_10_"
         style="fill:#432683" /><path
         d="m 29.083,14.947 -6.067,3.868 3.797,2.799 2.27,-6.667 z"
         inkscape:connector-curvature="0"
         id="path3396_10_"
         style="fill:#3d88b7" /><path
         d="M 41.599,13.465 47.171,7.308 47.045,5.533 46.028,5.25 41.599,13.465 z"
         inkscape:connector-curvature="0"
         id="path3162_10_"
         style="fill:#8078b7" /><path
         d="m 34.984,14.393 6.614,-0.928 -3.28,5.107 -3.334,-4.179 z"
         inkscape:connector-curvature="0"
         id="path3938_10_"
         style="fill:#f0e508" /><path
         d="m 41.599,13.465 2.467,-0.853 0.253,0.785 -0.225,0.608 -0.691,2.368 -1.804,-2.908 z"
         inkscape:connector-curvature="0"
         id="path3940_10_"
         style="fill:#49bcc3" /></g></g><g
     id="g197" /><g
     id="g199" /><g
     id="g201" /><g
     id="g203" /><g
     id="g205" /><g
     id="g207" /></svg>