<?xml version="1.0" encoding="UTF-8" standalone="no"?>
<!-- Created with Inkscape (http://www.inkscape.org/) -->

<svg
   xmlns:dc="http://purl.org/dc/elements/1.1/"
   xmlns:cc="http://creativecommons.org/ns#"
   xmlns:rdf="http://www.w3.org/1999/02/22-rdf-syntax-ns#"
   xmlns:svg="http://www.w3.org/2000/svg"
   xmlns="http://www.w3.org/2000/svg"
   xmlns:sodipodi="http://sodipodi.sourceforge.net/DTD/sodipodi-0.dtd"
   xmlns:inkscape="http://www.inkscape.org/namespaces/inkscape"
   id="svg7384"
   height="16"
   width="16"
   version="1.1"
   inkscape:version="0.48.3.1 r9886"
   sodipodi:docname="network-vpn-acquiring.svg">
  <defs
     id="defs16" />
  <sodipodi:namedview
     pagecolor="#ffffff"
     bordercolor="#666666"
     borderopacity="1"
     objecttolerance="10"
     gridtolerance="10"
     guidetolerance="10"
     inkscape:pageopacity="0"
     inkscape:pageshadow="2"
     inkscape:window-width="1381"
     inkscape:window-height="812"
     id="namedview14"
     showgrid="false"
     inkscape:zoom="29.5"
     inkscape:cx="0.24168792"
     inkscape:cy="5.672841"
     inkscape:window-x="0"
     inkscape:window-y="0"
     inkscape:window-maximized="0"
     inkscape:current-layer="layer9" />
  <metadata
     id="metadata90">
    <rdf:RDF>
      <cc:Work
         rdf:about="">
        <dc:format>image/svg+xml</dc:format>
        <dc:type
           rdf:resource="http://purl.org/dc/dcmitype/StillImage" />
        <dc:title>Gnome Symbolic Icon Theme</dc:title>
      </cc:Work>
    </rdf:RDF>
  </metadata>
  <title
     id="title9167">Gnome Symbolic Icon Theme</title>
  <g
     id="layer9"
     transform="translate(-241 -237)">
    <g
       id="g5019"
       style="opacity:.35"
       transform="translate(40 -272)">
      <path
         id="path4998"
         style="color:#bebebe;fill:#555753;stroke:#555753;stroke-width:2"
         d="m 209,520.95621 v 1.07768"
         inkscape:connector-curvature="0" />
      <path
         id="path5000"
         style="color:#bebebe;stroke:#555753;stroke-width:2;fill:#555753"
         d="m203 523h12" />
      <rect
         id="rect5002"
         style="color:#bebebe;fill:#555753"
         ry="0"
         height="1.9375"
         width="8"
         y="514"
         x="205" />
      <path
         id="path5004"
         style="text-indent:0;text-transform:none;block-progression:tb;color:#bebebe;fill:#555753"
         d="m 209,510.2373 c -1.645,0 -3,1.355 -3,3 v 2 1 h 1 4 1 v -1 -2 c 0,-1.645 -1.355,-3 -3,-3 z m 0,2 c 0.56413,0 1,0.43588 1,1 v 1 h -2 v -1 c 0,-0.56412 0.43587,-1 1,-1 z"
         inkscape:connector-curvature="0" />
    </g>
    <path
       id="path4955-1-1"
       style="fill:#2e3436"
       d="m 246.3829,246.523 a 1.5,1.5 0 0 1 -3,0 1.5,1.5 0 1 1 3,0 z"
       inkscape:connector-curvature="0" />
    <path
       id="path4957-2-6"
       style="fill:#2e3436"
       d="m 250.3829,246.523 a 1.5,1.5 0 0 1 -3,0 1.5,1.5 0 1 1 3,0 z"
       inkscape:connector-curvature="0" />
    <path
       id="path4959-4-4"
       style="fill:#2e3436"
       d="m 254.3829,246.523 a 1.5,1.5 0 0 1 -3,0 1.5,1.5 0 1 1 3,0 z"
       inkscape:connector-curvature="0" />
  </g>
</svg>
