<?xml version="1.0" encoding="UTF-8" standalone="no"?>
<!-- Created with Inkscape (http://www.inkscape.org/) -->

<svg
   xmlns:dc="http://purl.org/dc/elements/1.1/"
   xmlns:cc="http://creativecommons.org/ns#"
   xmlns:rdf="http://www.w3.org/1999/02/22-rdf-syntax-ns#"
   xmlns:svg="http://www.w3.org/2000/svg"
   xmlns="http://www.w3.org/2000/svg"
   xmlns:sodipodi="http://sodipodi.sourceforge.net/DTD/sodipodi-0.dtd"
   xmlns:inkscape="http://www.inkscape.org/namespaces/inkscape"
   width="1698.9919"
   height="1698.5663"
   id="svg3119"
   version="1.1"
   inkscape:version="0.48.4 r9939"
   sodipodi:docname="New document 2">
  <defs
     id="defs3121" />
  <sodipodi:namedview
     id="base"
     pagecolor="#ffffff"
     bordercolor="#666666"
     borderopacity="1.0"
     inkscape:pageopacity="0.0"
     inkscape:pageshadow="2"
     inkscape:zoom="0.35"
     inkscape:cx="849.49597"
     inkscape:cy="849.28315"
     inkscape:document-units="px"
     inkscape:current-layer="layer1"
     showgrid="false"
     fit-margin-top="0"
     fit-margin-left="0"
     fit-margin-right="0"
     fit-margin-bottom="0"
     inkscape:window-width="1373"
     inkscape:window-height="831"
     inkscape:window-x="1920"
     inkscape:window-y="24"
     inkscape:window-maximized="0" />
  <metadata
     id="metadata3124">
    <rdf:RDF>
      <cc:Work
         rdf:about="">
        <dc:format>image/svg+xml</dc:format>
        <dc:type
           rdf:resource="http://purl.org/dc/dcmitype/StillImage" />
        <dc:title></dc:title>
      </cc:Work>
    </rdf:RDF>
  </metadata>
  <g
     inkscape:label="Layer 1"
     inkscape:groupmode="layer"
     id="layer1"
     transform="translate(474.49597,316.92096)">
    <g
       transform="matrix(0.6974809,0.32239125,-0.32239125,0.6974809,-312.64326,188.08994)"
       id="g3055">
      <path
         inkscape:connector-curvature="0"
         id="path3057"
         d="m -23.375,-386.90625 c -24.620909,93.60523 -49.274498,187.20196 -73.875,280.8125 365.69907,46.459569 731.39564,92.93903 1097.09375,139.40625 10.87705,0.60738 -1.18757,-5.160158 -5.47916,-6.46212 -339.0464,-138.66381 -678.1105,-277.28481 -1017.14584,-415.97538 -0.197917,0.73958 -0.395833,1.47917 -0.59375,2.21875 z"
         style="fill:#a0522d;fill-opacity:1;stroke:none" />
      <path
         inkscape:connector-curvature="0"
         id="path3059"
         d="m -96.75,-107.78125 c 0.434028,96.802091 0.895794,193.604119 1.3125,290.40625 C 269.83289,132.85089 635.10424,83.083879 1000.375,33.3125 1011.0069,31.081426 997.84497,28.634057 993.39959,28.492585 630.01755,-17.701158 266.62624,-63.825183 -96.75,-110.0625 c 0,0.76042 0,1.52083 0,2.28125 z"
         style="fill:#ffa500;fill-opacity:1;stroke:none" />
      <path
         inkscape:connector-curvature="0"
         id="path3061"
         d="m -93.71875,178.375 c -4.844411,1.38527 1.91995,10.52967 1.764754,15.0418 C -67.626493,282.61145 -43.291706,371.80411 -18.96875,461 320.99081,318.42384 660.92514,175.787 1000.875,33.1875 c 9.7381,-4.91182 -3.62232,-3.891366 -7.99841,-2.867442 C 630.67814,79.671706 268.4797,129.02335 -93.71875,178.375 z"
         style="fill:#f0e68c;fill-opacity:1;stroke:none" />
      <path
         inkscape:connector-curvature="0"
         id="path3063"
         d="M 999.3125,29.5 C 659.3746,172.10322 319.43988,314.71401 -20.5,457.3125 28.661648,541.56971 77.846034,625.81399 126.96875,710.09375 418.44437,484.41113 709.85997,258.65023 1001.3125,32.9375 c 3.5332,-4.634438 5.4802,-4.842875 -2,-3.4375 z"
         style="fill:#9acd32;fill-opacity:1;stroke:none" />
      <path
         inkscape:connector-curvature="0"
         id="path3065"
         d="M 998.875,29.75 C 707.42748,255.47968 415.97679,481.20526 124.53125,706.9375 193.84745,775.60024 263.14733,844.27972 332.4375,912.96875 555.51729,619.49731 778.60476,326.0317 1001.6875,32.5625 c 2.1913,-5.370076 4.0582,-6.097601 -2.8125,-2.8125 z"
         style="fill:#228b22;fill-opacity:1;stroke:none" />
      <path
         inkscape:connector-curvature="0"
         id="path3067"
         d="M 998.5,30.125 C 775.41726,323.5942 552.32979,617.05981 329.25,910.53125 413.92308,958.96985 498.63525,1007.3418 583.34375,1055.7188 722.83159,714.49292 862.41349,373.305 1001.9375,32.09375 c 0.7099,-5.745823 2.336,-6.953044 -3.4375,-1.96875 z"
         style="fill:#3cb371;fill-opacity:1;stroke:none" />
      <path
         inkscape:connector-curvature="0"
         id="path3069"
         d="M 998.25,30.59375 C 858.70299,371.78946 719.19874,713.00284 579.625,1054.1875 c 94.33988,24.8374 188.68195,49.6672 283.03125,74.4687 46.45955,-365.68861 92.93903,-731.37476 139.40625,-1097.06245 -0.787,-5.739317 0.4726,-7.323547 -3.8125,-1 z"
         style="fill:#7fffd4;fill-opacity:1;stroke:none" />
      <path
         inkscape:connector-curvature="0"
         id="path3071"
         d="M 998.125,31.09375 C 951.63712,396.78009 905.21894,762.4757 858.6875,1128.1562 c 97.56255,-0.4034 195.1249,-0.8778 292.6875,-1.2812 -49.7741,-365.27039 -99.5411,-730.54174 -149.3125,-1095.8125 -2.25476,-5.313952 -1.4165,-7.182336 -3.9375,0.03125 z"
         style="fill:#008080;fill-opacity:1;stroke:none" />
      <path
         inkscape:connector-curvature="0"
         id="path3073"
         d="m 998.125,31.625 c 49.7521,365.2615 99.5706,730.51433 149.2812,1095.7812 94.1208,-25.6542 188.2266,-51.3637 282.3438,-77.0312 C 1287.1739,710.42584 1144.537,370.50194 1001.9375,30.5625 c -3.56654,-4.629205 -3.25129,-6.532593 -3.8125,1.0625 z"
         style="fill:#b0e0e6;fill-opacity:1;stroke:none" />
      <path
         inkscape:connector-curvature="0"
         id="path3075"
         d="m 998.25,32.125 c 142.6032,339.92748 285.2141,679.85177 427.8125,1019.7812 84.257,-49.1516 168.5017,-98.32472 252.7813,-147.43745 C 1453.1611,612.99313 1227.4002,321.57753 1001.6875,30.125 c -4.63444,-3.533224 -4.84287,-5.480195 -3.4375,2 z"
         style="fill:#87ceeb;fill-opacity:1;stroke:none" />
      <path
         inkscape:connector-curvature="0"
         id="path3077"
         d="m 998.5,32.5625 c 225.7297,291.44752 451.4553,582.89821 677.1875,874.34375 C 1744.3502,837.59005 1813.0297,768.29017 1881.7188,699 1588.2473,475.92021 1294.7817,252.83274 1001.3125,29.75 995.94242,27.558657 995.2149,25.691769 998.5,32.5625 z"
         style="fill:#4682b4;fill-opacity:1;stroke:none" />
      <path
         inkscape:connector-curvature="0"
         id="path3079"
         d="m 998.875,32.9375 c 293.4692,223.08274 586.9348,446.17021 880.4062,669.25 48.4489,-84.68361 96.8316,-169.40598 145.2188,-254.125 C 1683.2638,308.58493 1342.0654,169.01362 1000.8438,29.5 c -5.74587,-0.709872 -6.95309,-2.336039 -1.9688,3.4375 z"
         style="fill:#1e90ff;fill-opacity:1;stroke:#1e90ff;stroke-width:1;stroke-opacity:1" />
      <path
         inkscape:connector-curvature="0"
         id="path3081"
         d="m 994.8125,29.96875 c 11.4966,7.652805 25.3634,10.996868 37.853,16.844491 330.0989,134.994709 660.2155,269.946449 990.3033,404.968009 24.8275,-94.33974 49.6458,-188.68209 74.4374,-283.03125 -365.6886,-46.44926 -731.3748,-92.918179 -1097.0624,-139.375 -1.8438,0.197917 -3.68755,0.395833 -5.5313,0.59375 z"
         style="fill:#6495ed;fill-opacity:1;stroke:none" />
      <path
         inkscape:connector-curvature="0"
         id="path3083"
         d="m 2093.3438,-119.625 c -364.5105,49.666667 -729.0209,99.333333 -1093.5313,149 -10.63187,2.231077 2.53,4.678487 6.9754,4.819744 363.3716,46.183402 726.7525,92.296936 1090.1183,138.524006 -0.4033,-97.552136 -0.8778,-195.104114 -1.2812,-292.65625 -0.7604,0.10417 -1.5208,0.20833 -2.2812,0.3125 z"
         style="fill:#191970;fill-opacity:1;stroke:#000000;stroke-width:0.002;stroke-miterlimit:4;stroke-opacity:1;stroke-dasharray:none" />
      <path
         inkscape:connector-curvature="0"
         id="path3085"
         d="M 2017,-397.5625 C 1677.7708,-255.20833 1338.5417,-112.85417 999.3125,29.5 c -9.73812,4.91182 3.6223,3.891366 7.9984,2.867442 362.9495,-49.437103 725.8904,-98.94056 1088.8453,-148.336192 -25.6548,-94.16225 -51.3631,-188.31007 -77.0312,-282.46875 -0.7083,0.29167 -1.4167,0.58333 -2.125,0.875 z"
         style="fill:#0000cd;fill-opacity:1;stroke:#0000cd;stroke-width:1.00300002;stroke-miterlimit:4;stroke-opacity:1;stroke-dasharray:none" />
      <path
         inkscape:connector-curvature="0"
         id="path3087"
         d="M 1871.4062,-646.0625 C 1580.5625,-420.79167 1289.7188,-195.52083 998.875,29.75 c -8.13254,7.260714 4.4857,2.868541 8.455,0.729522 337.7758,-141.700552 675.5484,-283.408742 1013.3262,-425.104522 -49.1519,-84.26723 -98.3245,-168.52271 -147.4374,-252.8125 -0.6042,0.45833 -1.2084,0.91667 -1.8126,1.375 z"
         style="fill:#483d8b;fill-opacity:1;stroke:none" />
      <path
         inkscape:connector-curvature="0"
         id="path3089"
         d="M 1666.375,-848.46875 C 1443.75,-555.60417 1221.125,-262.73958 998.5,30.125 c -5.96653,9.105124 5.0779,1.617258 8.3466,-1.47392 289.6029,-224.31127 579.2088,-448.61856 868.8096,-672.93233 -69.3159,-68.65261 -138.6163,-137.3211 -207.9062,-206 -0.4583,0.60417 -0.9167,1.20833 -1.375,1.8125 z"
         style="fill:#9370db;fill-opacity:1;stroke:none" />
      <path
         inkscape:connector-curvature="0"
         id="path3091"
         d="M 1415.9688,-990.9375 C 1276.7292,-650.42708 1137.4896,-309.91667 998.25,30.59375 c -3.38128,10.347459 5.3067,0.210327 7.6737,-3.603946 221.6706,-291.611634 443.3461,-583.219674 665.0138,-874.833554 -84.6836,-48.44884 -169.406,-96.83153 -254.125,-145.21875 -0.2812,0.70833 -0.5625,1.41667 -0.8437,2.125 z"
         style="fill:#8b008b;fill-opacity:1;stroke:none" />
      <path
         inkscape:connector-curvature="0"
         id="path3093"
         d="m 1137.2188,-1063.75 c -46.3646,364.94792 -92.7292,729.89583 -139.0938,1094.84375 -0.60738,10.877052 5.1602,-1.187547 6.4619,-5.47923 138.6535,-339.04637 277.264,-678.1105 415.9443,-1017.14577 -94.3398,-24.83745 -188.6819,-49.66725 -283.0312,-74.46875 -0.094,0.75 -0.1875,1.5 -0.2812,2.25 z"
         style="fill:#da70d6;fill-opacity:1;stroke:none" />
      <path
         inkscape:connector-curvature="0"
         id="path3095"
         d="m 851.09375,-1064.1875 c -4.99175,0.757 0.53118,10.6955 -0.21364,15.1622 49.08163,360.21679 98.16326,720.43354 147.24489,1080.6503 2.2311,10.631869 4.6785,-2.530026 4.8197,-6.975434 46.1834,-363.382026 92.297,-726.773346 138.5241,-1090.149566 -96.7918,0.4167 -193.58338,0.8785 -290.37505,1.3125 z"
         style="fill:#c71585;fill-opacity:1;stroke:none" />
      <path
         inkscape:connector-curvature="0"
         id="path3097"
         d="m 850.5625,-1064.125 c -93.37525,25.4678 -186.74851,50.943 -280.125,76.40625 142.57616,339.95956 285.213,679.89389 427.8125,1019.84375 4.9118,9.738119 3.8914,-3.622323 2.8674,-7.998411 C 951.68034,-338.82294 902.17688,-701.7638 852.78125,-1064.7188 c -0.73958,0.198 -1.47917,0.3959 -2.21875,0.5938 z"
         style="fill:#db7093;fill-opacity:1;stroke:none" />
      <path
         inkscape:connector-curvature="0"
         id="path3099"
         d="m 572.15625,-988.09375 c -83.61798,48.76496 -167.20884,97.57687 -250.84375,146.3125 225.69295,291.47568 451.46437,582.89121 677.1875,874.34375 7.2607,8.13254 2.8685,-4.485717 0.72959,-8.455016 C 857.52901,-313.67874 715.82085,-651.46179 574.125,-989.25 c -0.65625,0.38542 -1.3125,0.77083 -1.96875,1.15625 z"
         style="fill:#ffb6c1;fill-opacity:1;stroke:none" />
      <path
         inkscape:connector-curvature="0"
         id="path3101"
         d="m 322.875,-842.59375 c -68.13788,68.74755 -136.25608,137.51468 -204.40625,206.25 293.4715,223.09012 586.93704,446.1881 880.40625,669.28125 9.1051,5.966532 1.6173,-5.077925 -1.47392,-8.346631 C 773.08981,-265.01195 548.78252,-554.61786 324.46875,-844.21875 c -0.53125,0.54167 -1.0625,1.08333 -1.59375,1.625 z"
         style="fill:#b22222;fill-opacity:1;stroke:none" />
      <path
         inkscape:connector-curvature="0"
         id="path3103"
         d="m 119.75,-637.5625 c -48.016345,84.05463 -96.068549,168.08893 -144.0625,252.15625 341.23623,139.48788 682.43459,279.06973 1023.65625,418.59375 10.34745,3.381286 0.2103,-5.306712 -3.60385,-7.673786 C 704.12822,-196.16734 412.52022,-417.85322 120.90625,-639.53125 c -0.38542,0.65625 -0.77083,1.3125 -1.15625,1.96875 z"
         style="fill:#ff6347;fill-opacity:1;stroke:none" />
    </g>
  </g>
</svg>
