<?xml version="1.0" encoding="UTF-8" standalone="no"?>
<!-- Created with Inkscape (http://www.inkscape.org/) -->

<svg
   xmlns:dc="http://purl.org/dc/elements/1.1/"
   xmlns:cc="http://creativecommons.org/ns#"
   xmlns:rdf="http://www.w3.org/1999/02/22-rdf-syntax-ns#"
   xmlns:svg="http://www.w3.org/2000/svg"
   xmlns="http://www.w3.org/2000/svg"
   xmlns:sodipodi="http://sodipodi.sourceforge.net/DTD/sodipodi-0.dtd"
   xmlns:inkscape="http://www.inkscape.org/namespaces/inkscape"
   width="64"
   height="64"
   id="svg2"
   version="1.1"
   inkscape:version="0.48.4 r9939"
   sodipodi:docname="arrow-down (another copy).svg">
  <defs
     id="defs4" />
  <sodipodi:namedview
     id="base"
     pagecolor="#ffffff"
     bordercolor="#666666"
     borderopacity="1.0"
     inkscape:pageopacity="0.0"
     inkscape:pageshadow="2"
     inkscape:zoom="5.6"
     inkscape:cx="40.706686"
     inkscape:cy="34.818925"
     inkscape:document-units="px"
     inkscape:current-layer="layer1"
     showgrid="true"
     inkscape:window-width="1092"
     inkscape:window-height="850"
     inkscape:window-x="522"
     inkscape:window-y="47"
     inkscape:window-maximized="0">
    <inkscape:grid
       type="xygrid"
       id="grid2985"
       empspacing="4"
       visible="true"
       enabled="true"
       snapvisiblegridlinesonly="true"
       spacingx="4px"
       spacingy="4px" />
  </sodipodi:namedview>
  <metadata
     id="metadata7">
    <rdf:RDF>
      <cc:Work
         rdf:about="">
        <dc:format>image/svg+xml</dc:format>
        <dc:type
           rdf:resource="http://purl.org/dc/dcmitype/StillImage" />
        <dc:title />
      </cc:Work>
    </rdf:RDF>
  </metadata>
  <g
     inkscape:label="Layer 1"
     inkscape:groupmode="layer"
     id="layer1"
     transform="translate(0,-988.36218)">
    <path
       inkscape:connector-curvature="0"
       id="path3222"
       style="font-size:72px;font-style:normal;font-variant:normal;font-weight:normal;font-stretch:normal;text-align:start;line-height:125%;letter-spacing:0px;word-spacing:0px;writing-mode:lr-tb;text-anchor:start;fill:#000000;fill-opacity:1;stroke:none;font-family:FontAwesome;-inkscape-font-specification:FontAwesome"
       d="m 24.029827,1003.9675 c 0.246618,0.2467 0.549312,0.37 0.908073,0.3699 0.358728,10e-5 0.661421,-0.1232 0.908073,-0.3699 0.269044,-0.269 0.40357,-0.5829 0.403595,-0.9417 -2.5e-5,-0.3588 -0.134551,-0.6615 -0.403595,-0.9081 -0.246652,-0.269 -0.549345,-0.4036 -0.908073,-0.4036 -0.358761,0 -0.661455,0.1346 -0.908073,0.4036 -0.246652,0.2466 -0.369969,0.5493 -0.369953,0.9081 -1.6e-5,0.3588 0.123301,0.6727 0.369953,0.9417 m 14.159233,0 c 0.269027,0.2467 0.582929,0.37 0.941706,0.3699 0.358711,10e-5 0.661405,-0.1232 0.908074,-0.3699 0.246601,-0.269 0.369927,-0.5829 0.369952,-0.9417 -2.5e-5,-0.3588 -0.123351,-0.6615 -0.369952,-0.9081 -0.246669,-0.269 -0.549363,-0.4036 -0.908074,-0.4036 -0.358777,0 -0.672679,0.1346 -0.941706,0.4036 -0.246669,0.2466 -0.369986,0.5493 -0.369961,0.9081 -2.5e-5,0.3588 0.123292,0.6727 0.369961,0.9417 m -26.367785,6.5583 c 0.941698,0 1.748879,0.3363 2.421533,1.009 0.672638,0.6726 1.008957,1.4798 1.008966,2.4215 l 0,14.4619 c -9e-6,0.9641 -0.336328,1.7825 -1.008966,2.4551 -0.650238,0.6727 -1.45741,1.009 -2.421533,1.009 -0.964132,0 -1.78252,-0.3363 -2.4551672,-1.009 -0.672646,-0.6726 -1.008965,-1.491 -1.008965,-2.4551 l 0,-14.4619 c 0,-0.9417 0.336319,-1.7489 1.008965,-2.4215 0.6726472,-0.6727 1.4910352,-1.009 2.4551672,-1.009 m 35.650317,0.639 0,22.3991 c -3.4e-5,1.0315 -0.358778,1.9059 -1.076233,2.6234 -0.71753,0.7175 -1.580761,1.0762 -2.589693,1.0762 l -2.522426,0 0,7.6346 c -3.4e-5,0.9641 -0.336361,1.7825 -1.008974,2.4551 -0.67268,0.6727 -1.491069,1.009 -2.455167,1.009 -0.964157,0 -1.782538,-0.3363 -2.455159,-1.009 -0.672671,-0.6726 -1.008999,-1.491 -1.008974,-2.4551 l 0,-7.6346 -4.641266,0 0,7.6346 c -2.5e-5,0.9641 -0.336344,1.7825 -1.008973,2.4551 -0.672664,0.6727 -1.491053,1.009 -2.455159,1.009 -0.941724,0 -1.748904,-0.3363 -2.421534,-1.009 -0.672663,-0.6726 -1.008991,-1.491 -1.008974,-2.4551 l -0.03365,-7.6346 -2.488793,0 c -1.031407,0 -1.905846,-0.3587 -2.623326,-1.0762 -0.717497,-0.7175 -1.076241,-1.5919 -1.076233,-2.6234 l 0,-22.3991 30.874517,0 M 39.66887,997.54368 c 2.399075,1.23323 4.316114,2.95972 5.751132,5.17942 1.434943,2.1973 2.152432,4.6077 2.152474,7.2309 l -31.109952,0 c -9e-6,-2.6232 0.71748,-5.0336 2.152473,-7.2309 1.434969,-2.2197 3.363224,-3.94619 5.784766,-5.17942 l -2.387892,-4.40584 c -0.156968,-0.29144 -0.100917,-0.51565 0.16816,-0.67265 0.291468,-0.13448 0.515678,-0.0672 0.672646,0.20179 l 2.421534,4.43948 c 2.130031,-0.94167 4.383397,-1.41252 6.760106,-1.41256 2.376658,4e-5 4.630032,0.47089 6.760105,1.41256 l 2.421534,-4.43948 c 0.156918,-0.26901 0.381136,-0.33627 0.672646,-0.20179 0.269027,0.157 0.325078,0.38121 0.16816,0.67265 l -2.387892,4.40584 m 16.042638,16.41262 0,14.4619 c -4.2e-5,0.9641 -0.336369,1.7825 -1.008966,2.4551 -0.672696,0.6727 -1.491085,1.009 -2.455167,1.009 -0.941748,0 -1.748921,-0.3363 -2.421534,-1.009 -0.672688,-0.6726 -1.009007,-1.491 -1.008965,-2.4551 l 0,-14.4619 c -4.2e-5,-0.9641 0.336277,-1.7713 1.008965,-2.4215 0.672613,-0.6727 1.479786,-1.009 2.421534,-1.009 0.964082,0 1.782471,0.3363 2.455167,1.009 0.672597,0.6502 1.008924,1.4574 1.008966,2.4215" />
  </g>
</svg>
