<?xml version="1.0" encoding="UTF-8" standalone="no"?>
<!-- Created with Inkscape (http://www.inkscape.org/) -->

<svg
   xmlns:dc="http://purl.org/dc/elements/1.1/"
   xmlns:cc="http://creativecommons.org/ns#"
   xmlns:rdf="http://www.w3.org/1999/02/22-rdf-syntax-ns#"
   xmlns:svg="http://www.w3.org/2000/svg"
   xmlns="http://www.w3.org/2000/svg"
   xmlns:sodipodi="http://sodipodi.sourceforge.net/DTD/sodipodi-0.dtd"
   xmlns:inkscape="http://www.inkscape.org/namespaces/inkscape"
   width="64"
   height="64"
   id="svg2"
   version="1.1"
   inkscape:version="0.48.4 r9939"
   sodipodi:docname="arrow-down (3rd copy).svg">
  <defs
     id="defs4" />
  <sodipodi:namedview
     id="base"
     pagecolor="#ffffff"
     bordercolor="#666666"
     borderopacity="1.0"
     inkscape:pageopacity="0.0"
     inkscape:pageshadow="2"
     inkscape:zoom="5.6"
     inkscape:cx="40.706686"
     inkscape:cy="34.818925"
     inkscape:document-units="px"
     inkscape:current-layer="layer1"
     showgrid="true"
     inkscape:window-width="1092"
     inkscape:window-height="850"
     inkscape:window-x="522"
     inkscape:window-y="47"
     inkscape:window-maximized="0">
    <inkscape:grid
       type="xygrid"
       id="grid2985"
       empspacing="4"
       visible="true"
       enabled="true"
       snapvisiblegridlinesonly="true"
       spacingx="4px"
       spacingy="4px" />
  </sodipodi:namedview>
  <metadata
     id="metadata7">
    <rdf:RDF>
      <cc:Work
         rdf:about="">
        <dc:format>image/svg+xml</dc:format>
        <dc:type
           rdf:resource="http://purl.org/dc/dcmitype/StillImage" />
        <dc:title />
      </cc:Work>
    </rdf:RDF>
  </metadata>
  <g
     inkscape:label="Layer 1"
     inkscape:groupmode="layer"
     id="layer1"
     transform="translate(0,-988.36218)">
    <path
       inkscape:connector-curvature="0"
       id="path3216"
       style="font-size:72px;font-style:normal;font-variant:normal;font-weight:normal;font-stretch:normal;text-align:start;line-height:125%;letter-spacing:0px;word-spacing:0px;writing-mode:lr-tb;text-anchor:start;fill:#000000;fill-opacity:1;stroke:none;font-family:FontAwesome;-inkscape-font-specification:FontAwesome"
       d="m 28.799453,1005.3923 c -0.231929,0.022 -0.400594,0.1372 -0.505985,0.348 -0.08435,0.1897 -0.168679,0.2846 -0.252992,0.2846 -0.10543,0.022 -0.158141,-0.031 -0.158118,-0.1581 -2.3e-5,-0.253 0.200266,-0.4111 0.600853,-0.4745 0.105398,0 0.210804,0 0.316242,0 m 2.751279,0.4429 c -0.08435,0.022 -0.210844,-0.043 -0.379485,-0.1899 -0.147602,-0.1686 -0.326805,-0.2212 -0.537602,-0.1581 0.505953,-0.2318 0.843274,-0.2108 1.011962,0.063 0.06321,0.1265 0.03157,0.2214 -0.09488,0.2846 m -11.099997,13.5034 c -0.08434,-0.022 -0.147594,0.01 -0.18975,0.095 -0.04219,0.084 -0.09488,0.2214 -0.158118,0.4111 -0.04218,0.1688 -0.09488,0.3057 -0.158117,0.4112 -0.06328,0.1053 -0.168673,0.2424 -0.316243,0.4111 -0.147587,0.2109 -0.158125,0.3374 -0.03164,0.3795 0.08432,0.022 0.210821,-0.053 0.379492,-0.2214 0.189727,-0.1687 0.326767,-0.3583 0.411111,-0.5692 0.0211,-0.063 0.04219,-0.1371 0.06328,-0.2215 0.0211,-0.084 0.04211,-0.1475 0.06321,-0.1897 0.0211,-0.042 0.03164,-0.084 0.03164,-0.1265 0.0211,-0.063 0.03164,-0.1053 0.03164,-0.1265 -1.6e-5,-0.042 -1.6e-5,-0.074 0,-0.095 -1.6e-5,-0.041 -0.01054,-0.074 -0.03164,-0.095 -0.0211,-0.022 -0.05274,-0.042 -0.09487,-0.063 m 27.038465,11.353 c -3.9e-5,-0.3794 -0.579806,-0.8222 -1.739316,-1.3282 0.0843,-0.3162 0.158087,-0.6008 0.221368,-0.8538 0.0843,-0.2741 0.137,-0.5482 0.158125,-0.8222 0.04211,-0.2952 0.07375,-0.5271 0.09487,-0.6957 0.04211,-0.1687 0.05265,-0.4006 0.03164,-0.6958 -0.0211,-0.3162 -0.03164,-0.527 -0.03164,-0.6324 -4e-5,-0.1055 -0.04219,-0.3374 -0.126493,-0.6958 -0.06328,-0.3584 -0.105453,-0.5692 -0.1265,-0.6324 -4e-5,-0.084 -0.05273,-0.3479 -0.158117,-0.7907 -0.08437,-0.4638 -0.137079,-0.7484 -0.158118,-0.8538 -0.210868,-1.012 -0.706306,-2.0977 -1.486331,-3.2573 -0.780087,-1.1595 -1.539066,-1.9501 -2.276918,-2.3718 0.505945,0.4217 1.106799,1.2966 1.802566,2.6248 1.834143,3.4154 2.403379,6.3459 1.70769,8.7914 -0.231946,0.8434 -0.759009,1.2861 -1.581197,1.3282 -0.653596,0.084 -1.064706,-0.1054 -1.233331,-0.5692 -0.147618,-0.4848 -0.231947,-1.3703 -0.252993,-2.6564 -4e-5,-1.286 -0.115992,-2.4139 -0.347868,-3.3838 -0.189774,-0.8222 -0.400602,-1.5495 -0.632477,-2.182 -0.21086,-0.6324 -0.411142,-1.1068 -0.600854,-1.4231 -0.189774,-0.3373 -0.358438,-0.6008 -0.505985,-0.7906 -0.126524,-0.1897 -0.263563,-0.3478 -0.411109,-0.4744 -0.126524,-0.1264 -0.200314,-0.2002 -0.221368,-0.2213 -0.295188,-1.3071 -0.621971,-2.3929 -0.980346,-3.2573 -0.358431,-0.8644 -0.674673,-1.4546 -0.948713,-1.7709 -0.253024,-0.3163 -0.495469,-0.664 -0.727353,-1.0436 -0.231938,-0.3795 -0.390055,-0.801 -0.474359,-1.265 -0.08436,-0.4426 -0.0211,-1.0014 0.189742,-1.676 0.210797,-0.6957 0.252961,-1.2227 0.1265,-1.5811 -0.105445,-0.3586 -0.569259,-0.622 -1.391456,-0.7907 -0.316266,-0.063 -0.790626,-0.253 -1.423081,-0.5692 -0.611415,-0.3162 -0.980361,-0.4848 -1.106837,-0.5061 -0.168681,-0.022 -0.284634,-0.2951 -0.347861,-0.8222 -0.06328,-0.527 0.02101,-1.0647 0.252993,-1.6127 0.231884,-0.5482 0.611369,-0.8328 1.138464,-0.8539 0.780024,-0.063 1.317635,0.2529 1.612814,0.9487 0.295134,0.6957 0.337298,1.3071 0.126501,1.8343 -0.231938,0.4005 -0.253024,0.6851 -0.06328,0.8538 0.18972,0.1475 0.505955,0.1475 0.948721,0 0.274047,-0.084 0.411078,-0.4639 0.41111,-1.1384 -3.2e-5,-0.6747 -3.2e-5,-1.0647 0,-1.1703 -0.105446,-0.6323 -0.253024,-1.1594 -0.442735,-1.5811 -0.168688,-0.4216 -0.390055,-0.7378 -0.664102,-0.9488 -0.253017,-0.2318 -0.495471,-0.3899 -0.727353,-0.4743 -0.231931,-0.1053 -0.516549,-0.1897 -0.853846,-0.253 -2.255864,0.1687 -3.194038,1.5812 -2.814529,4.2376 -2.4e-5,0.3162 -0.01054,0.4745 -0.03164,0.4745 -0.189766,-0.1899 -0.506009,-0.2952 -0.94872,-0.3164 -0.421673,-0.041 -0.769533,-0.041 -1.043588,0 -0.253016,0.043 -0.411134,-0.01 -0.47436,-0.1581 0.0211,-1.2016 -0.147602,-2.1503 -0.505986,-2.8461 -0.358422,-0.6957 -0.832783,-1.0541 -1.423072,-1.0753 -0.569252,-0.021 -1.011987,0.2742 -1.328207,0.8855 -0.295172,0.5904 -0.463836,1.2124 -0.505985,1.8659 -0.0211,0.3162 0.01054,0.7063 0.09488,1.17 0.10539,0.4639 0.24243,0.8644 0.411109,1.2018 0.189727,0.3162 0.358384,0.4533 0.505986,0.4111 0.210805,-0.063 0.379462,-0.2108 0.505978,-0.4427 0.08431,-0.1898 0.01054,-0.2742 -0.221368,-0.253 -0.147594,0 -0.316258,-0.1477 -0.505978,-0.4427 -0.168679,-0.3164 -0.263555,-0.6747 -0.284618,-1.0753 -0.0211,-0.4638 0.07375,-0.8538 0.284618,-1.1701 0.210806,-0.3163 0.569212,-0.4638 1.075213,-0.4428 0.358384,0 0.643002,0.2215 0.853846,0.6641 0.210805,0.4428 0.30568,0.8539 0.284618,1.2334 -2.4e-5,0.3796 -0.01054,0.6114 -0.03164,0.6957 -0.463837,0.3163 -0.790619,0.6221 -0.980346,0.9171 -0.16868,0.253 -0.463836,0.506 -0.88547,0.759 -0.400587,0.2319 -0.611415,0.3584 -0.632478,0.3795 -0.274095,0.2951 -0.44275,0.5797 -0.505985,0.8539 -0.04219,0.274 0.04218,0.4637 0.252993,0.5692 0.295141,0.1687 0.558672,0.3795 0.790603,0.6324 0.231883,0.232 0.400547,0.4323 0.505977,0.6009 0.105399,0.1476 0.295141,0.2847 0.569236,0.4112 0.295132,0.1053 0.674617,0.1686 1.138462,0.1896 0.990862,0.043 2.066074,-0.1159 3.225639,-0.4743 0.04211,-0.021 0.284594,-0.095 0.727354,-0.2214 0.442711,-0.1265 0.80111,-0.2318 1.075212,-0.3162 0.295133,-0.1055 0.611368,-0.2424 0.94872,-0.4111 0.33729,-0.1898 0.558658,-0.3795 0.664104,-0.5692 0.189711,-0.2952 0.400539,-0.3795 0.632477,-0.2531 0.105383,0.063 0.168633,0.1582 0.189743,0.2847 0.04211,0.1053 0.01054,0.2318 -0.09488,0.3795 -0.08436,0.1265 -0.253015,0.2213 -0.505976,0.2846 -0.421681,0.1266 -1.022534,0.3584 -1.802566,0.6957 -0.759002,0.3163 -1.233362,0.5165 -1.423082,0.6008 -0.927657,0.4006 -1.66555,0.643 -2.213675,0.7273 -0.527088,0.1056 -1.359847,0.084 -2.498294,-0.063 -0.210845,-0.042 -0.305712,-0.022 -0.284611,0.063 0.0211,0.084 0.200267,0.2847 0.537604,0.6009 0.527048,0.485 1.233314,0.7169 2.118808,0.6958 0.358384,-0.022 0.737869,-0.095 1.138463,-0.2214 0.40054,-0.1265 0.780033,-0.274 1.138455,-0.4427 0.358384,-0.1686 0.706243,-0.3479 1.043596,-0.5376 0.358376,-0.2108 0.674618,-0.3901 0.948712,-0.5377 0.295134,-0.1686 0.558665,-0.2951 0.790604,-0.3795 0.231883,-0.1053 0.411086,-0.1369 0.537603,-0.095 0.147554,0.042 0.242421,0.1581 0.284617,0.3477 -2.3e-5,0.043 -0.01054,0.095 -0.03164,0.1581 -0.0211,0.043 -0.06328,0.095 -0.126493,0.1582 -0.06328,0.043 -0.126524,0.084 -0.189743,0.1265 -0.06328,0.043 -0.158149,0.095 -0.284618,0.1581 -0.105437,0.063 -0.200312,0.1161 -0.284617,0.1582 -0.06328,0.022 -0.168688,0.074 -0.316235,0.1581 -0.126524,0.063 -0.221399,0.1054 -0.284618,0.1265 -0.590337,0.2951 -1.307151,0.7589 -2.150425,1.3915 -0.822253,0.6324 -1.517972,1.0857 -2.087184,1.3597 -0.569252,0.2742 -1.085776,0.2847 -1.549573,0.031 -0.442751,-0.2319 -1.106854,-1.0014 -1.992309,-2.3085 -0.463836,-0.6536 -0.727369,-0.8854 -0.790595,-0.6958 -0.0211,0.063 -0.03164,0.1687 -0.03164,0.3163 -1.5e-5,0.5271 -0.158141,1.1279 -0.47436,1.8025 -0.316258,0.6536 -0.632494,1.2334 -0.94872,1.7394 -0.295173,0.506 -0.516541,1.1174 -0.664103,1.8341 -0.126509,0.7169 -1.6e-5,1.381 0.379493,1.9924 -0.484923,0.1265 -1.149018,1.0752 -1.992308,2.8461 -0.822237,1.771 -1.317684,3.2573 -1.486332,4.459 -0.04218,0.3795 -0.06328,1.1069 -0.06321,2.182 0.0211,1.0753 -0.03164,1.6972 -0.158125,1.8659 -0.168673,0.506 -0.474369,0.5375 -0.917096,0.095 -0.67465,-0.6535 -1.054135,-1.6444 -1.138455,-2.9726 -0.04219,-0.5903 -1.6e-5,-1.1806 0.126492,-1.771 0.08432,-0.4005 0.07375,-0.5902 -0.03164,-0.5692 l -0.126493,0.1581 c -0.758986,1.3704 -0.65357,3.1203 0.316236,5.2497 0.105406,0.2529 0.368938,0.5481 0.790603,0.8854 0.421642,0.3373 0.674626,0.5482 0.75897,0.6325 0.421641,0.4849 1.51794,1.4442 3.288889,2.8777 1.770925,1.4126 2.75127,2.2137 2.941029,2.4035 0.337305,0.3162 0.516509,0.7167 0.53761,1.2016 0.04211,0.4849 -0.105438,0.9382 -0.442735,1.3599 -0.316258,0.4217 -0.790619,0.6641 -1.423081,0.7273 0.168649,0.3163 0.474345,0.7801 0.917096,1.3915 0.442719,0.6325 0.737876,1.2017 0.88547,1.7076 0.147563,0.5272 0.221351,1.2755 0.221368,2.2454 0.969783,-0.506 1.043572,-1.4757 0.221367,-2.9094 -0.08435,-0.1686 -0.200305,-0.3373 -0.347859,-0.506 -0.126517,-0.1687 -0.221391,-0.2952 -0.284618,-0.3796 -0.06328,-0.084 -0.08435,-0.1475 -0.06328,-0.1896 0.06321,-0.1054 0.200266,-0.2109 0.41111,-0.3162 0.210812,-0.084 0.421633,-0.053 0.632477,0.095 0.969783,1.0965 2.719639,1.4758 5.249581,1.1386 2.803958,-0.3163 4.669774,-1.2333 5.597433,-2.7513 0.484875,-0.8012 0.843274,-1.1174 1.07522,-0.9487 0.252954,0.1265 0.358368,0.6746 0.316235,1.6444 -0.0211,0.5271 -0.263563,1.4968 -0.727353,2.9095 -0.189774,0.4848 -0.253016,0.8748 -0.189743,1.17 0.06321,0.3162 0.316212,0.4848 0.758979,0.506 0.06321,-0.4007 0.210797,-1.2123 0.442735,-2.4351 0.252961,-1.2228 0.400539,-2.1715 0.442735,-2.8461 0.04211,-0.4427 -0.03164,-1.2123 -0.221368,-2.3086 -0.168696,-1.1173 -0.242484,-2.1398 -0.221367,-3.0675 0.02101,-0.9487 0.2635,-1.6971 0.727353,-2.2453 0.316203,-0.3794 0.853806,-0.5692 1.612815,-0.5692 0.02101,-0.7801 0.379454,-1.3387 1.075213,-1.6761 0.716774,-0.3373 1.486292,-0.4427 2.308551,-0.3162 0.822181,0.1054 1.454659,0.3373 1.897433,0.6957 M 27.629256,1004.538 c 0.06321,-0.3585 0.03157,-0.6747 -0.09487,-0.9488 -0.105438,-0.2741 -0.221391,-0.4322 -0.347868,-0.4744 -0.189758,-0.042 -0.284633,0.031 -0.284618,0.2214 0.04211,0.1054 0.09486,0.1687 0.158126,0.1897 0.210805,0 0.284594,0.1581 0.221368,0.4745 -0.06328,0.4215 0.0211,0.6324 0.252992,0.6323 0.06321,10e-5 0.09485,-0.031 0.09487,-0.095 m 13.250432,6.2298 c -0.04219,-0.1686 -0.115986,-0.2846 -0.221368,-0.3478 -0.08436,-0.084 -0.221399,-0.1371 -0.41111,-0.1581 -0.168697,-0.042 -0.316275,-0.1055 -0.442735,-0.1899 -0.105446,-0.063 -0.210861,-0.1474 -0.316235,-0.2529 -0.08437,-0.1054 -0.158157,-0.1897 -0.221368,-0.2529 -0.04218,-0.063 -0.09491,-0.1265 -0.158126,-0.1899 -0.06328,-0.084 -0.105445,-0.1264 -0.126491,-0.1264 -0.0211,-0.022 -0.06328,-0.01 -0.126501,0.031 -0.29518,0.3374 -0.221391,0.8011 0.221368,1.3915 0.442704,0.5692 0.853813,0.896 1.233338,0.9803 0.189711,0.022 0.337289,-0.063 0.442735,-0.253 0.126461,-0.1897 0.168625,-0.4005 0.126493,-0.6325 m -5.629058,-6.7359 c -3.1e-5,-0.2318 -0.05274,-0.4321 -0.158125,-0.6008 -0.105438,-0.1898 -0.221391,-0.3268 -0.34786,-0.4112 -0.126524,-0.084 -0.221392,-0.1158 -0.284618,-0.095 -0.29518,0.022 -0.368969,0.095 -0.221368,0.2215 0.04211,0.022 0.08431,0.043 0.126501,0.063 0.295125,0.084 0.484867,0.4111 0.569227,0.9803 -2.3e-5,0.063 0.08431,0.043 0.252993,-0.063 l 0.06328,-0.095 m 1.70769,-7.3684 c -3.1e-5,-0.0421 -0.03164,-0.0948 -0.09488,-0.15811 -0.04218,-0.0632 -0.137063,-0.137 -0.28461,-0.22137 -0.126524,-0.0843 -0.221399,-0.14753 -0.284618,-0.18975 -0.316265,-0.31619 -0.569259,-0.47431 -0.758978,-0.47436 -0.189766,0.021 -0.316266,0.10546 -0.379485,0.253 -0.04219,0.12653 -0.05273,0.26358 -0.03164,0.41111 0.04211,0.12654 0.04211,0.25303 0,0.37948 -0.0211,0.0844 -0.08435,0.20033 -0.189742,0.34787 -0.105439,0.12654 -0.168689,0.22141 -0.189743,0.28461 -0.0211,0.0422 0.01054,0.12654 0.09487,0.253 0.0843,0.0632 0.168633,0.0632 0.252986,0 0.0843,-0.0632 0.200258,-0.15808 0.347868,-0.28463 0.147547,-0.12644 0.305672,-0.22131 0.47436,-0.2846 0.02101,-0.0211 0.115922,-0.0315 0.28461,-0.0316 0.168633,4e-5 0.326758,-0.0211 0.474359,-0.0633 0.147556,-0.0421 0.242423,-0.11591 0.284618,-0.22137 m 17.867526,42.40782 c 0.42161,0.253 0.748392,0.5165 0.980346,0.7906 0.231859,0.2531 0.358352,0.5059 0.379485,0.7589 0.02101,0.232 -0.01054,0.4639 -0.09487,0.6957 -0.06328,0.232 -0.221423,0.4639 -0.474361,0.6958 -0.25304,0.2319 -0.506032,0.4323 -0.758978,0.6009 -0.231953,0.1897 -0.548197,0.39 -0.948721,0.6009 -0.379532,0.2108 -0.706306,0.3794 -0.980337,0.5059 -0.274118,0.1476 -0.611439,0.3163 -1.011971,0.506 -0.400611,0.1897 -0.685228,0.3267 -0.853845,0.4111 -0.801181,0.4005 -1.70773,0.9909 -2.719654,1.771 -0.990924,0.7801 -1.781527,1.4546 -2.371801,2.0238 -0.358439,0.3374 -1.075252,0.5376 -2.150426,0.6009 -1.075252,0.084 -2.013426,-0.063 -2.814529,-0.4427 -0.379524,-0.1898 -0.695759,-0.4428 -0.94872,-0.759 -0.231938,-0.2952 -0.400602,-0.5586 -0.505985,-0.7906 -0.105447,-0.2319 -0.337353,-0.4427 -0.695729,-0.6324 -0.358429,-0.1687 -0.853876,-0.2636 -1.486322,-0.2846 -0.927667,-0.022 -2.298036,-0.031 -4.111109,-0.031 -0.400595,0 -1.001456,0.01 -1.802566,0.031 -0.801166,0.042 -1.412558,0.074 -1.834191,0.095 -0.927659,0.022 -1.770956,0.1792 -2.529911,0.4744 -0.737916,0.2951 -1.296605,0.6114 -1.676073,0.9487 -0.379501,0.3373 -0.843323,0.6324 -1.391456,0.8855 -0.52708,0.274 -1.085769,0.4005 -1.676066,0.3795 -0.611408,-0.022 -1.781496,-0.348 -3.510257,-0.9803 -1.728784,-0.6326 -3.267819,-1.0859 -4.617095,-1.3599 -0.400579,-0.084 -0.938181,-0.1898 -1.612823,-0.3162 -0.674649,-0.1055 -1.201713,-0.2004 -1.581198,-0.2847 -0.379485,-0.063 -0.801142,-0.1581 -1.2649555,-0.2846 -0.4427352,-0.1264 -0.7906031,-0.2846 -1.0435879,-0.4744 -0.2529926,-0.1687 -0.432196,-0.3689 -0.5376103,-0.6008 -0.2108285,-0.4849 -0.1370393,-1.1912 0.2213675,-2.1187 0.358407,-0.9066 0.5481495,-1.4758 0.5692276,-1.7079 0.021094,-0.3372 -0.021094,-0.7589 -0.1264924,-1.2649 -0.1054142,-0.5059 -0.2108285,-0.9487 -0.3162428,-1.3281 -0.1054142,-0.4006 -0.1581174,-0.7907 -0.1581174,-1.1702 0.021094,-0.3794 0.1370393,-0.664 0.3478678,-0.8539 0.295149,-0.253 0.8960095,-0.4005 1.8025584,-0.4427 0.906556,-0.043 1.539034,-0.1687 1.897441,-0.3795 0.632469,-0.3794 1.075205,-0.7483 1.328205,-1.1068 0.252985,-0.3584 0.379477,-0.8961 0.379485,-1.6128 0.442727,1.539 0.105407,2.6564 -1.011963,3.3522 -0.674649,0.4217 -1.54958,0.5798 -2.624785,0.4742 -0.7168144,-0.063 -1.1700887,0.043 -1.3598312,0.3164 -0.2740787,0.3162 -0.2213676,0.917 0.1581174,1.8025 0.042188,0.1264 0.1264925,0.3163 0.2529927,0.5693 0.1264924,0.2529 0.2108207,0.4427 0.2529927,0.5692 0.063281,0.1266 0.1159533,0.3056 0.1581174,0.5376 0.042188,0.2319 0.052734,0.4638 0.031641,0.6957 0,0.3163 -0.1792034,0.8327 -0.5376104,1.5497 -0.3584069,0.7167 -0.5059854,1.2227 -0.4427352,1.5178 0.063281,0.3585 0.4532743,0.6325 1.1700886,0.8222 0.421649,0.1265 1.307119,0.3163 2.656411,0.5693 1.370362,0.2741 2.424497,0.4954 3.162397,0.664 0.50597,0.1265 1.286026,0.3585 2.340169,0.6958 1.054119,0.3373 1.918511,0.5798 2.593161,0.7274 0.69572,0.1476 1.286026,0.1897 1.770941,0.1264 0.90654,-0.1264 1.581182,-0.4215 2.023933,-0.8854 0.463806,-0.4639 0.706251,-0.9698 0.727353,-1.518 0.04211,-0.5481 -0.03164,-1.17 -0.221367,-1.8657 -0.189758,-0.6748 -0.390048,-1.2228 -0.600853,-1.6445 -0.210844,-0.4005 -0.421673,-0.7801 -0.632478,-1.1384 -2.551013,-4.0057 -4.332492,-6.5568 -5.344447,-7.6531 -1.433628,-1.5601 -2.624794,-1.9818 -3.573508,-1.2649 -0.231915,0.1897 -0.39004,0.031 -0.47436,-0.4744 -0.06328,-0.3373 -0.08433,-0.7379 -0.06328,-1.2017 0.0211,-0.6113 0.126492,-1.1596 0.316242,-1.6445 0.189735,-0.4848 0.442728,-0.9803 0.75897,-1.4863 0.316236,-0.5059 0.548143,-0.9487 0.695729,-1.3282 0.168657,-0.4427 0.442728,-1.2017 0.822228,-2.2769 0.400556,-1.0752 0.716798,-1.8974 0.948713,-2.4666 0.231899,-0.5693 0.548141,-1.2123 0.94872,-1.9291 0.400556,-0.7168 0.811666,-1.286 1.233331,-1.7077 2.319074,-3.0148 3.626202,-5.0704 3.921374,-6.1667 -0.253008,-2.3612 -0.421672,-5.629 -0.505985,-9.8035 -0.04219,-1.89743 0.210813,-3.48914 0.758978,-4.77523 0.548126,-1.30708 1.665503,-2.41391 3.352132,-3.32052 0.822204,-0.44268 1.918503,-0.66405 3.288896,-0.6641 1.117353,-0.0211 2.234731,0.12655 3.352131,0.44273 1.117354,0.29522 2.055535,0.72741 2.814537,1.29659 1.201674,0.88551 2.160934,2.17155 2.877778,3.85812 0.737861,1.66558 1.054096,3.21511 0.948713,4.64871 -0.105445,2.0029 0.210797,4.2588 0.94872,6.7677 0.716775,2.3823 2.11877,4.6803 4.205985,6.894 1.15951,1.2439 2.203098,2.9621 3.130771,5.1547 0.948674,2.1925 1.581152,4.206 1.897434,6.0401 0.168617,1.0331 0.221328,1.9291 0.158126,2.688 -0.06328,0.7379 -0.189791,1.3177 -0.379494,1.7394 -0.189782,0.4217 -0.40061,0.6536 -0.632478,0.6957 -0.210868,0.043 -0.46386,0.2425 -0.75897,0.6008 -0.274118,0.3584 -0.558736,0.7379 -0.853845,1.1384 -0.274118,0.3796 -0.695767,0.7275 -1.264963,1.0437 -0.569267,0.3162 -1.212284,0.4638 -1.929059,0.4427 -0.379524,-0.022 -0.716845,-0.074 -1.011962,-0.1581 -0.274111,-0.084 -0.506025,-0.2214 -0.695728,-0.4111 -0.189782,-0.2108 -0.337361,-0.3795 -0.442735,-0.506 -0.08437,-0.1265 -0.200321,-0.3373 -0.347868,-0.6324 -0.147611,-0.3163 -0.242485,-0.527 -0.284611,-0.6326 -0.463852,-0.78 -0.896048,-1.0962 -1.296588,-0.9487 -0.400602,0.1477 -0.695759,0.6641 -0.88547,1.5497 -0.189774,0.8854 -0.115985,1.9079 0.221367,3.0675 0.421626,1.4757 0.432165,3.5313 0.03164,6.1667 -0.210859,1.3702 -0.0211,2.4244 0.569236,3.1623 0.590274,0.759 1.359791,1.1068 2.308543,1.0436 0.948681,-0.043 1.844691,-0.4111 2.688037,-1.1068 1.243837,-1.0331 2.182011,-1.7394 2.814528,-2.1188 0.653524,-0.3585 1.749815,-0.8012 3.288897,-1.3283 1.11733,-0.3794 1.929011,-0.7695 2.435043,-1.17 0.505931,-0.3795 0.695674,-0.7379 0.569228,-1.0753 -0.105461,-0.3373 -0.368993,-0.6323 -0.790595,-0.8854 -0.400619,-0.2741 -0.938229,-0.527 -1.612824,-0.7591 -0.695775,-0.2318 -1.222838,-0.7379 -1.581198,-1.5179 -0.337368,-0.7799 -0.495486,-1.539 -0.47436,-2.2769 0.04211,-0.7589 0.210781,-1.2649 0.505986,-1.518 0.02101,0.6536 0.105366,1.2546 0.252992,1.8026 0.147532,0.5271 0.29511,0.9488 0.442735,1.265 0.168618,0.3163 0.389985,0.6219 0.664103,0.9171 0.274023,0.2741 0.495392,0.4743 0.664103,0.6008 0.168609,0.1056 0.389976,0.2425 0.664103,0.4112 0.295109,0.1475 0.474312,0.2424 0.537602,0.2846" />
  </g>
</svg>
