<?xml version="1.0" encoding="UTF-8" standalone="no"?>
<!-- Created with Inkscape (http://www.inkscape.org/) -->

<svg
   xmlns:dc="http://purl.org/dc/elements/1.1/"
   xmlns:cc="http://creativecommons.org/ns#"
   xmlns:rdf="http://www.w3.org/1999/02/22-rdf-syntax-ns#"
   xmlns:svg="http://www.w3.org/2000/svg"
   xmlns="http://www.w3.org/2000/svg"
   xmlns:sodipodi="http://sodipodi.sourceforge.net/DTD/sodipodi-0.dtd"
   xmlns:inkscape="http://www.inkscape.org/namespaces/inkscape"
   width="22"
   height="21"
   id="svg3088"
   version="1.1"
   inkscape:version="0.91 r13725"
   sodipodi:docname="mac-menu-icon.svg"
   inkscape:export-filename="/home/elijah/dev/leap/leap_assets/svg/masks/favicon.png"
   inkscape:export-xdpi="5.625"
   inkscape:export-ydpi="5.625">
  <defs
     id="defs3090">
    <linearGradient
       id="linearGradient4212">
      <stop
         style="stop-color:#ffffff;stop-opacity:1;"
         offset="0"
         id="stop4214" />
      <stop
         style="stop-color:#ffffff;stop-opacity:0;"
         offset="1"
         id="stop4216" />
    </linearGradient>
    <linearGradient
       id="linearGradient4192">
      <stop
         style="stop-color:#000000;stop-opacity:1;"
         offset="0"
         id="stop4194" />
      <stop
         style="stop-color:#000000;stop-opacity:0;"
         offset="1"
         id="stop4196" />
    </linearGradient>
    <linearGradient
       id="linearGradient4184">
      <stop
         style="stop-color:#008080;stop-opacity:1;"
         offset="0"
         id="stop4186" />
      <stop
         style="stop-color:#008080;stop-opacity:0;"
         offset="1"
         id="stop4188" />
    </linearGradient>
    <clipPath
       clipPathUnits="userSpaceOnUse"
       id="clipPath3159">
      <g
         style="display:inline;fill:none;stroke:#006082;stroke-width:31.77269936;stroke-miterlimit:4;stroke-dasharray:none;stroke-opacity:1"
         id="g3161"
         transform="matrix(0.6987131,0,0,0.6987131,-78.646361,-52.805193)">
        <path
           style="color:#000000;font-style:normal;font-variant:normal;font-weight:normal;font-stretch:normal;font-size:medium;line-height:normal;font-family:Sans;-inkscape-font-specification:Sans;text-indent:0;text-align:start;text-decoration:none;text-decoration-line:none;letter-spacing:normal;word-spacing:normal;text-transform:none;direction:ltr;block-progression:tb;writing-mode:lr-tb;baseline-shift:baseline;text-anchor:start;display:inline;overflow:visible;visibility:visible;fill:#006082;fill-opacity:1;stroke:none;stroke-width:22.20000076;marker:none;enable-background:accumulate"
           d="m 278.28751,285.55576 -11.21875,0.125 c -16.33799,0.18876 -35.43079,3.64775 -48.84375,17.25 -26.364,26.73607 -32.91414,67.45937 -31.40625,101.9375 2.03445,46.51772 21.53824,93.17387 51.28125,128.53125 20.69424,24.60055 50.34517,51.04821 86.53125,52.21875 28.80499,0.93178 49.7747,-20.70739 66.84375,-34 14.22825,-11.08034 33.86145,-24.04072 51.59375,-31.4375 17.0467,-7.1108 34.85246,-7.21617 34.21875,-7.21875 l 0.0312,0 0.0625,0 0.0312,0 c -0.16965,5.1e-4 17.2016,0.10729 34.25,7.21875 17.72836,7.39514 37.32827,20.3525 51.5625,31.4375 17.07402,13.29649 38.06968,34.93179 66.875,34 36.18608,-1.17054 65.83701,-27.6182 86.53125,-52.21875 29.74301,-35.35738 49.2468,-82.01353 51.28125,-128.53125 1.50789,-34.47813 -5.04224,-75.20143 -31.40625,-101.9375 -14.31952,-14.52161 -35.00767,-17.52645 -52.09375,-17.21875 -30.44885,0.54835 -54.3266,17.12605 -78.40625,27.34375 -35.97307,15.26442 -58.60927,33.089 -90.875,42.9375 -15.59991,4.76158 -25.34249,3.77253 -37.15625,3.96875 -0.48134,-0.0127 -0.42021,-0.003 -0.5,0 -0.0399,0.002 -0.3107,-0.002 -0.25,0 -0.0108,-2.1e-4 -0.0204,2.1e-4 -0.0312,0 -12.03376,-0.23364 -21.77727,0.85894 -37.59375,-3.96875 -32.26573,-9.8485 -54.90193,-27.67308 -90.875,-42.9375 -21.91783,-9.30038 -43.75001,-23.72976 -70.4375,-26.6875 l 0,-0.8125 z m 12.125,109.15625 c 17.37009,-0.31472 36.71128,6.52981 55.875,13.53125 14.81121,5.41127 29.02735,15.65317 45.09375,25.09375 5.88038,3.4553 11.12945,6.87537 18,11.21875 -3.34103,2.83649 -6.57004,5.62753 -10.96875,9 -12.59562,9.65701 -28.90684,19.70424 -39,22.0625 -29.76308,6.95412 -52.56809,2.47169 -79.75,-19.25 -5.78601,-4.62373 -15.92397,-18.36952 -23.34375,-30.375 -3.24397,-5.24887 -5.84449,-9.82258 -8.03125,-13.71875 2.542,-1.66751 5.0341,-3.34504 8.34375,-5.3125 9.27056,-5.51099 21.18825,-10.95207 26.46875,-11.6875 2.38753,-0.33252 4.80103,-0.517 7.3125,-0.5625 z m 372,0 c 3.16744,-0.0296 6.24552,0.14841 9.21875,0.5625 5.2805,0.73543 17.19819,6.17651 26.46875,11.6875 3.30965,1.96746 5.80175,3.64499 8.34375,5.3125 -2.18676,3.89617 -4.78728,8.46988 -8.03125,13.71875 -7.41978,12.00548 -17.55774,25.75127 -23.34375,30.375 -27.17889,21.71928 -50.01971,26.20376 -79.78125,19.25 -10.09225,-2.35805 -26.38134,-12.40603 -38.96875,-22.0625 -4.40014,-3.37558 -7.62824,-6.16178 -10.96875,-9 6.87055,-4.34338 12.11962,-7.76345 18,-11.21875 16.0664,-9.44058 30.28254,-19.68248 45.09375,-25.09375 18.47767,-6.7508 37.09414,-13.37374 53.96875,-13.53125 z"
           id="path3163"
           inkscape:connector-curvature="0"
           sodipodi:nodetypes="ccssssssccccsssssssssccccsscccssscsssscssscsscsssscssc" />
      </g>
    </clipPath>
    <linearGradient
       id="linearGradient4055-4">
      <stop
         id="stop4057-6"
         offset="0"
         style="stop-color:#000000;stop-opacity:1;" />
      <stop
         id="stop4059-2"
         offset="1"
         style="stop-color:#000000;stop-opacity:0" />
    </linearGradient>
    <linearGradient
       id="linearGradient4141-7">
      <stop
         id="stop4143-9"
         offset="0"
         style="stop-color:#ffffff;stop-opacity:1;" />
      <stop
         id="stop4145-7"
         offset="1"
         style="stop-color:#ffffff;stop-opacity:0" />
    </linearGradient>
    <linearGradient
       id="linearGradient4038-5">
      <stop
         style="stop-color:#ffffff;stop-opacity:1;"
         offset="0"
         id="stop4040-2" />
      <stop
         style="stop-color:#ffffff;stop-opacity:0"
         offset="1"
         id="stop4042-4" />
    </linearGradient>
    <linearGradient
       id="linearGradient4020-4">
      <stop
         style="stop-color:#000000;stop-opacity:1;"
         offset="0"
         id="stop4022-5" />
      <stop
         style="stop-color:#000000;stop-opacity:0"
         offset="1"
         id="stop4024-2" />
    </linearGradient>
  </defs>
  <sodipodi:namedview
     id="base"
     pagecolor="#f0f0f0"
     bordercolor="#666666"
     borderopacity="1.0"
     inkscape:pageopacity="0"
     inkscape:pageshadow="2"
     inkscape:zoom="22.627417"
     inkscape:cx="11.085157"
     inkscape:cy="7.2972904"
     inkscape:current-layer="layer4"
     showgrid="false"
     inkscape:document-units="px"
     inkscape:grid-bbox="true"
     showguides="true"
     inkscape:guide-bbox="true"
     inkscape:snap-global="false"
     objecttolerance="20"
     inkscape:snap-bbox="true"
     inkscape:bbox-paths="true"
     inkscape:bbox-nodes="true"
     inkscape:snap-bbox-edge-midpoints="true"
     inkscape:snap-bbox-midpoints="true"
     inkscape:object-paths="true"
     inkscape:snap-intersection-paths="true"
     inkscape:object-nodes="true"
     inkscape:snap-smooth-nodes="true"
     inkscape:snap-midpoints="true"
     inkscape:snap-object-midpoints="true"
     inkscape:snap-center="true"
     borderlayer="true"
     inkscape:window-width="1392"
     inkscape:window-height="966"
     inkscape:window-x="164"
     inkscape:window-y="34"
     inkscape:window-maximized="0">
    <inkscape:grid
       type="xygrid"
       id="grid3096"
       empspacing="5"
       visible="true"
       enabled="true"
       snapvisiblegridlinesonly="true" />
    <sodipodi:guide
       orientation="1,0"
       position="1500,0"
       id="guide3104" />
    <sodipodi:guide
       position="0,18"
       orientation="0,1"
       id="guide4218"
       inkscape:label=""
       inkscape:color="rgb(0,0,255)" />
    <sodipodi:guide
       position="0,3"
       orientation="0,1"
       id="guide4220"
       inkscape:label=""
       inkscape:color="rgb(0,0,255)" />
    <sodipodi:guide
       position="3,0"
       orientation="1,0"
       id="guide4222"
       inkscape:label=""
       inkscape:color="rgb(0,0,255)" />
    <sodipodi:guide
       position="19,0"
       orientation="1,0"
       id="guide4224"
       inkscape:label=""
       inkscape:color="rgb(0,0,255)" />
    <sodipodi:guide
       position="1,21"
       orientation="1,0"
       id="guide4226"
       inkscape:label=""
       inkscape:color="rgb(255,6,0)" />
    <sodipodi:guide
       position="21,21"
       orientation="1,0"
       id="guide4228"
       inkscape:label=""
       inkscape:color="rgb(255,0,5)" />
  </sodipodi:namedview>
  <metadata
     id="metadata3093">
    <rdf:RDF>
      <cc:Work
         rdf:about="">
        <dc:format>image/svg+xml</dc:format>
        <dc:type
           rdf:resource="http://purl.org/dc/dcmitype/StillImage" />
        <dc:title></dc:title>
      </cc:Work>
    </rdf:RDF>
  </metadata>
  <g
     inkscape:groupmode="layer"
     id="layer6"
     inkscape:label="light/dark test"
     style="display:none"
     transform="translate(0,-23)"
     sodipodi:insensitive="true">
    <rect
       style="opacity:1;fill:#f2f2f2;fill-opacity:1;stroke:none;stroke-width:1.00100005;stroke-linecap:butt;stroke-linejoin:miter;stroke-miterlimit:4;stroke-dasharray:none;stroke-dashoffset:0;stroke-opacity:1"
       id="rect4393"
       width="11"
       height="21"
       x="0"
       y="23" />
    <rect
       y="23"
       x="11"
       height="21"
       width="11"
       id="rect4395"
       style="opacity:1;fill:#333333;fill-opacity:1;stroke:none;stroke-width:1.00100005;stroke-linecap:butt;stroke-linejoin:miter;stroke-miterlimit:4;stroke-dasharray:none;stroke-dashoffset:0;stroke-opacity:1" />
  </g>
  <g
     inkscape:groupmode="layer"
     id="layer4"
     inkscape:label="mask bw"
     style="display:inline"
     transform="translate(0,-235)">
    <g
       id="g4384"
       transform="matrix(0.08855904,0,0,0.08832861,-0.38335245,233.62554)">
      <g
         transform="matrix(0.37782792,0,0,0.37782792,-51.362096,-29.603952)"
         id="g4328"
         style="display:inline;fill:none;stroke:none">
        <path
           style="fill:none;stroke:none"
           d="m 290.22501,383.61826 c 20.26573,-0.36718 40.73803,7.19583 59.875,14.1875 16.78643,6.13291 31.49775,16.91475 46.90625,25.96875 10.4842,6.16049 30.96875,19.28125 30.96875,19.28125 0,0 -38.82581,37.01847 -66.03125,43.375 -32.32466,7.55263 -60.041,1.91037 -89.21875,-21.40625 -16.83219,-13.45099 -39.0625,-56.3125 -39.0625,-56.3125 0,0 30.15123,-21.96471 47.90625,-24.4375 2.88277,-0.40149 5.76115,-0.6038 8.65625,-0.65625 z"
           id="path4330"
           inkscape:connector-curvature="0" />
        <path
           style="fill:none;stroke:none"
           d="m 662.31876,383.61826 c 3.62101,-0.0338 7.24028,0.15439 10.84375,0.65625 17.75502,2.47279 47.90625,24.4375 47.90625,24.4375 0,0 -22.23031,42.86151 -39.0625,56.3125 -29.17775,23.31662 -56.92534,28.95888 -89.25,21.40625 -27.20544,-6.35653 -66,-43.375 -66,-43.375 0,0 20.48455,-13.12076 30.96875,-19.28125 15.4085,-9.054 30.11982,-19.83584 46.90625,-25.96875 18.4535,-6.74197 38.13407,-14.00499 57.6875,-14.1875 z"
           id="path4332"
           inkscape:connector-curvature="0" />
      </g>
      <g
         transform="matrix(0.37782792,0,0,0.37782792,-51.362096,-29.603952)"
         id="g4397"
         style="display:inline;fill:none;stroke:#ffffff;stroke-width:98.7535553;stroke-miterlimit:4;stroke-dasharray:none;stroke-opacity:1">
        <path
           inkscape:connector-curvature="0"
           id="path4399"
           transform="translate(97.225014,196.27451)"
           d="m 169.96875,100.5 c -14.66639,0.16945 -30.93901,3.67114 -41.0625,13.9375 -22.89313,23.21621 -29.64336,61.08236 -28.21875,93.65625 1.91143,43.70495 20.52619,88.39789 48.6875,121.875 19.75254,23.48109 47.70677,47.2892 78.375,48.28125 22.51282,0.72824 41.91608,-17.81666 59.6875,-31.65625 14.782,-11.51158 34.87713,-24.90852 54.125,-32.9375 19.40436,-8.09426 38.18432,-8.06391 38.53125,-8.0625 0,0 0.0595,10e-6 0.0625,0 0.33473,-10e-4 19.15169,-0.0344 38.5625,8.0625 19.24787,8.02898 39.31175,21.42592 54.09375,32.9375 17.77142,13.83959 37.20593,32.38449 59.71875,31.65625 30.66823,-0.99205 58.62246,-24.80016 78.375,-48.28125 28.16131,-33.47711 46.77607,-78.17005 48.6875,-121.875 1.42461,-32.57389 -5.32562,-70.44004 -28.21875,-93.65625 -10.79839,-10.95078 -28.62313,-14.18317 -44,-13.90625 -26.27537,0.47319 -48.88701,15.70649 -74.25,26.46875 -34.56835,14.66836 -57.60153,32.85381 -91.96875,43.34375 -17.59464,5.37044 -29.55939,4.21929 -40.6875,4.4375 -0.22725,-0.006 -0.4596,0.004 -0.6875,0 -11.12811,-0.21821 -23.06161,0.93294 -40.65625,-4.4375 C 304.75778,159.85381 281.7246,141.66836 247.15625,127 221.79326,116.23774 199.15037,101.00444 172.875,100.53125 c -0.96105,-0.0173 -1.92849,-0.0426 -2.90625,-0.0312 z M 193,187.34375 c 20.26573,-0.36718 40.73803,7.19583 59.875,14.1875 16.78643,6.13291 31.49775,16.91475 46.90625,25.96875 10.4842,6.16049 30.96875,19.28125 30.96875,19.28125 0,0 -38.82581,37.01847 -66.03125,43.375 -32.32466,7.55263 -60.041,1.91037 -89.21875,-21.40625 -16.83219,-13.45099 -39.0625,-56.3125 -39.0625,-56.3125 0,0 30.15123,-21.96471 47.90625,-24.4375 2.88277,-0.40149 5.76115,-0.6038 8.65625,-0.65625 z m 372.09375,0 c 3.62101,-0.0338 7.24028,0.15439 10.84375,0.65625 17.75502,2.47279 47.90625,24.4375 47.90625,24.4375 0,0 -22.23031,42.86151 -39.0625,56.3125 -29.17775,23.31662 -56.92534,28.95888 -89.25,21.40625 -27.20544,-6.35653 -66,-43.375 -66,-43.375 0,0 20.48455,-13.12076 30.96875,-19.28125 15.4085,-9.054 30.11982,-19.83584 46.90625,-25.96875 18.4535,-6.74197 38.13407,-14.00499 57.6875,-14.1875 z"
           style="fill:none;stroke:#ffffff;stroke-width:98.7535553;stroke-miterlimit:4;stroke-dasharray:none;stroke-opacity:1" />
      </g>
      <g
         style="display:inline;fill:#ffffff;stroke:#000000;stroke-width:50.75334167;stroke-miterlimit:4;stroke-dasharray:none;stroke-opacity:1"
         id="g4334"
         transform="matrix(0.37782792,0,0,0.37782792,-51.362096,-29.603952)">
        <path
           style="fill:#ffffff;stroke:#000000;stroke-width:50.75334167;stroke-miterlimit:4;stroke-dasharray:none;stroke-opacity:1"
           d="m 169.96875,100.5 c -14.66639,0.16945 -30.93901,3.67114 -41.0625,13.9375 -22.89313,23.21621 -29.64336,61.08236 -28.21875,93.65625 1.91143,43.70495 20.52619,88.39789 48.6875,121.875 19.75254,23.48109 47.70677,47.2892 78.375,48.28125 22.51282,0.72824 41.91608,-17.81666 59.6875,-31.65625 14.782,-11.51158 34.87713,-24.90852 54.125,-32.9375 19.40436,-8.09426 38.18432,-8.06391 38.53125,-8.0625 0,0 0.0595,10e-6 0.0625,0 0.33473,-10e-4 19.15169,-0.0344 38.5625,8.0625 19.24787,8.02898 39.31175,21.42592 54.09375,32.9375 17.77142,13.83959 37.20593,32.38449 59.71875,31.65625 30.66823,-0.99205 58.62246,-24.80016 78.375,-48.28125 28.16131,-33.47711 46.77607,-78.17005 48.6875,-121.875 1.42461,-32.57389 -5.32562,-70.44004 -28.21875,-93.65625 -10.79839,-10.95078 -28.62313,-14.18317 -44,-13.90625 -26.27537,0.47319 -48.88701,15.70649 -74.25,26.46875 -34.56835,14.66836 -57.60153,32.85381 -91.96875,43.34375 -17.59464,5.37044 -29.55939,4.21929 -40.6875,4.4375 -0.22725,-0.006 -0.4596,0.004 -0.6875,0 -11.12811,-0.21821 -23.06161,0.93294 -40.65625,-4.4375 C 304.75778,159.85381 281.7246,141.66836 247.15625,127 221.79326,116.23774 199.15037,101.00444 172.875,100.53125 c -0.96105,-0.0173 -1.92849,-0.0426 -2.90625,-0.0312 z M 193,187.34375 c 20.26573,-0.36718 40.73803,7.19583 59.875,14.1875 16.78643,6.13291 31.49775,16.91475 46.90625,25.96875 10.4842,6.16049 30.96875,19.28125 30.96875,19.28125 0,0 -38.82581,37.01847 -66.03125,43.375 -32.32466,7.55263 -60.041,1.91037 -89.21875,-21.40625 -16.83219,-13.45099 -39.0625,-56.3125 -39.0625,-56.3125 0,0 30.15123,-21.96471 47.90625,-24.4375 2.88277,-0.40149 5.76115,-0.6038 8.65625,-0.65625 z m 372.09375,0 c 3.62101,-0.0338 7.24028,0.15439 10.84375,0.65625 17.75502,2.47279 47.90625,24.4375 47.90625,24.4375 0,0 -22.23031,42.86151 -39.0625,56.3125 -29.17775,23.31662 -56.92534,28.95888 -89.25,21.40625 -27.20544,-6.35653 -66,-43.375 -66,-43.375 0,0 20.48455,-13.12076 30.96875,-19.28125 15.4085,-9.054 30.11982,-19.83584 46.90625,-25.96875 18.4535,-6.74197 38.13407,-14.00499 57.6875,-14.1875 z"
           transform="translate(97.225014,196.27451)"
           id="path4336"
           inkscape:connector-curvature="0" />
      </g>
      <path
         style="fill:#4d4d4d;fill-opacity:1;stroke:none"
         d="m 50.673249,82.611258 c -5.80981,-0.104614 -12.474435,1.135366 -16.554371,5.272874 -8.649662,8.771736 -11.20663,23.008668 -10.668373,35.315998 0.722192,16.51295 7.753619,33.4584 18.393748,46.10699 7.46306,8.87181 17.965303,17.77367 29.552618,18.14849 8.505971,0.27516 15.84846,-6.66563 22.562996,-11.89462 5.585055,-4.34939 13.205983,-9.47417 20.478373,-12.50775 7.39993,-3.08677 14.59237,-2.943 14.59237,-2.943 0,0 7.19244,-0.14377 14.59237,2.943 7.27239,3.03358 14.77069,8.15836 20.35575,12.50775 6.71453,5.22899 14.05702,12.16978 22.563,11.89462 11.58731,-0.37482 22.21218,-9.27668 29.67524,-18.14849 10.64013,-12.64859 17.67155,-29.59404 18.39375,-46.10699 0.53825,-12.30733 -2.01871,-26.544262 -10.66838,-35.315998 -4.07993,-4.137508 -10.86718,-5.377488 -16.67699,-5.272874 -9.92757,0.178778 -18.49828,5.86634 -28.08112,9.932624 -13.06089,5.542115 -21.71797,12.468358 -34.70287,16.431748 -6.66275,2.03366 -11.11552,1.4715 -15.45075,1.4715 -4.33523,0 -8.91062,0.56216 -15.57337,-1.4715 -12.9849,-3.96339 -21.641984,-10.889633 -34.702871,-16.431748 -9.582845,-4.066284 -18.15355,-9.753838 -28.08112,-9.932624 z m 7.602749,32.740872 c 7.656955,-0.13872 15.455138,2.75385 22.685621,5.3955 6.34238,2.31718 11.836234,6.38914 17.657997,9.80999 3.961224,2.32761 11.771994,7.23488 11.771994,7.23488 0,0 -14.736517,14.03007 -25.015492,16.43175 -12.213161,2.85359 -22.697699,0.71642 -33.721869,-8.09325 -6.359669,-5.08216 -14.714996,-21.33675 -14.714996,-21.33675 0,0 11.440152,-8.26258 18.148496,-9.19687 1.089192,-0.1517 2.094399,-0.22544 3.188249,-0.24525 z m 141.386602,0 c 1.09385,0.02 2.22168,0.0935 3.31087,0.24525 6.70835,0.93429 18.1485,9.19687 18.1485,9.19687 0,0 -8.47795,16.25459 -14.83762,21.33675 -11.02417,8.80967 -21.50871,10.94684 -33.72187,8.09325 -10.27898,-2.40168 -24.89287,-16.43175 -24.89287,-16.43175 0,0 7.68815,-4.90727 11.64937,-7.23488 5.82176,-3.42085 11.43824,-7.49281 17.78062,-9.80999 7.23048,-2.64165 14.90604,-5.53423 22.563,-5.3955 z"
         id="path4338"
         inkscape:connector-curvature="0" />
    </g>
  </g>
</svg>
