<?xml version="1.0" encoding="UTF-8" standalone="no"?>
<!-- Created with Inkscape (http://www.inkscape.org/) -->

<svg
   xmlns:dc="http://purl.org/dc/elements/1.1/"
   xmlns:cc="http://creativecommons.org/ns#"
   xmlns:rdf="http://www.w3.org/1999/02/22-rdf-syntax-ns#"
   xmlns:svg="http://www.w3.org/2000/svg"
   xmlns="http://www.w3.org/2000/svg"
   xmlns:sodipodi="http://sodipodi.sourceforge.net/DTD/sodipodi-0.dtd"
   xmlns:inkscape="http://www.inkscape.org/namespaces/inkscape"
   id="svg2"
   version="1.1"
   inkscape:version="0.48.5 r10040"
   width="48"
   height="48"
   sodipodi:docname="vpn-wait.svg"
   inkscape:export-filename="/home/elijah/dev/leap/leap_assets/svg/android/vpn_connected-2.png"
   inkscape:export-xdpi="90"
   inkscape:export-ydpi="90">
  <metadata
     id="metadata8">
    <rdf:RDF>
      <cc:Work
         rdf:about="">
        <dc:format>image/svg+xml</dc:format>
        <dc:type
           rdf:resource="http://purl.org/dc/dcmitype/StillImage" />
        <dc:title />
      </cc:Work>
    </rdf:RDF>
  </metadata>
  <defs
     id="defs6" />
  <sodipodi:namedview
     pagecolor="#ffffff"
     bordercolor="#666666"
     borderopacity="1"
     objecttolerance="10"
     gridtolerance="10"
     guidetolerance="10"
     inkscape:pageopacity="0"
     inkscape:pageshadow="2"
     inkscape:window-width="1871"
     inkscape:window-height="1056"
     id="namedview4"
     showgrid="true"
     inkscape:zoom="9.8333335"
     inkscape:cx="14.861512"
     inkscape:cy="15.28665"
     inkscape:window-x="49"
     inkscape:window-y="24"
     inkscape:window-maximized="1"
     inkscape:current-layer="svg2"
     inkscape:snap-global="false"
     showguides="true"
     inkscape:guide-bbox="true">
    <inkscape:grid
       type="xygrid"
       id="grid3001" />
    <sodipodi:guide
       orientation="0,1"
       position="14.453742,24.01766"
       id="guide3773" />
    <sodipodi:guide
       orientation="1,0"
       position="24.01766,29.123211"
       id="guide3775" />
  </sodipodi:namedview>
  <path
     sodipodi:type="arc"
     style="fill:#f6be1a;fill-opacity:1;stroke:none"
     id="path3003"
     sodipodi:cx="20.530066"
     sodipodi:cy="19.272289"
     sodipodi:rx="16.71888"
     sodipodi:ry="14.705423"
     d="m 37.248945,19.272289 a 16.71888,14.705423 0 1 1 -33.4377592,0 16.71888,14.705423 0 1 1 33.4377592,0 z"
     transform="matrix(1.3158776,0,0,1.4960467,-3.0150541,-4.8322446)" />
  <path
     inkscape:connector-curvature="0"
     style="fill:#ffffff;fill-opacity:1;stroke:none"
     d="m 15.716752,13.246857 c -5.9234844,0 -10.7393615,4.80045 -10.7393615,10.739379 0,5.938927 4.8158771,10.766915 10.7393615,10.766915 4.674744,0 8.6373,-3.003786 10.106031,-7.187123 l 3.289468,-0.08261 1.542064,-1.84497 1.018864,-0.02753 1.624676,1.927582 1.073938,-0.02753 1.817433,-2.037729 0.991328,0 1.48699,1.955118 2.505855,0 1.900044,-3.497182 -2.450781,-3.60733 -14.827415,0 c -1.495834,-4.132546 -5.440018,-7.07699 -10.078495,-7.07699 z m 0.02753,2.973981 c 4.300773,0 7.765397,3.492161 7.765397,7.792934 0,4.300774 -3.464624,7.792935 -7.765397,7.792935 -4.30077,0 -7.7929169,-3.492161 -7.7929169,-7.792935 0,-4.300773 3.4921469,-7.792934 7.7929169,-7.792934 z"
     id="path3017"
     sodipodi:nodetypes="ssscccccccccccccssssss" />
  <path
     style="fill:none;stroke:#ffffff;stroke-width:2.20294952;stroke-linecap:butt;stroke-linejoin:miter;stroke-miterlimit:4;stroke-opacity:1;stroke-dasharray:none;marker-start:none"
     d="m 15.708371,18.146552 -4.7e-5,5.959172 -3.136394,3.136396"
     id="path2987"
     inkscape:connector-curvature="0"
     sodipodi:nodetypes="ccc" />
</svg>
