<?xml version="1.0" encoding="UTF-8" standalone="no"?>
<!-- Created with Inkscape (http://www.inkscape.org/) -->

<svg
   xmlns:dc="http://purl.org/dc/elements/1.1/"
   xmlns:cc="http://creativecommons.org/ns#"
   xmlns:rdf="http://www.w3.org/1999/02/22-rdf-syntax-ns#"
   xmlns:svg="http://www.w3.org/2000/svg"
   xmlns="http://www.w3.org/2000/svg"
   xmlns:sodipodi="http://sodipodi.sourceforge.net/DTD/sodipodi-0.dtd"
   xmlns:inkscape="http://www.inkscape.org/namespaces/inkscape"
   id="svg2"
   version="1.1"
   inkscape:version="0.48.5 r10040"
   width="48"
   height="48"
   sodipodi:docname="vpn-blocked.svg"
   inkscape:export-filename="/home/elijah/dev/leap/leap_assets/svg/android/vpn_connected-2.png"
   inkscape:export-xdpi="90"
   inkscape:export-ydpi="90">
  <metadata
     id="metadata8">
    <rdf:RDF>
      <cc:Work
         rdf:about="">
        <dc:format>image/svg+xml</dc:format>
        <dc:type
           rdf:resource="http://purl.org/dc/dcmitype/StillImage" />
        <dc:title />
      </cc:Work>
    </rdf:RDF>
  </metadata>
  <defs
     id="defs6" />
  <sodipodi:namedview
     pagecolor="#ffffff"
     bordercolor="#666666"
     borderopacity="1"
     objecttolerance="10"
     gridtolerance="10"
     guidetolerance="10"
     inkscape:pageopacity="0"
     inkscape:pageshadow="2"
     inkscape:window-width="1871"
     inkscape:window-height="1056"
     id="namedview4"
     showgrid="true"
     inkscape:zoom="9.8333335"
     inkscape:cx="19.114664"
     inkscape:cy="14.663758"
     inkscape:window-x="49"
     inkscape:window-y="24"
     inkscape:window-maximized="1"
     inkscape:current-layer="svg2"
     inkscape:snap-global="false"
     showguides="true"
     inkscape:guide-bbox="true">
    <inkscape:grid
       type="xygrid"
       id="grid3001" />
    <sodipodi:guide
       orientation="0,1"
       position="14.453742,24.01766"
       id="guide3773" />
    <sodipodi:guide
       orientation="1,0"
       position="24.01766,29.123211"
       id="guide3775" />
  </sodipodi:namedview>
  <path
     sodipodi:type="arc"
     style="fill:#f44336;fill-opacity:1;stroke:none"
     id="path3003"
     sodipodi:cx="20.530066"
     sodipodi:cy="19.272289"
     sodipodi:rx="16.71888"
     sodipodi:ry="14.705423"
     d="m 37.248945,19.272289 a 16.71888,14.705423 0 1 1 -33.4377592,0 16.71888,14.705423 0 1 1 33.4377592,0 z"
     transform="matrix(1.3158776,0,0,1.4960467,-3.0150541,-4.8322446)" />
  <g
     transform="matrix(1.2087126,0,0,1.2087126,5.5412385,7.9816517)"
     id="g4081"
     style="fill:#ffffff">
    <g
       id="g4033"
       style="fill:#ffffff">
      <circle
         d="m 23.232,5.5 c 0,0.8284271 -0.671573,1.5 -1.5,1.5 -0.828427,0 -1.5,-0.6715729 -1.5,-1.5 0,-0.8284271 0.671573,-1.5 1.5,-1.5 0.828427,0 1.5,0.6715729 1.5,1.5 z"
         sodipodi:ry="1.5"
         sodipodi:rx="1.5"
         sodipodi:cy="5.5"
         sodipodi:cx="21.732"
         id="circle4035"
         r="1.5"
         cy="5.5"
         cx="21.732"
         style="fill:#ffffff" />
      <circle
         d="m 19.232,2.5 c 0,0.8284271 -0.671573,1.5 -1.5,1.5 -0.828427,0 -1.5,-0.6715729 -1.5,-1.5 0,-0.8284271 0.671573,-1.5 1.5,-1.5 0.828427,0 1.5,0.6715729 1.5,1.5 z"
         sodipodi:ry="1.5"
         sodipodi:rx="1.5"
         sodipodi:cy="2.5"
         sodipodi:cx="17.732"
         id="circle4037"
         r="1.5"
         cy="2.5"
         cx="17.732"
         style="fill:#ffffff" />
      <circle
         d="m 15.232,1.5 c 0,0.8284271 -0.671573,1.5 -1.5,1.5 -0.828427,0 -1.5,-0.6715729 -1.5,-1.5 0,-0.82842712 0.671573,-1.5 1.5,-1.5 0.828427,0 1.5,0.67157288 1.5,1.5 z"
         sodipodi:ry="1.5"
         sodipodi:rx="1.5"
         sodipodi:cy="1.5"
         sodipodi:cx="13.732"
         id="circle4039"
         r="1.5"
         cy="1.5"
         cx="13.732"
         style="fill:#ffffff" />
      <circle
         d="m 11.232,3.5 c 0,0.8284271 -0.671573,1.5 -1.4999996,1.5 -0.8284272,0 -1.5,-0.6715729 -1.5,-1.5 0,-0.8284271 0.6715728,-1.5 1.5,-1.5 C 10.560427,2 11.232,2.6715729 11.232,3.5 z"
         sodipodi:ry="1.5"
         sodipodi:rx="1.5"
         sodipodi:cy="3.5"
         sodipodi:cx="9.7320004"
         id="circle4041"
         r="1.5"
         cy="3.5"
         cx="9.7320004"
         style="fill:#ffffff" />
      <path
         inkscape:connector-curvature="0"
         id="path4043"
         d="M 20.232,5.5 V 12 c 0,0.276 -0.224,0.5 -0.5,0.5 -0.276,0 -0.5,-0.224 -0.5,-0.5 V 2.5 h -3 V 11 c 0,0.276 -0.224,0.5 -0.5,0.5 -0.276,0 -0.5,-0.224 -0.5,-0.5 V 1.5 h -3 V 11 c 0,0.276 -0.224,0.5 -0.5,0.5 -0.276,0 -0.5,-0.224 -0.5,-0.5 V 3.5 h -3 V 16 L 6.207,13.229 c -0.6,-0.925 -1.771,-1.235 -2.629,-0.705 -0.855,0.542 -1.067,1.724 -0.475,2.646 0,0 3.266,4.943 4.658,7.059 1.392,2.116 3.647,3.771 7.864,3.771 6.982,0 7.607,-5.392 7.607,-7 0,-1.608 0,-13.5 0,-13.5 h -3 z"
         style="fill:#ffffff" />
    </g>
    <g
       id="g4045"
       style="fill:#ffffff" />
    <g
       id="g4047"
       style="fill:#ffffff" />
    <g
       id="g4049"
       style="fill:#ffffff" />
    <g
       id="g4051"
       style="fill:#ffffff" />
    <g
       id="g4053"
       style="fill:#ffffff" />
    <g
       id="g4055"
       style="fill:#ffffff" />
    <g
       id="g4057"
       style="fill:#ffffff" />
    <g
       id="g4059"
       style="fill:#ffffff" />
    <g
       id="g4061"
       style="fill:#ffffff" />
    <g
       id="g4063"
       style="fill:#ffffff" />
    <g
       id="g4065"
       style="fill:#ffffff" />
    <g
       id="g4067"
       style="fill:#ffffff" />
    <g
       id="g4069"
       style="fill:#ffffff" />
    <g
       id="g4071"
       style="fill:#ffffff" />
    <g
       id="g4073"
       style="fill:#ffffff" />
  </g>
</svg>
