<?xml version="1.0" encoding="UTF-8" standalone="no"?>
<!-- Created with Inkscape (http://www.inkscape.org/) -->

<svg
   xmlns:dc="http://purl.org/dc/elements/1.1/"
   xmlns:cc="http://creativecommons.org/ns#"
   xmlns:rdf="http://www.w3.org/1999/02/22-rdf-syntax-ns#"
   xmlns:svg="http://www.w3.org/2000/svg"
   xmlns="http://www.w3.org/2000/svg"
   xmlns:sodipodi="http://sodipodi.sourceforge.net/DTD/sodipodi-0.dtd"
   xmlns:inkscape="http://www.inkscape.org/namespaces/inkscape"
   id="svg7384"
   height="16"
   width="16"
   version="1.1"
   inkscape:version="0.48.3.1 r9886"
   sodipodi:docname="network-vpn-up.svg">
  <defs
     id="defs12" />
  <sodipodi:namedview
     pagecolor="#ffffff"
     bordercolor="#666666"
     borderopacity="1"
     objecttolerance="10"
     gridtolerance="10"
     guidetolerance="10"
     inkscape:pageopacity="0"
     inkscape:pageshadow="2"
     inkscape:window-width="1680"
     inkscape:window-height="1030"
     id="namedview10"
     showgrid="false"
     inkscape:zoom="29.5"
     inkscape:cx="7.9023295"
     inkscape:cy="9.1991598"
     inkscape:window-x="-2"
     inkscape:window-y="-3"
     inkscape:window-maximized="1"
     inkscape:current-layer="svg7384" />
  <metadata
     id="metadata90">
    <rdf:RDF>
      <cc:Work
         rdf:about="">
        <dc:format>image/svg+xml</dc:format>
        <dc:type
           rdf:resource="http://purl.org/dc/dcmitype/StillImage" />
        <dc:title>Gnome Symbolic Icon Theme</dc:title>
      </cc:Work>
    </rdf:RDF>
  </metadata>
  <title
     id="title9167">Gnome Symbolic Icon Theme</title>
  <g
     id="g2991"
     transform="translate(0,1.1864407)">
    <rect
       id="rect13312"
       style="color:#bebebe;fill:#2e3436"
       ry="0"
       height="6"
       width="8"
       y="5"
       x="4" />
    <path
       id="path13314"
       style="text-indent:0;text-transform:none;block-progression:tb;color:#bebebe;fill:#2e3436"
       d="M 8,1 C 6.355,1 5,2.355 5,4 v 2 1 h 1 4 1 V 6 4 C 11,2.355 9.645,1 8,1 z M 8,3 C 8.56413,3 9,3.43588 9,4 V 5 H 7 V 4 C 7,3.43588 7.43587,3 8,3 z"
       inkscape:connector-curvature="0" />
  </g>
  <path
     style="fill:#000000;fill-opacity:1"
     d="m 4.0243634,9.1703318 0,-2.9830509 0.4915254,0 0.4915255,0 9.49e-5,-0.5169492 C 5.00756,5.3860097 5.0242885,5.017344 5.0446799,4.8510746 5.1782704,3.7617947 5.8881156,2.8364148 6.9086848,2.4210911 7.504321,2.1786952 8.2851424,2.148661 8.8887702,2.3449275 c 0.4540681,0.1476379 0.9200603,0.4429623 1.2561808,0.7961099 0.260511,0.2737083 0.395616,0.4722707 0.55796,0.8200298 0.220516,0.472372 0.242843,0.5967053 0.261286,1.4550273 l 0.01657,0.7711864 0.504849,0 0.504848,0 0,2.9830509 0,2.9830512 -3.9830507,0 -3.9830509,0 0,-2.9830512 z M 9.0015214,5.5347385 C 8.9907641,4.9010056 8.987797,4.8771759 8.8985899,4.7080317 8.7052953,4.3415283 8.3763136,4.167653 7.926961,4.1945008 7.6278088,4.2123745 7.4603963,4.2855879 7.271799,4.4810187 7.0329185,4.7285545 6.9951726,4.8691167 6.9797351,5.5686368 l -0.013653,0.6186441 1.0232579,0 1.0232576,0 -0.011077,-0.6525424 0,0 z"
     id="path2995"
     inkscape:connector-curvature="0" />
</svg>
