<?xml version="1.0" encoding="UTF-8" standalone="no"?>
<!-- Created with Inkscape (http://www.inkscape.org/) -->

<svg
   xmlns:dc="http://purl.org/dc/elements/1.1/"
   xmlns:cc="http://creativecommons.org/ns#"
   xmlns:rdf="http://www.w3.org/1999/02/22-rdf-syntax-ns#"
   xmlns:svg="http://www.w3.org/2000/svg"
   xmlns="http://www.w3.org/2000/svg"
   xmlns:sodipodi="http://sodipodi.sourceforge.net/DTD/sodipodi-0.dtd"
   xmlns:inkscape="http://www.inkscape.org/namespaces/inkscape"
   id="svg7384"
   height="16"
   width="16"
   version="1.1"
   inkscape:version="0.48.3.1 r9886"
   sodipodi:docname="black-lock-crossed.svg">
  <defs
     id="defs12" />
  <sodipodi:namedview
     pagecolor="#ffffff"
     bordercolor="#666666"
     borderopacity="1"
     objecttolerance="10"
     gridtolerance="10"
     guidetolerance="10"
     inkscape:pageopacity="0"
     inkscape:pageshadow="2"
     inkscape:window-width="1680"
     inkscape:window-height="1030"
     id="namedview10"
     showgrid="false"
     inkscape:zoom="29.5"
     inkscape:cx="6.5341095"
     inkscape:cy="9.7821117"
     inkscape:window-x="-2"
     inkscape:window-y="-3"
     inkscape:window-maximized="1"
     inkscape:current-layer="layer9" />
  <metadata
     id="metadata90">
    <rdf:RDF>
      <cc:Work
         rdf:about="">
        <dc:format>image/svg+xml</dc:format>
        <dc:type
           rdf:resource="http://purl.org/dc/dcmitype/StillImage" />
        <dc:title>Gnome Symbolic Icon Theme</dc:title>
      </cc:Work>
    </rdf:RDF>
  </metadata>
  <title
     id="title9167">Gnome Symbolic Icon Theme</title>
  <g
     id="layer9"
     transform="translate(-221 -237)">
    <rect
       id="rect13312"
       style="color:#bebebe;fill:#2e3436"
       ry="0"
       height="6"
       width="8"
       y="243.59322"
       x="224.96609" />
    <path
       id="path13314"
       style="text-indent:0;text-transform:none;block-progression:tb;color:#bebebe;fill:#2e3436"
       d="m 228.9661,239.59322 c -1.645,0 -3,1.355 -3,3 v 2 1 h 1 4 1 v -1 -2 c 0,-1.645 -1.355,-3 -3,-3 z m 0,2 c 0.56413,0 1,0.43588 1,1 v 1 h -2 v -1 c 0,-0.56412 0.43587,-1 1,-1 z"
       inkscape:connector-curvature="0" />
    <path
       style="fill:#000000;fill-opacity:1"
       d="m 224.97818,246.59077 0,-2.98305 0.5049,0 0.5049,0 0.0157,-0.78814 c 0.0153,-0.7702 0.0181,-0.79546 0.12127,-1.11017 0.31599,-0.96381 1.06355,-1.68532 2.05829,-1.98653 0.26281,-0.0796 0.36465,-0.0922 0.76104,-0.0941 0.33493,-0.002 0.5167,0.0137 0.67797,0.057 0.92184,0.248 1.59798,0.78348 2.00082,1.58459 0.25566,0.50842 0.33739,0.95283 0.33788,1.83731 l 2.8e-4,0.5 0.49152,0 0.49153,0 0,2.98305 0,2.98305 -3.98305,0 -3.98305,0 0,-2.98305 z m 5.01211,-3.60256 -0.0123,-0.61951 -0.11128,-0.22604 c -0.3191,-0.64818 -1.15924,-0.76068 -1.6653,-0.22299 -0.19951,0.21197 -0.24022,0.39489 -0.24022,1.07915 l 0,0.6089 1.02066,0 1.02067,0 -0.0123,-0.61951 z"
       id="path2999"
       inkscape:connector-curvature="0" />
    <rect
       style="fill:#ff6363;fill-opacity:1;stroke:none"
       id="rect2993"
       width="10.690495"
       height="1.1026071"
       x="9.7179203"
       y="335.39926"
       transform="matrix(0.76243574,-0.64706394,0.64706394,0.76243574,0,0)" />
    <rect
       transform="matrix(-0.76243574,-0.64706394,-0.64706394,0.76243574,0,0)"
       y="39.217144"
       x="-339.27362"
       height="1.1026071"
       width="10.690495"
       id="rect2995"
       style="fill:#ff6363;fill-opacity:1;stroke:none" />
  </g>
</svg>
