<?xml version="1.0" encoding="UTF-8" standalone="no"?>
<!-- Created with Inkscape (http://www.inkscape.org/) -->

<svg
   xmlns:dc="http://purl.org/dc/elements/1.1/"
   xmlns:cc="http://creativecommons.org/ns#"
   xmlns:rdf="http://www.w3.org/1999/02/22-rdf-syntax-ns#"
   xmlns:svg="http://www.w3.org/2000/svg"
   xmlns="http://www.w3.org/2000/svg"
   xmlns:sodipodi="http://sodipodi.sourceforge.net/DTD/sodipodi-0.dtd"
   xmlns:inkscape="http://www.inkscape.org/namespaces/inkscape"
   width="32px"
   height="32px"
   id="svg5050"
   version="1.1"
   inkscape:version="0.48.4 r9939"
   sodipodi:docname="New document 35">
  <defs
     id="defs5052" />
  <sodipodi:namedview
     id="base"
     pagecolor="#ffffff"
     bordercolor="#666666"
     borderopacity="1.0"
     inkscape:pageopacity="0.0"
     inkscape:pageshadow="2"
     inkscape:zoom="11.197802"
     inkscape:cx="16"
     inkscape:cy="16"
     inkscape:current-layer="layer1"
     showgrid="true"
     inkscape:grid-bbox="true"
     inkscape:document-units="px"
     inkscape:window-width="1051"
     inkscape:window-height="882"
     inkscape:window-x="867"
     inkscape:window-y="24"
     inkscape:window-maximized="0" />
  <metadata
     id="metadata5055">
    <rdf:RDF>
      <cc:Work
         rdf:about="">
        <dc:format>image/svg+xml</dc:format>
        <dc:type
           rdf:resource="http://purl.org/dc/dcmitype/StillImage" />
        <dc:title></dc:title>
      </cc:Work>
    </rdf:RDF>
  </metadata>
  <g
     id="layer1"
     inkscape:label="Layer 1"
     inkscape:groupmode="layer">
    <path
       inkscape:connector-curvature="0"
       id="path5036"
       style="font-size:72px;font-style:normal;font-variant:normal;font-weight:normal;font-stretch:normal;text-align:start;line-height:125%;letter-spacing:0px;word-spacing:0px;writing-mode:lr-tb;text-anchor:start;fill:#000000;fill-opacity:1;stroke:none;font-family:FontAwesome;-inkscape-font-specification:FontAwesome"
       d="M 28.888022,10.567708 C 29.62931,12.293418 29.999973,14.10418 30,16 c -2.7e-5,1.895843 -0.37069,3.706605 -1.111978,5.432292 -0.741347,1.725699 -1.737875,3.214413 -2.989585,4.466145 -1.251759,1.251737 -2.74047,2.248265 -4.466145,2.989585 C 19.70658,29.629338 17.895817,30 16.000002,30 13.909712,30 11.922735,29.556423 10.039062,28.669269 8.1553796,27.79427 6.5512104,26.554688 5.2265636,24.950523 5.1414896,24.828994 5.0989549,24.695314 5.0989594,24.54948 c 0.012159,-0.157984 0.06684,-0.285588 0.1640638,-0.382812 l 2.4973937,-2.515626 c 0.1215245,-0.109369 0.2734336,-0.164057 0.4557317,-0.164063 0.1944348,0.02431 0.3341936,0.09723 0.4192676,0.21875 0.8871449,1.154519 1.9748178,2.047746 3.2630228,2.679688 1.288183,0.631945 2.655369,0.947918 4.101563,0.947918 1.263874,0 2.466996,-0.243053 3.609372,-0.72917 1.154499,-0.498257 2.151022,-1.166662 2.989585,-2.005207 0.838521,-0.838535 1.500847,-1.828986 1.986977,-2.971354 C 25.08418,18.473099 25.333308,17.2639 25.333336,16 25.333308,14.736124 25.08418,13.533 24.585936,12.390625 24.099806,11.236128 23.43748,10.239601 22.598959,9.4010416 21.760396,8.5625192 20.763873,7.9001934 19.609374,7.4140626 18.466998,6.9158197 17.263876,6.6666878 16.000002,6.666667 14.809017,6.6666878 13.666654,6.8854374 12.57292,7.3229167 11.479158,7.7482839 10.506939,8.3619985 9.6562495,9.1640627 l 2.4973985,2.5156253 c 0.376723,0.364599 0.461793,0.783869 0.255208,1.257812 -0.206608,0.486125 -0.565115,0.729181 -1.075523,0.729167 l -8.1666658,0 C 2.8506944,13.666681 2.5772563,13.55123 2.3463574,13.320313 2.115454,13.089425 2,12.815987 2,12.5 L 2,4.3333337 C 2,3.8229406 2.2430581,3.464434 2.7291699,3.2578128 3.2031269,3.0512401 3.6223944,3.1363095 3.9869816,3.5130211 L 6.3567712,5.8645837 C 7.6571131,4.6371759 9.1397532,3.6892605 10.804687,3.0208333 12.481762,2.3403032 14.21353,2.0000259 16.000002,2 c 1.895815,2.59e-5 3.706578,0.370685 5.43229,1.1119792 1.725675,0.7413433 3.214386,1.7378703 4.466145,2.9895835 1.25171,1.2517562 2.248238,2.7404701 2.989585,4.4661453" />
  </g>
</svg>
