<?xml version="1.0" encoding="UTF-8" standalone="no"?>
<!-- Created with Inkscape (http://www.inkscape.org/) -->

<svg
   xmlns:dc="http://purl.org/dc/elements/1.1/"
   xmlns:cc="http://creativecommons.org/ns#"
   xmlns:rdf="http://www.w3.org/1999/02/22-rdf-syntax-ns#"
   xmlns:svg="http://www.w3.org/2000/svg"
   xmlns="http://www.w3.org/2000/svg"
   xmlns:sodipodi="http://sodipodi.sourceforge.net/DTD/sodipodi-0.dtd"
   xmlns:inkscape="http://www.inkscape.org/namespaces/inkscape"
   id="svg2"
   version="1.1"
   inkscape:version="0.92.2 (5c3e80d, 2017-08-06)"
   width="48"
   height="48"
   sodipodi:docname="vpn-off.svg"
   inkscape:export-filename="/home/elijah/dev/leap/leap_assets/svg/android/vpn_connected-2.png"
   inkscape:export-xdpi="90"
   inkscape:export-ydpi="90">
  <metadata
     id="metadata8">
    <rdf:RDF>
      <cc:Work
         rdf:about="">
        <dc:format>image/svg+xml</dc:format>
        <dc:type
           rdf:resource="http://purl.org/dc/dcmitype/StillImage" />
        <dc:title />
      </cc:Work>
    </rdf:RDF>
  </metadata>
  <defs
     id="defs6" />
  <sodipodi:namedview
     pagecolor="#ffffff"
     bordercolor="#666666"
     borderopacity="1"
     objecttolerance="10"
     gridtolerance="10"
     guidetolerance="10"
     inkscape:pageopacity="0"
     inkscape:pageshadow="2"
     inkscape:window-width="1869"
     inkscape:window-height="1025"
     id="namedview4"
     showgrid="true"
     inkscape:zoom="1.7383042"
     inkscape:cx="-98.003652"
     inkscape:cy="34.264887"
     inkscape:window-x="51"
     inkscape:window-y="27"
     inkscape:window-maximized="1"
     inkscape:current-layer="svg2"
     inkscape:snap-global="false"
     showguides="true"
     inkscape:guide-bbox="true">
    <inkscape:grid
       type="xygrid"
       id="grid3001" />
    <sodipodi:guide
       orientation="0,1"
       position="14.453742,24.01766"
       id="guide3773"
       inkscape:locked="false" />
    <sodipodi:guide
       orientation="1,0"
       position="24.01766,29.123211"
       id="guide3775"
       inkscape:locked="false" />
  </sodipodi:namedview>
  <path
     sodipodi:type="arc"
     style="fill:#666666;fill-opacity:1;stroke:none"
     id="path3003"
     sodipodi:cx="20.530066"
     sodipodi:cy="19.272289"
     sodipodi:rx="16.71888"
     sodipodi:ry="14.705423"
     d="m 37.248945,19.272289 a 16.71888,14.705423 0 1 1 -33.4377592,0 16.71888,14.705423 0 1 1 33.4377592,0 z"
     transform="matrix(1.3158776,0,0,1.4960467,-3.0150541,-4.8322446)" />
  <rect
     style="fill:#ffffff;fill-opacity:1;stroke:none"
     id="rect2982"
     width="45.251106"
     height="3.4958107"
     x="11.251665"
     y="-4.0220556"
     transform="matrix(0.67862571,0.73448427,-0.73448427,0.67862571,0,0)" />
  <path
     inkscape:connector-curvature="0"
     id="path1370"
     d="M 23.287198,40.041822 C 17.710449,36.940579 13.541879,32.043948 12.597229,27.484797 12.330157,26.195834 12.319665,25.883306 12.319972,19.226134 l 3.07e-4,-6.359309 0.551636,-0.35533 c 7.090582,-4.5673196 15.428354,-4.5310116 22.519096,0.09807 l 0.391144,0.255349 v 6.390978 c 0,6.683242 -0.01074,7.004358 -0.275842,8.28091 -0.939301,4.522312 -4.549721,8.933574 -9.878688,12.06992 -1.548184,0.911178 -1.500325,0.90228 -2.340413,0.435106 z m 0.76371,-15.973739 V 11.407651 l -0.690974,0.0423 c -2.695602,0.16504 -5.483708,1.049756 -7.982431,2.532973 l -0.681728,0.404666 0.04286,5.627301 c 0.02357,3.095441 0.07006,5.819425 0.103309,6.054315 0.476503,3.365633 2.791594,6.531247 6.736517,9.21139 0.753714,0.512066 2.306101,1.436395 2.42638,1.444725 0.02534,0.0018 0.04607,-5.694003 0.04607,-12.657242 z"
     style="fill:#ffffff;fill-opacity:1;stroke-width:1" />
  <path
     transform="rotate(47.263656)"
     style="fill:#666666;fill-opacity:1;stroke:none"
     d="m 12.366446,-0.52765298 42.408823,0.00877 V 2.9769274 l -42.408823,-0.00877 z"
     id="rect1393"
     inkscape:connector-curvature="0"
     sodipodi:nodetypes="ccccc" />
</svg>
