<?xml version="1.0" encoding="UTF-8" standalone="no"?>
<!-- Created with Inkscape (http://www.inkscape.org/) -->

<svg
   xmlns:dc="http://purl.org/dc/elements/1.1/"
   xmlns:cc="http://creativecommons.org/ns#"
   xmlns:rdf="http://www.w3.org/1999/02/22-rdf-syntax-ns#"
   xmlns:svg="http://www.w3.org/2000/svg"
   xmlns="http://www.w3.org/2000/svg"
   xmlns:sodipodi="http://sodipodi.sourceforge.net/DTD/sodipodi-0.dtd"
   xmlns:inkscape="http://www.inkscape.org/namespaces/inkscape"
   id="svg2"
   version="1.1"
   inkscape:version="0.48.4 r9939"
   width="48"
   height="48"
   sodipodi:docname="vpn_disconnected.svg"
   inkscape:export-filename="/home/elijah/dev/leap/leap_assets/svg/android/vpn_connected-2.png"
   inkscape:export-xdpi="90"
   inkscape:export-ydpi="90">
  <metadata
     id="metadata8">
    <rdf:RDF>
      <cc:Work
         rdf:about="">
        <dc:format>image/svg+xml</dc:format>
        <dc:type
           rdf:resource="http://purl.org/dc/dcmitype/StillImage" />
        <dc:title />
      </cc:Work>
    </rdf:RDF>
  </metadata>
  <defs
     id="defs6" />
  <sodipodi:namedview
     pagecolor="#ffffff"
     bordercolor="#666666"
     borderopacity="1"
     objecttolerance="10"
     gridtolerance="10"
     guidetolerance="10"
     inkscape:pageopacity="0"
     inkscape:pageshadow="2"
     inkscape:window-width="1920"
     inkscape:window-height="1056"
     id="namedview4"
     showgrid="false"
     inkscape:zoom="13.906434"
     inkscape:cx="29.443829"
     inkscape:cy="23.002483"
     inkscape:window-x="1920"
     inkscape:window-y="24"
     inkscape:window-maximized="1"
     inkscape:current-layer="svg2" />
  <path
     style="fill:#000000;fill-opacity:1;stroke:none"
     d="m 13.963636,12.43775 14.774026,16.0625 3.428572,-0.03125 1.745454,-2.09375 1.153247,-0.03125 1.838961,2.1875 1.215585,-0.03125 2.057142,-2.3125 1.122078,0 1.714286,2.21875 2.836364,0 L 48,24.43775 45.225974,20.344 l -21.6,0 c -1.50261,-4.15125 -5.185991,-7.250238 -9.662338,-7.90625 z M 8.4779221,12.9065 C 3.5680661,14.476688 0,19.058998 0,24.50025 0,31.239996 5.4647724,36.719 12.187013,36.719 c 5.092233,0 9.437072,-3.143121 11.251948,-7.59375 L 8.4779221,12.9065 z M 7.3558442,21.219 c 1.8370556,0 3.3350648,1.50191 3.3350648,3.34375 0,1.84184 -1.4980092,3.3125 -3.3350648,3.3125 -1.8370556,0 -3.335065,-1.47066 -3.335065,-3.3125 0,-1.84184 1.4980094,-3.34375 3.335065,-3.34375 z"
     id="path3017"
     inkscape:connector-curvature="0" />
  <rect
     style="fill:#000000;fill-opacity:1;stroke:none"
     id="rect2982"
     width="47.94915"
     height="4.3220339"
     x="9.5085192"
     y="-4.6274133"
     transform="matrix(0.67862571,0.73448427,-0.73448427,0.67862571,0,0)" />
</svg>
