<?xml version="1.0" encoding="UTF-8" standalone="no"?>
<!-- Created with Inkscape (http://www.inkscape.org/) -->

<svg
   xmlns:dc="http://purl.org/dc/elements/1.1/"
   xmlns:cc="http://creativecommons.org/ns#"
   xmlns:rdf="http://www.w3.org/1999/02/22-rdf-syntax-ns#"
   xmlns:svg="http://www.w3.org/2000/svg"
   xmlns="http://www.w3.org/2000/svg"
   xmlns:sodipodi="http://sodipodi.sourceforge.net/DTD/sodipodi-0.dtd"
   xmlns:inkscape="http://www.inkscape.org/namespaces/inkscape"
   id="svg2"
   version="1.1"
   inkscape:version="0.48.4 r9939"
   width="48"
   height="48"
   sodipodi:docname="vpn_connected.svg"
   inkscape:export-filename="/home/elijah/dev/leap/leap_assets/svg/android/vpn_connected-2.png"
   inkscape:export-xdpi="90"
   inkscape:export-ydpi="90">
  <metadata
     id="metadata8">
    <rdf:RDF>
      <cc:Work
         rdf:about="">
        <dc:format>image/svg+xml</dc:format>
        <dc:type
           rdf:resource="http://purl.org/dc/dcmitype/StillImage" />
        <dc:title />
      </cc:Work>
    </rdf:RDF>
  </metadata>
  <defs
     id="defs6" />
  <sodipodi:namedview
     pagecolor="#ffffff"
     bordercolor="#666666"
     borderopacity="1"
     objecttolerance="10"
     gridtolerance="10"
     guidetolerance="10"
     inkscape:pageopacity="0"
     inkscape:pageshadow="2"
     inkscape:window-width="1920"
     inkscape:window-height="1056"
     id="namedview4"
     showgrid="false"
     inkscape:zoom="19.666667"
     inkscape:cx="17.189592"
     inkscape:cy="20.25672"
     inkscape:window-x="1920"
     inkscape:window-y="24"
     inkscape:window-maximized="1"
     inkscape:current-layer="svg2" />
  <path
     style="fill:#000000;fill-opacity:1;stroke:none"
     d="M 12.187013,12.3125 C 5.4647724,12.3125 0,17.760254 0,24.5 c 0,6.739746 5.4647724,12.21875 12.187013,12.21875 5.305097,0 9.803352,-3.408824 11.47013,-8.15625 l 8.509091,-0.09375 1.745454,-2.09375 1.153247,-0.03125 1.828239,2.182795 1.234013,-0.03125 2.049436,-2.307795 1.122078,0 1.714286,2.21875 2.836364,0 L 48,24.4375 l -2.774026,-4.09375 -21.6,0 C 21.928439,15.65398 17.450952,12.3125 12.187013,12.3125 z m -4.8311688,8.90625 c 1.8370556,0 3.3350648,1.50191 3.3350648,3.34375 0,1.84184 -1.4980092,3.3125 -3.3350648,3.3125 -1.8370556,0 -3.335065,-1.47066 -3.335065,-3.3125 0,-1.84184 1.4980094,-3.34375 3.335065,-3.34375 z"
     id="path3017"
     inkscape:connector-curvature="0"
     sodipodi:nodetypes="ssscccccccccccccssssss" />
</svg>
