<?xml version="1.0" encoding="UTF-8" standalone="no"?>
<!-- Created with Inkscape (http://www.inkscape.org/) -->

<svg
   xmlns:dc="http://purl.org/dc/elements/1.1/"
   xmlns:cc="http://creativecommons.org/ns#"
   xmlns:rdf="http://www.w3.org/1999/02/22-rdf-syntax-ns#"
   xmlns:svg="http://www.w3.org/2000/svg"
   xmlns="http://www.w3.org/2000/svg"
   xmlns:sodipodi="http://sodipodi.sourceforge.net/DTD/sodipodi-0.dtd"
   xmlns:inkscape="http://www.inkscape.org/namespaces/inkscape"
   id="svg3039"
   version="1.1"
   inkscape:version="0.91 r13725"
   width="800"
   height="800"
   sodipodi:docname="kid-ico.svg"
   inkscape:export-filename="/home/elijah/Desktop/leap.png"
   inkscape:export-xdpi="299.9664"
   inkscape:export-ydpi="299.9664"
   style="enable-background:new">
  <metadata
     id="metadata3045">
    <rdf:RDF>
      <cc:Work
         rdf:about="">
        <dc:format>image/svg+xml</dc:format>
        <dc:type
           rdf:resource="http://purl.org/dc/dcmitype/StillImage" />
        <dc:title />
      </cc:Work>
    </rdf:RDF>
  </metadata>
  <defs
     id="defs3043">
    <clipPath
       clipPathUnits="userSpaceOnUse"
       id="clipPath5166">
      <path
         style="display:inline;opacity:1;fill:#7c7c7c;fill-opacity:0.49746195;stroke:none;enable-background:new"
         d="m 376.07419,-103.23575 336.0357,0 c 49.02787,0 88.49796,39.470088 88.49796,88.497956 l 0,336.035704 c 0,49.02787 -39.47009,88.49795 -88.49796,88.49795 l -336.0357,0 c -49.02787,0 -88.49796,-39.47008 -88.49796,-88.49795 l 0,-336.035704 c 0,-49.027868 39.47009,-88.497956 88.49796,-88.497956 z"
         id="path5168"
         inkscape:connector-curvature="0" />
    </clipPath>
  </defs>
  <sodipodi:namedview
     pagecolor="#ffffff"
     bordercolor="#666666"
     borderopacity="1"
     objecttolerance="16"
     gridtolerance="10"
     guidetolerance="10"
     inkscape:pageopacity="0"
     inkscape:pageshadow="2"
     inkscape:window-width="1601"
     inkscape:window-height="991"
     id="namedview3041"
     showgrid="false"
     fit-margin-top="20"
     fit-margin-left="20"
     fit-margin-right="20"
     fit-margin-bottom="20"
     inkscape:zoom="0.5"
     inkscape:cx="34.78552"
     inkscape:cy="230.82443"
     inkscape:window-x="104"
     inkscape:window-y="61"
     inkscape:window-maximized="0"
     inkscape:current-layer="layer2"
     inkscape:snap-global="false"
     inkscape:object-nodes="true"
     inkscape:snap-smooth-nodes="false"
     inkscape:snap-grids="false"
     inkscape:snap-to-guides="false"
     inkscape:object-paths="true"
     showguides="true"
     inkscape:guide-bbox="true" />
  <g
     inkscape:groupmode="layer"
     id="layer1"
     inkscape:label="bg">
    <rect
       style="opacity:1;fill:#000000;fill-opacity:1;stroke:none"
       id="rect3093"
       width="800"
       height="800"
       x="0"
       y="0"
       ry="138" />
  </g>
  <g
     inkscape:groupmode="layer"
     id="layer4"
     inkscape:label="outline"
     style="display:inline"
     transform="translate(20,184.83417)" />
  <g
     inkscape:groupmode="layer"
     id="layer2"
     inkscape:label="colors"
     style="display:inline"
     transform="translate(20,184.83417)">
    <g
       id="g3445"
       transform="matrix(1.5593581,0,0,1.5593581,-468.43435,-23.852669)"
       clip-path="url(#clipPath5166)">
      <path
         inkscape:connector-curvature="0"
         id="path3292"
         d="m 188.97984,410.97718 c 6.09562,28.83774 12.17661,57.67871 18.28136,86.51445 8.92741,6.00128 17.85119,12.00802 26.77801,18.01016 -14.56051,-34.98455 -29.12058,-69.96932 -43.68092,-104.95397 -1.32922,-1.30862 -1.16515,-2.45378 -1.37845,0.42936 z"
         style="fill:#cc3f00;fill-opacity:1;stroke:none" />
      <path
         inkscape:connector-curvature="0"
         id="path3220"
         d="m 400.17587,223.4633 c -10.13395,29.76123 -20.2761,59.51966 -30.40491,89.28263 44.01568,-29.49037 88.02652,-58.98798 132.04837,-88.46913 -33.82453,-0.44641 -67.64949,-0.86346 -101.47397,-1.31064 l -0.11667,0.34222 -0.0528,0.15492 z"
         style="fill:#76cc66;fill-opacity:1;stroke:none" />
      <path
         inkscape:connector-curvature="0"
         id="path3226"
         d="m 524.13434,219.13588 c -8.34618,1.76278 -16.74999,3.3767 -25.0606,5.23132 -43.50445,29.14617 -87.00457,58.29883 -130.51174,87.44094 24.36457,-1.30054 48.72716,-2.64003 73.09154,-3.94326 28.2349,-29.74174 56.49138,-59.46377 84.74054,-89.19225 -0.75324,0.15442 -1.5065,0.30883 -2.25974,0.46325 z"
         style="fill:#48bdb2;fill-opacity:1;stroke:none" />
      <path
         inkscape:connector-curvature="0"
         id="path3228"
         d="m 470.49923,273.78788 c -14.71347,16.3928 -29.75064,32.49142 -43.86171,49.40939 11.48504,-0.20426 23.04555,-0.12732 34.48375,-0.48584 17.31691,-10.49324 34.63612,-20.9827 51.9516,-31.47829 -14.074,-5.95311 -28.15936,-11.87946 -42.23469,-17.82941 l -0.23921,0.27111 -0.0998,0.11304 z"
         style="fill:#009948;fill-opacity:1;stroke:none" />
      <path
         inkscape:connector-curvature="0"
         id="path3230"
         d="m 370.92344,310.26022 c -16.31521,5.51055 -32.63189,11.01671 -48.94614,16.53004 7.73609,2.24605 15.45546,4.64068 23.19631,6.81315 11.72037,-1.28976 23.44225,-2.566 35.16168,-3.86417 -2.9326,-6.55968 -5.87255,-13.11621 -8.79042,-19.6824 l -0.34363,0.11246 -0.2778,0.0909 z"
         style="fill:#005004;fill-opacity:1;stroke:none" />
      <path
         inkscape:connector-curvature="0"
         id="path3234"
         d="m 441.29198,306.42994 c -23.73487,1.28459 -47.46986,2.56685 -71.20465,3.85287 2.74877,6.60151 5.48005,13.21039 8.21418,19.81799 18.19108,-3.5924 36.38304,-7.18059 54.57291,-10.77899 3.33549,-4.3189 6.65279,-8.65189 9.98809,-12.97096 -0.52352,0.0264 -1.04702,0.0527 -1.57053,0.0791 z"
         style="fill:#3b6774;fill-opacity:1;stroke:none" />
      <path
         inkscape:connector-curvature="0"
         id="path3238"
         d="m 511.12949,290.72469 c -17.15426,9.93147 -34.42899,19.69719 -51.50804,29.73213 -2.97574,2.08366 2.30654,0.77968 3.60878,0.39165 14.9533,-3.66124 29.9066,-7.32247 44.8599,-10.98371 15.22756,3.74874 30.40865,7.75648 45.66517,11.3439 3.35189,0.79213 -1.23845,-2.12311 -2.19629,-2.82561 -13.34591,-9.29676 -26.68206,-18.60776 -40.03406,-27.89563 l -0.31004,0.18602 -0.0854,0.0513 z"
         style="fill:#244812;fill-opacity:1;stroke:none" />
      <path
         inkscape:connector-curvature="0"
         id="path3240"
         d="m 523.07225,219.47485 c -4.24555,24.76666 -8.48305,49.5347 -12.73367,74.30051 20.47317,-23.56127 40.9495,-47.11981 61.43124,-70.67362 -16.19497,-1.4261 -32.38932,-2.85948 -48.58458,-4.28222 l -0.0614,0.3563 -0.0516,0.29903 z"
         style="fill:#99ccff;stroke:none" />
      <path
         inkscape:connector-curvature="0"
         id="path3242"
         d="m 544.34778,289.35754 c -11.69413,0.45373 -23.38882,0.89286 -35.08258,1.35586 14.93259,10.12649 29.85639,20.26596 44.78819,30.3936 4.9443,-4.75016 9.89078,-9.49822 14.84655,-14.23641 -8.10429,-5.83707 -16.2098,-11.67296 -24.30358,-17.52435 l -0.24858,0.0112 z"
         style="fill:#1f8f96;fill-opacity:1;stroke:none" />
      <path
         inkscape:connector-curvature="0"
         id="path3244"
         d="m 569.74735,223.22603 c -19.9476,22.94261 -39.88269,45.89614 -59.83813,68.83191 12.32316,0.0828 24.6463,0.17248 36.96948,0.24858 8.05041,-23.03404 16.33245,-46.0015 24.24503,-69.07474 0.89195,-2.88492 -0.13725,-0.81183 -1.37638,-0.006 z"
         style="fill:#00c7c7;fill-opacity:1;stroke:none" />
      <path
         inkscape:connector-curvature="0"
         id="path3246"
         d="m 569.62306,223.97175 c 4.62451,11.26606 8.84204,22.71141 13.72796,33.86232 0.92445,-9.69996 1.16842,-19.46089 1.8304,-29.18465 -5.39329,-2.07132 -10.78179,-4.15525 -16.17979,-6.2143 0.20715,0.51221 0.41429,1.02441 0.62143,1.53663 z"
         style="fill:#004699;fill-opacity:1;stroke:none" />
      <path
         inkscape:connector-curvature="0"
         id="path3248"
         d="m 569.61176,223.452 c -2.81409,7.78458 -5.62253,15.5712 -8.44016,23.35449 8.61594,4.59594 17.24682,9.16448 25.87412,13.73927 -5.59637,-12.93667 -11.21244,-25.86481 -16.81253,-38.79987 -0.20714,0.56871 -0.41428,1.13741 -0.62143,1.70611 z"
         style="fill:#006eff;fill-opacity:1;stroke:none" />
      <path
         inkscape:connector-curvature="0"
         id="path3250"
         d="m 561.38628,246.23026 c -2.41098,6.7941 -4.81732,13.58985 -7.2312,20.38292 21.06031,4.03491 42.07395,8.36402 63.16108,12.22704 2.11834,0.21225 -2.35928,-2.36626 -3.31471,-3.21724 -16.42414,-11.72693 -34.02373,-21.73219 -52.3553,-30.14974 -0.0866,0.25235 -0.17325,0.50468 -0.25987,0.75702 z"
         style="fill:#ffe533;fill-opacity:1;stroke:none" />
      <path
         inkscape:connector-curvature="0"
         id="path3252"
         d="m 554.43756,265.79967 c -3.31367,8.67768 -6.63238,17.35344 -9.94289,26.0323 14.46782,10.94311 28.78295,22.10731 43.34685,32.91141 2.39534,1.72969 -0.78869,-2.92649 -1.26092,-4.02409 -10.52906,-18.78904 -21.06405,-37.57475 -31.5894,-56.36586 -0.18455,0.48208 -0.3691,0.96416 -0.55364,1.44624 z"
         style="fill:#815200;fill-opacity:1;stroke:none" />
      <path
         inkscape:connector-curvature="0"
         id="path3254"
         d="m 554.48275,266.4098 c 10.79472,19.25646 21.58417,38.51588 32.38219,57.77045 17.81753,6.58589 35.56421,13.40095 53.42269,19.85278 3.26658,1.22326 -0.97697,-2.22424 -1.8399,-3.08313 -27.73054,-25.18742 -55.35728,-50.51155 -83.15269,-75.61354 -2.04337,-1.43855 -1.42486,-0.83222 -0.81229,1.07344 z"
         style="fill:#8f4124;fill-opacity:1;stroke:none" />
      <path
         inkscape:connector-curvature="0"
         id="path3256"
         d="m 554.74262,266.68098 c 44.67521,27.39567 89.35043,54.79135 134.02564,82.18703 3.48201,1.69971 0.3151,-1.94537 -0.91576,-2.91206 -23.12058,-22.93013 -46.2429,-45.85851 -69.36239,-68.78975 -21.3224,-3.92658 -42.61813,-8.09975 -63.96143,-11.85099 -3.05328,-0.39684 -0.67051,0.29257 0.21394,1.36577 z"
         style="fill:#ffb526;fill-opacity:1;stroke:none" />
      <path
         inkscape:connector-curvature="0"
         id="path3258"
         d="m 554.62964,266.59059 c 28.29322,25.76759 56.60711,51.51352 84.8874,77.29467 17.24076,1.68244 34.45642,3.70387 51.71221,5.18076 -0.017,-0.65502 -3.23422,-2.26543 -4.48927,-3.14195 -43.75056,-26.82865 -87.5011,-53.6573 -131.25165,-80.48596 -1.87583,-0.31799 -2.37449,-1.27449 -0.85869,1.15248 z"
         style="fill:#cf5300;fill-opacity:1;stroke:none" />
      <path
         inkscape:connector-curvature="0"
         id="path3260"
         d="m 639.42666,343.78357 c 16.14895,10.98723 32.3038,21.96574 48.44899,32.95842 0.68096,-9.71292 1.36105,-19.42595 2.03376,-29.13944 -17.57656,-1.79545 -35.14634,-3.66798 -52.73119,-5.3782 0.74948,0.51974 1.49896,1.03948 2.24844,1.55922 z"
         style="fill:#592b80;fill-opacity:1;stroke:none" />
      <path
         inkscape:connector-curvature="0"
         id="path3262"
         d="m 623.90222,286.36338 c 21.49772,20.72189 42.99544,41.44377 64.4932,62.16566 -0.63598,9.12188 -1.27623,18.24348 -1.9095,27.36554 7.03259,2.95549 14.06821,5.90394 21.10605,8.84692 -5.89278,-12.21449 -11.80489,-24.41964 -17.70511,-36.63051 1.06957,-7.47977 2.13938,-14.95951 3.20884,-22.43929 -6.48913,-2.81119 -13.24516,-5.11546 -19.57057,-8.23582 -16.37436,-10.73121 -32.62733,-21.72467 -49.07746,-32.29215 -2.43023,-0.87898 -1.10768,-0.25298 -0.54545,1.21965 z"
         style="fill:#8e51a0;fill-opacity:1;stroke:none" />
      <path
         inkscape:connector-curvature="0"
         id="path3264"
         d="m 688.48582,348.55164 c 5.60627,12.25234 11.22563,24.49878 16.8238,36.7548 2.86977,-0.84485 6.24475,-1.03502 8.82429,-2.23715 4.81019,-8.94823 9.61489,-17.89943 14.42851,-26.84581 -13.56271,-2.99575 -27.1251,-5.99312 -40.68677,-8.99379 0.20341,0.44065 0.40675,0.8813 0.61017,1.32195 z"
         style="fill:#004d99;fill-opacity:1;stroke:none" />
      <path
         inkscape:connector-curvature="0"
         id="path3266"
         d="m 733.64686,305.26617 c -9.05762,5.28984 -18.0189,10.80167 -27.13632,15.95364 -4.95442,1.44379 -9.90323,2.9073 -14.86108,4.33889 -1.15247,8.21291 -2.34338,16.42076 -3.51392,24.63125 15.50356,-14.70759 31.19615,-29.26583 46.56859,-44.0806 1.42158,-2.0335 0.62195,-1.16395 -1.05727,-0.84318 z"
         style="fill:#5833ff;fill-opacity:1;stroke:none" />
      <path
         inkscape:connector-curvature="0"
         id="path3268"
         d="m 733.52255,305.35656 c -15.28739,14.42827 -30.57308,28.85836 -45.86156,43.28547 13.14034,3.03229 26.28126,6.06189 39.42131,9.09549 1.60953,-5.12029 3.79704,-10.12224 5.04575,-15.31925 0.91768,-12.77565 1.82812,-25.55184 2.75035,-38.32717 -0.45191,0.42182 -0.9039,0.84364 -1.35585,1.26546 z"
         style="fill:#007ce1;fill-opacity:1;stroke:none" />
      <path
         inkscape:connector-curvature="0"
         id="path3272"
         d="m 749.75885,278.04751 c -2.62517,2.26634 -5.70783,4.14552 -8.07192,6.63287 -4.70678,8.56398 -9.40894,17.13052 -14.1188,25.69282 7.21861,-4.58845 15.3818,-7.23303 23.19514,-10.59839 1.39168,-1.13037 5.44469,-0.89959 4.43297,-3.25696 -1.51413,-6.39424 -3.03482,-12.78694 -4.5448,-19.18216 -0.29753,0.23727 -0.59506,0.47455 -0.89259,0.71182 z"
         style="fill:#66e9ff;fill-opacity:1;stroke:none" />
      <path
         inkscape:connector-curvature="0"
         id="path3274"
         d="m 733.29658,305.83111 c -0.8505,11.95788 -1.70639,23.91538 -2.55348,35.8735 7.86323,-7.86085 15.72795,-15.72021 23.59177,-23.58048 1.23751,1.39865 2.15059,-5.67365 0.47223,-2.51042 -1.50271,1.60918 -3.66871,-1.54987 -5.44838,-1.93249 -5.32838,-2.99205 -10.65086,-5.99468 -15.98304,-8.97999 -0.0264,0.37663 -0.0527,0.75325 -0.0791,1.12988 z"
         style="fill:#99bacc;fill-opacity:1;stroke:none" />
      <path
         inkscape:connector-curvature="0"
         id="path3278"
         d="m 249.51848,259.09953 c 24.89426,22.82413 49.79353,45.64284 74.68467,68.47035 16.31717,-5.51959 32.64292,-11.01392 48.95744,-16.54135 -41.08265,-17.71568 -82.11125,-35.59013 -123.22488,-53.21304 -2.11479,-0.3561 -2.27087,-1.09835 -0.41723,1.28404 z"
         style="fill:#996600;stroke:none" />
      <path
         inkscape:connector-curvature="0"
         id="path3280"
         d="m 400.42444,223.13563 c -27.77705,21.74128 -55.54619,43.4927 -83.32819,65.22763 18.15958,7.8555 36.31996,15.70923 54.48251,23.55787 10.26756,-30.09056 20.51021,-60.18988 30.75517,-90.28822 -0.63649,0.50091 -1.27299,1.00181 -1.90949,1.50272 z"
         style="fill:#bcc13d;fill-opacity:1;stroke:none" />
      <path
         inkscape:connector-curvature="0"
         id="path3282"
         d="m 400.70692,223.00006 c -30.65047,6.86889 -61.36755,13.45469 -91.9755,20.50415 -20.33301,4.95614 -40.66356,9.92247 -60.99814,14.87219 23.62664,10.21181 47.25012,20.43095 70.87699,30.64219 27.89669,-21.94008 55.95909,-43.67892 83.78388,-65.70543 2.28979,-1.51169 -1.08356,-0.16724 -1.68723,-0.3131 z"
         style="fill:#ff9a09;fill-opacity:1;stroke:none" />
      <path
         inkscape:connector-curvature="0"
         id="path3116"
         d="m 369.64668,333.00458 c -19.95387,2.54359 -39.90542,5.10624 -59.86072,7.63794 -2.2077,34.50273 -4.54667,68.99893 -6.64366,103.50775 22.77967,-37.04082 45.31047,-74.23775 67.99581,-111.33777 -0.49715,0.064 -0.99428,0.12805 -1.49143,0.19208 z"
         style="fill:#314e00;fill-opacity:1;stroke:none" />
      <path
         inkscape:connector-curvature="0"
         id="path3114"
         d="m 278.17209,285.3239 c 10.71575,19.05676 21.42526,38.11705 32.14491,57.17161 5.01321,-5.27537 10.05775,-10.52113 15.08382,-15.78433 -15.48504,-14.13675 -30.86551,-28.41036 -46.4159,-42.46159 -2.04125,-1.4498 -1.40576,-0.81877 -0.81283,1.07431 z"
         style="fill:#b98a00;fill-opacity:1;stroke:none" />
      <path
         inkscape:connector-curvature="0"
         id="path3288"
         d="m 323.85289,326.24793 c -5.11958,5.34687 -10.22779,10.70466 -15.35499,16.04421 21.02004,-3.04988 42.09362,-5.89562 63.07951,-9.07799 3.47804,-0.86137 -1.89499,-1.57426 -3.21874,-1.65549 -14.75189,-1.86426 -29.50786,-3.69965 -44.2572,-5.5819 l -0.24433,0.26652 -0.004,0.005 z"
         style="fill:#3e7a00;fill-opacity:1;stroke:none" />
      <path
         inkscape:connector-curvature="0"
         id="path3290"
         d="m 303.80892,440.81714 c -28.09679,6.83701 -56.18881,13.69396 -84.28859,20.51851 10.15287,16.74985 20.32325,33.48912 30.484,50.23418 18.60718,-23.75136 37.21305,-47.50381 55.82707,-71.24983 -0.67416,0.16571 -1.34832,0.33143 -2.02248,0.49714 z"
         style="fill:#006600;stroke:none" />
      <path
         inkscape:connector-curvature="0"
         id="path3294"
         d="m 189.02504,411.11276 c 14.3282,34.41913 28.64515,68.84302 42.9804,103.25916 6.4154,-1.17439 12.82842,-2.36211 19.24175,-3.54778 -20.312,-33.45518 -40.62263,-66.91121 -60.9341,-100.36671 -1.4628,-0.88316 -1.56958,-2.38656 -1.28805,0.65533 z"
         style="fill:#ff0000;fill-opacity:1;stroke:none" />
      <path
         inkscape:connector-curvature="0"
         id="path3296"
         d="m 85.68677,378.59499 c 36.93191,20.29989 73.86305,40.60117 110.79543,60.9002 -2.04131,-9.74641 -4.1113,-19.48688 -6.16911,-29.22983 -34.68978,-10.9889 -69.37381,-21.99631 -104.061384,-32.99233 -1.916602,0.12195 -2.601144,-0.66108 -0.564936,1.32196 z"
         style="fill:#ff3300;stroke:none" />
      <path
         inkscape:connector-curvature="0"
         id="path3298"
         d="m 85.585081,378.5272 c 39.485999,32.2533 78.966609,64.51322 118.455979,96.76239 -2.63958,-12.55459 -5.29918,-25.105 -7.94301,-37.65869 -36.57301,-20.09539 -73.14005,-40.20176 -109.710758,-60.30138 -1.868537,-0.19843 -2.441859,-1.16937 -0.802211,1.19768 z"
         style="fill:#990000;stroke:none" />
      <path
         inkscape:connector-curvature="0"
         id="path3302"
         d="m 84.376116,343.72708 c -9.510224,4.30758 -19.016838,8.62316 -28.529317,12.92576 10.321704,7.59488 20.639384,15.19531 30.969844,22.77825 -0.480903,-12.04856 -0.976891,-24.09654 -1.468835,-36.14466 -0.323897,0.14688 -0.647796,0.29376 -0.971692,0.44065 z"
         style="fill:#333366;stroke:none" />
      <path
         inkscape:connector-curvature="0"
         id="path3304"
         d="m 57.19135,356.0766 c -13.832514,1.61967 -27.722977,2.93877 -41.519295,4.74616 -3.311485,0.48855 1.986211,1.54319 3.06833,1.81844 22.61907,5.34862 45.202555,10.88873 67.84388,16.1176 3.487139,0.90049 -1.154702,-2.05419 -2.156559,-2.88386 C 75.441807,369.26973 66.466027,362.65042 57.473818,356.054 l -0.282468,0.0226 z"
         style="fill:#0066cc;stroke:none" />
      <path
         inkscape:connector-curvature="0"
         id="path3306"
         d="m 13.035877,377.32952 c 5.925417,2.97978 12.514556,4.44362 18.547457,7.2336 4.197466,1.59418 8.365481,3.59608 12.58057,4.94645 14.113965,-3.69896 28.310681,-7.18503 42.373098,-11.01662 3.313459,-1.26812 -2.089474,-1.35755 -3.392431,-1.26442 -22.767617,-0.0441 -45.547682,-0.24606 -68.307523,-0.19134 -0.600392,0.0975 -1.200779,0.19489 -1.801171,0.29233 z"
         style="fill:#99ccff;stroke:none" />
      <path
         inkscape:connector-curvature="0"
         id="path3308"
         d="m 85.901446,377.25044 c -15.934914,3.02092 -31.870446,6.03859 -47.804965,9.06159 13.299429,5.1147 26.605023,10.21338 39.907145,15.32109 3.062801,-8.20351 6.096016,-16.41811 9.163278,-24.61996 -0.421821,0.0791 -0.843638,0.15818 -1.265458,0.23728 z"
         style="fill:#9999ff;stroke:none" />
      <path
         inkscape:connector-curvature="0"
         id="path3310"
         d="m 85.370405,377.67979 c -3.649779,8.76017 -7.297268,17.52129 -10.948478,26.28087 11.654922,5.98412 23.305422,11.97687 34.958293,17.96499 -7.80893,-15.22423 -15.606949,-30.45406 -23.410982,-45.6808 -0.19961,0.47831 -0.399223,0.95663 -0.598833,1.43494 z"
         style="fill:#666699;stroke:none" />
      <path
         inkscape:connector-curvature="0"
         id="path3314"
         d="m 85.393002,378.28992 c 7.320495,14.16465 14.46996,28.48066 21.896958,42.55105 33.79705,24.117 67.60401,48.22019 101.39489,72.34583 -1.81258,-6.74472 -3.28674,-13.71027 -5.32171,-20.31514 -39.17041,-31.9428 -78.23808,-64.02348 -117.472693,-95.88013 -2.269901,-1.82321 -1.00766,-0.32989 -0.497445,1.29839 z"
         style="fill:#702700;fill-opacity:1;stroke:none" />
      <path
         inkscape:connector-curvature="0"
         id="path3316"
         d="m 307.33413,386.86567 c -39.59815,7.81956 -79.19762,15.63241 -118.79494,23.45618 10.63606,17.53631 21.29563,35.05843 31.93024,52.59563 29.8601,-25.52164 59.71812,-51.04586 89.5651,-76.58286 -0.90013,0.17701 -1.80027,0.35404 -2.7004,0.53105 z"
         style="fill:#00d73a;fill-opacity:1;stroke:none" />
      <path
         inkscape:connector-curvature="0"
         id="path3318"
         d="m 306.99517,387.02385 c -29.45287,25.25533 -59.05217,50.34587 -88.4132,75.70453 0.26403,0.53123 3.90256,-0.74628 5.39936,-0.9876 26.89561,-6.54824 53.78982,-13.10224 80.6863,-19.64688 1.21262,-18.72578 2.42054,-37.45188 3.63819,-56.17733 -0.43688,0.36909 -0.87376,0.73819 -1.31065,1.10728 z"
         style="fill:#009900;stroke:none" />
      <path
         inkscape:connector-curvature="0"
         id="path3320"
         d="m 310.01193,340.72162 c -25.98677,21.29442 -52.12796,42.40616 -78.01779,63.81527 25.42463,-5.27239 50.77454,-10.92728 76.1648,-16.37187 1.039,-16.165 2.0983,-32.32871 3.12975,-48.49419 -0.42559,0.35026 -0.85118,0.70053 -1.27676,1.05079 z"
         style="fill:#009922;fill-opacity:1;stroke:none" />
      <path
         inkscape:connector-curvature="0"
         id="path3322"
         d="m 246.46783,296.22718 c 0.67902,15.26455 1.34919,30.5295 2.03377,45.79379 21.40734,-0.003 42.81469,-0.008 64.22203,-0.0112 -22.11009,-15.7511 -44.2127,-31.51269 -66.3236,-47.26264 0.0226,0.49337 0.0452,0.98675 0.0678,1.48013 z"
         style="fill:#8a9966;fill-opacity:1;stroke:none" />
      <path
         inkscape:connector-curvature="0"
         id="path3324"
         d="m 249.19082,340.57473 c -3.9833,-0.61057 0.3224,1.66381 1.53473,2.85607 9.87638,7.79236 19.74752,15.59143 29.62719,23.3796 10.71384,-8.75038 21.42671,-17.50195 32.14492,-26.24697 -21.10228,0.003 -42.20456,0.008 -63.30684,0.0113 z"
         style="fill:#dcff99;fill-opacity:1;stroke:none" />
      <path
         inkscape:connector-curvature="0"
         id="path3326"
         d="m 248.479,341.18487 c -1.31244,8.40597 -2.61071,16.8142 -3.93196,25.21878 12.63202,0.0614 25.26396,0.1466 37.89597,0.21467 -11.25961,-8.88165 -22.51557,-17.76795 -33.77193,-26.65372 -0.064,0.40676 -0.12805,0.81351 -0.19208,1.22027 z"
         style="fill:#516633;fill-opacity:1;stroke:none" />
      <path
         inkscape:connector-curvature="0"
         id="path3328"
         d="m 244.70522,365.47715 c -3.87304,13.30575 -7.73496,26.61476 -11.6151,39.91845 16.41809,-13.41119 32.84574,-26.8107 49.2625,-40.22352 -12.50018,-0.0697 -25.00033,-0.14956 -37.50051,-0.21467 l -0.0984,0.34793 -0.0486,0.17181 z"
         style="fill:#57ea00;fill-opacity:1;stroke:none" />
      <path
         inkscape:connector-curvature="0"
         id="path3330"
         d="m 302.17061,203.03518 c 3.83157,13.58072 7.65286,27.16436 11.49082,40.74325 29.45544,-6.60933 58.97522,-12.96708 88.40037,-19.69038 2.98143,-0.67154 -2.7011,-1.29989 -3.87892,-1.70146 -32.10949,-6.8349 -64.21944,-13.66759 -96.32864,-20.50388 0.10546,0.38416 0.21091,0.76831 0.31637,1.15247 z"
         style="fill:#ffea00;fill-opacity:1;stroke:none" />
      <path
         inkscape:connector-curvature="0"
         id="path3346"
         d="m 313.86481,160.92478 c -3.9651,14.15376 -7.93626,28.30584 -11.89758,42.46067 33.15632,7.03286 66.29199,14.20016 99.46882,21.11416 3.57303,0.872 -1.15303,-1.99743 -2.19047,-2.87239 -28.3668,-20.56839 -56.72804,-41.14446 -85.09831,-61.70803 -0.0942,0.3352 -0.18831,0.67039 -0.28246,1.00559 z"
         style="fill:#002681;fill-opacity:1;stroke:none" />
      <path
         inkscape:connector-curvature="0"
         id="path3348"
         d="m 314.13597,161.7044 c 29.03487,21.05211 58.06276,42.11387 87.10198,63.15994 3.62461,-10.99947 7.21304,-22.01096 10.82419,-33.01491 -32.54605,-10.47348 -65.05747,-21.10808 -97.62949,-31.46758 -2.45401,-0.44975 -1.63369,-0.15391 -0.29668,1.32255 z"
         style="fill:#3d0064;fill-opacity:1;stroke:none" />
      <path
         inkscape:connector-curvature="0"
         id="path3350"
         d="m 431.02143,120.21542 c -39.57875,13.64345 -79.16335,27.27002 -118.73845,40.92403 33.09304,10.69157 66.18555,21.38492 99.28202,32.06583 5.26744,-13.0268 10.86556,-25.96178 15.95669,-39.03393 1.53634,-11.44284 3.06728,-22.88641 4.60701,-34.32879 -0.36909,0.12429 -0.73818,0.24858 -1.10727,0.37286 z"
         style="fill:#0015a3;fill-opacity:1;stroke:none" />
      <path
         inkscape:connector-curvature="0"
         id="path3362"
         d="m 244.67132,231.99385 c -1.73866,6.12429 -3.48788,12.24563 -5.22001,18.37175 3.46351,2.98635 6.90868,5.99432 10.36094,8.9938 21.72708,-5.35766 43.51679,-10.50634 65.20699,-15.98544 3.47083,-0.80457 -1.99354,-1.28907 -3.23711,-1.5558 -22.30985,-3.47915 -44.62096,-6.95029 -66.93002,-10.43445 l -0.10271,0.34667 -0.0781,0.26347 z"
         style="fill:#37de2b;fill-opacity:1;stroke:none" />
      <path
         inkscape:connector-curvature="0"
         id="path3364"
         d="m 302.54347,202.19907 c -19.82907,10.12411 -39.65994,20.24467 -59.48786,30.37101 24.04095,3.74089 48.08168,7.48369 72.11984,11.24225 -3.95242,-14.00243 -7.88389,-28.01089 -11.85237,-42.00871 -0.25987,0.13182 -0.51974,0.26363 -0.77961,0.39545 z"
         style="fill:#b5cc33;fill-opacity:1;stroke:none" />
      <path
         inkscape:connector-curvature="0"
         id="path3366"
         d="m 261.0771,173.35339 c -2.5502,8.16132 -5.09685,16.32375 -7.64926,24.48437 2.46945,6.08206 4.91704,12.1732 7.37809,18.25876 -5.46632,5.53587 -11.35942,10.71287 -16.55628,16.47529 -1.05183,1.88258 3.49983,-0.83709 4.67009,-1.37453 18.44703,-9.41753 36.8942,-18.83478 55.34113,-28.25249 -14.29982,-10.17572 -28.58993,-20.36514 -42.89,-30.5405 -0.098,0.31638 -0.19586,0.63274 -0.29377,0.9491 z"
         style="fill:#009900;stroke:none" />
      <path
         inkscape:connector-curvature="0"
         id="path3370"
         d="m 275.91234,140.86952 c -5.01685,10.97851 -10.03201,21.95779 -15.04992,32.93582 14.55588,10.37843 29.12384,20.73996 43.68093,31.11673 -9.3158,-21.84504 -18.63067,-43.69048 -27.95308,-65.53268 -0.22598,0.49337 -0.45196,0.98675 -0.67793,1.48013 z"
         style="fill:#007448;fill-opacity:1;stroke:none" />
      <path
         inkscape:connector-curvature="0"
         id="path3372"
         d="m 275.90104,141.45705 c 9.04141,21.1841 18.06333,42.37656 27.11698,63.55541 4.13434,-14.75643 8.2711,-29.51219 12.40601,-44.26846 -13.43995,-7.04662 -26.8716,-14.10911 -40.3139,-21.15124 0.26363,0.62143 0.52727,1.24286 0.79091,1.86429 z"
         style="fill:#003399;fill-opacity:1;stroke:none" />
      <path
         inkscape:connector-curvature="0"
         id="path3374"
         d="m 317.31092,111.22163 c -14.04169,10.01286 -28.07432,20.03849 -42.1217,30.04334 13.33892,7.01064 26.67785,14.02181 40.03143,21.00436 1.09859,-17.31022 2.22905,-34.61844 3.32183,-51.92901 -0.41052,0.29377 -0.82104,0.58754 -1.23156,0.88131 z"
         style="fill:#009da9;fill-opacity:1;stroke:none" />
      <path
         inkscape:connector-curvature="0"
         id="path3376"
         d="m 317.00585,111.76396 c -1.07655,16.7975 -2.15787,33.5947 -3.23144,50.39238 15.99671,-5.50573 31.99553,-11.0056 47.98575,-16.53005 -14.89408,-11.73916 -29.77755,-23.49182 -44.66391,-35.24077 -0.0301,0.45948 -0.0602,0.91897 -0.0904,1.37844 z"
         style="fill:#006aaf;fill-opacity:1;stroke:none" />
      <path
         inkscape:connector-curvature="0"
         id="path3888"
         d="m 283.71977,87.14401 c -2.70569,18.53348 -5.39911,37.06876 -8.11249,55.6011 14.45212,-10.30675 28.89821,-20.62201 43.35325,-30.92465 -11.68448,-8.63271 -23.3772,-17.25438 -35.07128,-25.87411 -0.0565,0.39922 -0.11299,0.79844 -0.16948,1.19766 z"
         style="fill:#62c7e3;fill-opacity:1;stroke:none" />
      <path
         inkscape:connector-curvature="0"
         id="path3378"
         d="m 317.27702,112.3741 c 14.28555,11.27215 28.56971,22.54607 42.85612,33.81713 24.00134,-8.31209 48.06402,-16.47257 72.02137,-24.89607 3.46676,-1.09759 -2.04905,-1.12144 -3.36215,-1.31575 -37.79695,-3.02884 -75.59412,-6.05482 -113.39092,-9.08545 0.62519,0.49339 1.25039,0.98676 1.87558,1.48014 z"
         style="fill:#64327c;fill-opacity:1;stroke:none" />
      <path
         inkscape:connector-curvature="0"
         id="path3382"
         d="m 418.45723,84.42101 c -33.73968,8.96389 -67.53207,17.77901 -101.23882,26.83585 -3.6663,0.98682 1.21918,1.38159 2.6165,1.44866 37.22038,2.98131 74.44056,5.96509 111.66107,8.94484 3.04764,-2.5202 6.11227,-5.02003 9.16327,-7.53626 -7.23321,-9.9458 -14.47946,-19.88233 -21.72747,-29.81737 l -0.34976,0.0916 -0.12479,0.0327 z"
         style="fill:#56217b;fill-opacity:1;stroke:none" />
      <path
         inkscape:connector-curvature="0"
         id="path3386"
         d="m 388.82064,48.03908 c -14.3679,18.96331 -28.73851,37.92455 -43.10469,56.88915 24.72401,-6.46818 49.45198,-12.9213 74.17622,-19.38864 -10.16249,-12.75005 -20.33979,-25.48831 -30.50659,-38.23493 -0.18832,0.24481 -0.37663,0.48961 -0.56494,0.73442 z"
         style="fill:#003bcb;fill-opacity:1;stroke:none" />
      <path
         inkscape:connector-curvature="0"
         id="path3398"
         d="m 336.97073,53.07831 c -4.93954,13.45713 -10.21247,26.80703 -14.94671,40.33017 -1.77226,6.47687 -3.56201,12.949 -5.32323,19.42886 10.56595,-2.86758 21.13119,-5.73809 31.69296,-8.62093 -3.50233,-17.84599 -7.01475,-35.69005 -10.53043,-53.53343 -0.29753,0.79845 -0.59506,1.59689 -0.89259,2.39533 z"
         style="fill:#00bbe7;fill-opacity:1;stroke:none" />
      <path
         inkscape:connector-curvature="0"
         id="path3400"
         d="m 389.32908,47.75661 c -17.51289,1.64373 -35.02705,3.27424 -52.53914,4.92624 3.44653,17.57917 6.90702,35.15572 10.37225,52.73122 14.60739,-19.26382 29.20109,-38.53804 43.8052,-57.80435 -0.5461,0.049 -1.09221,0.098 -1.63831,0.14689 z"
         style="fill:#0058a7;fill-opacity:1;stroke:none" />
      <path
         inkscape:connector-curvature="0"
         id="path3402"
         d="m 360.30263,24.79757 c -8.11002,9.80248 -16.2095,19.61369 -24.32619,29.41062 17.78134,-1.65505 35.56075,-3.33093 53.34134,-4.99404 2.80318,1.18088 3.72226,0.45915 1.02741,-1.39951 -9.86357,-7.85311 -19.72694,-15.70645 -29.59062,-23.55941 l -0.23146,0.27776 -0.22048,0.26458 z"
         style="fill:#5e7bcb;fill-opacity:1;stroke:none" />
      <path
         inkscape:connector-curvature="0"
         id="path3404"
         d="m 359.6021,26.56017 c -8.68488,0.83059 -17.68379,1.02518 -26.48941,1.61121 -7.20689,0.3966 -14.41362,0.79625 -21.62063,1.19088 8.73842,8.33772 17.47793,16.67428 26.21308,25.01541 7.49551,-8.74517 14.98139,-17.49863 22.47319,-26.24697 3.38417,1.08722 0.52181,-2.70017 -0.54098,-1.61126 l -0.0352,0.0408 z"
         style="fill:#a5a5d3;fill-opacity:1;stroke:none" />
      <path
         inkscape:connector-curvature="0"
         id="path3406"
         d="m 221.79138,42.64958 c 6.49517,3.98107 13.59933,6.91668 20.33899,10.47803 8.52525,4.1473 16.99994,8.69438 25.55649,12.59399 23.46439,-3.97015 46.99482,-7.71619 70.41798,-11.82631 3.40057,-0.99251 -1.96697,-1.52666 -3.26964,-1.54621 -37.03753,-3.24318 -74.07205,-6.60927 -111.11146,-9.77565 -0.64412,0.0254 -1.28824,0.0508 -1.93236,0.0762 z"
         style="fill:#bcff00;fill-opacity:1;stroke:none" />
      <path
         inkscape:connector-curvature="0"
         id="path3408"
         d="m 337.52437,52.61507 c -23.84431,3.97216 -47.687,7.95417 -71.53232,11.92017 7.53726,6.97054 15.07759,13.93778 22.62008,20.90266 16.73808,-10.75125 33.64015,-21.27204 50.27269,-32.17216 2.47206,-1.38539 -0.47358,-0.51787 -1.36045,-0.65067 z"
         style="fill:#ffff00;stroke:none" />
      <path
         inkscape:connector-curvature="0"
         id="path3410"
         d="m 315.11896,29.71252 c -30.40113,4.28599 -60.80228,8.57198 -91.20342,12.85797 -3.76218,0.9067 0.9907,1.70773 2.55499,1.65779 37.68843,3.32932 75.37609,6.66736 113.06501,9.9912 C 331.5212,46.02777 323.50355,37.8392 315.48052,29.65603 l -0.35722,0.0558 -0.004,7.2e-4 z"
         style="fill:#66cc33;stroke:none" />
      <path
         inkscape:connector-curvature="0"
         id="path3412"
         d="m 210.58303,9.815443 c 3.22501,2.938562 7.62514,4.219257 11.3464,6.457702 14.74747,7.625245 29.49757,15.245445 44.24339,22.873825 11.44065,-1.62066 22.95796,-2.82518 34.35299,-4.68936 1.7662,-0.59729 -3.29663,-1.49002 -4.44401,-1.9275 -27.86309,-7.58285 -55.72619,-15.165708 -83.58928,-22.748562 -0.6365,0.01128 -1.27299,0.02259 -1.90949,0.03388 z"
         style="fill:#009900;stroke:none" />
      <path
         inkscape:connector-curvature="0"
         id="path3414"
         d="m 211.7581,10.967915 c 9.28133,10.412495 18.55232,20.834345 27.84009,31.241015 9.71829,-1.10477 19.4333,-2.24218 29.15075,-3.35573 -18.94422,-9.72783 -37.79028,-19.68468 -56.8024,-29.256771 -2.80893,-1.271674 -0.72779,0.08623 -0.18844,1.371486 z"
         style="fill:#00d96c;fill-opacity:1;stroke:none" />
      <path
         inkscape:connector-curvature="0"
         id="path3416"
         d="m 186.52802,-2.183817 c -3.93155,9.905392 -7.86642,19.809465 -11.79588,29.715677 17.68232,-0.49257 35.36493,-0.97587 53.04758,-1.45753 C 214.14247,16.372002 200.504,6.671415 186.86698,-3.031223 c -0.11299,0.282469 -0.22598,0.564938 -0.33896,0.847406 z"
         style="fill:#4dd1ff;fill-opacity:1;stroke:none" />
      <path
         inkscape:connector-curvature="0"
         id="path3418"
         d="m 225.57646,24.68459 c -17.30968,0.47386 -34.61922,0.95333 -51.92901,1.42363 9.53319,6.87979 19.06892,13.75612 28.59711,20.64281 8.43804,-7.38525 16.89786,-14.74581 25.34307,-22.12294 -0.67039,0.0189 -1.34078,0.0376 -2.01117,0.0565 z"
         style="fill:#a8fee7;fill-opacity:1;stroke:none" />
      <path
         inkscape:connector-curvature="0"
         id="path3420"
         d="m 225.12451,24.86536 c -8.38406,7.3136 -16.76471,14.63112 -25.15099,21.94216 13.79711,-1.58864 27.59317,-3.18746 41.38728,-4.80197 -5.23212,-5.87086 -10.46091,-11.74469 -15.69396,-17.61473 l -0.27209,0.23809 -0.27024,0.23645 z"
         style="fill:#33ccca;fill-opacity:1;stroke:none" />
      <path
         inkscape:connector-curvature="0"
         id="path3422"
         d="m 186.77659,-1.325113 c 12.92968,9.119677 25.7394,18.467108 38.7439,27.444763 3.08228,1.57984 -0.37949,-2.50996 -1.30329,-3.3574 -3.88081,-4.28991 -7.65348,-8.719892 -11.6004,-12.924209 -8.49949,-4.110513 -16.90778,-8.51832 -25.46399,-12.443968 -2.10709,-0.54717 -1.2731,0.0014 -0.37622,1.280814 z"
         style="fill:#0083d7;stroke:none" />
      <path
         inkscape:connector-curvature="0"
         id="path3424"
         d="m 186.75399,-2.488883 c -11.42913,8.741666 -22.9596,17.391702 -34.32557,26.190473 -2.04858,3.2881 -4.10007,6.57438 -6.14651,9.8638 10.01777,-2.05473 20.03666,-4.10412 30.05464,-6.15781 4.14799,-10.494287 8.32494,-20.977409 12.48511,-31.466988 -0.68923,0.523509 -1.37845,1.047016 -2.06767,1.570525 z"
         style="fill:#0099ff;stroke:none" />
      <path
         inkscape:connector-curvature="0"
         id="path3426"
         d="m 175.65863,26.06303 c -9.76916,2.00599 -19.5422,3.99322 -29.30893,6.01093 4.2232,4.35278 8.43155,8.72007 12.64329,13.08394 15.18157,0.49432 30.36371,0.97231 45.54522,1.46883 -9.51768,-6.8781 -19.04395,-13.74431 -28.56322,-20.62019 l -0.31636,0.0565 z"
         style="fill:#508bff;fill-opacity:1;stroke:none" />
      <path
         inkscape:connector-curvature="0"
         id="path3444"
         d="m 463.61829,63.83471 c -1.46762,0.94127 -0.4663,4.229 -0.96384,6.09254 -0.2504,4.42455 -0.50766,8.84871 -0.75356,13.2735 29.17185,-8.79632 58.35508,-17.55537 87.53132,-26.33736 3.48802,-1.51518 -1.32909,-1.53867 -2.79001,-1.16547 -27.67464,2.71226 -55.34927,5.42453 -83.02391,8.13679 z"
         style="fill:#9b2700;fill-opacity:1;stroke:none" />
      <path
         inkscape:connector-curvature="0"
         id="path3446"
         d="M 611.23632,3.781917 C 590.49937,21.15185 569.76241,38.52178 549.02546,55.8917 c -2.55347,2.77832 1.87485,0.87027 3.02289,-0.0682 C 575.80231,42.25882 599.56811,28.71466 623.31469,15.137159 619.455,11.21191 615.6109,7.271304 611.74478,3.352525 l -0.27627,0.23327 -0.23219,0.196082 z"
         style="fill:#666699;stroke:none" />
      <path
         inkscape:connector-curvature="0"
         id="path3448"
         d="m 469.67441,39.23736 c -2.36724,8.75698 -4.74863,17.51018 -7.1069,26.26957 29.22086,-8.31976 58.51114,-16.47586 87.68076,-24.92589 3.39749,-1.29966 -2.02815,-1.33418 -3.39208,-1.27594 -25.6783,-0.19812 -51.35656,-0.40803 -77.03489,-0.59878 l -0.0964,0.34848 -0.0505,0.18256 z"
         style="fill:#a70000;fill-opacity:1;stroke:none" />
      <path
         inkscape:connector-curvature="0"
         id="path3450"
         d="m 611.33802,3.714125 c -20.77065,11.973268 -41.543,23.943565 -62.31256,35.918695 -0.10407,6.12747 -0.18929,12.25536 -0.28247,18.38305 21.13579,-17.71384 42.28058,-35.41696 63.41982,-53.126677 0.75006,-1.60403 2.09542,-1.87807 -0.82479,-1.175068 z"
         style="fill:#996600;stroke:none" />
      <path
         inkscape:connector-curvature="0"
         id="path3452"
         d="m 611.56399,3.623735 c -20.17962,3.818666 -40.35876,7.639794 -60.53866,11.456921 -0.70991,8.760134 -1.41071,17.521014 -2.12415,26.280864 21.13685,-12.22508 42.35898,-24.326884 63.44043,-36.632671 1.50571,-1.438147 2.30063,-1.179346 -0.77762,-1.105114 z"
         style="fill:#ff4706;fill-opacity:1;stroke:none" />
      <path
         inkscape:connector-curvature="0"
         id="path3454"
         d="M 551.46599,15.001565 C 528.03626,22.99051 504.54134,30.83007 481.15232,38.9123 c -3.56514,1.2407 1.33825,1.29509 2.71322,1.26007 22.17944,0.20602 44.35904,0.39839 66.53836,0.61292 0.70846,-8.71099 1.40417,-17.42302 2.11287,-26.133986 -0.35027,0.116755 -0.70052,0.233506 -1.05078,0.350261 z"
         style="fill:#fbb800;fill-opacity:1;stroke:none" />
      <path
         inkscape:connector-curvature="0"
         id="path3456"
         d="m 609.32681,-6.330455 c -19.29069,7.114439 -38.5814,14.22888 -57.87212,21.343318 -3.28281,1.797877 1.5072,1.429358 2.87093,0.919085 19.41096,-3.672976 38.8213,-7.349235 58.23267,-11.020157 -0.80559,-3.847758 -1.62659,-7.692417 -2.45185,-11.536012 -0.25989,0.09792 -0.51974,0.195845 -0.77963,0.293766 z"
         style="fill:#bd5ff5;fill-opacity:1;stroke:none" />
      <path
         inkscape:connector-curvature="0"
         id="path3491"
         d="m 640.44357,-29.04092 c -2.95148,0.973221 -6.27352,1.262783 -9.01324,2.626724 -7.54948,6.832986 -15.09219,13.673488 -22.64586,20.501795 0.82353,3.934506 1.66173,7.866211 2.50836,11.795883 10.48606,-11.840319 20.95784,-23.693343 31.45568,-35.523235 -0.76835,0.19961 -1.53666,0.399223 -2.30494,0.598833 z"
         style="fill:#f846ff;fill-opacity:1;stroke:none" />
      <path
         inkscape:connector-curvature="0"
         id="path3458"
         d="m 647.87811,-1.370308 c -12.5681,1.727446 -25.13487,3.465035 -37.70388,5.186121 3.94929,4.027583 7.89404,8.059725 11.85237,12.078352 9.22931,-5.714049 18.70655,-11.059101 27.77739,-17.0091 1.38069,-0.72514 -1.52043,-0.132533 -1.92588,-0.255373 z"
         style="fill:#9999cc;stroke:none" />
      <path
         inkscape:connector-curvature="0"
         id="path3460"
         d="m 641.44914,-30.56625 c -10.63979,12.169632 -21.436,24.205761 -31.97542,36.461031 16.34017,-6.26871 32.53548,-12.920728 48.82186,-19.332142 -5.4423,-5.909473 -10.88536,-11.818315 -16.31538,-17.739021 -0.17702,0.203378 -0.35404,0.406755 -0.53106,0.610132 z"
         style="fill:#0083d7;fill-opacity:1;stroke:none" />
      <path
         inkscape:connector-curvature="0"
         id="path3462"
         d="m 659.95647,-36.588478 c -3.68255,2.095503 -7.37411,4.175197 -11.05015,6.282099 10.97513,2.378097 21.89901,5.141538 32.90156,7.299578 3.07322,0.288681 -1.93457,-2.33511 -3.01269,-2.986645 -6.15853,-3.600356 -12.32113,-7.193772 -18.47715,-10.798409 l -0.31513,0.177258 -0.0465,0.02611 z"
         style="fill:#99ccff;stroke:none" />
      <path
         inkscape:connector-curvature="0"
         id="path3464"
         d="m 647.04204,-32.905089 c -1.74445,1.460502 -3.48266,2.928514 -5.23134,4.383911 5.0042,5.180028 9.9873,10.380565 14.98214,15.569662 6.10507,-0.961658 12.29234,-1.714346 18.34914,-2.790788 3.85246,-2.821507 7.70882,-5.637637 11.5586,-8.462756 -13.12939,-2.974172 -26.25809,-5.951401 -39.38737,-8.926004 l -0.27117,0.225975 z"
         style="fill:#4ab7ff;fill-opacity:1;stroke:none" />
      <path
         inkscape:connector-curvature="0"
         id="path3466"
         d="m 664.2274,-17.346725 c -17.9075,7.199379 -35.93223,14.14476 -53.76077,21.517213 -2.63346,1.166248 2.94942,0.80779 4.102,0.956781 6.3709,0.02582 12.81917,0.550323 19.14361,0.276489 9.57337,-3.307418 19.14296,-6.625928 28.71865,-9.926414 1.02798,-4.447983 2.04577,-8.898349 3.08457,-13.343811 -0.42935,0.173248 -0.85871,0.346494 -1.28806,0.519742 z"
         style="fill:#816fff;fill-opacity:1;stroke:none" />
      <path
         inkscape:connector-curvature="0"
         id="path3483"
         d="m 249.3264,258.80576 c 1.80027,5.12962 3.60053,10.25925 5.40081,15.38887 -2.92342,7.73181 -5.84021,15.46612 -8.76782,23.19632 11.40989,-4.03946 22.80983,-8.10723 34.22387,-12.13485 -10.58745,-9.66622 -21.10604,-19.40841 -31.72686,-29.03776 0.29001,0.86247 0.58001,1.72495 0.87,2.58742 z"
         style="fill:#ffea00;fill-opacity:1;stroke:none" />
      <path
         inkscape:connector-curvature="0"
         id="path3485"
         d="m 99.957074,357.29686 c -5.028244,7.0163 -10.053988,14.03439 -15.083814,21.04955 34.86552,11.06518 69.73622,22.11416 104.60373,33.1731 3.67303,0.13824 -1.08142,-2.2734 -2.49617,-2.63211 -26.19076,-11.16709 -52.38152,-22.33417 -78.57229,-33.50126 -2.56005,-6.38795 -5.12829,-12.77262 -7.68314,-19.16266 -0.2561,0.3578 -0.51221,0.7156 -0.768316,1.07338 z"
         style="fill:#ff794b;stroke:none" />
      <path
         inkscape:connector-curvature="0"
         id="path3487"
         d="m 82.99767,344.05475 c 0.816759,11.98799 1.637741,23.9757 2.451825,35.96388 5.311409,-7.41126 10.623751,-14.82186 15.931225,-22.23592 -1.835515,-3.72033 -3.683066,-7.43508 -5.502488,-11.16315 -4.314639,-1.19917 -8.632201,-2.38795 -12.948355,-3.5817 0.02259,0.33895 0.0452,0.67792 0.06779,1.01689 z"
         style="fill:#6666cc;stroke:none" />
      <path
         inkscape:connector-curvature="0"
         id="path3493"
         d="m 524.01006,218.59355 c -18.07616,18.64844 -36.16695,37.28281 -54.23396,55.94005 14.09215,5.93692 28.17687,11.89149 42.26859,17.82941 4.53203,-25.15589 9.0815,-50.30865 13.61498,-75.46428 -0.54988,0.56494 -1.09975,1.12987 -1.64961,1.69482 z"
         style="fill:#00ced7;fill-opacity:1;stroke:none" />
      <path
         inkscape:connector-curvature="0"
         id="path3495"
         d="m 754.86589,295.97861 c -7.46407,3.26672 -14.93324,6.52188 -22.3941,9.796 7.27826,4.54285 14.5604,9.07961 21.82916,13.63758 0.56566,-7.9685 1.1114,-15.93848 1.66093,-23.90813 -0.36535,0.15819 -0.73068,0.31637 -1.09599,0.47455 z"
         style="fill:#0ccae7;fill-opacity:1;stroke:none" />
      <path
         inkscape:connector-curvature="0"
         id="path3497"
         d="m 278.56754,284.29571 c -10.97503,3.89375 -21.94849,7.79194 -32.92453,11.6829 21.89561,15.5255 43.65472,31.25488 65.62959,46.66139 1.90707,1.12627 -1.28129,-3.32892 -1.77067,-4.54022 -10.12479,-18.00154 -20.23642,-36.01058 -30.36945,-54.00744 l -0.34019,0.12246 -0.22475,0.0809 z"
         style="fill:#ffcc00;stroke:none" />
      <path
         inkscape:connector-curvature="0"
         id="path3499"
         d="m 12.324057,359.22895 c -3.3795415,2.12848 -6.999777,4.03081 -10.2366579,6.2934 -1.09974507,2.19948 -2.19948656,4.39897 -3.2992317,6.59846 2.8415189,2.3696 5.4561086,5.30243 8.4175605,7.35547 26.3937781,-0.32257 52.8179601,-0.41427 79.1927531,-0.881 3.516581,-0.45423 -1.714899,-1.80678 -3.000085,-2.02703 -23.604974,-5.82811 -47.208741,-11.66116 -70.814468,-17.48619 l -0.259871,0.14689 z"
         style="fill:#0099ff;stroke:none" />
      <path
         inkscape:connector-curvature="0"
         id="path3501"
         d="m 549.5339,39.35035 c -28.5971,8.13885 -57.19422,16.27772 -85.79132,24.41657 -3.46395,1.5005 1.35489,1.56007 2.79103,1.18733 27.88873,-2.6203 55.77941,-5.22107 83.66692,-7.85358 0.0923,-6.00337 0.18715,-12.00671 0.27116,-18.01019 -0.31259,0.0866 -0.62519,0.17325 -0.93779,0.25987 z"
         style="fill:#d75000;fill-opacity:1;stroke:none" />
      <path
         inkscape:connector-curvature="0"
         id="path3146"
         d="m 500.68945,-19.62907 c -18.56097,20.513922 -37.11455,41.03454 -55.68018,61.54423 20.17864,-6.95208 40.34125,-13.95071 60.51605,-20.91396 -1.2328,-13.951034 -2.48596,-27.900344 -3.72859,-41.850534 -0.36909,0.406754 -0.73819,0.81351 -1.10728,1.220264 z"
         style="fill:#1e74fe;fill-opacity:1;stroke:none" />
      <path
         inkscape:connector-curvature="0"
         id="path3148"
         d="m 418.88659,-74.879904 c 9.42203,39.075074 18.85298,78.148005 28.26944,117.224424 14.15856,-26.30712 28.34875,-52.597261 42.51715,-78.899101 -10.96318,-11.423492 -21.92296,-22.850353 -32.87933,-34.280375 -12.71837,-1.692742 -25.43959,-3.364855 -38.15584,-5.073133 0.0828,0.342729 0.16572,0.685455 0.24858,1.028185 z"
         style="fill:#ec1dc3;fill-opacity:1;stroke:none" />
      <path
         inkscape:connector-curvature="0"
         id="path3150"
         d="m 419.44022,-75.761206 c -10.17657,2.257047 -20.49299,4.147494 -30.58309,6.631239 -6.63651,3.662817 -13.08778,7.766674 -19.83856,11.157456 -4.94603,1.401593 -9.89692,2.786212 -14.83987,4.198651 31.5169,32.162713 63.02536,64.333809 94.55916,96.47994 -9.54922,-39.534866 -19.08493,-79.07316 -28.60841,-118.614169 l -0.35362,0.07536 -0.33561,0.07152 z"
         style="fill:#ff5252;fill-opacity:1;stroke:none" />
      <path
         inkscape:connector-curvature="0"
         id="path3152"
         d="m 354.82274,-53.367105 c 1.77808,26.3298 3.55286,52.659828 5.333,78.989485 9.67451,7.87265 19.35023,15.74382 29.02646,23.61436 19.91597,-2.79403 39.83016,-5.60108 59.74773,-8.38366 -31.40343,-32.065034 -62.814,-64.123392 -94.24278,-96.163568 0.0452,0.647796 0.0903,1.295588 0.13559,1.943383 z"
         style="fill:#efc000;fill-opacity:1;stroke:none" />
      <path
         inkscape:connector-curvature="0"
         id="path3156"
         d="m 446.80577,39.93789 c -10.01633,15.59723 -20.04803,31.18462 -30.05465,46.78807 15.83649,-6.85213 31.67903,-13.6904 47.5112,-20.55241 -5.58745,-9.08038 -11.19621,-18.14756 -16.83512,-27.19606 -0.20714,0.32013 -0.41429,0.64026 -0.62143,0.9604 z"
         style="fill:#85cb00;fill-opacity:1;stroke:none" />
      <path
         inkscape:connector-curvature="0"
         id="path3160"
         d="m 462.92907,65.17927 c -15.13654,6.54573 -30.27308,13.09149 -45.40963,19.6372 7.42677,10.19815 14.85376,20.39622 22.2924,30.58569 3.58559,-7.35697 6.86487,-14.95493 10.6597,-22.15293 4.53934,-3.84038 9.08725,-7.67076 13.62129,-11.51731 -0.0497,-5.66071 -0.11355,-11.32134 -0.16947,-16.98201 -0.33144,0.14312 -0.66286,0.28624 -0.99429,0.42936 z"
         style="fill:#450095;fill-opacity:1;stroke:none" />
      <path
         inkscape:connector-curvature="0"
         id="path3396"
         d="m 337.2645,52.71675 c -18.03716,11.49365 -36.06952,22.99484 -54.10967,34.48376 11.63912,8.59903 23.28479,17.18938 34.9357,25.77242 6.98612,-20.44802 13.95017,-40.90391 20.90267,-61.36345 -0.57624,0.36909 -1.15247,0.73818 -1.7287,1.10727 z"
         style="fill:#3b88b6;fill-opacity:1;stroke:none" />
      <path
         inkscape:connector-curvature="0"
         id="path3162"
         d="m 485.61694,-32.057683 c -12.94549,24.145209 -26.11607,48.203378 -38.92097,72.402943 -1.25538,3.27418 2.41627,-0.65619 3.19116,-1.67133 15.71195,-17.36492 31.40894,-34.743719 47.13023,-52.099993 -0.38406,-5.457294 -0.77214,-10.914317 -1.15247,-16.371873 -3.32767,-0.915157 -6.64726,-1.859913 -9.97679,-2.76819 l -0.17014,0.319021 -0.10102,0.189422 z"
         style="fill:#887bde;fill-opacity:1;stroke:none" />
      <path
         inkscape:connector-curvature="0"
         id="path3938"
         d="m 447.31421,39.62151 c -19.75803,2.76979 -39.51367,5.55691 -59.27319,8.31588 10.2188,12.81123 20.4418,25.61912 30.66478,38.42701 10.05067,-15.65962 20.12537,-31.30387 30.16763,-46.96886 -0.51974,0.0753 -1.03948,0.15065 -1.55922,0.22597 z"
         style="fill:#fbff1e;fill-opacity:1;stroke:none" />
      <path
         inkscape:connector-curvature="0"
         id="path3940"
         d="m 468.79311,32.17565 c -7.49141,2.59015 -14.98004,5.18843 -22.47319,7.77353 5.7229,9.21146 11.42543,18.43575 17.12889,27.65931 2.87234,-9.28148 5.09704,-18.77746 8.56444,-27.86268 -0.84493,-2.60459 -1.67802,-5.21306 -2.51961,-7.81874 -0.23351,0.0828 -0.46702,0.16572 -0.70053,0.24858 z"
         style="fill:#00d1d1;fill-opacity:1;stroke:none" />
    </g>
  </g>
</svg>
