<?xml version="1.0" encoding="UTF-8" standalone="no"?>
<!-- Created with Inkscape (http://www.inkscape.org/) -->

<svg
   xmlns:dc="http://purl.org/dc/elements/1.1/"
   xmlns:cc="http://creativecommons.org/ns#"
   xmlns:rdf="http://www.w3.org/1999/02/22-rdf-syntax-ns#"
   xmlns:svg="http://www.w3.org/2000/svg"
   xmlns="http://www.w3.org/2000/svg"
   xmlns:sodipodi="http://sodipodi.sourceforge.net/DTD/sodipodi-0.dtd"
   xmlns:inkscape="http://www.inkscape.org/namespaces/inkscape"
   id="svg2"
   version="1.1"
   inkscape:version="0.48.4 r9939"
   width="48"
   height="48"
   sodipodi:docname="vpn_progress.svg"
   inkscape:export-filename="/home/elijah/dev/leap/leap_assets/svg/android/vpn_connected-2.png"
   inkscape:export-xdpi="90"
   inkscape:export-ydpi="90">
  <metadata
     id="metadata8">
    <rdf:RDF>
      <cc:Work
         rdf:about="">
        <dc:format>image/svg+xml</dc:format>
        <dc:type
           rdf:resource="http://purl.org/dc/dcmitype/StillImage" />
        <dc:title />
      </cc:Work>
    </rdf:RDF>
  </metadata>
  <defs
     id="defs6" />
  <sodipodi:namedview
     pagecolor="#ffffff"
     bordercolor="#666666"
     borderopacity="1"
     objecttolerance="10"
     gridtolerance="10"
     guidetolerance="10"
     inkscape:pageopacity="0"
     inkscape:pageshadow="2"
     inkscape:window-width="1920"
     inkscape:window-height="1056"
     id="namedview4"
     showgrid="false"
     inkscape:zoom="19.666667"
     inkscape:cx="8.1895922"
     inkscape:cy="18.222822"
     inkscape:window-x="1920"
     inkscape:window-y="24"
     inkscape:window-maximized="1"
     inkscape:current-layer="svg2" />
  <path
     style="fill:#ffffff;fill-opacity:1;stroke:none"
     d="M 12.1875 12.3125 C 5.4652594 12.3125 0 17.760254 0 24.5 C 0 31.239746 5.4652594 36.71875 12.1875 36.71875 C 17.492597 36.71875 21.989472 33.309926 23.65625 28.5625 L 32.15625 28.46875 L 33.90625 26.375 L 35.0625 26.34375 L 36.90625 28.53125 L 38.125 28.5 L 40.1875 26.1875 L 41.3125 26.1875 L 43 28.40625 L 45.84375 28.40625 L 48 24.4375 L 45.21875 20.34375 L 23.625 20.34375 C 21.927465 15.65398 17.451439 12.3125 12.1875 12.3125 z M 12.21875 15.6875 C 17.099449 15.6875 21.03125 19.650551 21.03125 24.53125 C 21.03125 29.411949 17.099449 33.375 12.21875 33.375 C 7.3380505 33.375 3.375 29.411949 3.375 24.53125 C 3.375 19.650551 7.3380505 15.6875 12.21875 15.6875 z "
     id="path3017" />
  <path
     style="fill:#ffffff;stroke:#ffffff;stroke-width:2.50000000000000000;stroke-linecap:butt;stroke-linejoin:miter;stroke-miterlimit:4;stroke-opacity:1;stroke-dasharray:none;marker-start:none;fill-opacity:1"
     d="m 12.177989,17.872882 -5.3e-5,6.762719 -3.5593143,3.559314"
     id="path2987"
     inkscape:connector-curvature="0"
     sodipodi:nodetypes="ccc" />
</svg>
