<?xml version="1.0" encoding="UTF-8" standalone="no"?>
<!-- Created with Inkscape (http://www.inkscape.org/) -->

<svg
   xmlns:dc="http://purl.org/dc/elements/1.1/"
   xmlns:cc="http://creativecommons.org/ns#"
   xmlns:rdf="http://www.w3.org/1999/02/22-rdf-syntax-ns#"
   xmlns:svg="http://www.w3.org/2000/svg"
   xmlns="http://www.w3.org/2000/svg"
   xmlns:sodipodi="http://sodipodi.sourceforge.net/DTD/sodipodi-0.dtd"
   xmlns:inkscape="http://www.inkscape.org/namespaces/inkscape"
   width="64"
   height="64"
   id="svg2"
   version="1.1"
   inkscape:version="0.48.4 r9939"
   sodipodi:docname="arrow-down.svg">
  <defs
     id="defs4" />
  <sodipodi:namedview
     id="base"
     pagecolor="#ffffff"
     bordercolor="#666666"
     borderopacity="1.0"
     inkscape:pageopacity="0.0"
     inkscape:pageshadow="2"
     inkscape:zoom="5.6"
     inkscape:cx="40.706686"
     inkscape:cy="34.818925"
     inkscape:document-units="px"
     inkscape:current-layer="layer1"
     showgrid="true"
     inkscape:window-width="1092"
     inkscape:window-height="850"
     inkscape:window-x="522"
     inkscape:window-y="47"
     inkscape:window-maximized="0">
    <inkscape:grid
       type="xygrid"
       id="grid2985"
       empspacing="4"
       visible="true"
       enabled="true"
       snapvisiblegridlinesonly="true"
       spacingx="4px"
       spacingy="4px" />
  </sodipodi:namedview>
  <metadata
     id="metadata7">
    <rdf:RDF>
      <cc:Work
         rdf:about="">
        <dc:format>image/svg+xml</dc:format>
        <dc:type
           rdf:resource="http://purl.org/dc/dcmitype/StillImage" />
        <dc:title></dc:title>
      </cc:Work>
    </rdf:RDF>
  </metadata>
  <g
     inkscape:label="Layer 1"
     inkscape:groupmode="layer"
     id="layer1"
     transform="translate(0,-988.36218)">
    <rect
       style="fill:#ffffff;fill-opacity:1;stroke:none"
       id="rect3207"
       width="28"
       height="26.214285"
       x="16"
       y="1010.1479"
       ry="1.4101696" />
    <g
       transform="matrix(0.72916668,0,0,0.72916668,-63.601465,400.10317)"
       style="font-size:72px;font-style:normal;font-variant:normal;font-weight:normal;font-stretch:normal;text-align:start;line-height:125%;letter-spacing:0px;word-spacing:0px;writing-mode:lr-tb;text-anchor:start;fill:#000000;fill-opacity:1;stroke:none;font-family:FontAwesome;-inkscape-font-specification:FontAwesome"
       id="text3033">
      <path
         inkscape:connector-curvature="0"
         d="m 144.13915,854.6205 c -5e-5,-0.37497 -0.12059,-0.68301 -0.36161,-0.92411 -0.24112,-0.24104 -0.54915,-0.36158 -0.9241,-0.3616 l -9,0 0,-14.14286 c -5e-5,-0.34817 -0.13397,-0.64282 -0.40179,-0.88393 -0.24111,-0.26782 -0.53575,-0.40174 -0.88393,-0.40178 l -7.71428,0 c -0.34825,4e-5 -0.65629,0.13396 -0.92411,0.40178 -0.2411,0.24111 -0.36164,0.53576 -0.36161,0.88393 l 0,14.14286 -9,0 c -0.34823,2e-5 -0.65627,0.13395 -0.92411,0.40178 -0.24109,0.2411 -0.36162,0.53574 -0.3616,0.88393 -2e-5,0.37502 0.12051,0.68306 0.3616,0.92411 l 14.14286,14.14286 c 0.24104,0.24108 0.54907,0.36161 0.92411,0.3616 0.37496,10e-6 0.683,-0.12052 0.92411,-0.3616 l 14.10267,-14.10268 c 0.26781,-0.32141 0.40174,-0.64284 0.40179,-0.96429 m 25.71429,9 c -8e-5,4.25894 -1.51347,7.90179 -4.54018,10.92857 -3.00007,3 -6.62953,4.5 -10.8884,4.5 l -43.71428,0 c -4.95537,0 -9.2009,-1.75446 -12.736608,-5.26339 -3.508931,-3.53571 -5.263393,-7.78124 -5.263393,-12.73661 0,-3.48212 0.937499,-6.6964 2.8125,-9.64285 1.874995,-2.9464 4.39285,-5.15622 7.553571,-6.62947 -0.0536,-0.80354 -0.0804,-1.37943 -0.0804,-1.72768 -1e-5,-5.67853 2.00892,-10.52674 6.02679,-14.54464 4.01784,-4.0178 8.86605,-6.02673 14.54464,-6.02679 4.17854,6e-5 7.9955,1.16524 11.45089,3.49554 3.4821,2.33041 6.01335,5.42415 7.59375,9.28125 1.90174,-1.66067 4.12495,-2.49103 6.66965,-2.49107 2.83922,4e-5 5.26333,1.00451 7.27232,3.01339 2.00886,2.00897 3.01332,4.43308 3.01339,7.27232 -7e-5,2.03575 -0.54917,3.88396 -1.64732,5.54465 3.48207,0.83038 6.33475,2.65181 8.55804,5.46428 2.24992,2.78574 3.37492,5.97323 3.375,9.5625"
         id="path3156" />
    </g>
  </g>
</svg>
