<?xml version="1.0" encoding="UTF-8" standalone="no"?>
<!-- Created with Inkscape (http://www.inkscape.org/) -->

<svg
   xmlns:dc="http://purl.org/dc/elements/1.1/"
   xmlns:cc="http://creativecommons.org/ns#"
   xmlns:rdf="http://www.w3.org/1999/02/22-rdf-syntax-ns#"
   xmlns:svg="http://www.w3.org/2000/svg"
   xmlns="http://www.w3.org/2000/svg"
   xmlns:sodipodi="http://sodipodi.sourceforge.net/DTD/sodipodi-0.dtd"
   xmlns:inkscape="http://www.inkscape.org/namespaces/inkscape"
   id="svg2"
   version="1.1"
   inkscape:version="0.48.4 r9939"
   width="48"
   height="48"
   sodipodi:docname="vpn_connected.svg"
   inkscape:export-filename="/home/elijah/dev/leap/leap_assets/svg/android/vpn_connected-2.png"
   inkscape:export-xdpi="90"
   inkscape:export-ydpi="90">
  <metadata
     id="metadata8">
    <rdf:RDF>
      <cc:Work
         rdf:about="">
        <dc:format>image/svg+xml</dc:format>
        <dc:type
           rdf:resource="http://purl.org/dc/dcmitype/StillImage" />
        <dc:title />
      </cc:Work>
    </rdf:RDF>
  </metadata>
  <defs
     id="defs6" />
  <sodipodi:namedview
     pagecolor="#ffffff"
     bordercolor="#666666"
     borderopacity="1"
     objecttolerance="10"
     gridtolerance="10"
     guidetolerance="10"
     inkscape:pageopacity="0"
     inkscape:pageshadow="2"
     inkscape:window-width="1867"
     inkscape:window-height="1056"
     id="namedview4"
     showgrid="false"
     inkscape:zoom="19.666667"
     inkscape:cx="17.189592"
     inkscape:cy="18.222822"
     inkscape:window-x="53"
     inkscape:window-y="24"
     inkscape:window-maximized="1"
     inkscape:current-layer="svg2" />
  <path
     style="fill:#ffffff;fill-opacity:1;stroke:none"
     d="m 12,12.3125 c -6.7397464,0 -12.21875,5.447754 -12.21875,12.1875 0,6.739746 5.4790036,12.21875 12.21875,12.21875 5.318912,0 9.828882,-3.408824 11.5,-8.15625 l 8.53125,-0.09375 1.75,-2.09375 1.15625,-0.03125 1.833,2.182795 1.237227,-0.03125 2.054773,-2.307795 1.125,0 1.71875,2.21875 2.84375,0 2.15625,-3.96875 -2.78125,-4.09375 -21.65625,0 C 21.766794,15.65398 17.277647,12.3125 12,12.3125 z m -4.84375,8.90625 c 1.8418396,0 3.34375,1.50191 3.34375,3.34375 0,1.84184 -1.5019104,3.3125 -3.34375,3.3125 -1.8418396,0 -3.34375,-1.47066 -3.34375,-3.3125 0,-1.84184 1.5019104,-3.34375 3.34375,-3.34375 z"
     id="path3017"
     inkscape:connector-curvature="0"
     sodipodi:nodetypes="ssscccccccccccccssssss" />
</svg>
