<?xml version="1.0" encoding="UTF-8" standalone="no"?>
<!-- Created with Inkscape (http://www.inkscape.org/) -->

<svg
   xmlns:dc="http://purl.org/dc/elements/1.1/"
   xmlns:cc="http://creativecommons.org/ns#"
   xmlns:rdf="http://www.w3.org/1999/02/22-rdf-syntax-ns#"
   xmlns:svg="http://www.w3.org/2000/svg"
   xmlns="http://www.w3.org/2000/svg"
   xmlns:sodipodi="http://sodipodi.sourceforge.net/DTD/sodipodi-0.dtd"
   xmlns:inkscape="http://www.inkscape.org/namespaces/inkscape"
   id="svg2"
   version="1.1"
   inkscape:version="0.48.4 r9939"
   width="48"
   height="48"
   sodipodi:docname="vpn_disconnected.svg"
   inkscape:export-filename="/home/elijah/dev/leap/leap_assets/svg/android/vpn_connected-2.png"
   inkscape:export-xdpi="90"
   inkscape:export-ydpi="90">
  <metadata
     id="metadata8">
    <rdf:RDF>
      <cc:Work
         rdf:about="">
        <dc:format>image/svg+xml</dc:format>
        <dc:type
           rdf:resource="http://purl.org/dc/dcmitype/StillImage" />
        <dc:title />
      </cc:Work>
    </rdf:RDF>
  </metadata>
  <defs
     id="defs6" />
  <sodipodi:namedview
     pagecolor="#ffffff"
     bordercolor="#666666"
     borderopacity="1"
     objecttolerance="10"
     gridtolerance="10"
     guidetolerance="10"
     inkscape:pageopacity="0"
     inkscape:pageshadow="2"
     inkscape:window-width="1867"
     inkscape:window-height="1056"
     id="namedview4"
     showgrid="false"
     inkscape:zoom="9.8333335"
     inkscape:cx="56.453492"
     inkscape:cy="26.605287"
     inkscape:window-x="53"
     inkscape:window-y="24"
     inkscape:window-maximized="1"
     inkscape:current-layer="svg2" />
  <path
     style="fill:#ffffff;fill-opacity:1;stroke:none"
     d="M 12.84375 12.34375 L 28.5 28.5 L 32.03125 28.46875 L 33.78125 26.375 L 34.9375 26.34375 L 36.78125 28.53125 L 38 28.5 L 40.0625 26.1875 L 41.1875 26.1875 L 42.90625 28.40625 L 45.75 28.40625 L 47.90625 24.4375 L 45.125 20.34375 L 23.46875 20.34375 C 21.859455 15.909309 17.747276 12.682201 12.84375 12.34375 z M 10.5625 12.40625 C 4.4980481 13.115429 -0.21875 18.246418 -0.21875 24.5 C -0.21875 31.239746 5.2602536 36.71875 12 36.71875 C 17.318912 36.71875 21.828882 33.309926 23.5 28.5625 L 26.1875 28.53125 L 10.5625 12.40625 z M 7.15625 21.21875 C 8.9980896 21.21875 10.5 22.72066 10.5 24.5625 C 10.5 26.40434 8.9980896 27.875 7.15625 27.875 C 5.3144104 27.875 3.8125 26.40434 3.8125 24.5625 C 3.8125 22.72066 5.3144104 21.21875 7.15625 21.21875 z "
     id="path3017" />
  <rect
     style="fill:#ffffff;fill-opacity:1;stroke:none"
     id="rect2982"
     width="48.864407"
     height="1.6779661"
     x="9.6112471"
     y="-2.2709637"
     ry="0"
     transform="matrix(0.69566588,0.71836549,-0.71836549,0.69566588,0,0)" />
</svg>
