<?xml version="1.0" encoding="UTF-8" standalone="no"?>
<!-- Created with Inkscape (http://www.inkscape.org/) -->

<svg
   xmlns:dc="http://purl.org/dc/elements/1.1/"
   xmlns:cc="http://creativecommons.org/ns#"
   xmlns:rdf="http://www.w3.org/1999/02/22-rdf-syntax-ns#"
   xmlns:svg="http://www.w3.org/2000/svg"
   xmlns="http://www.w3.org/2000/svg"
   xmlns:sodipodi="http://sodipodi.sourceforge.net/DTD/sodipodi-0.dtd"
   xmlns:inkscape="http://www.inkscape.org/namespaces/inkscape"
   id="svg2"
   version="1.1"
   inkscape:version="0.48.4 r9939"
   width="48"
   height="48"
   sodipodi:docname="vpn_connected (copy).svg"
   inkscape:export-filename="/home/elijah/dev/leap/leap_assets/svg/android/vpn_connected-2.png"
   inkscape:export-xdpi="90"
   inkscape:export-ydpi="90">
  <metadata
     id="metadata8">
    <rdf:RDF>
      <cc:Work
         rdf:about="">
        <dc:format>image/svg+xml</dc:format>
        <dc:type
           rdf:resource="http://purl.org/dc/dcmitype/StillImage" />
        <dc:title />
      </cc:Work>
    </rdf:RDF>
  </metadata>
  <defs
     id="defs6" />
  <sodipodi:namedview
     pagecolor="#ffffff"
     bordercolor="#666666"
     borderopacity="1"
     objecttolerance="10"
     gridtolerance="10"
     guidetolerance="10"
     inkscape:pageopacity="0"
     inkscape:pageshadow="2"
     inkscape:window-width="1867"
     inkscape:window-height="1056"
     id="namedview4"
     showgrid="false"
     inkscape:zoom="13.906434"
     inkscape:cx="29.443829"
     inkscape:cy="23.002483"
     inkscape:window-x="53"
     inkscape:window-y="24"
     inkscape:window-maximized="1"
     inkscape:current-layer="svg2" />
  <path
     style="fill:#ffffff;fill-opacity:1;stroke:none"
     d="M 13.78125 12.4375 L 28.59375 28.5 L 32.03125 28.46875 L 33.78125 26.375 L 34.9375 26.34375 L 36.78125 28.53125 L 38 28.5 L 40.0625 26.1875 L 41.1875 26.1875 L 42.90625 28.40625 L 45.75 28.40625 L 47.90625 24.4375 L 45.125 20.34375 L 23.46875 20.34375 C 21.962227 16.1925 18.269254 13.093512 13.78125 12.4375 z M 8.28125 12.90625 C 3.3586079 14.476438 -0.21875 19.058748 -0.21875 24.5 C -0.21875 31.239746 5.2602536 36.71875 12 36.71875 C 17.105494 36.71875 21.461648 33.575629 23.28125 29.125 L 8.28125 12.90625 z M 7.15625 21.21875 C 8.9980896 21.21875 10.5 22.72066 10.5 24.5625 C 10.5 26.40434 8.9980896 27.875 7.15625 27.875 C 5.3144104 27.875 3.8125 26.40434 3.8125 24.5625 C 3.8125 22.72066 5.3144104 21.21875 7.15625 21.21875 z "
     id="path3017" />
  <rect
     style="fill:#ffffff;fill-opacity:1;stroke:none"
     id="rect2982"
     width="47.94915"
     height="4.3220339"
     x="9.2002544"
     y="-5.9891815"
     transform="matrix(0.67862571,0.73448427,-0.73448427,0.67862571,0,0)" />
</svg>
