<?xml version="1.0" encoding="UTF-8" standalone="no"?>
<!-- Created with Inkscape (http://www.inkscape.org/) -->

<svg
   xmlns:dc="http://purl.org/dc/elements/1.1/"
   xmlns:cc="http://creativecommons.org/ns#"
   xmlns:rdf="http://www.w3.org/1999/02/22-rdf-syntax-ns#"
   xmlns:svg="http://www.w3.org/2000/svg"
   xmlns="http://www.w3.org/2000/svg"
   xmlns:sodipodi="http://sodipodi.sourceforge.net/DTD/sodipodi-0.dtd"
   xmlns:inkscape="http://www.inkscape.org/namespaces/inkscape"
   id="svg3039"
   version="1.1"
   inkscape:version="0.48.3.1 r9886"
   width="800"
   height="800"
   sodipodi:docname="kid-jumping-bw.svg"
   inkscape:export-filename="/home/elijah/Documents/LEAP/leap.se/kid-jumping-all-color.png"
   inkscape:export-xdpi="28.905836"
   inkscape:export-ydpi="28.905836"
   style="enable-background:new">
  <metadata
     id="metadata3045">
    <rdf:RDF>
      <cc:Work
         rdf:about="">
        <dc:format>image/svg+xml</dc:format>
        <dc:type
           rdf:resource="http://purl.org/dc/dcmitype/StillImage" />
        <dc:title />
      </cc:Work>
    </rdf:RDF>
  </metadata>
  <defs
     id="defs3043" />
  <sodipodi:namedview
     pagecolor="#ffffff"
     bordercolor="#666666"
     borderopacity="1"
     objecttolerance="16"
     gridtolerance="10"
     guidetolerance="10"
     inkscape:pageopacity="0"
     inkscape:pageshadow="2"
     inkscape:window-width="1601"
     inkscape:window-height="991"
     id="namedview3041"
     showgrid="false"
     fit-margin-top="20"
     fit-margin-left="20"
     fit-margin-right="20"
     fit-margin-bottom="20"
     inkscape:zoom="1"
     inkscape:cx="351.25564"
     inkscape:cy="389.61688"
     inkscape:window-x="104"
     inkscape:window-y="33"
     inkscape:window-maximized="0"
     inkscape:current-layer="layer2"
     inkscape:snap-global="false"
     inkscape:object-nodes="true"
     inkscape:snap-smooth-nodes="false"
     inkscape:snap-grids="false"
     inkscape:snap-to-guides="false"
     inkscape:object-paths="true"
     showguides="true"
     inkscape:guide-bbox="true" />
  <g
     inkscape:groupmode="layer"
     id="layer2"
     inkscape:label="background"
     style="display:inline">
    <rect
       transform="translate(20,184.83417)"
       style="fill:#2e3436;fill-opacity:1;stroke:none;display:inline;enable-background:new"
       id="rect3099"
       width="800"
       height="800"
       x="-20"
       y="-184.83417" />
  </g>
  <g
     inkscape:groupmode="layer"
     id="layer4"
     inkscape:label="outline"
     style="display:inline"
     transform="translate(20,184.83417)">
    <path
       style="fill:none;stroke:#ffffff;stroke-width:20;stroke-miterlimit:4;stroke-opacity:1;stroke-dasharray:none;display:inline"
       d="m 230.5088,543.15687 c -5.17955,-1.27766 -8.8483,-3.35882 -14.40702,-8.17264 -2.55608,-2.21353 -6.05612,-5.16108 -7.77786,-6.55009 -1.72174,-1.38902 -5.60985,-6.03767 -8.64025,-10.33031 -5.59735,-7.92886 -10.07251,-11.8129 -19.61908,-17.02758 -2.92398,-1.59718 -5.60902,-3.87004 -5.96678,-5.05081 -0.44272,-1.4613 -1.27044,-1.97701 -2.59205,-1.61496 -1.08718,0.29783 -3.534,-0.60015 -5.56017,-2.04057 -1.9902,-1.41483 -3.8423,-2.57245 -4.11578,-2.57245 -0.71719,0 -14.79413,-11.07793 -24.92022,-19.6111 -4.77489,-4.02374 -10.2387,-8.59435 -12.14182,-10.15689 -1.90308,-1.56252 -4.26873,-3.63527 -5.25696,-4.60607 -3.15346,-3.09779 -20.980995,-15.52195 -27.477479,-19.14929 -3.449722,-1.92617 -6.722374,-4.38319 -7.272508,-5.46006 -0.550158,-1.07688 -1.925456,-1.95794 -3.056211,-1.95794 -1.13078,0 -3.296127,-0.66705 -4.811904,-1.48235 -1.515753,-0.81529 -5.511524,-2.21819 -8.879454,-3.11756 -3.367954,-0.89938 -10.486546,-3.78189 -15.81913,-6.40562 -5.332584,-2.62371 -13.739858,-6.77105 -18.682867,-9.2163 -4.942985,-2.44527 -10.454189,-4.73779 -12.247063,-5.09449 -1.792874,-0.35672 -4.555871,-1.33185 -6.139957,-2.16691 -2.003163,-1.05601 -4.489334,-1.30849 -8.164725,-0.82924 -5.105537,0.66576 -5.431429,0.54687 -9.622012,-3.51047 -2.385652,-2.30977 -4.33751,-5.14135 -4.33751,-6.29238 0,-1.15105 1.624441,-3.74219 3.609888,-5.7581 3.0256,-3.07205 4.305841,-3.64384 7.909577,-3.53267 2.364785,0.0729 4.825389,-0.31335 5.46797,-0.8585 0.642557,-0.54515 1.561103,-0.87848 2.041157,-0.74073 0.480103,0.13786 5.921178,-0.12592 12.091351,-0.58589 6.170149,-0.46001 14.347449,-1.03125 18.17176,-1.26942 6.111782,-0.38064 8.352278,-1.20268 18.513056,-6.79257 6.882736,-3.78651 14.118285,-6.91314 17.883515,-7.72783 5.797332,-1.25439 6.633397,-1.19329 10.043527,0.73383 3.851994,2.17683 4.994437,4.44776 8.856569,17.60474 1.6706,5.69106 3.02626,9.49293 4.57482,12.82977 1.17153,2.52441 14.45581,10.00052 22.67406,12.76053 6.47079,2.17316 22.65785,8.81633 28.90546,11.86282 1.12263,0.54744 5.94492,2.47308 10.71617,4.27919 4.77123,1.80615 11.77959,4.77544 15.57405,6.59844 l 6.89905,3.31458 11.47153,-1.83739 c 6.30938,-1.01053 14.22715,-2.49202 17.59508,-3.29218 3.36793,-0.80016 8.46628,-1.76594 11.32965,-2.14623 l 5.20608,-0.69137 2.31557,-10.88033 c 2.40999,-11.32407 7.61926,-28.04446 9.48357,-30.43977 0.59243,-0.76118 1.1188,-5.8595 1.16969,-11.32957 0.0576,-6.17188 0.56959,-10.54762 1.34985,-11.53211 0.6915,-0.87255 1.48568,-5.57582 1.76485,-10.45164 0.27914,-4.87584 1.03255,-9.52791 1.67424,-10.33788 0.79032,-0.99759 0.83616,-1.90388 0.14223,-2.80914 -0.56355,-0.73505 -1.3239,-3.26089 -1.68972,-5.61302 -0.36581,-2.35211 -1.12613,-7.16328 -1.6896,-10.69146 -2.31813,-14.51481 -2.32032,-15.5495 -0.0396,-18.78086 1.18393,-1.67753 2.16889,-3.91151 2.18877,-4.96437 0.0197,-1.05287 0.69251,-3.11709 1.49474,-4.58716 2.13821,-3.91843 1.85112,-6.37782 -1.02081,-8.74434 -2.32827,-1.91857 -2.49594,-2.59926 -1.9152,-7.77544 l 0.63646,-5.6728 -5.15037,-1.79206 c -7.10796,-2.47322 -7.87821,-3.67455 -6.38403,-9.95708 0.6648,-2.79518 2.0975,-6.67325 3.18382,-8.61798 1.08631,-1.94469 1.97509,-4.19509 1.97509,-5.00086 0,-2.27223 4.86426,-5.76197 7.15629,-5.13408 2.50546,0.68635 2.67473,-1.31221 0.24286,-2.86897 -1.58996,-1.01789 -1.26643,-1.61857 2.94708,-5.47202 l 4.73309,-4.3286 -1.93207,-6.60901 c -2.82865,-9.67597 -3.02688,-11.45298 -1.35283,-12.12593 0.81022,-0.32571 1.47313,-1.31385 1.47313,-2.19589 0,-1.00385 -0.58709,-1.36774 -1.56952,-0.97279 -2.74926,1.10518 -2.83098,-2.36702 -0.19218,-8.16619 1.40156,-3.08016 2.82781,-6.87532 3.16945,-8.43363 l 3.69358,-9.08036 c -1.0999,-1.21098 2.63037,-16.28365 4.5919,-18.55426 0.84329,-0.97615 1.53327,-2.60189 1.53327,-3.61271 0,-2.29988 4.67019,-6.92698 7.83002,-7.75779 2.67102,-0.70226 2.91603,-1.65407 1.17672,-4.57166 -1.90395,-3.19375 0.6541,-27.28965 4.20993,-39.65621 1.60628,-5.58628 2.93002,-10.87856 2.94169,-11.7606 0.0123,-0.88204 0.3438,-3.4025 0.7381,-5.601 0.79519,-4.433918 -2.74666,-17.960604 -5.27946,-20.162642 -0.77609,-0.674766 -1.4111,-0.934149 -1.4111,-0.576374 0,1.004348 -11.29497,-3.639711 -15.36321,-6.316768 -1.99453,-1.312497 -6.88554,-4.105699 -10.86891,-6.207123 -3.98335,-2.101425 -9.01081,-5.090645 -11.17207,-6.642719 -8.16027,-5.860051 -14.52152,-8.04804 -23.8182,-8.192474 -5.48603,-0.0853 -9.61092,0.385324 -11.19232,1.2768 -3.96371,2.234438 -12.37108,4.284181 -17.62896,4.298015 -2.68635,0.0072 -7.82874,-1.17191 -11.60315,-2.660189 -8.6296,-3.402715 -11.4125,-3.434899 -12.6062,-0.145748 -0.98166,2.704774 -3.66198,4.320451 -5.35212,3.226193 -0.56793,-0.367715 -1.68082,-2.29374 -2.47306,-4.280047 -1.07229,-2.688454 -2.07014,-3.611493 -3.90413,-3.611493 -2.77134,0 -6.69423,-4.491023 -6.69423,-7.663768 0,-4.017198 4.98627,-12.584699 7.66282,-13.166449 1.3987,-0.303992 3.57643,-0.792391 4.83939,-1.085321 2.74666,-0.637039 9.4543,-7.136637 14.47792,-14.02892 7.41237,-10.169582 13.38832,-12.326534 20.38014,-7.356 2.0679,1.470097 3.97611,2.672876 4.24049,2.672876 0.26437,0 2.88475,1.661361 5.82307,3.691894 3.11977,2.155949 10.86219,5.550994 18.61003,8.160458 13.48973,4.543325 15.92533,5.173889 28.57649,7.398267 11.74149,2.064437 21.9155,5.238543 29.39459,9.170611 l 7.05407,3.708643 6.26981,-2.615963 c 5.92007,-2.470071 12.61793,-3.887746 19.53743,-4.135254 4.41301,-0.157934 15.98629,2.166628 17.2195,3.458529 0.57696,0.604401 4.37829,1.098917 8.44739,1.098917 7.37064,0 7.40885,-0.01434 10.20059,-4.00929 1.54124,-2.205121 3.13776,-4.430455 3.54783,-4.945184 0.41002,-0.51473 2.87048,0.141686 5.46765,1.458842 5.60564,2.842733 7.13769,2.063864 3.29069,-1.672996 -1.92029,-1.865313 -2.75746,-3.74735 -2.75746,-6.199071 0,-1.936299 -0.34447,-3.882442 -0.76547,-4.324775 -0.42097,-0.442334 -0.81188,-7.378412 -0.86859,-15.413526 -0.0566,-8.035111 -0.43796,-15.840281 -0.84709,-17.344761 -0.84365,-3.10233 2.20105,-11.69805 4.14358,-11.69805 2.15142,0 2.25976,-2.81678 0.28601,-7.43504 -2.37631,-5.56021 -2.41723,-6.46385 -0.2926,-6.46385 1.30603,0 1.40455,-0.31721 0.46637,-1.50145 -0.65801,-0.83057 -0.90324,-2.69643 -0.54878,-4.17577 0.50744,-2.11806 0.18652,-2.82539 -1.54312,-3.40045 -3.09873,-1.03029 -2.00053,-3.1558 1.83557,-3.55264 2.90446,-0.30046 3.12531,-0.55874 2.13503,-2.49714 -1.47318,-2.88362 -0.49804,-3.66786 2.67663,-2.15256 3.87475,1.84945 8.03241,1.50947 10.95095,-0.89549 1.42719,-1.17604 3.01895,-2.13829 3.53722,-2.13829 0.51827,0 1.57754,-1.24338 2.35389,-2.76307 2.1742,-4.2558 6.82198,-7.36107 8.64514,-5.77602 1.17877,1.02484 2.40758,0.7101 6.11604,-1.56665 2.92048,-1.79292 5.38734,-2.60098 6.65429,-2.17972 1.21452,0.40379 3.12676,-0.13882 4.81931,-1.36719 4.96144,-3.60115 6.39518,-3.69371 10.19432,-0.65816 2.86499,2.28927 3.71993,2.55073 4.43569,1.35658 0.48773,-0.81356 0.68358,-2.20092 0.43549,-3.08296 -0.67044,-2.38257 12.91472,-6.96706 15.81952,-5.33853 2.72988,1.53052 1.76367,3.05512 -1.51946,2.39762 -3.03318,-0.60741 -3.05309,-0.52822 -0.97018,3.84579 1.93963,4.07307 5.88553,4.54084 9.96277,1.18111 l 2.65844,-2.19061 5.86033,3.23314 5.86032,3.23317 2.30849,-2.27185 c 2.80306,-2.75865 3.15033,-2.11724 4.19063,7.73991 l 0.72258,6.84567 3.77372,0.64179 c 4.51825,0.76836 6.94243,2.66461 6.94243,5.43053 0,1.18567 1.06397,2.45764 2.5515,3.05007 1.4033,0.55891 2.55145,1.39388 2.55145,1.85545 0,0.46159 1.18807,2.18158 2.64026,3.82218 2.03875,2.30325 2.954,2.71017 4.01716,1.78589 1.00794,-0.8763 1.94115,-0.88063 3.48316,-0.0167 2.65057,1.48598 2.66314,3.28349 0.047,6.7671 -1.26718,1.68758 -1.65825,3.00186 -1.0168,3.41715 0.57326,0.37116 0.76113,1.84813 0.4176,3.28218 -0.47107,1.96661 -0.21506,2.60736 1.04234,2.60736 1.0406,0 1.90024,-1.22109 2.28745,-3.24923 0.90179,-4.72362 2.78539,-3.2709 3.63503,2.80357 0.56665,4.05075 0.39118,5.52913 -0.76492,6.44381 -0.82517,0.65286 -1.50028,1.94753 -1.50028,2.87704 0,2.84113 2.22426,3.3276 3.99162,0.87303 1.31902,-1.83176 1.93369,-2.0441 2.92176,-1.0091 1.81541,1.90177 1.53364,10.88186 -0.4803,15.305984 l -1.73153,3.803905 3.17895,3.041643 c 2.54084,2.431125 3.12237,3.767252 2.89744,6.656552 -0.15477,1.988195 -0.3468,5.419104 -0.4267,7.624225 -0.20252,5.586284 -3.0383,8.285872 -8.70369,8.285872 -4.62044,0 -6.27406,0.684705 -13.61446,5.637248 -3.19293,2.154252 -5.2192,2.787922 -7.80566,2.441017 -3.65544,-0.490263 -5.29093,0.700236 -7.72301,5.621694 -1.91869,3.882609 -0.0308,5.137213 8.07309,5.365273 13.2616,0.373186 36.58828,-6.809254 47.99896,-14.779259 5.44548,-3.803523 18.47961,-8.478499 30.10737,-10.798641 9.24888,-1.845505 35.87043,-11.31576 47.96766,-17.063848 2.2453,-1.066876 6.27877,-2.914101 8.96322,-4.10491 3.42602,-1.519747 8.41832,-5.843395 16.74816,-14.505085 9.28564,-9.65559 12.46978,-12.33996 14.63709,-12.33996 1.52343,0 4.7795,-0.75823 7.23565,-1.68492 2.45625,-0.92672 5.32678,-1.87284 6.37889,-2.10255 1.05223,-0.22961 2.98797,-1.15538 4.30168,-2.05708 1.31361,-0.9017 3.34601,-1.63947 4.51621,-1.63947 2.45034,0 7.7278,2.61486 10.70148,5.30231 1.12266,1.01462 4.72317,2.95625 8.00131,4.31474 3.27814,1.35849 6.20428,3.13612 6.50249,3.95032 0.57939,1.58156 -2.39338,5.67727 -4.12062,5.67727 -0.57041,0 -1.8789,0.79801 -2.90776,1.7734 -1.62631,1.54177 -2.38472,1.59565 -5.80686,0.41249 -3.42907,-1.18553 -4.2832,-1.12269 -6.62963,0.48787 -2.13122,1.46286 -2.69336,2.69952 -2.69336,5.92476 0,4.797927 -3.22954,8.114101 -8.77856,9.014299 -1.90769,0.309464 -5.13888,0.837382 -7.18038,1.173128 -2.60013,0.427663 -4.79286,1.872122 -7.3219,4.823353 -3.69013,4.306091 -15.0356,11.672532 -17.97756,11.672532 -0.89871,0 -2.43154,0.420614 -3.40619,0.934723 -8.26414,4.358894 -12.03387,6.700755 -19.12217,11.879135 -20.59721,15.047292 -30.15758,20.921369 -51.05658,31.370191 -24.08376,12.041059 -26.61186,12.974301 -38.08888,14.059765 -4.12399,0.390032 -13.53892,2.302796 -20.92206,4.250539 l -13.42363,3.541367 -16.23575,8.789564 c -11.43757,8.696004 -16.5512,11.465814 -18.0328,19.892754 -4.68407,8.7983 -7.98869,16.13736 -10.2892,25.79582 -1.14055,4.78852 -5.22545,13.26382 -5.48182,16.69492 -0.25638,3.4311 -1.12153,7.76116 -1.92261,9.62231 -0.80107,1.86118 -1.51843,3.82029 -2.1167,5.78954 -1.53792,4.58452 -2.48634,5.67311 -3.63848,8.51477 -0.82782,2.04191 -1.37217,4.37756 -1.86809,5.39863 -1.19643,2.46383 -2.40074,5.5254 -6.19784,15.75541 -1.74602,4.70425 -4.79807,11.32506 -6.78231,14.71291 -1.98424,3.38783 -3.80386,7.29302 -4.04363,8.67817 -0.23967,1.38516 -1.0704,4.14613 -1.84586,6.13547 -0.77543,1.98934 -1.73182,5.95555 -2.12531,8.81384 l -0.71542,5.19683 18.19494,-0.71338 c 10.00719,-0.39237 23.70615,-1.18629 30.44203,-1.76432 6.73588,-0.578 22.58511,-0.96891 35.22061,-0.86868 22.02297,0.17466 23.20306,0.0789 28.523,-2.31866 6.47003,-2.91575 10.00361,-3.03904 20.45492,-0.7139 5.28064,1.17482 13.29155,1.72214 25.83173,1.76486 19.90078,0.0679 23.00214,0.80064 27.5966,6.52068 3.18608,3.96661 5.50987,17.54178 3.85438,22.51676 -2.19121,6.58475 -1.60225,8.23048 4.08888,11.42387 8.29932,4.65684 29.4503,19.59525 38.35739,27.09072 4.47986,3.7699 9.40104,7.81659 10.93589,8.99265 1.53487,1.17607 5.39311,4.2326 8.57388,6.79225 12.92801,10.40342 34.57722,24.62776 40.84489,26.83656 6.22047,2.1922 6.69937,2.21411 11.73677,0.53755 6.96982,-2.31974 11.95281,-4.89341 20.56056,-10.61923 11.883,-7.90463 13.27754,-9.42139 14.80843,-16.10633 1.05214,-4.59474 2.38154,-7.04685 5.67243,-10.46299 2.364,-2.45401 4.46364,-5.37306 4.66593,-6.48682 0.20227,-1.11373 1.61765,-3.00147 3.14505,-4.19498 2.33073,-1.82123 3.19189,-1.97202 5.3581,-0.93809 1.96615,0.93849 2.59801,2.06498 2.65261,4.72957 0.0399,1.92368 0.43202,4.45989 0.87231,5.63593 0.44036,1.17607 0.43514,3.47934 -0.0123,5.11843 -0.51334,1.88434 -0.27525,4.83277 0.64756,8.01861 0.80282,2.77115 1.46457,6.3775 1.4706,8.01413 0.0221,5.68736 -4.53572,12.82655 -12.70584,19.9062 -4.28699,3.71471 -8.57201,8.02434 -9.5225,9.57699 -0.95046,1.55262 -2.47155,3.68372 -3.38018,4.73573 -1.98545,2.29879 -4.99375,11.65782 -5.00915,15.58365 -0.0389,9.80129 -9.05099,26.32021 -15.83402,29.02183 -7.23597,2.88196 -13.83265,0.0863 -27.22186,-11.53605 -5.44381,-4.72551 -15.12943,-12.21073 -21.5235,-16.63385 -13.54394,-9.36904 -42.92106,-24.67679 -56.85954,-29.62819 -12.36852,-4.39366 -20.81756,-8.61206 -31.41872,-15.68655 -4.65041,-3.10343 -9.05968,-5.64258 -9.79827,-5.64258 -0.73848,0 -3.69279,2.68781 -6.56504,5.9729 -4.83002,5.52435 -5.47383,5.91948 -8.57234,5.26151 -1.84255,-0.39125 -4.58867,-1.63119 -6.10238,-2.75541 -1.51383,-1.12419 -3.0035,-1.61837 -3.31037,-1.09817 -0.71842,1.21781 -13.53833,0.63723 -16.98281,-0.76912 -1.44853,-0.59143 -5.75919,-1.89645 -9.57925,-2.90003 -5.57385,-1.46436 -7.69727,-1.5888 -10.75232,-0.62992 -2.09382,0.65716 -6.04995,1.20183 -8.79144,1.2104 -2.74151,0.01 -7.05117,0.77517 -9.5771,1.70358 -2.52596,0.92839 -5.85258,1.86037 -7.39244,2.07104 -1.53985,0.21073 -5.67324,1.09956 -9.1853,1.97536 -4.35129,1.08506 -15.00174,1.80042 -33.43111,2.24552 -34.7521,0.8393 -49.24859,1.84362 -56.13241,3.88887 -10.53241,3.12928 -12.24996,4.2152 -14.73552,9.31684 -1.33376,2.73751 -5.05357,8.80132 -8.26625,13.4751 -3.21266,4.67378 -9.44681,16.22056 -13.85364,25.65952 -4.40683,9.43895 -9.84532,20.04843 -12.08557,23.57661 -4.13052,6.50519 -17.86767,29.76792 -20.20305,34.21225 -2.1853,4.1587 -19.83993,29.78386 -26.60799,38.62071 -3.54776,4.6322 -7.91079,10.34436 -9.69559,12.69362 -1.78478,2.3493 -5.83673,7.21329 -9.00428,10.80885 -3.16754,3.59555 -7.0713,8.64343 -8.675,11.21748 -1.6037,2.57403 -3.49264,5.40793 -4.19765,6.29752 -0.70498,0.88956 -3.02026,4.26356 -5.145,7.49771 -5.80806,8.84057 -11.48753,11.03059 -21.92767,8.45525 z"
       id="path4046"
       inkscape:connector-curvature="0"
       sodipodi:nodetypes="csssssssssssssssssssssssscssssssssssssscssscsssssssssscssscssssssscsssssccssssscsssssssscsscsssssssssssscsssssssssssssssssssssssssssscccsssscccsccsssssccccsssccscsccsccssssssssssscscscscssssssssscssssccccsscsccsssscssssssssssssssscscsccccccssscssssssssccsssssssssssssssssscscc" />
  </g>
  <g
     inkscape:groupmode="layer"
     id="layer1"
     inkscape:label="black fill"
     transform="translate(894.43147,236.54349)"
     style="display:inline">
    <path
       style="fill:#eeeeec;fill-opacity:1;stroke:#ffffff;stroke-width:0;stroke-miterlimit:4;stroke-opacity:1;stroke-dasharray:none"
       d="m -643.92269,491.44754 c -5.17956,-1.27769 -8.84828,-3.35885 -14.407,-8.17265 -2.55608,-2.21355 -6.05612,-5.1611 -7.77788,-6.55011 -1.72174,-1.389 -5.60985,-6.03764 -8.64023,-10.33031 -5.59735,-7.92884 -10.07249,-11.81288 -19.61905,-17.02758 -2.924,-1.59718 -5.60905,-3.87006 -5.9668,-5.05081 -0.44275,-1.46133 -1.2705,-1.97701 -2.59208,-1.61496 -1.08718,0.29785 -3.53395,-0.60015 -5.56017,-2.04055 -1.9902,-1.41485 -3.84233,-2.57245 -4.11576,-2.57245 -0.71714,0 -14.79413,-11.07795 -24.92021,-19.61109 -4.77488,-4.02377 -10.23871,-8.59436 -12.14185,-10.1569 -1.90304,-1.56254 -4.26868,-3.63527 -5.25697,-4.60609 -3.15345,-3.09777 -20.98096,-15.52193 -27.47752,-19.14927 -3.44965,-1.92619 -6.72228,-4.38319 -7.27246,-5.46008 -0.55011,-1.07686 -1.92546,-1.95792 -3.05626,-1.95792 -1.13071,0 -3.29608,-0.66705 -4.81188,-1.48238 -1.5157,-0.81525 -5.51148,-2.21816 -8.87945,-3.11755 -3.36798,-0.89938 -10.48655,-3.78187 -15.81916,-6.4056 -5.33251,-2.6237 -13.73978,-6.77105 -18.68282,-9.21632 -4.94296,-2.44524 -10.45419,-4.73779 -12.24711,-5.09449 -1.79287,-0.35672 -4.55589,-1.33183 -6.13991,-2.16689 -2.00304,-1.05601 -4.48926,-1.30848 -8.16472,-0.82926 -5.10551,0.66578 -5.43141,0.54687 -9.62199,-3.51045 -2.38565,-2.30977 -4.33753,-5.14135 -4.33753,-6.29237 0,-1.15103 1.62446,-3.74219 3.60988,-5.75813 3.0256,-3.07201 4.30589,-3.64384 7.90963,-3.53264 2.36466,0.0729 4.82541,-0.31336 5.46782,-0.85851 0.64276,-0.54514 1.56113,-0.87848 2.04126,-0.74073 0.48013,0.13762 5.92113,-0.12592 12.09137,-0.58591 6.1701,-0.45999 14.34748,-1.03123 18.17171,-1.26942 6.11181,-0.38061 8.35236,-1.20266 18.51308,-6.79255 6.88274,-3.78653 14.11829,-6.91314 17.88345,-7.72782 5.79743,-1.25442 6.63354,-1.19332 10.04365,0.73383 3.85197,2.1768 4.99436,4.44772 8.85657,17.60474 1.6706,5.69105 3.02624,9.49293 4.57484,12.82974 1.1715,2.52438 14.45574,10.00054 22.67399,12.76056 6.47082,2.17312 22.65789,8.81632 28.90545,11.86281 1.12271,0.54742 5.9449,2.47306 10.71618,4.27919 4.77125,1.80615 11.77956,4.77542 15.5741,6.59845 l 6.89902,3.31457 11.47153,-1.83738 c 6.30935,-1.01056 14.22713,-2.49206 17.59508,-3.29219 3.36793,-0.80018 8.46628,-1.76596 11.32962,-2.14622 l 5.20611,-0.69137 2.31557,-10.88033 c 2.40999,-11.3241 7.61924,-28.04446 9.48355,-30.4398 0.59243,-0.76116 1.11877,-5.85948 1.16968,-11.32957 0.0576,-6.17185 0.5696,-10.54759 1.34986,-11.53209 0.6915,-0.87257 1.4857,-5.57581 1.76487,-10.45164 0.27914,-4.87587 1.03255,-9.52791 1.67424,-10.33788 0.7903,-0.99759 0.83617,-1.90388 0.14223,-2.80914 -0.56352,-0.73505 -1.32392,-3.26091 -1.68972,-5.61302 -0.36581,-2.35214 -1.12611,-7.16328 -1.6896,-10.69146 -2.31813,-14.51481 -2.3203,-15.54952 -0.0396,-18.78085 1.18393,-1.67754 2.16889,-3.91152 2.18877,-4.96437 0.0197,-1.05288 0.69251,-3.1171 1.49472,-4.5872 2.13823,-3.9184 1.85114,-6.37779 -1.02079,-8.74431 -2.32829,-1.91857 -2.49594,-2.59926 -1.91522,-7.77544 l 0.63646,-5.67278 -5.15035,-1.79208 c -7.10796,-2.47322 -7.87823,-3.67455 -6.38403,-9.95708 0.66478,-2.79518 2.09748,-6.67325 3.18382,-8.61798 1.08632,-1.94469 1.97511,-4.19509 1.97511,-5.00086 0,-2.27223 4.86425,-5.76197 7.15624,-5.13408 2.50547,0.68638 2.67476,-1.31221 0.24312,-2.86897 -1.58997,-1.01789 -1.26644,-1.61859 2.94708,-5.47202 l 4.73309,-4.3286 -1.93208,-6.60903 c -2.82865,-9.67595 -3.0269,-11.45293 -1.35283,-12.12591 0.81023,-0.32571 1.47313,-1.31385 1.47313,-2.19589 0,-1.00385 -0.58711,-1.36772 -1.56951,-0.97279 -2.74927,1.10518 -2.83099,-2.36702 -0.19218,-8.16617 1.40155,-3.08018 2.82783,-6.87531 3.16945,-8.43365 l 3.69357,-9.08034 c -1.09989,-1.211 2.63037,-16.28367 4.59195,-18.55428 0.84327,-0.97615 1.53322,-2.60186 1.53322,-3.61271 0,-2.29988 4.6702,-6.92695 7.83003,-7.75776 2.67104,-0.70229 2.91602,-1.6541 1.17674,-4.57169 -1.90397,-3.19375 0.6541,-27.289651 4.2099,-39.656206 1.60628,-5.586284 2.93005,-10.878564 2.94172,-11.760602 0.0123,-0.882039 0.3438,-3.402501 0.73808,-5.601003 0.79521,-4.433918 -2.74666,-17.960605 -5.27944,-20.162643 -0.77609,-0.674765 -1.4111,-0.934125 -1.4111,-0.576373 0,1.004371 -11.295,-3.639688 -15.36321,-6.316769 -1.99455,-1.312497 -6.88557,-4.105699 -10.86891,-6.207123 -3.98337,-2.101424 -9.01078,-5.090645 -11.1721,-6.642719 -8.16027,-5.860028 -14.52149,-8.04804 -23.8182,-8.192474 -5.48601,-0.0853 -9.61089,0.385324 -11.19229,1.276824 -3.96366,2.234414 -12.37106,4.284157 -17.62891,4.297991 -2.68637,0.0072 -7.82875,-1.17191 -11.60318,-2.660165 -8.62955,-3.402739 -11.41243,-3.434923 -12.60622,-0.145748 -0.98162,2.704774 -3.66189,4.320451 -5.3521,3.226193 -0.5679,-0.367715 -1.68082,-2.293716 -2.47301,-4.280047 -1.07229,-2.688454 -2.07016,-3.611493 -3.90421,-3.611493 -2.77126,0 -6.69415,-4.491023 -6.69415,-7.663743 0,-4.01722 4.98627,-12.5847 7.66285,-13.16645 1.39867,-0.30402 3.5764,-0.79242 4.83932,-1.08535 2.74668,-0.63701 9.45431,-7.13663 14.47793,-14.02892 7.41238,-10.16955 13.38833,-12.32651 20.38017,-7.35597 2.06786,1.47007 3.97611,2.67285 4.24046,2.67285 0.26438,0 2.88473,1.66139 5.82305,3.69192 3.11977,2.15595 10.86219,5.55097 18.61003,8.16046 13.48973,4.54332 15.92533,5.17389 28.57649,7.39824 11.74149,2.06444 21.91553,5.23854 29.39459,9.17061 l 7.05407,3.70864 6.26979,-2.61596 c 5.92009,-2.47007 12.61796,-3.88772 19.53746,-4.13523 4.41298,-0.15793 15.98628,2.1666 17.21952,3.45853 0.57693,0.6044 4.37826,1.09892 8.44736,1.09892 7.37062,0 7.40883,-0.0143 10.20062,-4.00932 1.54119,-2.20512 3.13773,-4.43043 3.5478,-4.94516 0.41005,-0.51475 2.87048,0.14169 5.46765,1.45882 5.60565,2.84276 7.13769,2.06387 3.29069,-1.67297 -1.92029,-1.86531 -2.75746,-3.74738 -2.75746,-6.1991 0,-1.9363 -0.34447,-3.88244 -0.76544,-4.32477 -0.421,-0.44231 -0.8119,-7.37839 -0.86865,-15.41353 -0.0566,-8.03511 -0.43792,-15.84026 -0.84706,-17.34476 -0.84364,-3.10233 2.20105,-11.698 4.14359,-11.698 2.15139,0 2.25973,-2.81683 0.286,-7.43509 -2.37633,-5.56021 -2.41722,-6.46382 -0.2926,-6.46382 1.30603,0 1.40456,-0.31722 0.46635,-1.50147 -0.65801,-0.83056 -0.90322,-2.69642 -0.54878,-4.17579 0.50746,-2.11801 0.18652,-2.82536 -1.54309,-3.40042 -3.09873,-1.03028 -2.00053,-3.15581 1.83556,-3.55262 2.90446,-0.30048 3.12529,-0.55877 2.13504,-2.49717 -1.47319,-2.88362 -0.49805,-3.66784 2.6766,-2.15257 3.87478,1.84948 8.03241,1.5095 10.95095,-0.89546 1.42722,-1.17606 3.01898,-2.1383 3.53725,-2.1383 0.51826,0 1.57751,-1.24338 2.35391,-2.76307 2.17415,-4.25581 6.82195,-7.36107 8.64512,-5.77601 1.17876,1.02483 2.40755,0.71008 6.11604,-1.56665 2.92048,-1.79293 5.38731,-2.60098 6.65429,-2.17973 1.21449,0.4038 3.12673,-0.1387 4.81928,-1.36718 4.96147,-3.60114 6.39518,-3.69372 10.19432,-0.65816 2.86501,2.28927 3.71995,2.55073 4.43569,1.35658 0.48773,-0.81359 0.6836,-2.20092 0.43549,-3.08296 -0.67044,-2.38256 12.91472,-6.96708 15.81952,-5.33853 2.72988,1.5305 1.7637,3.0551 -1.51946,2.39762 -3.03316,-0.6074 -3.05306,-0.52823 -0.97015,3.84579 1.93963,4.07305 5.88552,4.54083 9.96277,1.1811 l 2.65844,-2.19061 5.86032,3.23316 5.86033,3.23314 2.30843,-2.27185 c 2.80306,-2.75865 3.15039,-2.11722 4.19066,7.73992 l 0.72258,6.84567 3.77372,0.64177 c 4.51827,0.76839 6.94246,2.66465 6.94246,5.43056 0,1.18566 1.06397,2.45763 2.55147,3.05006 1.4033,0.55893 2.55148,1.39387 2.55148,1.85546 0,0.4616 1.18806,2.18157 2.64026,3.82217 2.03872,2.30326 2.95399,2.71016 4.01713,1.7859 1.00794,-0.87633 1.94115,-0.88063 3.48316,-0.016 2.65057,1.48597 2.66314,3.28349 0.047,6.76711 -1.26715,1.68757 -1.65825,3.00186 -1.0168,3.41714 0.57326,0.37116 0.76116,1.84814 0.41762,3.28218 -0.47109,1.96662 -0.21506,2.60733 1.04232,2.60733 1.0406,0 1.90024,-1.22108 2.28745,-3.2492 0.90179,-4.7236 2.78541,-3.27092 3.63506,2.80357 0.56662,4.05075 0.39117,5.52914 -0.76495,6.44381 -0.82514,0.65286 -1.50028,1.94753 -1.50028,2.87704 0,2.84114 2.22428,3.3276 3.99164,0.87301 1.319,-1.83177 1.9337,-2.04408 2.92174,-1.00908 1.81543,1.90178 1.53364,10.88186 -0.48028,15.30599 l -1.73153,3.8039 3.1789,3.04164 c 2.54087,2.43111 3.1224,3.76726 2.89747,6.65656 -0.15477,1.98819 -0.3468,5.4191 -0.4267,7.62422 -0.20252,5.58628 -3.03832,8.28587 -8.70369,8.28587 -4.62041,0 -6.27406,0.68471 -13.61446,5.63723 -3.1929,2.15427 -5.21917,2.78794 -7.80564,2.44104 -3.65546,-0.49029 -5.29095,0.70023 -7.72301,5.62169 -1.91871,3.88259 -0.0308,5.13722 8.07307,5.36528 13.26162,0.373182 36.58828,-6.80928 47.99898,-14.77926 5.44546,-3.80353 18.47959,-8.4785 30.10735,-10.79864 9.24888,-1.84551 35.87043,-11.31576 47.96767,-17.06388 2.24529,-1.06687 6.27876,-2.91407 8.96321,-4.10488 3.42603,-1.51977 8.41832,-5.84343 16.74816,-14.50509 9.28564,-9.65559 12.46975,-12.33996 14.63707,-12.33996 1.52343,0 4.77952,-0.7582 7.23567,-1.68492 2.45627,-0.92672 5.32675,-1.87286 6.37889,-2.10252 1.05223,-0.22962 2.98798,-1.1554 4.30168,-2.05711 1.31359,-0.9017 3.34601,-1.63947 4.51621,-1.63947 2.45032,0 7.72778,2.61486 10.70146,5.30231 1.12266,1.01462 4.72322,2.95625 8.00134,4.31474 3.27814,1.35849 6.20425,3.13612 6.50246,3.95032 0.57939,1.58156 -2.39338,5.67725 -4.1206,5.67725 -0.57044,0 -1.87893,0.79803 -2.90776,1.7734 -1.62631,1.5418 -2.38472,1.59565 -5.80685,0.41251 -3.42908,-1.18553 -4.28323,-1.12269 -6.62966,0.48787 -2.13119,1.46286 -2.69334,2.69952 -2.69334,5.92476 0,4.7979 -3.22954,8.1141 -8.77856,9.01428 -1.90769,0.30948 -5.13888,0.8374 -7.18038,1.17315 -2.60015,0.42766 -4.79288,1.87212 -7.3219,4.82335 -3.69015,4.30609 -15.03562,11.67253 -17.97756,11.67253 -0.89874,0 -2.43154,0.42062 -3.40622,0.93473 -8.26411,4.35889 -12.03384,6.70075 -19.12214,11.87913 -20.5972,15.047295 -30.15758,20.921348 -51.05658,31.370193 -24.08373,12.04106 -26.61183,12.974278 -38.08888,14.059766 -4.12397,0.390031 -13.53892,2.302796 -20.92206,4.250539 l -13.42371,3.541391 -24.67242,12.467791 c -3.57778,10.40935 -14.64773,15.836554 -18.97773,32.468582 l -4.55181,2.109309 -0.68572,8.944486 c -0.37712,4.919503 -0.89547,11.751813 -1.15187,15.182913 -0.25635,3.4311 -1.12153,7.76113 -1.92255,9.62231 -0.8011,1.86118 -1.51846,3.82029 -2.11672,5.78952 -1.5379,4.58454 -2.48637,5.67311 -3.63849,8.51481 -0.82782,2.04189 -1.37219,4.37753 -1.86809,5.39863 -1.19643,2.46381 -2.40074,5.52538 -6.19783,15.75537 -1.74603,4.70426 -4.79808,11.32507 -6.78232,14.71293 -1.98424,3.38785 -3.80386,7.29302 -4.04363,8.67817 -0.23967,1.38513 -1.0704,4.1461 -1.84586,6.13545 -0.77543,1.98936 -1.73185,5.95557 -2.12531,8.81383 l -0.71541,5.19685 18.19493,-0.71337 c 10.00719,-0.39238 23.70612,-1.18632 30.44203,-1.76432 6.73586,-0.578 22.58511,-0.96889 35.22062,-0.86866 22.02294,0.17466 23.20308,0.0788 28.52296,-2.31868 6.47004,-2.91575 10.00362,-3.03906 20.45495,-0.7139 5.28064,1.17482 13.29153,1.72214 25.8317,1.76486 19.90078,0.0679 23.00212,0.80064 27.59663,6.52065 3.18606,3.96662 5.50985,17.54181 3.85435,22.51679 -2.19121,6.58475 -1.60222,8.23048 4.08889,11.42385 8.2993,4.65686 29.4503,19.59525 38.35738,27.09074 4.47986,3.76988 9.40105,7.81659 10.93592,8.99265 1.53485,1.17607 5.39309,4.23258 8.57386,6.79225 12.92798,10.4034 34.57722,24.62774 40.84486,26.83654 6.2205,2.19219 6.69937,2.21413 11.73677,0.53755 6.9698,-2.31972 11.95284,-4.89339 20.56059,-10.61923 11.883,-7.90464 13.27752,-9.4214 14.80843,-16.10633 1.05211,-4.59472 2.38152,-7.04683 5.67243,-10.46297 2.36397,-2.45401 4.46364,-5.37309 4.66591,-6.48682 0.20227,-1.11375 1.61765,-3.0015 3.14507,-4.19498 2.3307,-1.82123 3.19186,-1.97202 5.35807,-0.9381 1.96618,0.93848 2.59801,2.06499 2.65261,4.72955 0.0396,1.92371 0.43202,4.45989 0.87229,5.63596 0.44038,1.17604 0.43519,3.47934 -0.0123,5.11841 -0.51337,1.88433 -0.27527,4.83277 0.64756,8.0186 0.80279,2.77115 1.46454,6.37753 1.47057,8.01416 0.0221,5.68733 -4.53569,12.82653 -12.70583,19.90615 -4.28699,3.71474 -8.57202,8.02439 -9.5225,9.57701 -0.95047,1.55265 -2.47156,3.68373 -3.38019,4.73574 -1.98544,2.29881 -4.99372,11.65784 -5.00915,15.58365 -0.0389,9.80129 -9.05099,26.32021 -15.83402,29.02183 -7.23596,2.88199 -13.83265,0.0863 -27.22183,-11.53606 -5.44383,-4.72548 -15.12943,-12.21072 -21.52353,-16.63384 -13.54391,-9.36902 -42.92105,-24.67677 -56.85954,-29.62817 -12.3685,-4.39368 -20.81753,-8.61206 -31.41869,-15.68657 -4.65041,-3.10341 -9.05968,-5.64256 -9.79827,-5.64256 -0.73848,0 -3.69279,2.68781 -6.56504,5.9729 -4.83002,5.52433 -5.47383,5.91945 -8.57231,5.26148 -1.84258,-0.39125 -4.58868,-1.63118 -6.10241,-2.75538 -1.51383,-1.12422 -3.0035,-1.6184 -3.31038,-1.0982 -0.71839,1.21781 -13.5383,0.63723 -16.9828,-0.76909 -1.44853,-0.59143 -5.7592,-1.89645 -9.57923,-2.90005 -5.57387,-1.46437 -7.69729,-1.58878 -10.75232,-0.62992 -2.09386,0.65718 -6.04995,1.20185 -8.79146,1.2104 -2.74149,0.01 -7.05115,0.77516 -9.57711,1.70358 -2.52595,0.92841 -5.85254,1.86037 -7.39241,2.07103 -1.53987,0.21074 -5.67324,1.09959 -9.18529,1.97537 -4.35129,1.08505 -15.00175,1.80041 -33.43111,2.24554 -34.7521,0.8393 -49.2486,1.84362 -56.13244,3.88887 -10.53239,3.12926 -12.24992,4.2152 -14.7355,9.31682 -1.33376,2.73753 -5.05357,8.80134 -8.26625,13.4751 -3.21266,4.67378 -9.44681,16.22056 -13.85364,25.65952 -4.40683,9.43895 -9.84532,20.04845 -12.08557,23.57663 -4.13054,6.50517 -17.86764,29.7679 -20.20305,34.21223 -2.1853,4.1587 -19.83993,29.78388 -26.60797,38.6207 -3.54778,4.63219 -7.91078,10.34434 -9.69559,12.69363 -1.7848,2.34929 -5.83672,7.21329 -9.00428,10.80885 -3.16756,3.59555 -7.0713,8.64341 -8.67502,11.21748 -1.60367,2.57403 -3.49259,5.40795 -4.19762,6.29751 -0.70501,0.88957 -3.02029,4.26354 -5.14503,7.49774 -5.80804,8.84057 -11.4875,11.03057 -21.92764,8.45523 z"
       id="path3049"
       inkscape:connector-curvature="0"
       sodipodi:nodetypes="csssssssssssssssssssssssscssssssssssssscssscsssssssssscssscssssssscsssssccssssscsssssssscsscsssssssssssscsssssssssssssssssssssssssssscccsssscccsccsssssccccsssccscsccsccssssssssssscscscscssssssssscssssccccssscsccsssscssssssssssssssscscsccccccssscssssssssccsssssssssssssssssscscc" />
  </g>
</svg>
