<?xml version="1.0" encoding="UTF-8" standalone="no"?>
<!-- Created with Inkscape (http://www.inkscape.org/) -->

<svg
   xmlns:dc="http://purl.org/dc/elements/1.1/"
   xmlns:cc="http://creativecommons.org/ns#"
   xmlns:rdf="http://www.w3.org/1999/02/22-rdf-syntax-ns#"
   xmlns:svg="http://www.w3.org/2000/svg"
   xmlns="http://www.w3.org/2000/svg"
   xmlns:sodipodi="http://sodipodi.sourceforge.net/DTD/sodipodi-0.dtd"
   xmlns:inkscape="http://www.inkscape.org/namespaces/inkscape"
   width="32px"
   height="32px"
   id="svg3145"
   version="1.1"
   inkscape:version="0.48.4 r9939"
   sodipodi:docname="email.svg">
  <defs
     id="defs3147" />
  <sodipodi:namedview
     id="base"
     pagecolor="#ffffff"
     bordercolor="#666666"
     borderopacity="1.0"
     inkscape:pageopacity="0.0"
     inkscape:pageshadow="2"
     inkscape:zoom="11.197802"
     inkscape:cx="16"
     inkscape:cy="16"
     inkscape:current-layer="layer1"
     showgrid="true"
     inkscape:grid-bbox="true"
     inkscape:document-units="px"
     inkscape:window-width="1218"
     inkscape:window-height="758"
     inkscape:window-x="623"
     inkscape:window-y="119"
     inkscape:window-maximized="0"
     showguides="true"
     inkscape:guide-bbox="true" />
  <metadata
     id="metadata3150">
    <rdf:RDF>
      <cc:Work
         rdf:about="">
        <dc:format>image/svg+xml</dc:format>
        <dc:type
           rdf:resource="http://purl.org/dc/dcmitype/StillImage" />
        <dc:title />
      </cc:Work>
    </rdf:RDF>
  </metadata>
  <g
     id="layer1"
     inkscape:label="Layer 1"
     inkscape:groupmode="layer">
    <path
       style="fill:#ffffff;fill-opacity:1;stroke:none"
       d="M 3.6875 6 C 2.7449029 6 2 6.7449029 2 7.6875 L 2 24.3125 C 2 25.255097 2.7449029 26 3.6875 26 L 28.3125 26 C 29.255097 26 30 25.255097 30 24.3125 L 30 7.6875 C 30 6.7449029 29.255097 6 28.3125 6 L 3.6875 6 z M 5.5 8.09375 L 26.65625 8.09375 C 26.903878 8.09375 27.143055 8.1354313 27.34375 8.21875 L 16.0625 14.46875 L 4.8125 8.21875 C 5.0133189 8.1353893 5.2521229 8.09375 5.5 8.09375 z M 4.15625 9.0625 L 16.0625 18.71875 L 27.96875 9.0625 L 27.96875 21.78125 L 20.75 16.9375 L 19.84375 17.53125 L 26.8125 24.03125 C 26.7549 24.03675 26.715647 24.0625 26.65625 24.0625 L 5.5 24.0625 C 5.440356 24.0625 5.3702843 24.03665 5.3125 24.03125 L 12.3125 17.53125 L 11.40625 16.9375 L 4.15625 21.78125 L 4.15625 9.0625 z "
       id="rect3087" />
  </g>
</svg>
