<?xml version="1.0" encoding="UTF-8" standalone="no"?>
<!-- Created with Inkscape (http://www.inkscape.org/) -->

<svg
   xmlns:dc="http://purl.org/dc/elements/1.1/"
   xmlns:cc="http://creativecommons.org/ns#"
   xmlns:rdf="http://www.w3.org/1999/02/22-rdf-syntax-ns#"
   xmlns:svg="http://www.w3.org/2000/svg"
   xmlns="http://www.w3.org/2000/svg"
   xmlns:sodipodi="http://sodipodi.sourceforge.net/DTD/sodipodi-0.dtd"
   xmlns:inkscape="http://www.inkscape.org/namespaces/inkscape"
   width="32px"
   height="32px"
   id="svg4736"
   version="1.1"
   inkscape:version="0.48.4 r9939"
   sodipodi:docname="expand.svg">
  <defs
     id="defs4738" />
  <sodipodi:namedview
     id="base"
     pagecolor="#ffffff"
     bordercolor="#666666"
     borderopacity="1.0"
     inkscape:pageopacity="0.0"
     inkscape:pageshadow="2"
     inkscape:zoom="11.197802"
     inkscape:cx="1.5775267"
     inkscape:cy="16"
     inkscape:current-layer="layer1"
     showgrid="true"
     inkscape:grid-bbox="true"
     inkscape:document-units="px"
     inkscape:window-width="1285"
     inkscape:window-height="801"
     inkscape:window-x="216"
     inkscape:window-y="109"
     inkscape:window-maximized="0">
    <inkscape:grid
       type="xygrid"
       id="grid4772" />
  </sodipodi:namedview>
  <metadata
     id="metadata4741">
    <rdf:RDF>
      <cc:Work
         rdf:about="">
        <dc:format>image/svg+xml</dc:format>
        <dc:type
           rdf:resource="http://purl.org/dc/dcmitype/StillImage" />
        <dc:title />
      </cc:Work>
    </rdf:RDF>
  </metadata>
  <g
     id="layer1"
     inkscape:label="Layer 1"
     inkscape:groupmode="layer">
    <g
       transform="matrix(0.38888886,0,0,0.38888889,-47.873886,-0.73700739)"
       style="font-size:72px;font-style:normal;font-variant:normal;font-weight:normal;font-stretch:normal;text-align:start;line-height:125%;letter-spacing:0px;word-spacing:0px;writing-mode:lr-tb;text-anchor:start;fill:#000000;fill-opacity:1;stroke:none;font-family:FontAwesome;-inkscape-font-specification:FontAwesome"
       id="text3045">
      <path
         inkscape:connector-curvature="0"
         d="m 179.39446,34.158554 c 0.4821,0.937534 0.41514,1.821461 -0.20089,2.651786 l -12.85714,18 c -0.50896,0.723227 -1.20539,1.084834 -2.08929,1.084821 -0.88396,1.3e-5 -1.58038,-0.361594 -2.08928,-1.084821 l -12.85715,-18 c -0.61608,-0.830325 -0.68305,-1.714252 -0.20089,-2.651786 0.45534,-0.937464 1.21873,-1.406214 2.29018,-1.40625 l 25.71429,0 c 1.07138,3.6e-5 1.83477,0.468786 2.29017,1.40625 m 5.42411,28.165179 0,-38.571429 c -5e-5,-0.348169 -0.13398,-0.642811 -0.40178,-0.883928 -0.24113,-0.267811 -0.53577,-0.40174 -0.88393,-0.401786 l -38.57143,0 c -0.34823,4.6e-5 -0.65626,0.133975 -0.92411,0.401786 -0.24108,0.241117 -0.36162,0.535759 -0.36161,0.883928 l 0,38.571429 c -1e-5,0.34822 0.12053,0.656255 0.36161,0.924107 0.26785,0.241076 0.57588,0.361612 0.92411,0.361607 l 38.57143,0 c 0.34816,5e-6 0.6428,-0.120531 0.88393,-0.361607 0.2678,-0.267852 0.40173,-0.575887 0.40178,-0.924107 m 10.28572,-38.571429 0,38.571429 c -7e-5,3.187503 -1.13846,5.90625 -3.41518,8.15625 -2.25006,2.276781 -4.96881,3.415173 -8.15625,3.415178 l -38.57143,0 c -3.18751,-5e-6 -5.91965,-1.138397 -8.19643,-3.415178 -2.25,-2.25 -3.375,-4.968747 -3.375,-8.15625 l 0,-38.571429 c 0,-3.187452 1.125,-5.906199 3.375,-8.15625 2.27678,-2.27673 5.00892,-3.415122 8.19643,-3.415178 l 38.57143,0 c 3.18744,5.6e-5 5.90619,1.138448 8.15625,3.415178 2.27672,2.250051 3.41511,4.968798 3.41518,8.15625"
         id="path3165" />
    </g>
  </g>
</svg>
