<?xml version="1.0" encoding="UTF-8" standalone="no"?>
<!-- Created with Inkscape (http://www.inkscape.org/) -->

<svg
   xmlns:dc="http://purl.org/dc/elements/1.1/"
   xmlns:cc="http://creativecommons.org/ns#"
   xmlns:rdf="http://www.w3.org/1999/02/22-rdf-syntax-ns#"
   xmlns:svg="http://www.w3.org/2000/svg"
   xmlns="http://www.w3.org/2000/svg"
   xmlns:xlink="http://www.w3.org/1999/xlink"
   xmlns:sodipodi="http://sodipodi.sourceforge.net/DTD/sodipodi-0.dtd"
   xmlns:inkscape="http://www.inkscape.org/namespaces/inkscape"
   width="2000"
   height="64"
   id="svg3088"
   version="1.1"
   inkscape:version="0.48.4 r9939"
   sodipodi:docname="rainbow-masthead-centered.svg"
   inkscape:export-filename="/home/elijah/dev/leap/leap_assets/svg/masks/rainbow-masthead-small.png"
   inkscape:export-xdpi="90"
   inkscape:export-ydpi="90">
  <defs
     id="defs3090">
    <linearGradient
       id="linearGradient4212">
      <stop
         style="stop-color:#ffffff;stop-opacity:1;"
         offset="0"
         id="stop4214" />
      <stop
         style="stop-color:#ffffff;stop-opacity:0;"
         offset="1"
         id="stop4216" />
    </linearGradient>
    <linearGradient
       id="linearGradient4192">
      <stop
         style="stop-color:#000000;stop-opacity:1;"
         offset="0"
         id="stop4194" />
      <stop
         style="stop-color:#000000;stop-opacity:0;"
         offset="1"
         id="stop4196" />
    </linearGradient>
    <linearGradient
       id="linearGradient4184">
      <stop
         style="stop-color:#008080;stop-opacity:1;"
         offset="0"
         id="stop4186" />
      <stop
         style="stop-color:#008080;stop-opacity:0;"
         offset="1"
         id="stop4188" />
    </linearGradient>
    <radialGradient
       inkscape:collect="always"
       xlink:href="#linearGradient4212"
       id="radialGradient4218"
       cx="1414.9468"
       cy="153.94054"
       fx="1414.9468"
       fy="153.94054"
       r="1000"
       gradientTransform="matrix(0.70879843,-1.1651099e-7,0,0.04155663,-4.0947644,24.965665)"
       gradientUnits="userSpaceOnUse" />
    <clipPath
       clipPathUnits="userSpaceOnUse"
       id="clipPath3159">
      <g
         style="fill:none;stroke:#006082;stroke-width:31.77269936;stroke-miterlimit:4;stroke-opacity:1;stroke-dasharray:none;display:inline"
         id="g3161"
         transform="matrix(0.6987131,0,0,0.6987131,-78.646361,-52.805193)">
        <path
           style="font-size:medium;font-style:normal;font-variant:normal;font-weight:normal;font-stretch:normal;text-indent:0;text-align:start;text-decoration:none;line-height:normal;letter-spacing:normal;word-spacing:normal;text-transform:none;direction:ltr;block-progression:tb;writing-mode:lr-tb;text-anchor:start;baseline-shift:baseline;color:#000000;fill:#006082;fill-opacity:1;stroke:none;stroke-width:22.20000076;marker:none;visibility:visible;display:inline;overflow:visible;enable-background:accumulate;font-family:Sans;-inkscape-font-specification:Sans"
           d="m 278.28751,285.55576 -11.21875,0.125 c -16.33799,0.18876 -35.43079,3.64775 -48.84375,17.25 -26.364,26.73607 -32.91414,67.45937 -31.40625,101.9375 2.03445,46.51772 21.53824,93.17387 51.28125,128.53125 20.69424,24.60055 50.34517,51.04821 86.53125,52.21875 28.80499,0.93178 49.7747,-20.70739 66.84375,-34 14.22825,-11.08034 33.86145,-24.04072 51.59375,-31.4375 17.0467,-7.1108 34.85246,-7.21617 34.21875,-7.21875 l 0.0312,0 0.0625,0 0.0312,0 c -0.16965,5.1e-4 17.2016,0.10729 34.25,7.21875 17.72836,7.39514 37.32827,20.3525 51.5625,31.4375 17.07402,13.29649 38.06968,34.93179 66.875,34 36.18608,-1.17054 65.83701,-27.6182 86.53125,-52.21875 29.74301,-35.35738 49.2468,-82.01353 51.28125,-128.53125 1.50789,-34.47813 -5.04224,-75.20143 -31.40625,-101.9375 -14.31952,-14.52161 -35.00767,-17.52645 -52.09375,-17.21875 -30.44885,0.54835 -54.3266,17.12605 -78.40625,27.34375 -35.97307,15.26442 -58.60927,33.089 -90.875,42.9375 -15.59991,4.76158 -25.34249,3.77253 -37.15625,3.96875 -0.48134,-0.0127 -0.42021,-0.003 -0.5,0 -0.0399,0.002 -0.3107,-0.002 -0.25,0 -0.0108,-2.1e-4 -0.0204,2.1e-4 -0.0312,0 -12.03376,-0.23364 -21.77727,0.85894 -37.59375,-3.96875 -32.26573,-9.8485 -54.90193,-27.67308 -90.875,-42.9375 -21.91783,-9.30038 -43.75001,-23.72976 -70.4375,-26.6875 l 0,-0.8125 z m 12.125,109.15625 c 17.37009,-0.31472 36.71128,6.52981 55.875,13.53125 14.81121,5.41127 29.02735,15.65317 45.09375,25.09375 5.88038,3.4553 11.12945,6.87537 18,11.21875 -3.34103,2.83649 -6.57004,5.62753 -10.96875,9 -12.59562,9.65701 -28.90684,19.70424 -39,22.0625 -29.76308,6.95412 -52.56809,2.47169 -79.75,-19.25 -5.78601,-4.62373 -15.92397,-18.36952 -23.34375,-30.375 -3.24397,-5.24887 -5.84449,-9.82258 -8.03125,-13.71875 2.542,-1.66751 5.0341,-3.34504 8.34375,-5.3125 9.27056,-5.51099 21.18825,-10.95207 26.46875,-11.6875 2.38753,-0.33252 4.80103,-0.517 7.3125,-0.5625 z m 372,0 c 3.16744,-0.0296 6.24552,0.14841 9.21875,0.5625 5.2805,0.73543 17.19819,6.17651 26.46875,11.6875 3.30965,1.96746 5.80175,3.64499 8.34375,5.3125 -2.18676,3.89617 -4.78728,8.46988 -8.03125,13.71875 -7.41978,12.00548 -17.55774,25.75127 -23.34375,30.375 -27.17889,21.71928 -50.01971,26.20376 -79.78125,19.25 -10.09225,-2.35805 -26.38134,-12.40603 -38.96875,-22.0625 -4.40014,-3.37558 -7.62824,-6.16178 -10.96875,-9 6.87055,-4.34338 12.11962,-7.76345 18,-11.21875 16.0664,-9.44058 30.28254,-19.68248 45.09375,-25.09375 18.47767,-6.7508 37.09414,-13.37374 53.96875,-13.53125 z"
           id="path3163"
           inkscape:connector-curvature="0"
           sodipodi:nodetypes="ccssssssccccsssssssssccccsscccssscsssscssscsscsssscssc" />
      </g>
    </clipPath>
    <linearGradient
       inkscape:collect="always"
       xlink:href="#linearGradient4055-4"
       id="linearGradient3799"
       gradientUnits="userSpaceOnUse"
       gradientTransform="matrix(-1,0,0,1,512,0)"
       x1="456"
       y1="160"
       x2="360"
       y2="216" />
    <linearGradient
       id="linearGradient4055-4">
      <stop
         id="stop4057-6"
         offset="0"
         style="stop-color:#000000;stop-opacity:1;" />
      <stop
         id="stop4059-2"
         offset="1"
         style="stop-color:#000000;stop-opacity:0" />
    </linearGradient>
    <radialGradient
       inkscape:collect="always"
       xlink:href="#linearGradient4141-7"
       id="radialGradient3801"
       gradientUnits="userSpaceOnUse"
       gradientTransform="matrix(1.3716765,0.0039729,-0.00294998,1.1635062,-93.675296,-62.76795)"
       cx="256"
       cy="211.69231"
       fx="256"
       fy="211.69231"
       r="64" />
    <linearGradient
       id="linearGradient4141-7">
      <stop
         id="stop4143-9"
         offset="0"
         style="stop-color:#ffffff;stop-opacity:1;" />
      <stop
         id="stop4145-7"
         offset="1"
         style="stop-color:#ffffff;stop-opacity:0" />
    </linearGradient>
    <radialGradient
       inkscape:collect="always"
       xlink:href="#linearGradient4038-5"
       id="radialGradient3803"
       gradientUnits="userSpaceOnUse"
       gradientTransform="matrix(0.7777373,0,-6.9715088e-8,1.4057042,56.899268,-12.013064)"
       cx="256"
       cy="241.88095"
       fx="256"
       fy="241.88095"
       r="64" />
    <linearGradient
       id="linearGradient4038-5">
      <stop
         style="stop-color:#ffffff;stop-opacity:1;"
         offset="0"
         id="stop4040-2" />
      <stop
         style="stop-color:#ffffff;stop-opacity:0"
         offset="1"
         id="stop4042-4" />
    </linearGradient>
    <linearGradient
       inkscape:collect="always"
       xlink:href="#linearGradient4020-4"
       id="linearGradient3805"
       gradientUnits="userSpaceOnUse"
       gradientTransform="matrix(1.0139304,0,0,1,-6.4637045,0)"
       x1="456"
       y1="160"
       x2="360"
       y2="216" />
    <linearGradient
       id="linearGradient4020-4">
      <stop
         style="stop-color:#000000;stop-opacity:1;"
         offset="0"
         id="stop4022-5" />
      <stop
         style="stop-color:#000000;stop-opacity:0"
         offset="1"
         id="stop4024-2" />
    </linearGradient>
  </defs>
  <sodipodi:namedview
     id="base"
     pagecolor="#ffffff"
     bordercolor="#666666"
     borderopacity="1.0"
     inkscape:pageopacity="0.0"
     inkscape:pageshadow="2"
     inkscape:zoom="0.25"
     inkscape:cx="1781.2829"
     inkscape:cy="-572.91093"
     inkscape:current-layer="layer1"
     showgrid="false"
     inkscape:document-units="px"
     inkscape:grid-bbox="true"
     showguides="true"
     inkscape:guide-bbox="true"
     inkscape:snap-global="false"
     objecttolerance="20"
     inkscape:snap-bbox="true"
     inkscape:bbox-paths="true"
     inkscape:bbox-nodes="true"
     inkscape:snap-bbox-edge-midpoints="true"
     inkscape:snap-bbox-midpoints="true"
     inkscape:object-paths="true"
     inkscape:snap-intersection-paths="true"
     inkscape:object-nodes="true"
     inkscape:snap-smooth-nodes="true"
     inkscape:snap-midpoints="true"
     inkscape:snap-object-midpoints="true"
     inkscape:snap-center="true"
     borderlayer="true"
     inkscape:window-width="1920"
     inkscape:window-height="1056"
     inkscape:window-x="1920"
     inkscape:window-y="24"
     inkscape:window-maximized="1">
    <inkscape:grid
       type="xygrid"
       id="grid3096"
       empspacing="5"
       visible="true"
       enabled="true"
       snapvisiblegridlinesonly="true" />
    <sodipodi:guide
       orientation="1,0"
       position="1000,0"
       id="guide3100" />
    <sodipodi:guide
       orientation="1,0"
       position="500,0"
       id="guide3102" />
    <sodipodi:guide
       orientation="1,0"
       position="1500,0"
       id="guide3104" />
  </sodipodi:namedview>
  <metadata
     id="metadata3093">
    <rdf:RDF>
      <cc:Work
         rdf:about="">
        <dc:format>image/svg+xml</dc:format>
        <dc:type
           rdf:resource="http://purl.org/dc/dcmitype/StillImage" />
        <dc:title />
      </cc:Work>
    </rdf:RDF>
  </metadata>
  <g
     id="layer1"
     inkscape:label="rainbow"
     inkscape:groupmode="layer">
    <g
       id="g3054"
       transform="matrix(0.90772304,0.16782795,-0.41956987,0.36308922,105.43431,-147.88592)">
      <path
         style="fill:#a0522d;fill-opacity:1;stroke:none"
         d="m -23.375,-386.90625 c -24.620909,93.60523 -49.274498,187.20196 -73.875,280.8125 365.69907,46.459569 731.39564,92.93903 1097.09375,139.40625 10.87705,0.60738 -1.18757,-5.160158 -5.47916,-6.46212 -339.0464,-138.66381 -678.1105,-277.28481 -1017.14584,-415.97538 -0.197917,0.73958 -0.395833,1.47917 -0.59375,2.21875 z"
         id="path4133"
         inkscape:connector-curvature="0" />
      <path
         style="fill:#ffa500;fill-opacity:1;stroke:none"
         d="m -96.75,-107.78125 c 0.434028,96.802091 0.895794,193.604119 1.3125,290.40625 C 269.83289,132.85089 635.10424,83.083879 1000.375,33.3125 1011.0069,31.081426 997.84497,28.634057 993.39959,28.492585 630.01755,-17.701158 266.62624,-63.825183 -96.75,-110.0625 c 0,0.76042 0,1.52083 0,2.28125 z"
         id="path4135"
         inkscape:connector-curvature="0" />
      <path
         style="fill:#f0e68c;fill-opacity:1;stroke:none"
         d="m -93.71875,178.375 c -4.844411,1.38527 1.91995,10.52967 1.764754,15.0418 C -67.626493,282.61145 -43.291706,371.80411 -18.96875,461 320.99081,318.42384 660.92514,175.787 1000.875,33.1875 c 9.7381,-4.91182 -3.62232,-3.891366 -7.99841,-2.867442 C 630.67814,79.671706 268.4797,129.02335 -93.71875,178.375 z"
         id="path4137"
         inkscape:connector-curvature="0" />
      <path
         style="fill:#9acd32;fill-opacity:1;stroke:none"
         d="M 999.3125,29.5 C 659.3746,172.10322 319.43988,314.71401 -20.5,457.3125 28.661648,541.56971 77.846034,625.81399 126.96875,710.09375 418.44437,484.41113 709.85997,258.65023 1001.3125,32.9375 c 3.5332,-4.634438 5.4802,-4.842875 -2,-3.4375 z"
         id="path4139"
         inkscape:connector-curvature="0" />
      <path
         style="fill:#228b22;fill-opacity:1;stroke:none"
         d="M 998.875,29.75 C 707.42748,255.47968 415.97679,481.20526 124.53125,706.9375 193.84745,775.60024 263.14733,844.27972 332.4375,912.96875 555.51729,619.49731 778.60476,326.0317 1001.6875,32.5625 c 2.1913,-5.370076 4.0582,-6.097601 -2.8125,-2.8125 z"
         id="path4141"
         inkscape:connector-curvature="0" />
      <path
         style="fill:#3cb371;fill-opacity:1;stroke:none"
         d="M 998.5,30.125 C 775.41726,323.5942 552.32979,617.05981 329.25,910.53125 413.92308,958.96985 498.63525,1007.3418 583.34375,1055.7188 722.83159,714.49292 862.41349,373.305 1001.9375,32.09375 c 0.7099,-5.745823 2.336,-6.953044 -3.4375,-1.96875 z"
         id="path4143"
         inkscape:connector-curvature="0" />
      <path
         style="fill:#7fffd4;fill-opacity:1;stroke:none"
         d="M 998.25,30.59375 C 858.70299,371.78946 719.19874,713.00284 579.625,1054.1875 c 94.33988,24.8374 188.68195,49.6672 283.03125,74.4687 46.45955,-365.68861 92.93903,-731.37476 139.40625,-1097.06245 -0.787,-5.739317 0.4726,-7.323547 -3.8125,-1 z"
         id="path4145"
         inkscape:connector-curvature="0" />
      <path
         style="fill:#008080;fill-opacity:1;stroke:none"
         d="M 998.125,31.09375 C 951.63712,396.78009 905.21894,762.4757 858.6875,1128.1562 c 97.56255,-0.4034 195.1249,-0.8778 292.6875,-1.2812 -49.7741,-365.27039 -99.5411,-730.54174 -149.3125,-1095.8125 -2.25476,-5.313952 -1.4165,-7.182336 -3.9375,0.03125 z"
         id="path4147"
         inkscape:connector-curvature="0" />
      <path
         style="fill:#b0e0e6;fill-opacity:1;stroke:none"
         d="m 998.125,31.625 c 49.7521,365.2615 99.5706,730.51433 149.2812,1095.7812 94.1208,-25.6542 188.2266,-51.3637 282.3438,-77.0312 C 1287.1739,710.42584 1144.537,370.50194 1001.9375,30.5625 c -3.56654,-4.629205 -3.25129,-6.532593 -3.8125,1.0625 z"
         id="path4149"
         inkscape:connector-curvature="0" />
      <path
         style="fill:#87ceeb;fill-opacity:1;stroke:none"
         d="m 998.25,32.125 c 142.6032,339.92748 285.2141,679.85177 427.8125,1019.7812 84.257,-49.1516 168.5017,-98.32472 252.7813,-147.43745 C 1453.1611,612.99313 1227.4002,321.57753 1001.6875,30.125 c -4.63444,-3.533224 -4.84287,-5.480195 -3.4375,2 z"
         id="path4151"
         inkscape:connector-curvature="0" />
      <path
         style="fill:#4682b4;fill-opacity:1;stroke:none"
         d="m 998.5,32.5625 c 225.7297,291.44752 451.4553,582.89821 677.1875,874.34375 C 1744.3502,837.59005 1813.0297,768.29017 1881.7188,699 1588.2473,475.92021 1294.7817,252.83274 1001.3125,29.75 995.94242,27.558657 995.2149,25.691769 998.5,32.5625 z"
         id="path4153"
         inkscape:connector-curvature="0" />
      <path
         style="fill:#1e90ff;fill-opacity:1;stroke:#1e90ff;stroke-width:1.58113885;stroke-opacity:1"
         d="m 998.875,32.9375 c 293.4692,223.08274 586.9348,446.17021 880.4062,669.25 48.4489,-84.68361 96.8316,-169.40598 145.2188,-254.125 C 1683.2638,308.58493 1342.0654,169.01362 1000.8438,29.5 c -5.74587,-0.709872 -6.95309,-2.336039 -1.9688,3.4375 z"
         id="path4155"
         inkscape:connector-curvature="0" />
      <path
         style="fill:#6495ed;fill-opacity:1;stroke:none"
         d="m 994.8125,29.96875 c 11.4966,7.652805 25.3634,10.996868 37.853,16.844491 330.0989,134.994709 660.2155,269.946449 990.3033,404.968009 24.8275,-94.33974 49.6458,-188.68209 74.4374,-283.03125 -365.6886,-46.44926 -731.3748,-92.918179 -1097.0624,-139.375 -1.8438,0.197917 -3.68755,0.395833 -5.5313,0.59375 z"
         id="path4157"
         inkscape:connector-curvature="0" />
      <path
         style="fill:#191970;fill-opacity:1;stroke:#000000;stroke-width:0.00316228;stroke-miterlimit:4;stroke-opacity:1;stroke-dasharray:none"
         d="m 2093.3438,-119.625 c -364.5105,49.666667 -729.0209,99.333333 -1093.5313,149 -10.63187,2.231077 2.53,4.678487 6.9754,4.819744 363.3716,46.183402 726.7525,92.296936 1090.1183,138.524006 -0.4033,-97.552136 -0.8778,-195.104114 -1.2812,-292.65625 -0.7604,0.10417 -1.5208,0.20833 -2.2812,0.3125 z"
         id="path4159"
         inkscape:connector-curvature="0" />
      <path
         style="fill:#0000cd;fill-opacity:1;stroke:#0000cd;stroke-width:1.58588231;stroke-miterlimit:4;stroke-opacity:1;stroke-dasharray:none"
         d="M 2017,-397.5625 C 1677.7708,-255.20833 1338.5417,-112.85417 999.3125,29.5 c -9.73812,4.91182 3.6223,3.891366 7.9984,2.867442 362.9495,-49.437103 725.8904,-98.94056 1088.8453,-148.336192 -25.6548,-94.16225 -51.3631,-188.31007 -77.0312,-282.46875 -0.7083,0.29167 -1.4167,0.58333 -2.125,0.875 z"
         id="path4161"
         inkscape:connector-curvature="0" />
      <path
         style="fill:#483d8b;fill-opacity:1;stroke:none"
         d="M 1871.4062,-646.0625 C 1580.5625,-420.79167 1289.7188,-195.52083 998.875,29.75 c -8.13254,7.260714 4.4857,2.868541 8.455,0.729522 337.7758,-141.700552 675.5484,-283.408742 1013.3262,-425.104522 -49.1519,-84.26723 -98.3245,-168.52271 -147.4374,-252.8125 -0.6042,0.45833 -1.2084,0.91667 -1.8126,1.375 z"
         id="path4163"
         inkscape:connector-curvature="0" />
      <path
         style="fill:#9370db;fill-opacity:1;stroke:none"
         d="M 1666.375,-848.46875 C 1443.75,-555.60417 1221.125,-262.73958 998.5,30.125 c -5.96653,9.105124 5.0779,1.617258 8.3466,-1.47392 289.6029,-224.31127 579.2088,-448.61856 868.8096,-672.93233 -69.3159,-68.65261 -138.6163,-137.3211 -207.9062,-206 -0.4583,0.60417 -0.9167,1.20833 -1.375,1.8125 z"
         id="path4165"
         inkscape:connector-curvature="0" />
      <path
         style="fill:#8b008b;fill-opacity:1;stroke:none"
         d="M 1415.9688,-990.9375 C 1276.7292,-650.42708 1137.4896,-309.91667 998.25,30.59375 c -3.38128,10.347459 5.3067,0.210327 7.6737,-3.603946 221.6706,-291.611634 443.3461,-583.219674 665.0138,-874.833554 -84.6836,-48.44884 -169.406,-96.83153 -254.125,-145.21875 -0.2812,0.70833 -0.5625,1.41667 -0.8437,2.125 z"
         id="path4167"
         inkscape:connector-curvature="0" />
      <path
         style="fill:#da70d6;fill-opacity:1;stroke:none"
         d="m 1137.2188,-1063.75 c -46.3646,364.94792 -92.7292,729.89583 -139.0938,1094.84375 -0.60738,10.877052 5.1602,-1.187547 6.4619,-5.47923 138.6535,-339.04637 277.264,-678.1105 415.9443,-1017.14577 -94.3398,-24.83745 -188.6819,-49.66725 -283.0312,-74.46875 -0.094,0.75 -0.1875,1.5 -0.2812,2.25 z"
         id="path4169"
         inkscape:connector-curvature="0" />
      <path
         style="fill:#c71585;fill-opacity:1;stroke:none"
         d="m 851.09375,-1064.1875 c -4.99175,0.757 0.53118,10.6955 -0.21364,15.1622 49.08163,360.21679 98.16326,720.43354 147.24489,1080.6503 2.2311,10.631869 4.6785,-2.530026 4.8197,-6.975434 46.1834,-363.382026 92.297,-726.773346 138.5241,-1090.149566 -96.7918,0.4167 -193.58338,0.8785 -290.37505,1.3125 z"
         id="path4171"
         inkscape:connector-curvature="0" />
      <path
         style="fill:#db7093;fill-opacity:1;stroke:none"
         d="m 850.5625,-1064.125 c -93.37525,25.4678 -186.74851,50.943 -280.125,76.40625 142.57616,339.95956 285.213,679.89389 427.8125,1019.84375 4.9118,9.738119 3.8914,-3.622323 2.8674,-7.998411 C 951.68034,-338.82294 902.17688,-701.7638 852.78125,-1064.7188 c -0.73958,0.198 -1.47917,0.3959 -2.21875,0.5938 z"
         id="path4173"
         inkscape:connector-curvature="0" />
      <path
         style="fill:#ffb6c1;fill-opacity:1;stroke:none"
         d="m 572.15625,-988.09375 c -83.61798,48.76496 -167.20884,97.57687 -250.84375,146.3125 225.69295,291.47568 451.46437,582.89121 677.1875,874.34375 7.2607,8.13254 2.8685,-4.485717 0.72959,-8.455016 C 857.52901,-313.67874 715.82085,-651.46179 574.125,-989.25 c -0.65625,0.38542 -1.3125,0.77083 -1.96875,1.15625 z"
         id="path4175"
         inkscape:connector-curvature="0" />
      <path
         style="fill:#b22222;fill-opacity:1;stroke:none"
         d="m 322.875,-842.59375 c -68.13788,68.74755 -136.25608,137.51468 -204.40625,206.25 293.4715,223.09012 586.93704,446.1881 880.40625,669.28125 9.1051,5.966532 1.6173,-5.077925 -1.47392,-8.346631 C 773.08981,-265.01195 548.78252,-554.61786 324.46875,-844.21875 c -0.53125,0.54167 -1.0625,1.08333 -1.59375,1.625 z"
         id="path4177"
         inkscape:connector-curvature="0" />
      <path
         style="fill:#ff6347;fill-opacity:1;stroke:none"
         d="m 119.75,-637.5625 c -48.016345,84.05463 -96.068549,168.08893 -144.0625,252.15625 341.23623,139.48788 682.43459,279.06973 1023.65625,418.59375 10.34745,3.381286 0.2103,-5.306712 -3.60385,-7.673786 C 704.12822,-196.16734 412.52022,-417.85322 120.90625,-639.53125 c -0.38542,0.65625 -0.77083,1.3125 -1.15625,1.96875 z"
         id="path4179"
         inkscape:connector-curvature="0" />
    </g>
    <g
       inkscape:groupmode="layer"
       id="layer2"
       inkscape:label="light"
       style="display:inline" />
    <rect
       style="fill:#ffffff;fill-opacity:1;stroke:#ffffff;stroke-width:2.50000000000000000;stroke-linecap:butt;stroke-linejoin:miter;stroke-miterlimit:4;stroke-opacity:1;stroke-dasharray:none;stroke-dashoffset:0;opacity:0.44855967"
       id="rect3896"
       width="2438.1042"
       height="319.61227"
       x="-231.93103"
       y="-114.19091"
       ry="0.94508576" />
  </g>
  <g
     inkscape:groupmode="layer"
     id="layer3"
     inkscape:label="mask"
     style="display:inline"
     transform="translate(0,-192)">
    <g
       style="display:inline"
       id="mask_group"
       transform="matrix(1.6659016,0,0,1.6659016,945.73942,166.99221)">
      <g
         style="fill:none;stroke:none;display:inline"
         id="eyes"
         transform="matrix(0.09628644,0,0,0.09628644,-13.900612,-8.2957126)">
        <path
           inkscape:connector-curvature="0"
           id="path3911"
           d="m 290.22501,383.61826 c 20.26573,-0.36718 40.73803,7.19583 59.875,14.1875 16.78643,6.13291 31.49775,16.91475 46.90625,25.96875 10.4842,6.16049 30.96875,19.28125 30.96875,19.28125 0,0 -38.82581,37.01847 -66.03125,43.375 -32.32466,7.55263 -60.041,1.91037 -89.21875,-21.40625 -16.83219,-13.45099 -39.0625,-56.3125 -39.0625,-56.3125 0,0 30.15123,-21.96471 47.90625,-24.4375 2.88277,-0.40149 5.76115,-0.6038 8.65625,-0.65625 z"
           style="fill:none;stroke:none" />
        <path
           inkscape:connector-curvature="0"
           id="path3905"
           d="m 662.31876,383.61826 c 3.62101,-0.0338 7.24028,0.15439 10.84375,0.65625 17.75502,2.47279 47.90625,24.4375 47.90625,24.4375 0,0 -22.23031,42.86151 -39.0625,56.3125 -29.17775,23.31662 -56.92534,28.95888 -89.25,21.40625 -27.20544,-6.35653 -66,-43.375 -66,-43.375 0,0 20.48455,-13.12076 30.96875,-19.28125 15.4085,-9.054 30.11982,-19.83584 46.90625,-25.96875 18.4535,-6.74197 38.13407,-14.00499 57.6875,-14.1875 z"
           style="fill:none;stroke:none" />
      </g>
      <g
         transform="matrix(0.09628644,0,0,0.09628644,-13.900612,-8.2957126)"
         id="outline"
         style="fill:none;stroke:#000000;stroke-width:34.52383041;stroke-miterlimit:4;stroke-opacity:1;stroke-dasharray:none;display:inline">
        <path
           inkscape:connector-curvature="0"
           id="path3871"
           transform="translate(97.225014,196.27451)"
           d="m 169.96875,100.5 c -14.66639,0.16945 -30.93901,3.67114 -41.0625,13.9375 -22.89313,23.21621 -29.64336,61.08236 -28.21875,93.65625 1.91143,43.70495 20.52619,88.39789 48.6875,121.875 19.75254,23.48109 47.70677,47.2892 78.375,48.28125 22.51282,0.72824 41.91608,-17.81666 59.6875,-31.65625 14.782,-11.51158 34.87713,-24.90852 54.125,-32.9375 19.40436,-8.09426 38.18432,-8.06391 38.53125,-8.0625 0,0 0.0595,10e-6 0.0625,0 0.33473,-10e-4 19.15169,-0.0344 38.5625,8.0625 19.24787,8.02898 39.31175,21.42592 54.09375,32.9375 17.77142,13.83959 37.20593,32.38449 59.71875,31.65625 30.66823,-0.99205 58.62246,-24.80016 78.375,-48.28125 28.16131,-33.47711 46.77607,-78.17005 48.6875,-121.875 1.42461,-32.57389 -5.32562,-70.44004 -28.21875,-93.65625 -10.79839,-10.95078 -28.62313,-14.18317 -44,-13.90625 -26.27537,0.47319 -48.88701,15.70649 -74.25,26.46875 -34.56835,14.66836 -57.60153,32.85381 -91.96875,43.34375 -17.59464,5.37044 -29.55939,4.21929 -40.6875,4.4375 -0.22725,-0.006 -0.4596,0.004 -0.6875,0 -11.12811,-0.21821 -23.06161,0.93294 -40.65625,-4.4375 C 304.75778,159.85381 281.7246,141.66836 247.15625,127 221.79326,116.23774 199.15037,101.00444 172.875,100.53125 c -0.96105,-0.0173 -1.92849,-0.0426 -2.90625,-0.0312 z M 193,187.34375 c 20.26573,-0.36718 40.73803,7.19583 59.875,14.1875 16.78643,6.13291 31.49775,16.91475 46.90625,25.96875 10.4842,6.16049 30.96875,19.28125 30.96875,19.28125 0,0 -38.82581,37.01847 -66.03125,43.375 -32.32466,7.55263 -60.041,1.91037 -89.21875,-21.40625 -16.83219,-13.45099 -39.0625,-56.3125 -39.0625,-56.3125 0,0 30.15123,-21.96471 47.90625,-24.4375 2.88277,-0.40149 5.76115,-0.6038 8.65625,-0.65625 z m 372.09375,0 c 3.62101,-0.0338 7.24028,0.15439 10.84375,0.65625 17.75502,2.47279 47.90625,24.4375 47.90625,24.4375 0,0 -22.23031,42.86151 -39.0625,56.3125 -29.17775,23.31662 -56.92534,28.95888 -89.25,21.40625 -27.20544,-6.35653 -66,-43.375 -66,-43.375 0,0 20.48455,-13.12076 30.96875,-19.28125 15.4085,-9.054 30.11982,-19.83584 46.90625,-25.96875 18.4535,-6.74197 38.13407,-14.00499 57.6875,-14.1875 z"
           style="fill:none;stroke:#000000;stroke-width:34.52383041;stroke-miterlimit:4;stroke-opacity:1;stroke-dasharray:none" />
      </g>
      <path
         inkscape:connector-curvature="0"
         id="mask"
         d="m 12.102284,20.301441 c -1.480584,-0.02666 -3.1790105,0.289339 -4.2187498,1.34375 -2.2042975,2.235407 -2.8559206,5.863576 -2.71875,9 0.1840448,4.208194 1.975948,8.526608 4.6875004,11.75 1.9019014,2.260911 4.5783144,4.529479 7.5312494,4.625 2.167679,0.07012 4.038854,-1.698685 5.75,-3.03125 1.423307,-1.108409 3.365441,-2.414418 5.21875,-3.1875 1.885814,-0.786641 3.71875,-0.75 3.71875,-0.75 0,0 1.832936,-0.03664 3.71875,0.75 1.853309,0.773082 3.764193,2.079091 5.1875,3.1875 1.711146,1.332565 3.582321,3.10137 5.75,3.03125 2.952935,-0.09552 5.660598,-2.364089 7.5625,-4.625 2.711552,-3.223392 4.503455,-7.541806 4.6875,-11.75 0.13717,-3.136424 -0.514452,-6.764593 -2.71875,-9 -1.039739,-1.054411 -2.769416,-1.37041 -4.25,-1.34375 -2.529962,0.04556 -4.714138,1.49499 -7.15625,2.53125 -3.328463,1.412364 -5.534652,3.177461 -8.84375,4.1875 -1.697948,0.518262 -2.832701,0.375 -3.9375,0.375 -1.104799,0 -2.270802,0.143262 -3.96875,-0.375 -3.309098,-1.010039 -5.515287,-2.775136 -8.84375,-4.1875 -2.442112,-1.03626 -4.626288,-2.485688 -7.15625,-2.53125 z m 1.9375,8.34375 c 1.951314,-0.03535 3.938619,0.701798 5.78125,1.375 1.616305,0.590516 3.01637,1.628222 4.5,2.5 1.009486,0.593172 3,1.84375 3,1.84375 0,0 -3.755485,3.575452 -6.375,4.1875 -3.112427,0.727216 -5.784328,0.182574 -8.59375,-2.0625 -1.620711,-1.295148 -3.7499996,-5.4375 -3.7499996,-5.4375 0,0 2.9154316,-2.105654 4.6249996,-2.34375 0.277572,-0.03866 0.533741,-0.05745 0.8125,-0.0625 z m 36.03125,0 c 0.278759,0.0051 0.566178,0.02384 0.84375,0.0625 1.709568,0.238096 4.625,2.34375 4.625,2.34375 0,0 -2.160539,4.142352 -3.78125,5.4375 -2.809422,2.245074 -5.481323,2.789716 -8.59375,2.0625 -2.619515,-0.612048 -6.34375,-4.1875 -6.34375,-4.1875 0,0 1.959264,-1.250578 2.96875,-1.84375 1.48363,-0.871778 2.914945,-1.909484 4.53125,-2.5 1.842631,-0.673202 3.798686,-1.410354 5.75,-1.375 z"
         style="fill:#696969;fill-opacity:1;stroke:none" />
      <g
         style="opacity:0.67181468;display:inline"
         id="lighting"
         transform="matrix(0.13780541,0,0,0.13780541,-3.079568,-1.0127332)"
         clip-path="url(#clipPath3159)">
        <path
           style="fill:url(#linearGradient3799);fill-opacity:1;stroke:none"
           d="M 48,144 200,144 96,360 56,296 z"
           id="path4032"
           inkscape:connector-curvature="0" />
        <rect
           y="124.25651"
           x="117.88771"
           height="174.15863"
           width="274.72458"
           id="rect4036"
           style="opacity:0.50193092;fill:url(#radialGradient3801);fill-opacity:1;stroke:none" />
        <rect
           style="opacity:0.49420848;fill:url(#radialGradient3803);fill-opacity:1;stroke:none"
           id="rect4048"
           width="176"
           height="150.58582"
           x="168"
           y="225.41418" />
        <path
           inkscape:connector-curvature="0"
           id="path4018"
           d="m 464,144 -154.11742,0 105.44876,216 40.55722,-64 z"
           style="fill:url(#linearGradient3805);fill-opacity:1;stroke:none" />
      </g>
    </g>
  </g>
</svg>
